<svg xmlns="http://www.w3.org/2000/svg" xmlns:xlink="http://www.w3.org/1999/xlink" width="1920" height="1356" viewBox="0 0 1920 1356"><defs><style>.a{fill:#fff;}.b{clip-path:url(#a);}.c{fill:url(#b);}.d{fill:url(#e);}.e{fill:rgba(0,0,0,0.17);}.f{filter:url(#f);}.g{filter:url(#c);}</style><clipPath id="a"><rect class="a" width="1920" height="1356" transform="translate(-3497 7543)"/></clipPath><linearGradient id="b" x1="0.159" y1="0.181" x2="1" y2="0.572" gradientUnits="objectBoundingBox"><stop offset="0" stop-color="#4956d5"/><stop offset="1" stop-color="#2f3eca"/></linearGradient><filter id="c" x="-55.981" y="-3.496" width="2123.827" height="1125.158" filterUnits="userSpaceOnUse"><feOffset dy="-15" input="SourceAlpha"/><feGaussianBlur stdDeviation="15" result="d"/><feFlood flood-opacity="0.161"/><feComposite operator="in" in2="d"/><feComposite in="SourceGraphic"/></filter><linearGradient id="e" x1="0.864" y1="0.107" x2="0.151" y2="0.911" gradientUnits="objectBoundingBox"><stop offset="0" stop-color="#1f5cc4"/><stop offset="1" stop-color="#042865"/></linearGradient><filter id="f" x="-72.848" y="60.032" width="2066.617" height="1345.685" filterUnits="userSpaceOnUse"><feOffset dy="-10" input="SourceAlpha"/><feGaussianBlur stdDeviation="20" result="g"/><feFlood flood-opacity="0.4"/><feComposite operator="in" in2="g"/><feComposite in="SourceGraphic"/></filter></defs><g class="b" transform="translate(3497 -7543)"><g class="g" transform="matrix(1, 0, 0, 1, -3497, 7543)"><path class="c" d="M43.771-8.809S419.21,135.562,669.227,135.562c286.98,0,641.343-201.88,991.947-244.833C2078.232-160.366,2077.6-62.086,2077.6-62.086l-93.722,973.248H43.771Z" transform="translate(-54.75 180.5)"/></g><g class="f" transform="matrix(1, 0, 0, 1, -3497, 7543)"><path class="d" d="M-17.988-26.65c4.7-4.788,42.947,13.168,111.152,37.264,106.8,37.732,287.337,90.548,527.1,93.89,274.942,0,683.352-197.539,1019.249-238.691,149.436-18.308,288.6-.551,288.6-.551V1083.217H-17.988S-19.158-25.111-17.988-26.65Z" transform="translate(5.66 272.5)"/></g><path class="e" d="M192.683-298.1,1434.743,785.162H234.316Z" transform="translate(-3925.615 8171.5)"/></g></svg>