<svg xmlns="http://www.w3.org/2000/svg" xmlns:xlink="http://www.w3.org/1999/xlink" width="1920" height="1155" viewBox="0 0 1920 1155"><defs><style>.a{fill:#fff;}.b{clip-path:url(#a);}.c{fill:url(#b);}.d{fill:url(#e);}.e{filter:url(#f);}.f{filter:url(#c);}</style><clipPath id="a"><rect class="a" width="1920" height="1155" transform="translate(-3430 9144)"/></clipPath><linearGradient id="b" x1="1" y1="0.214" x2="-0.057" y2="0.654" gradientUnits="objectBoundingBox"><stop offset="0" stop-color="#0050d6"/><stop offset="1" stop-color="#fff" stop-opacity="0.922"/></linearGradient><filter id="c" x="-85.791" y="-23.072" width="2090.981" height="970.572" filterUnits="userSpaceOnUse"><feOffset dy="-15" input="SourceAlpha"/><feGaussianBlur stdDeviation="17.5" result="d"/><feFlood flood-opacity="0.141"/><feComposite operator="in" in2="d"/><feComposite in="SourceGraphic"/></filter><linearGradient id="e" x1="1" y1="0.214" x2="0" y2="0.988" gradientUnits="objectBoundingBox"><stop offset="0" stop-color="#132037"/><stop offset="1" stop-color="#5947b4"/></linearGradient><filter id="f" x="-84.809" y="47.148" width="2060.295" height="1135.496" filterUnits="userSpaceOnUse"><feOffset dy="-10" input="SourceAlpha"/><feGaussianBlur stdDeviation="12.5" result="g"/><feFlood flood-opacity="0.302"/><feComposite operator="in" in2="g"/><feComposite in="SourceGraphic"/></filter></defs><g class="b" transform="translate(3430 -9144)"><g class="f" transform="matrix(1, 0, 0, 1, -3430, 9144)"><path class="c" d="M-23.62,72.339S210.742-113.847,517.211-107.409,960.721,29.721,1240.505,73.884c358.67,56.615,721.856-19.151,721.856-19.151L1946.643,758H.324Z" transform="translate(-9.67 152)"/></g><g class="e" transform="matrix(1, 0, 0, 1, -3430, 9144)"><path class="d" d="M0,47.949s210.418-161.3,516.887-155.371S960.4,18.9,1240.182,59.58c358.67,52.152,706.138-11.63,706.138-11.63V952.914H-38.976Z" transform="translate(-8.33 202.23)"/></g></g></svg>