<svg xmlns="http://www.w3.org/2000/svg" xmlns:xlink="http://www.w3.org/1999/xlink" width="1920" height="1995" viewBox="0 0 1920 1995"><defs><style>.a{fill:#fff;}.b{clip-path:url(#a);}.c{fill:url(#b);}.d{fill:url(#e);}.e{fill:rgba(0,0,0,0.17);}.f{fill:url(#h);}.g{fill:url(#k);}.h{fill:url(#n);}.i{fill:url(#q);}.j{filter:url(#r);}.k{filter:url(#o);}.l{filter:url(#l);}.m{filter:url(#i);}.n{filter:url(#f);}.o{filter:url(#c);}</style><clipPath id="a"><rect class="a" width="1920" height="1995" transform="translate(-3950 3175)"/></clipPath><linearGradient id="b" x1="0.159" y1="0.181" x2="1" y2="0.572" gradientUnits="objectBoundingBox"><stop offset="0" stop-color="#4956d5"/><stop offset="1" stop-color="#2f3eca"/></linearGradient><filter id="c" x="-71.981" y="139.504" width="2123.827" height="1125.158" filterUnits="userSpaceOnUse"><feOffset dy="-15" input="SourceAlpha"/><feGaussianBlur stdDeviation="15" result="d"/><feFlood flood-opacity="0.161"/><feComposite operator="in" in2="d"/><feComposite in="SourceGraphic"/></filter><linearGradient id="e" x1="0.864" y1="0.107" x2="0.151" y2="0.911" gradientUnits="objectBoundingBox"><stop offset="0" stop-color="#1f5cc4"/><stop offset="1" stop-color="#042865"/></linearGradient><filter id="f" x="-88.848" y="203.031" width="2066.617" height="1345.685" filterUnits="userSpaceOnUse"><feOffset dy="-10" input="SourceAlpha"/><feGaussianBlur stdDeviation="20" result="g"/><feFlood flood-opacity="0.4"/><feComposite operator="in" in2="g"/><feComposite in="SourceGraphic"/></filter><linearGradient id="h" x1="1" y1="0.214" x2="-0.057" y2="0.654" gradientUnits="objectBoundingBox"><stop offset="0" stop-color="#0050d6"/><stop offset="1" stop-color="#fff" stop-opacity="0.922"/></linearGradient><filter id="i" x="-101.791" y="997.928" width="2090.981" height="970.572" filterUnits="userSpaceOnUse"><feOffset dy="-15" input="SourceAlpha"/><feGaussianBlur stdDeviation="17.5" result="j"/><feFlood flood-opacity="0.141"/><feComposite operator="in" in2="j"/><feComposite in="SourceGraphic"/></filter><linearGradient id="k" x1="1" y1="0.214" x2="0" y2="0.988" gradientUnits="objectBoundingBox"><stop offset="0" stop-color="#132037"/><stop offset="1" stop-color="#5947b4"/></linearGradient><filter id="l" x="-61.833" y="1068.148" width="2021.32" height="872.352" filterUnits="userSpaceOnUse"><feOffset dy="-10" input="SourceAlpha"/><feGaussianBlur stdDeviation="12.5" result="m"/><feFlood flood-opacity="0.302"/><feComposite operator="in" in2="m"/><feComposite in="SourceGraphic"/></filter><linearGradient id="n" x1="0.864" y1="0.107" x2="0.151" y2="0.911" gradientUnits="objectBoundingBox"><stop offset="0" stop-color="#5d43c9"/><stop offset="1" stop-color="#00235e"/></linearGradient><filter id="o" x="-222.348" y="1631.983" width="2520.815" height="1033.886" filterUnits="userSpaceOnUse"><feOffset dy="-20" input="SourceAlpha"/><feGaussianBlur stdDeviation="17.5" result="p"/><feFlood flood-opacity="0.251"/><feComposite operator="in" in2="p"/><feComposite in="SourceGraphic"/></filter><linearGradient id="q" x1="0.864" y1="0.107" x2="0.151" y2="0.911" gradientUnits="objectBoundingBox"><stop offset="0" stop-color="#2868d7"/><stop offset="1" stop-color="#00235e"/></linearGradient><filter id="r" x="-229.848" y="1677.648" width="2519.651" height="878.192" filterUnits="userSpaceOnUse"><feOffset dy="-15" input="SourceAlpha"/><feGaussianBlur stdDeviation="20" result="s"/><feFlood flood-opacity="0.251"/><feComposite operator="in" in2="s"/><feComposite in="SourceGraphic"/></filter></defs><g class="b" transform="translate(3950 -3175)"><g class="o" transform="matrix(1, 0, 0, 1, -3950, 3175)"><path class="c" d="M43.771-8.809S419.21,135.562,669.227,135.562c286.98,0,641.343-201.88,991.947-244.833C2078.232-160.366,2077.6-62.086,2077.6-62.086l-93.722,973.248H43.771Z" transform="translate(-70.75 323.5)"/></g><g class="n" transform="matrix(1, 0, 0, 1, -3950, 3175)"><path class="d" d="M-17.988-26.65c4.7-4.788,42.947,13.168,111.152,37.264,106.8,37.732,287.337,90.548,527.1,93.89,274.942,0,683.352-197.539,1019.249-238.691,149.436-18.308,288.6-.551,288.6-.551V1083.217H-17.988S-19.158-25.111-17.988-26.65Z" transform="translate(-10.34 415.5)"/></g><path class="e" d="M192.683-298.1,1434.743,785.162H234.316Z" transform="translate(-4394.615 3946.5)"/><g class="m" transform="matrix(1, 0, 0, 1, -3950, 3175)"><path class="f" d="M-23.62,72.339S210.742-113.847,517.211-107.409,960.721,29.721,1240.505,73.884c358.67,56.615,721.856-19.151,721.856-19.151L1946.643,758H.324Z" transform="translate(-25.67 1173)"/></g><g class="l" transform="matrix(1, 0, 0, 1, -3950, 3175)"><path class="g" d="M0,47.949s210.418-161.3,516.887-155.371S960.4,18.9,1240.182,59.58c358.67,52.152,706.138-11.63,706.138-11.63V689.77H0Z" transform="translate(-24.33 1223.23)"/></g><g class="k" transform="matrix(1, 0, 0, 1, -3950, 3175)"><path class="h" d="M-17.988-77.855C-5.9-84.722,227.856-7.739,620.259-4.687c274.942,0,343.707-50.211,679.6-73.169C1653.431-103.192,2358.177,85.669,2358.177,85.669l39.13,763.022L958.522,404.133-17.988,356.191S-19.158-77-17.988-77.855Z" transform="translate(-151.34 1784.68)"/></g><g class="j" transform="matrix(1, 0, 0, 1, -3950, 3175)"><path class="i" d="M-17.988-77.855C-5.9-84.722,227.856-7.739,620.259-4.687c274.942,0,343.707-50.211,679.6-73.169,353.568-25.337,1081.28,179.1,1081.28,179.1v576.92H-17.988S-19.158-77-17.988-77.855Z" transform="translate(-151.34 1832.68)"/></g></g></svg>