<svg xmlns="http://www.w3.org/2000/svg" xmlns:xlink="http://www.w3.org/1999/xlink" width="1920" height="843" viewBox="0 0 1920 843"><defs><style>.a{fill:#fff;}.b{clip-path:url(#a);}.c{fill:url(#b);}.d{fill:url(#e);}.e{filter:url(#f);}.f{filter:url(#c);}</style><clipPath id="a"><rect class="a" width="1920" height="843" transform="translate(-3397 11505)"/></clipPath><linearGradient id="b" x1="0.864" y1="0.107" x2="0.151" y2="0.911" gradientUnits="objectBoundingBox"><stop offset="0" stop-color="#5d43c9"/><stop offset="1" stop-color="#00235e"/></linearGradient><filter id="c" x="-198.848" y="-18.517" width="2505.815" height="1018.886" filterUnits="userSpaceOnUse"><feOffset dy="-15" input="SourceAlpha"/><feGaussianBlur stdDeviation="15" result="d"/><feFlood flood-opacity="0.251"/><feComposite operator="in" in2="d"/><feComposite in="SourceGraphic"/></filter><linearGradient id="e" x1="0.864" y1="0.107" x2="0.151" y2="0.911" gradientUnits="objectBoundingBox"><stop offset="0" stop-color="#2868d7"/><stop offset="1" stop-color="#00235e"/></linearGradient><filter id="f" x="-213.848" y="14.647" width="2519.651" height="878.192" filterUnits="userSpaceOnUse"><feOffset dy="-15" input="SourceAlpha"/><feGaussianBlur stdDeviation="20" result="g"/><feFlood flood-opacity="0.251"/><feComposite operator="in" in2="g"/><feComposite in="SourceGraphic"/></filter></defs><g class="b" transform="translate(3397 -11505)"><g transform="translate(13 4895)"><g class="f" transform="matrix(1, 0, 0, 1, -3410, 6610)"><path class="c" d="M-17.988-77.855C-5.9-84.722,227.856-7.739,620.259-4.687c274.942,0,343.707-50.211,679.6-73.169C1653.431-103.192,2358.177,85.669,2358.177,85.669l39.13,763.022L958.522,404.133-17.988,356.191S-19.158-77-17.988-77.855Z" transform="translate(-135.34 121.68)"/></g><g class="e" transform="matrix(1, 0, 0, 1, -3410, 6610)"><path class="d" d="M-17.988-77.855C-5.9-84.722,227.856-7.739,620.259-4.687c274.942,0,343.707-50.211,679.6-73.169,353.568-25.337,1081.28,179.1,1081.28,179.1v576.92H-17.988S-19.158-77-17.988-77.855Z" transform="translate(-135.34 169.68)"/></g></g></g></svg>