<svg xmlns="http://www.w3.org/2000/svg" xmlns:xlink="http://www.w3.org/1999/xlink" width="155.543" height="157.839" viewBox="0 0 155.543 157.839">
  <defs>
    <linearGradient id="linear-gradient6" x1="0.982" y1="0.196" x2="0.021" y2="0.931" gradientUnits="objectBoundingBox">
      <stop offset="0" stop-color="#7cdbf2"/>
      <stop offset="1" stop-color="#f7f7f7"/>
    </linearGradient>
    <filter id="Exclusion_7" x="0" y="0" width="155.543" height="157.839" filterUnits="userSpaceOnUse">
      <feOffset dy="7" input="SourceAlpha"/>
      <feGaussianBlur stdDeviation="7.5" result="blur"/>
      <feFlood flood-opacity="0.204"/>
      <feComposite operator="in" in2="blur"/>
      <feComposite in="SourceGraphic"/>
    </filter>
  </defs>
  <g transform="matrix(1, 0, 0, 1, 0, 0)" filter="url(#Exclusion_7)">
    <path id="Exclusion_7-2" data-name="Exclusion 7" d="M21.191,112.839h0a19.757,19.757,0,0,0,2.285-3.639,20.662,20.662,0,0,1,3.74-4.669,18.659,18.659,0,0,0,2.931-5.306l-.011,0a1.017,1.017,0,0,0-.294-.056,3.313,3.313,0,0,0-.458.059c-.112-.143-.112-.143.118-2.012a13.937,13.937,0,0,0-.1-2.068c0-.705.054-1.421.106-2.114l0-.033a18.951,18.951,0,0,0,.061-3.215l-.509-5.656c.119.184.119.184.247.994a.873.873,0,0,0,.272-.454,21.8,21.8,0,0,1,.3,8.158l0,.039a37.746,37.746,0,0,0-.222,4.611l.009-.005a1.594,1.594,0,0,1,.547-.2.8.8,0,0,1,.166.025l.012-.023a29.3,29.3,0,0,0,1.336-2.812l0,.024c0,.017,0,.032,0,.046l.009-.053c.006-.035.012-.07.018-.106,0,.017-.008.034-.013.051.007-.049.018-.1.033-.16a1.623,1.623,0,0,0,.038-.186V93.92l.144-.986,0-.023c.059-.442.133-.992.241-2.482a4.668,4.668,0,0,1-.176.914c-.1-.2-.1-.2,0-1.8-.051.509-.051.509-.085.732a22.432,22.432,0,0,1,0-4.212l0-.02a19.218,19.218,0,0,1,.264,4.351v.223c.01-.3.023-.626.037-.965v-.008l.009-.22V89.37c.042-1.026.085-2.088.08-2.977-.017-.284-.034-.591-.051-.908V85.48l0-.093,0-.032c-.058-1.082-.124-2.308-.231-3.273L32,81.89l-.014-.092c-.042-.277-.082-.538-.127-.789l.051.151c-.076-.675-.212-1.333-.344-1.969l-.006-.028.006.038c.094.559.187,1.118.292,1.808a30.557,30.557,0,0,1-1-4.813v.048c-1.589-4.932-1.589-4.932-1.615-5.171a27.333,27.333,0,0,0-1.572-3.6l-1.7-3.11-.013-.016c-.137-.213-.283-.441-.435-.679l-.159-.249c-.511-.8-1.089-1.711-1.586-2.38l-.053-.068a43.9,43.9,0,0,0-4.833-5.683l-1.972-1.869a2.5,2.5,0,0,0-.22-.191,12.058,12.058,0,0,0,.934.947,4.877,4.877,0,0,1-.408-.286,4.523,4.523,0,0,0,.968.922l-.077.048c-.659-.5-1.282-1.065-1.884-1.608l-.014-.012c-.342-.308-.7-.626-1.05-.931l.037-.07c.313.206.64.408.975.6-.275-.265-.568-.532-.873-.792A316.041,316.041,0,0,1,36.687,17.825C43.313,8.616,48.991,1.98,51.152.919A8.328,8.328,0,0,1,55.022,0C60.7,0,68.1,5.1,76.418,14.747A144.369,144.369,0,0,1,87.667,29.861a196.041,196.041,0,0,1,10.1,17.327,141.9,141.9,0,0,1,10.916,26.727,48.252,48.252,0,0,1,1.838,10.559c.118,3.115-.334,5.535-1.344,7.194a5.681,5.681,0,0,1-5.215,2.708c-.172,0-.35-.005-.544-.015-1.672-.033-3.306-.049-4.855-.049-9.791,0-16.894.668-23.753,2.232-6.655,1.519-12.961,3.84-21.689,7.052-3.143,1.157-7.055,2.6-11.38,4.134A90.3,90.3,0,0,1,21.191,112.839ZM31.235,77.361h0c.092.589.215,1.182.334,1.756l0,.021.005.025A28.148,28.148,0,0,0,30.5,74.525c-.113-.327-.2-.575-.281-.8.553,1.783.589,1.919.819,2.8l0,.013.014.057c-.011-.03-.02-.06-.029-.089l-.023-.076.226.947,0-.019Zm10.637-5.14a3.607,3.607,0,0,0-1.737.419A3.117,3.117,0,0,0,38.921,73.8a3.347,3.347,0,0,0,0,3.321,3.117,3.117,0,0,0,1.215,1.161,3.814,3.814,0,0,0,3.474,0,3.126,3.126,0,0,0,1.215-1.156,3.364,3.364,0,0,0,0-3.33A3.13,3.13,0,0,0,43.61,72.64,3.607,3.607,0,0,0,41.873,72.221Zm27.477.09v6.3h4.725V77.63H70.52V75.893h3.042V74.93H70.52V73.292h3.429v-.981Zm-6.129,2.034,0,0,3.472,4.264h.963v-6.3H66.5v4.266l-3.474-4.266H62.06v6.3h1.161V74.345Zm-4.032-2.034v6.3h1.17v-6.3Zm-5.391,0v6.3h4.464v-.99H54.968v-5.31Zm-6.129,2.034,0,0,3.472,4.264h.963v-6.3H50.945v4.266l-3.474-4.266h-.963v6.3h1.161V74.345Zm-18.391-3.28h0c.168.448.354.982.589,1.657l.044.126.139.4.148.426-.011-.032-.012-.036c-.028-.086-.06-.182-.092-.287l.008.016.008.016c.008.015.015.031.022.045-.026-.086-.057-.169-.091-.261a3.111,3.111,0,0,1-.13-.407c0,.009.009.018.013.027l.006.014-.529-1.457a1,1,0,0,0-.111-.246Zm30.4-8.6L58.081,66a10.992,10.992,0,0,0,3.611,1.7,16.7,16.7,0,0,0,4.654.653,11.941,11.941,0,0,0,4.728-.841,6.561,6.561,0,0,0,2.914-2.276,5.57,5.57,0,0,0,.971-3.176A4.683,4.683,0,0,0,73.9,58.837,6.328,6.328,0,0,0,71.363,57.1a33.3,33.3,0,0,0-3.8-1.1,17.15,17.15,0,0,1-3.321-1,1.651,1.651,0,0,1-1.087-1.552,1.954,1.954,0,0,1,.942-1.681,5.3,5.3,0,0,1,2.914-.638,11.369,11.369,0,0,1,5.627,1.595l1.45-3.567a11.27,11.27,0,0,0-3.248-1.335,15.708,15.708,0,0,0-3.8-.464,11.826,11.826,0,0,0-4.712.841,6.465,6.465,0,0,0-2.886,2.277,5.679,5.679,0,0,0-.957,3.2,4.8,4.8,0,0,0,1.058,3.248,6.21,6.21,0,0,0,2.538,1.769,33.179,33.179,0,0,0,3.8,1.1c1,.232,1.809.447,2.392.638a4.3,4.3,0,0,1,1.45.769,1.516,1.516,0,0,1,.566,1.2,1.8,1.8,0,0,1-.958,1.58,5.765,5.765,0,0,1-2.957.595,11.7,11.7,0,0,1-3.6-.581A10.88,10.88,0,0,1,59.675,62.462ZM37.49,47.7V68h10.5a10.651,10.651,0,0,0,6.046-1.436,4.71,4.71,0,0,0,2.074-4.1,5.1,5.1,0,0,0-.986-3.176A5.373,5.373,0,0,0,52.4,57.444a4.876,4.876,0,0,0,2.7-4.466,4.518,4.518,0,0,0-1.986-3.857,9.758,9.758,0,0,0-5.7-1.421ZM12.7,112.734h0a16.73,16.73,0,0,1-6.555-2.35A12.213,12.213,0,0,1,2.068,106C-.052,102.172-.547,96.745.6,89.871A97.357,97.357,0,0,1,7.439,68.278,2.681,2.681,0,0,0,7.7,68.6c0,.043.189,4.2.748,4.36-.153,1.281-.153,1.281-.178,1.4a5.9,5.9,0,0,1,1.894,0c.2.733.2.733.2.748l2.711-.843a.8.8,0,0,0,.652-.464,1.189,1.189,0,0,0-.116-1.127c.434-1.673.455-1.681,1.572-2.084,0-1.353,0-1.353.136-1.44a.565.565,0,0,1,.355-.134,1.134,1.134,0,0,1,.518.185,1.16,1.16,0,0,0,.53.188c.324-.537.612-.895.965-.895a.831.831,0,0,1,.531.243c.038.041,3.827,4.113,4.2,5.242.115.354.158.558.071.695-.132.209-.565.265-1.514.387a7.925,7.925,0,0,0,1.282,1.289,1.18,1.18,0,0,0-.011-.653,1.407,1.407,0,0,1-.041-.547h.239a2.486,2.486,0,0,0,.254-.479,2.848,2.848,0,0,1,.213-.42,2.533,2.533,0,0,1-.229-1.058l.238-.056.332.406c-.086-.365-.086-.365-1.369-1.805a1.607,1.607,0,0,0,.059-.231c-.6-.246-1.077-.441-2.685-3.524a.926.926,0,0,1,.374-.286L23.27,71.67l1.1,2.936,1.156,2.473V76.6a8.484,8.484,0,0,0-.365-1.7c-.392-1.838-.392-1.838-.2-1.973A1.867,1.867,0,0,1,26.2,73.945a4.043,4.043,0,0,0,.2-.437h.264a5.229,5.229,0,0,0-.42-2.434,5.4,5.4,0,0,1-.43-2.338.748.748,0,0,1,.229-.036.758.758,0,0,1,.229.036l-.1.206a1.677,1.677,0,0,0,.578.454,1.205,1.205,0,0,1,0,.8,8.577,8.577,0,0,1,.544.8.461.461,0,0,0,.293-.473,1.719,1.719,0,0,0-.231-.573l0-.007a1.163,1.163,0,0,1-.229-.913.947.947,0,0,1,.2-.024c.216,0,.276.124.363.342l-.128.215c.136.2.136.2.331.923l-.136.191a8.984,8.984,0,0,0,.838,1.419,4.78,4.78,0,0,1,1.125,2.837l-.212.112a2.017,2.017,0,0,1-.615-.829c-.242-.473-.471-.919-1.012-.919a1.224,1.224,0,0,0-.284.037.764.764,0,0,1-.179.414,3.566,3.566,0,0,0-.484-.127.832.832,0,0,0,.229.374.857.857,0,0,1-.521.149,1.123,1.123,0,0,0-.422.081,2.621,2.621,0,0,0,0,.517l.229.064h0V74.8a4.992,4.992,0,0,0,1.47,3.327l.169-.167v-.23a1.887,1.887,0,0,1,.4.47,1.47,1.47,0,0,0,.52.541,2.16,2.16,0,0,0,.111-.462,1.326,1.326,0,0,0,.408.255c.186,3.236.215,3.733-.161,4.613-.506,0-.581-.141-.74-.589a.728.728,0,0,0-.425.159c-.811-.055-1.194-.636-1.564-1.2-.386-.585-.784-1.189-1.665-1.189a1.751,1.751,0,0,0-.184.929v.005a2.112,2.112,0,0,1-.105.777l-.238.087c-.363-.25-4.164-3.488-4.428-3.9-.083-.125-.005-.36.119-.5.2-.3.2-.3.051-2.219-.236-.149-.488-.291-.748-.421a.632.632,0,0,1-.425.172,7.833,7.833,0,0,1-1.271-.235,2.752,2.752,0,0,0-.344.389,2.343,2.343,0,0,0-.811-.142,5.029,5.029,0,0,0-1.748.433l-.011,0a5.032,5.032,0,0,1-1.747.432,2.356,2.356,0,0,1-.731-.114h-.272a2.235,2.235,0,0,1-.393.053c-.267,0-.469-.131-.831-.539l-.111-.071a1.77,1.77,0,0,0-.22.191,1.087,1.087,0,0,0-.212.665v.006a1.066,1.066,0,0,1-.2.65,1.947,1.947,0,0,1-.667.405,2.084,2.084,0,0,0-.888.6.725.725,0,0,0-.071.453v.009c0,.057.005.11,0,.158-.12,2.037-.12,2.037-.706,2.308A6.189,6.189,0,0,0,6.24,81.979c-.19.278-1.134,1.792-2.658,4.263l-.017.028-.061.1a3.671,3.671,0,0,0,.326,1.587l0,.006a4.288,4.288,0,0,1,.336,1.351,1.525,1.525,0,0,1-.475.939c-.308.369-.626.751-.374,1.313A28.884,28.884,0,0,0,4.74,94.409l0,.007c.244.446.521.951.773,1.445.3.592,2.57,2.632,3.048,2.632h.011c.8-.07,1.6-.221,2.371-.367l.008,0h.006a17.755,17.755,0,0,1,3.287-.409c.281,0,.561.013.831.04a.491.491,0,0,1,.212.112.8.8,0,0,1,.255.6.823.823,0,0,0,.247.6,1.3,1.3,0,0,0,.813.223,2.109,2.109,0,0,1,.5.063,1.421,1.421,0,0,1-.068,1.59c-.986,2.165-.986,2.165-.85,2.785.237.978.563,2.317-.773,5.266a9.74,9.74,0,0,1-1.54,2.2l-.027.032a15.253,15.253,0,0,0-1.043,1.336c-.035.053-.071.109-.107.168Zm15.93-33.267a.073.073,0,0,0-.042.014.76.76,0,0,0,.162.636.3.3,0,0,0,.094.1c.05,0,.093.007.132.007s.081,0,.131-.007a3.519,3.519,0,0,0,.085-.541v-.064a.193.193,0,0,0-.035.009l-.007,0,0,0a.6.6,0,0,1-.157.035.276.276,0,0,1-.144-.048c-.033,0-.061-.03-.091-.061l0,0a.27.27,0,0,0-.076-.062A.073.073,0,0,0,28.632,79.467ZM25.9,78.249h0a.106.106,0,0,0-.1.047.156.156,0,0,0,.023.152,2.349,2.349,0,0,0,1.368.58l-.131-.153c-.2-.236-.3-.359-.3-.364a.459.459,0,0,0-.178-.1,3.894,3.894,0,0,1-.417-.079Zm-6.96-6.658h0a1.022,1.022,0,0,0-.706.4,1.035,1.035,0,0,0-.025.8.3.3,0,0,0,.132.064c.075.024.153.048.174.143a.944.944,0,0,1,.008.285v.005c0,.045-.007.092-.007.139a.182.182,0,0,0,.161.144c.072,0,.611-.109.629-.518a.762.762,0,0,0,0-.143.928.928,0,0,0-.058-.279l0-.006a1.2,1.2,0,0,1-.051-.193,1.71,1.71,0,0,1-.006-.336v-.011c0-.056.005-.119.005-.179a.329.329,0,0,0-.255-.318Zm-3.643.715c-.11,0-.372.011-.418.108-.015.032,0,.071.032.115a1.11,1.11,0,0,0,.612.247.184.184,0,0,0,.111-.056,2.869,2.869,0,0,0,.212-.239.517.517,0,0,0-.382-.167A1.663,1.663,0,0,0,15.293,72.306Zm3.065-2.64h0l0,.054a2.374,2.374,0,0,0,0,.493.327.327,0,0,1-.162.334.16.16,0,0,0-.068.159.521.521,0,0,0,.076.127s.407.445.433.462a4.547,4.547,0,0,0-.076-1.058,2.176,2.176,0,0,0-.2-.572Zm6.46,33.277h0a33.215,33.215,0,0,0-3.3-1.094,19.015,19.015,0,0,1,3.3,1.092ZM41.873,77.675a2.281,2.281,0,0,1-1.134-.284,2.057,2.057,0,0,1-.792-.792,2.394,2.394,0,0,1,0-2.277,2.062,2.062,0,0,1,.792-.792,2.41,2.41,0,0,1,2.268,0,2.062,2.062,0,0,1,.792.792,2.394,2.394,0,0,1,0,2.277,2.057,2.057,0,0,1-.792.792A2.281,2.281,0,0,1,41.873,77.675ZM12.308,68.918h0a23.042,23.042,0,0,1-2.653-.38l-.02,0-.013,0c-.7-.129-1.422-.262-2.147-.336.556-1.3,1.149-2.631,1.763-3.971l.283.229-.2.143a4.047,4.047,0,0,1,2.395,1.615,3.593,3.593,0,0,1,.6,2.7Zm35.333-4.455H42.16V59.445h5.481c2.483,0,3.741.849,3.741,2.524a2.093,2.093,0,0,1-.943,1.885A5.229,5.229,0,0,1,47.641,64.463Zm-21.75-.205a6.614,6.614,0,0,0-1.728-1.49,6.1,6.1,0,0,1,1.73,1.488v0ZM10.1,64.065h0a1.322,1.322,0,0,0-.673-.246c.294-.635.52-1.119.733-1.571a4.549,4.549,0,0,0,.5-.059l1.2-.373a.406.406,0,0,0-.3-.108,1.551,1.551,0,0,0-.169.013,1.623,1.623,0,0,1-.176.013.52.52,0,0,1-.206-.037.7.7,0,0,1,.034-.489.717.717,0,0,0,.034-.5,2.008,2.008,0,0,0-.09-.191c.547-1.131,1.111-2.269,1.675-3.384a16.062,16.062,0,0,0,1.729,2.493c.286.308.3.35.305.373a.014.014,0,0,1,0,.014c-.012.022-.1.044-.253.067l-.5.079-.145.192h-.1c-.694,0-.7.007-.907.182a7.449,7.449,0,0,0,.381,1.265l-.127.215A2.035,2.035,0,0,0,12,62.124a3.347,3.347,0,0,0,.289.692,2.664,2.664,0,0,1-.561.254,1.308,1.308,0,0,1-.12.5c-.055,0-.1.005-.145.005a1.774,1.774,0,0,1-1.07-.355,5.151,5.151,0,0,0,.306.437l-.085.239c-.213.076-.387.132-.518.166Zm6.908-3.428h0a3.967,3.967,0,0,0-1.076-.345l.687.113a1.588,1.588,0,0,0-.928-.3c-.041,0-.077,0-.109,0-.2,0-.238,0-.8-.58a2.706,2.706,0,0,1-.85-1.591c0-.236-.359-1.177-.628-1.209a1.768,1.768,0,0,0-.472.068c.072-.143.144-.285.216-.426l.007-.014.046-.09.093-.18a30.794,30.794,0,0,1,2.261,2.384c.21.34.427.692.85.692a2.451,2.451,0,0,0-.128-1.5c-.562-.988-.431-1.1-.144-1.345,0-.23,0-.326-.757-.8-.5-.3-.516-.316-1.141-1.26l.322-.614.04-.076.145-.276A5.041,5.041,0,0,0,16.3,55.648a3.592,3.592,0,0,0,1.532.711,3.22,3.22,0,0,1,1.333.594,2.461,2.461,0,0,1-.391-.143l-.077.048a2,2,0,0,0,.179.255,9.814,9.814,0,0,0-1.419-.374,16.525,16.525,0,0,1,1.7,1.988.7.7,0,0,1-.541-.345.707.707,0,0,0-.546-.35l-.052,0-.059.08c0,.007.647,1.105.714,1.185.021.025.52.608.493.859h-.391c-.037,0-.051.075-.067.155v.006a.7.7,0,0,1-.035.134l.051.064-.03,0c-.7-.045-1.091-.07-1.279-.07s-.191.024-.194.072l-.213.12Zm29.822-4.613H42.16V51.239h4.669a4.831,4.831,0,0,1,2.639.594,2,2,0,0,1,.9,1.784,2.042,2.042,0,0,1-.9,1.8A4.737,4.737,0,0,1,46.829,56.023Z" transform="translate(22.5 15.5)" fill="url(#linear-gradient6)"/>
  </g>
</svg>
