<svg xmlns="http://www.w3.org/2000/svg" xmlns:xlink="http://www.w3.org/1999/xlink" width="80.195" height="80.08" viewBox="0 0 80.195 80.08">
  <defs>
    <linearGradient id="linear-gradient" x1="-0.009" y1="-0.034" x2="1.506" y2="1.207" gradientUnits="objectBoundingBox">
      <stop offset="0" stop-color="#fff"/>
      <stop offset="1" stop-color="#00c4ff"/>
    </linearGradient>
    <filter id="Ellipse_314" x="9.176" y="13.714" width="58.202" height="58.202" filterUnits="userSpaceOnUse">
      <feOffset dy="5" input="SourceAlpha"/>
      <feGaussianBlur stdDeviation="5" result="blur"/>
      <feFlood flood-color="#588b93"/>
      <feComposite operator="in" in2="blur"/>
      <feComposite in="SourceGraphic"/>
    </filter>
    <linearGradient id="linear-gradient-2" x1="-0.009" y1="-0.034" x2="1.506" y2="1.207" gradientUnits="objectBoundingBox">
      <stop offset="0" stop-color="#d3d6e5"/>
      <stop offset="1" stop-color="#0bb2f0"/>
    </linearGradient>
    <linearGradient id="linear-gradient-3" x1="-0.009" y1="-0.034" x2="0.859" y2="0.969" gradientUnits="objectBoundingBox">
      <stop offset="0" stop-color="#00115a"/>
      <stop offset="1" stop-color="#0094cb"/>
    </linearGradient>
    <filter id="Exclusion_13" x="0" y="0" width="80.195" height="80.08" filterUnits="userSpaceOnUse">
      <feOffset input="SourceAlpha"/>
      <feGaussianBlur stdDeviation="2.5" result="blur-2"/>
      <feFlood flood-color="#0071c4" flood-opacity="0.412"/>
      <feComposite operator="in" in2="blur-2"/>
      <feComposite in="SourceGraphic"/>
    </filter>
  </defs>
  <g id="Group_1199" data-name="Group 1199" transform="translate(0.959 1.993)">
    <path id="Path_2433" data-name="Path 2433" d="M31.7-2.587c16.888,0,41.345,2.8,41.345,19.685S44.249,75.075,27.361,75.075-4.76,47.29-4.76,30.4,14.808-2.587,31.7-2.587Z" transform="translate(4.76 2.587)" fill="url(#linear-gradient)"/>
    <g transform="matrix(1, 0, 0, 1, -0.96, -1.99)" filter="url(#Ellipse_314)">
      <circle id="Ellipse_314-2" data-name="Ellipse 314" cx="14.101" cy="14.101" r="14.101" transform="translate(24.18 23.71)" fill="#fff"/>
    </g>
    <g id="internet" transform="translate(18.721 16.225)">
      <path id="Path_2443" data-name="Path 2443" d="M18.581,0A18.581,18.581,0,1,1,0,18.581,18.581,18.581,0,0,1,18.581,0Z" fill="url(#linear-gradient-2)"/>
      <path id="Path_2438" data-name="Path 2438" d="M445.552,126.834a18.494,18.494,0,0,0-2.988-10.109s-1.06,1.549-.861,2.544,1.369,1.072,1.248,1.8-.983-.209-2.045,1.715-.531,4.58,1,4.778A8.649,8.649,0,0,0,445.552,126.834Z" transform="translate(-408.389 -108.253)" fill="url(#linear-gradient-3)"/>
      <path id="Path_2439" data-name="Path 2439" d="M317.754,8.92a18.5,18.5,0,0,1,5.941,2.827s-2.155-.355-2.971.374-2.006,2.456-2.971,0S317.754,8.92,317.754,8.92Z" transform="translate(-294.293 -8.273)" fill="url(#linear-gradient-3)"/>
      <path id="Path_2440" data-name="Path 2440" d="M63.519,6.331A18.537,18.537,0,0,1,77.49,0s-1.261.763,1.128,2.057,1.294,1.891.8,2.29-1.361-.8-1.925-1.593a5.067,5.067,0,0,0-4.844-1.36c-1.858.664-3.451,1.154-3.185,1.772s3.451-.577,4.645-.511.8.8-.332,1.659S72.513,6.238,73.708,6.9s2.654.73,2.986.332-.6-2.986,1.659-1.858,4.115,1.792,2.256,3.451-3.982,3.517-4.048,4.579.664,1.925.266,1.991-.764-.431-1.029-.8a2.435,2.435,0,0,0-2.09-.266c-.6.232-1.726,1.128-1.095,1.991s1.493.464,2.356.863,1.667,1.914,1.5,2.256-.9-.091-1.5-1.261-1.73-.4-2.524-.6a2.842,2.842,0,0,1-2.188-1.725c-.8-1.394-2.445-1.784-3.119-2.588-1.93-2.3-1.792-4.048-2.19-4.844A16.793,16.793,0,0,0,63.519,6.331Z" transform="translate(-58.909)" fill="url(#linear-gradient-3)"/>
      <path id="Path_2441" data-name="Path 2441" d="M251.324,259.076a6.5,6.5,0,0,1,2.986,1.062,4.438,4.438,0,0,0,2.655,1.527c1.526.332,2.19,1.194,1.195,2.853a33.209,33.209,0,0,1-3.65,5.11c-.862.8-1.924,1.46-2.323,2.787s-.531,2.123.332,2.654c0,0-.464,1.128-1.526-.332s-.2-3.185,0-4.181.73-3.981.4-4.712-1.858-1.195-2.256-2.721S249.433,258.628,251.324,259.076Z" transform="translate(-230.951 -240.229)" fill="url(#linear-gradient-3)"/>
    </g>
    <path id="Exclusion_12" data-name="Exclusion 12" d="M26.917,65.08a16.961,16.961,0,0,1-10.176-3.859,38.125,38.125,0,0,1-8.589-9.552A54.955,54.955,0,0,1,2.216,39.464,37.816,37.816,0,0,1,0,27.645C0,21.039,3.633,14.066,9.968,8.515,16.053,3.183,23.746,0,30.549,0c9.3,0,16.918.99,22.63,2.941C61.152,5.665,65.195,10.226,65.195,16.5c0,3.385-1.38,8.075-3.991,13.562a97.212,97.212,0,0,1-9.841,16.038A77.144,77.144,0,0,1,38.868,59.479a32.577,32.577,0,0,1-6.243,4.094A13.4,13.4,0,0,1,26.917,65.08ZM31.126,3.744c-5.819,0-12.4,2.723-17.607,7.285C8.1,15.777,4.992,21.742,4.992,27.393A32.35,32.35,0,0,0,6.887,37.5a47.007,47.007,0,0,0,5.078,10.441,32.614,32.614,0,0,0,7.348,8.171,14.51,14.51,0,0,0,8.705,3.3c2.865,0,6.3-1.612,10.224-4.792a65.989,65.989,0,0,0,10.689-11.45c7.078-9.415,11.833-19.591,11.833-25.321,0-5.364-3.458-9.265-10.279-11.6C45.6,4.59,39.086,3.744,31.126,3.744Z" transform="translate(6.54 5.507)" fill="url(#linear-gradient-3)"/>
    <g transform="matrix(1, 0, 0, 1, -0.96, -1.99)" filter="url(#Exclusion_13)">
      <path id="Exclusion_13-2" data-name="Exclusion 13" d="M26.917,65.08a16.961,16.961,0,0,1-10.176-3.859,38.125,38.125,0,0,1-8.589-9.552A54.955,54.955,0,0,1,2.216,39.464,37.816,37.816,0,0,1,0,27.645C0,21.039,3.633,14.066,9.968,8.515,16.053,3.183,23.746,0,30.549,0c9.3,0,16.918.99,22.63,2.941C61.152,5.665,65.195,10.226,65.195,16.5c0,3.385-1.38,8.075-3.991,13.562a97.212,97.212,0,0,1-9.841,16.038A77.144,77.144,0,0,1,38.868,59.479a32.577,32.577,0,0,1-6.243,4.094A13.4,13.4,0,0,1,26.917,65.08ZM31.126,3.744c-5.819,0-12.4,2.723-17.607,7.285C8.1,15.777,4.992,21.742,4.992,27.393A32.35,32.35,0,0,0,6.887,37.5a47.007,47.007,0,0,0,5.078,10.441,32.614,32.614,0,0,0,7.348,8.171,14.51,14.51,0,0,0,8.705,3.3c2.865,0,6.3-1.612,10.224-4.792a65.989,65.989,0,0,0,10.689-11.45c7.078-9.415,11.833-19.591,11.833-25.321,0-5.364-3.458-9.265-10.279-11.6C45.6,4.59,39.086,3.744,31.126,3.744Z" transform="translate(7.5 7.5)" fill="url(#linear-gradient-3)"/>
    </g>
  </g>
</svg>
