<svg xmlns="http://www.w3.org/2000/svg" xmlns:xlink="http://www.w3.org/1999/xlink" width="366" height="1080" viewBox="0 0 366 1080"><defs><clipPath id="a"><rect width="366" height="1080" transform="translate(8527 6218)" fill="#fff"/></clipPath><linearGradient id="b" x2="1" y2="1" gradientUnits="objectBoundingBox"><stop offset="0" stop-color="#1f5ad1"/><stop offset="1" stop-color="#17387a" stop-opacity="0.839"/></linearGradient><linearGradient id="c" x1="0.224" y1="0.119" x2="0.887" y2="0.811" gradientUnits="objectBoundingBox"><stop offset="0" stop-color="#6ee8fd"/><stop offset="1" stop-color="#2ca6bb" stop-opacity="0.549"/></linearGradient><filter id="d" x="266.5" y="567.5" width="87" height="87" filterUnits="userSpaceOnUse"><feOffset dx="5" dy="5" input="SourceAlpha"/><feGaussianBlur stdDeviation="7.5" result="e"/><feFlood flood-opacity="0.161"/><feComposite operator="in" in2="e"/><feComposite in="SourceGraphic"/></filter><filter id="g" x="-103.5" y="656.5" width="218" height="218" filterUnits="userSpaceOnUse"><feOffset dx="5" dy="5" input="SourceAlpha"/><feGaussianBlur stdDeviation="7.5" result="h"/><feFlood flood-opacity="0.161"/><feComposite operator="in" in2="h"/><feComposite in="SourceGraphic"/></filter><filter id="j" x="185.5" y="805.5" width="93" height="93" filterUnits="userSpaceOnUse"><feOffset dx="5" dy="5" input="SourceAlpha"/><feGaussianBlur stdDeviation="7.5" result="k"/><feFlood flood-opacity="0.161"/><feComposite operator="in" in2="k"/><feComposite in="SourceGraphic"/></filter><filter id="m" x="141.5" y="707.5" width="69" height="69" filterUnits="userSpaceOnUse"><feOffset dx="5" dy="5" input="SourceAlpha"/><feGaussianBlur stdDeviation="7.5" result="n"/><feFlood flood-opacity="0.161"/><feComposite operator="in" in2="n"/><feComposite in="SourceGraphic"/></filter><filter id="p" x="311.5" y="743.5" width="55" height="55" filterUnits="userSpaceOnUse"><feOffset dx="5" dy="5" input="SourceAlpha"/><feGaussianBlur stdDeviation="7.5" result="q"/><feFlood flood-opacity="0.161"/><feComposite operator="in" in2="q"/><feComposite in="SourceGraphic"/></filter></defs><g transform="translate(-8527 -6218)" clip-path="url(#a)"><rect width="366" height="1080" transform="translate(8527 6218)" fill="url(#b)"/><g transform="matrix(1, 0, 0, 1, 8527, 6218)" filter="url(#d)"><circle cx="21" cy="21" r="21" transform="translate(284 585)" fill="url(#c)"/></g><g transform="matrix(1, 0, 0, 1, 8527, 6218)" filter="url(#g)"><circle cx="86.5" cy="86.5" r="86.5" transform="translate(-86 674)" fill="url(#c)"/></g><g transform="matrix(1, 0, 0, 1, 8527, 6218)" filter="url(#j)"><circle cx="24" cy="24" r="24" transform="translate(203 823)" fill="url(#c)"/></g><g transform="matrix(1, 0, 0, 1, 8527, 6218)" filter="url(#m)"><circle cx="12" cy="12" r="12" transform="translate(159 725)" fill="url(#c)"/></g><g transform="matrix(1, 0, 0, 1, 8527, 6218)" filter="url(#p)"><circle cx="5" cy="5" r="5" transform="translate(329 761)" fill="url(#c)"/></g></g></svg>