<svg xmlns="http://www.w3.org/2000/svg" width="37.887" height="26.601" viewBox="0 0 37.887 26.601">
  <g id="closed-envelope" transform="translate(2 -128.166)">
    <g id="Group_586" data-name="Group 586" transform="translate(-2 128.166)">
      <path id="Path_1738" data-name="Path 1738" d="M37.887,93.7v-.147a2.426,2.426,0,0,0-.7-1.639l-.051-.051a.05.05,0,0,1-.051-.051c-.1-.1-.2-.147-.3-.249-.051,0-.051-.051-.1-.051-.1-.051-.249-.1-.35-.147-.051,0-.051-.051-.1-.051a1.424,1.424,0,0,0-.446-.1h-.1c-.147,0-.35-.051-.548-.051H2.688a2.41,2.41,0,0,0-.6.051.173.173,0,0,0-.147.051c-.147.051-.3.051-.4.1-.051,0-.051.051-.1.051-.1.051-.249.1-.35.147l-.051.051c-.1.051-.2.147-.3.2L.6,91.962A2.354,2.354,0,0,0,0,93.306v22.324a2.4,2.4,0,0,0,.944,1.639,2.9,2.9,0,0,0,1.639.5H35.3a1.661,1.661,0,0,0,.5-.051h.1c.147-.051.3-.051.4-.1h.051a2.294,2.294,0,0,0,1.542-2.237V93.748S37.887,93.753,37.887,93.7Zm-3.181-.695L19.047,108.266l-3.581-3.48h0L3.185,93H34.706ZM1.846,114.931V94.25l11.581,11.135Zm16.7,1.04H3.484l11.286-9.247,3.627,3.53a1.042,1.042,0,0,0,.446.249h.3a.818.818,0,0,0,.446-.249l3.429-3.333,11.332,9.049H18.55Zm17.5-.994-11.632-9.395L36.046,94.25Z" transform="translate(0 -91.166)" fill="#c8c8c8"/>
    </g>
  </g>
</svg>
