<svg xmlns="http://www.w3.org/2000/svg" width="106.482" height="114.372" viewBox="0 0 106.482 114.372">
  <g id="envelope" transform="translate(-2 0.001)">
    <path id="Path_1733" data-name="Path 1733" d="M108.482,46.452,65.034,3.978a14.041,14.041,0,0,0-19.585,0L2,46.452V114.37H108.482Z" transform="translate(0 0)" fill="#2a55c5"/>
    <path id="Path_1734" data-name="Path 1734" d="M51.973,27.38l-13.8-13.8a1.953,1.953,0,0,0-.643-.428,1.978,1.978,0,0,0-2.149.428l-13.8,13.8a1.972,1.972,0,1,0,2.788,2.788L34.8,19.731V52.437a1.972,1.972,0,1,0,3.944,0V19.731L49.185,30.168a1.972,1.972,0,1,0,2.788-2.788Z" transform="translate(18.466 12.636)" fill="#fff"/>
    <path id="Path_1735" data-name="Path 1735" d="M108.482,76.364,64.008,41.921a16.051,16.051,0,0,0-18.086-.053C30.64,52.242,2,76.364,2,76.364Z" transform="translate(0 38.006)" fill="#86d7fb"/>
    <path id="Path_1736" data-name="Path 1736" d="M47.665,55.55h-.312L2,24V91.044s28.64-24.122,43.92-34.5A16.025,16.025,0,0,1,47.665,55.55Z" transform="translate(0 23.326)" fill="#31b6f3"/>
    <path id="Path_1737" data-name="Path 1737" d="M33.46,55.55h-.933a16.041,16.041,0,0,1,1.81,1.051L78.813,91.044V24Z" transform="translate(29.669 23.326)" fill="#167cd8"/>
  </g>
</svg>
