<svg xmlns="http://www.w3.org/2000/svg" xmlns:xlink="http://www.w3.org/1999/xlink" width="1920" height="683" viewBox="0 0 1920 683"><defs><clipPath id="a"><rect width="1920" height="683" transform="translate(5740 17430)" fill="#fff"/></clipPath><linearGradient id="b" x1="1" y1="0.214" x2="0" y2="1" gradientUnits="objectBoundingBox"><stop offset="0" stop-color="#0050d6"/><stop offset="1" stop-color="#fff"/></linearGradient><linearGradient id="c" x1="1" y1="0.214" x2="0" y2="1" gradientUnits="objectBoundingBox"><stop offset="0" stop-color="#132037"/><stop offset="1" stop-color="#2b1a84"/></linearGradient><filter id="d" x="-37.5" y="-274.852" width="1995" height="872.352" filterUnits="userSpaceOnUse"><feOffset dy="-15" input="SourceAlpha"/><feGaussianBlur stdDeviation="12.5" result="e"/><feFlood flood-opacity="0.4"/><feComposite operator="in" in2="e"/><feComposite in="SourceGraphic"/></filter><clipPath id="f"><rect width="1961.846" height="275" fill="#fff" stroke="#707070" stroke-width="1"/></clipPath><linearGradient id="g" x1="0.864" y1="0.107" x2="0.151" y2="0.911" gradientUnits="objectBoundingBox"><stop offset="0" stop-color="#563fb4"/><stop offset="1" stop-color="#00235e"/></linearGradient><linearGradient id="h" x1="0.864" y1="0.107" x2="0.151" y2="0.911" gradientUnits="objectBoundingBox"><stop offset="0" stop-color="#2868d7"/><stop offset="1" stop-color="#00235e"/></linearGradient><filter id="i" x="-69.482" y="398.488" width="2226.3" height="605.322" filterUnits="userSpaceOnUse"><feOffset dy="-15" input="SourceAlpha"/><feGaussianBlur stdDeviation="20" result="j"/><feFlood flood-opacity="0.251"/><feComposite operator="in" in2="j"/><feComposite in="SourceGraphic"/></filter></defs><g transform="translate(-5740 -17430)" clip-path="url(#a)"><g transform="translate(5740 17139.418)"><path d="M0,61.258S207.573-113.847,509.9-107.409,947.411,29.721,1223.411,73.884C1577.231,130.5,1920,61.258,1920,61.258V758H0Z" transform="translate(0 107.582)" fill="url(#b)"/><g transform="matrix(1, 0, 0, 1, 0, 290.58)" filter="url(#d)"><path d="M0,47.949s207.573-161.3,509.9-155.371,437.513,126.32,713.514,167C1577.231,111.732,1920,47.949,1920,47.949V689.77H0Z" transform="translate(0 -114.77)" fill="url(#c)"/></g></g><g transform="translate(5728.994 17838)" clip-path="url(#f)"><g transform="translate(1.524 0.488)"><path d="M-17.984-77.855C-5.8-84.722,229.822-7.739,625.354-4.687,902.49-4.687,971.8-54.9,1310.38-77.855,1666.769-103.192,2087.792,24.2,2087.792,24.2l-143.38,374.174-978.1,5.761-984.3-47.942S-19.163-77-17.984-77.855Z" transform="translate(18.508 81.189)" fill="url(#g)"/><g transform="matrix(1, 0, 0, 1, 9.48, -408.49)" filter="url(#i)"><path d="M-17.984-77.855C-5.8-84.722,229.822-7.739,625.354-4.687,902.49-4.687,971.8-54.9,1310.38-77.855,1666.769-103.192,2087.792,24.2,2087.792,24.2l-143.38,374.174-978.1,5.761-984.3-47.942S-19.163-77-17.984-77.855Z" transform="translate(9.03 554.68)" fill="url(#h)"/></g></g></g></g></svg>