<svg xmlns="http://www.w3.org/2000/svg" width="48.449" height="31" viewBox="0 0 48.449 31">
  <g id="google-plus" transform="translate(0 -82.52)">
    <g id="Group_576" data-name="Group 576" transform="translate(0 82.519)">
      <path id="Path_1731" data-name="Path 1731" d="M17,101.217h7.569A9.623,9.623,0,1,1,21.956,90.9a1.043,1.043,0,0,0,1.418,0l2.78-2.617a1.039,1.039,0,0,0,0-1.511,15.443,15.443,0,0,0-10.348-4.243A15.5,15.5,0,1,0,30.975,98.891c.012-.1.02-3.558.02-3.558H17a1.039,1.039,0,0,0-1.039,1.039v3.806A1.039,1.039,0,0,0,17,101.217Z" transform="translate(0 -82.519)" fill="#20c4eb"/>
      <path id="Path_1732" data-name="Path 1732" d="M333.439,167.837v-3.719a.91.91,0,0,0-.91-.91H329.4a.91.91,0,0,0-.91.91v3.719H324.77a.91.91,0,0,0-.91.91v3.13a.91.91,0,0,0,.91.91h3.719v3.719a.91.91,0,0,0,.91.91h3.13a.91.91,0,0,0,.91-.91v-3.719h3.719a.91.91,0,0,0,.91-.91v-3.13a.91.91,0,0,0-.91-.91Z" transform="translate(-289.619 -154.677)" fill="#20c4eb"/>
    </g>
  </g>
</svg>
