<svg xmlns="http://www.w3.org/2000/svg" width="47.496" height="26.879" viewBox="0 0 47.496 26.879">
  <g id="vk" transform="translate(0 -111.127)">
    <path id="Path_1728" data-name="Path 1728" d="M40.877,128.217a64.656,64.656,0,0,1,4.651,4.679,13.6,13.6,0,0,1,1.667,2.4c.641,1.241.06,2.607-1.053,2.682l-6.919,0a5.342,5.342,0,0,1-4.405-1.791c-.958-.976-1.845-2.014-2.766-3.023a6.556,6.556,0,0,0-1.245-1.107,1.446,1.446,0,0,0-2.3.56,7.27,7.27,0,0,0-.728,3.228c-.074,1.629-.567,2.058-2.2,2.132a17.7,17.7,0,0,1-9.9-2.129,21.876,21.876,0,0,1-6.662-6.237A83.976,83.976,0,0,1,.24,113.982c-.554-1.232-.149-1.893,1.211-1.917,2.257-.044,4.514-.041,6.774,0a1.99,1.99,0,0,1,1.879,1.406,41.992,41.992,0,0,0,4.591,8.508,7.257,7.257,0,0,0,1.734,1.906,1.054,1.054,0,0,0,1.791-.527,5.9,5.9,0,0,0,.4-1.784,26.574,26.574,0,0,0-.111-6.254,2.607,2.607,0,0,0-2.22-2.385c-.661-.125-.563-.371-.243-.749a2.488,2.488,0,0,1,2.122-1.056h7.82c1.231.243,1.5.8,1.673,2.035l.007,8.686c-.013.479.24,1.9,1.1,2.22.691.226,1.147-.327,1.562-.765a26.934,26.934,0,0,0,4.4-6.767c.53-1.069.985-2.18,1.427-3.289a1.675,1.675,0,0,1,1.768-1.21l7.526.007a3.967,3.967,0,0,1,.665.04c1.268.216,1.616.762,1.224,2a18.791,18.791,0,0,1-2.992,5.189c-1.255,1.737-2.6,3.414-3.842,5.161-1.144,1.6-1.053,2.4.368,3.785Z" transform="translate(0)" fill="#20c4eb"/>
  </g>
</svg>
