<svg xmlns="http://www.w3.org/2000/svg" width="15.66" height="31" viewBox="0 0 15.66 31">
  <g id="facebook" transform="translate(-126.682)">
    <path id="Path_1729" data-name="Path 1729" d="M127.182,16.511h3.4V30.5a.5.5,0,0,0,.5.5h5.762a.5.5,0,0,0,.5-.5V16.577h3.906a.5.5,0,0,0,.5-.443l.593-5.15a.5.5,0,0,0-.5-.557h-4.5V7.2c0-.973.524-1.467,1.558-1.467h2.942a.5.5,0,0,0,.5-.5V.5a.5.5,0,0,0-.5-.5h-4.055c-.029,0-.092,0-.186,0a7.77,7.77,0,0,0-5.08,1.915,5.328,5.328,0,0,0-1.772,4.736v3.775h-3.567a.5.5,0,0,0-.5.5v5.084A.5.5,0,0,0,127.182,16.511Z" transform="translate(0)" fill="#20c4eb"/>
  </g>
</svg>
