<svg xmlns="http://www.w3.org/2000/svg" width="15.805" height="31" viewBox="0 0 15.805 31">
  <g id="yandex" transform="translate(-125.486)">
    <path id="Path_1730" data-name="Path 1730" d="M139.9,0h-4.4c-4.462,0-8.965,3.3-8.965,10.657a9.217,9.217,0,0,0,4.578,8.472l-5.422,9.814a1.408,1.408,0,0,0-.018,1.407,1.341,1.341,0,0,0,1.173.65h2.743a1.39,1.39,0,0,0,1.342-.829l5.084-9.944h.371v9.533A1.255,1.255,0,0,0,137.616,31h2.4a1.223,1.223,0,0,0,1.278-1.278V1.356A1.316,1.316,0,0,0,139.9,0Zm-3.518,15.81h-.655c-2.538,0-4.053-2.072-4.053-5.541,0-4.315,1.914-5.852,3.705-5.852h1Z" fill="#20c4eb"/>
  </g>
</svg>
