<svg xmlns="http://www.w3.org/2000/svg" xmlns:xlink="http://www.w3.org/1999/xlink" width="186.631" height="52" viewBox="0 0 186.631 52">
  <defs>
    <linearGradient id="linear-gradient2" x1="-0.009" y1="-0.034" x2="0.859" y2="0.969" gradientUnits="objectBoundingBox">
      <stop offset="0" stop-color="#fff"/>
      <stop offset="1" stop-color="#fff"/>
    </linearGradient>
  </defs>
  <g id="Group_578" data-name="Group 578" transform="translate(-18395 -7104.001)">
    <path id="Exclusion_10" data-name="Exclusion 10" d="M26,52A26.007,26.007,0,0,1,15.88,2.043,26.007,26.007,0,0,1,36.12,49.957,25.837,25.837,0,0,1,26,52ZM15.582,31.982h0c.249,0,.47.374.675,1.143.045.178.045.178-.3.912a4.956,4.956,0,0,0-.19,1.588c.032.059.058.1.078.137a29.881,29.881,0,0,0,2.276,2.452,3.122,3.122,0,0,0,.809.44,3.672,3.672,0,0,1,.708.361,2.219,2.219,0,0,1,.747,1.406,16.391,16.391,0,0,0,1.918,4.823c1.238,1.73,2.432,1.916,2.888,1.916a.924.924,0,0,0,.154-.01c-1.431-.742-1.431-.742-1.3-1.336-.2-.211-.2-.211-.576-1.239h0a.246.246,0,0,1,.083-.012c.041,0,.108,0,.243.014,0-.026,0-.026-.329-.474.25-.222.25-.222.231-.4l.063-.041a.623.623,0,0,0,.183.03.323.323,0,0,0,.3-.165.26.26,0,0,0,0-.262l-.131-.182c1.019-.026,1.446-2.46,1.446-2.485a1.331,1.331,0,0,1,.688-.557.788.788,0,0,0,.4-.461,1.1,1.1,0,0,1,.214-.336.338.338,0,0,1,.24-.1.343.343,0,0,1,.063.006h0c.144,0,.156,0,.175-.119a3.5,3.5,0,0,0,.019-.493,4.023,4.023,0,0,1,.011-.427.973.973,0,0,0-.018-.161A.448.448,0,0,1,27.4,37.6l.012-.017c.105-.156.169-.25.079-.376a.223.223,0,0,1-.045-.085A2.1,2.1,0,0,0,28.6,35.9v-.037a.71.71,0,0,0-.06-.1.446.446,0,0,1-.082-.164.406.406,0,0,1,.032-.189c.036-.11.069-.214-.05-.267a.329.329,0,0,0-.136-.032.436.436,0,0,0-.115.019.41.41,0,0,1-.106.019.206.206,0,0,1-.05-.006,1.858,1.858,0,0,1-.637-.321,2.079,2.079,0,0,0-.518-.284c-.4-.121-.806-.211-1.2-.3-.236-.052-.48-.106-.718-.165a.828.828,0,0,1-.436-.483,1.356,1.356,0,0,0-.2-.322,3.962,3.962,0,0,1-.475-.4,3.321,3.321,0,0,0-.612-.492,2.577,2.577,0,0,0-.841-.247,2.48,2.48,0,0,1-.878-.268,3.189,3.189,0,0,1-.51-.413,2.638,2.638,0,0,0-.637-.482.959.959,0,0,0-.228-.071,16.3,16.3,0,0,0-2.217-.235c-1.179,0-1.753.416-1.86,1.348a1.58,1.58,0,0,0-.879-.174l-.19,0h-.184a1.087,1.087,0,0,1-.8-.2.515.515,0,0,1-.087-.43,1.835,1.835,0,0,0-.187-1.113,1.108,1.108,0,0,0-.514-.113,3.281,3.281,0,0,0-.47.046h0a3.3,3.3,0,0,1-.472.046H12.21c.168-.549.168-.549.045-.805a2.862,2.862,0,0,0,.3-.972.731.731,0,0,0-.436-.188c-.254,0-.58.226-.685,1.3a.61.61,0,0,0-.313.125.607.607,0,0,1-.313.125.366.366,0,0,1-.185-.054A2.276,2.276,0,0,1,9.5,28.3a.852.852,0,0,1,.086-.578A1.085,1.085,0,0,0,9.7,27.3a.417.417,0,0,0-.12-.251.348.348,0,0,1-.108-.335,3.615,3.615,0,0,1,.856-1.054.677.677,0,0,1,.39-.081,4.662,4.662,0,0,1,.865.111l.086-.074a.52.52,0,0,0-.151-.1.705.705,0,0,1-.122-.075.194.194,0,0,1,.023-.108,11.836,11.836,0,0,1,1.783-.245,1.062,1.062,0,0,1,.466.846,1.057,1.057,0,0,0,.442.824c.441-.471.207-.9-.041-1.359a1.552,1.552,0,0,1-.284-.956,1.719,1.719,0,0,1,.867-1.08,3.278,3.278,0,0,0,.579-.482c0-.013-.018-.029-.036-.046a.232.232,0,0,1-.031-.032.093.093,0,0,1,0-.068.2.2,0,0,0,0-.032l.1-.026v-.122l-.1-.037.154-1.528V21.9c.075-.044.075-.044.138-1.054a1.268,1.268,0,0,1,.179.319,1.139,1.139,0,0,0,.109-.317.779.779,0,0,1,.2-.424,10.506,10.506,0,0,1,.98-.486c.082-.79.082-.79.527-1.205h0c.071,0,.1-.014,1.367-.742a.127.127,0,0,1-.026.057.237.237,0,0,0-.019.032.732.732,0,0,0,.231.048v.111c-.747.527-.747.527-.747.683a2.816,2.816,0,0,0,1.681-1.019.6.6,0,0,0,.11-.573.7.7,0,0,0-.243.367,1.208,1.208,0,0,1-.108.23l-.415-.119a.374.374,0,0,0,.2-.141H19.43a.627.627,0,0,1-.122.012.615.615,0,0,1-.233-.046.164.164,0,0,1-.108-.189v-.037a.369.369,0,0,0,0,.289c-.2-.094-.23-.2-.3-.423-.182-.067-.194-.081-.271-.176l0,0c.27-.074.465-.127.52-.4a.148.148,0,0,0-.111-.06,9.27,9.27,0,0,0-1.977,1.136c1.341-1.387,1.341-1.387,2.72-1.8a.3.3,0,0,0,.171.04,3.144,3.144,0,0,0,1.768-.908c-.067-.171-.067-.171.034-.419l-.063-.1-.34-.07h-.1a1.348,1.348,0,0,0-.646.263.141.141,0,0,0-.024-.058.3.3,0,0,1-.018-.035c.111-.154.161-.177.583-.337-.7.057-1.539.127-2.47.222.816-.087,1.54-.149,2.474-.227a.173.173,0,0,0,.068-.044.658.658,0,0,0-.718-.219.41.41,0,0,1-.084.017.122.122,0,0,1-.054-.017.223.223,0,0,1,0-.109.164.164,0,0,0-.019-.133.3.3,0,0,0-.131-.074.368.368,0,0,1-.176-.108c-.029-.035-.008-.07.029-.133l.02-.034.007-.011c.046-.079.074-.127-.115-.459-.288-.515-.407-.728-.507-.728-.072,0-.136.115-.241.3a.125.125,0,0,0,0,.106.109.109,0,0,1,0,.113.15.15,0,0,1-.116.038.174.174,0,0,0-.149.059c-.157.211-.157.211-.2.226a.416.416,0,0,1-.121.018.743.743,0,0,1-.334-.109,1.024,1.024,0,0,0-.24-.1.992.992,0,0,1,.194-.664.492.492,0,0,0-.162-.023H17.8l-.071,0a.541.541,0,0,1-.115-.01c-.032,0-.051-.032-.093-.1l0-.007c-.045-.074-.05-.082-.374-.192a.282.282,0,0,0-.149,0,7.394,7.394,0,0,0-.945.141.6.6,0,0,1-.069.341.446.446,0,0,0,.008.5.362.362,0,0,1-.115.15.3.3,0,0,0-.124.2.425.425,0,0,0,.091.24.531.531,0,0,1,.1.246c0,.007,0,.743-.415.842a.405.405,0,0,0-.25.139.131.131,0,0,0-.012.106.568.568,0,0,1-.116.1,1.532,1.532,0,0,0-.026.46.828.828,0,0,1-.3.839,1.015,1.015,0,0,0-.407-.318,1.944,1.944,0,0,1-.228-.135.71.71,0,0,0,0-.612l.041-.033c.028-.023.061-.049.082-.063s.014-.037.006-.054a.057.057,0,0,1-.006-.02h-.124a.335.335,0,0,0-.247-.094,1.125,1.125,0,0,0-.155.014,1.144,1.144,0,0,1-.156.014.4.4,0,0,1-.1-.013.749.749,0,0,1-.295-.192.938.938,0,0,0-.25-.179l-.127-.03a.337.337,0,0,0-.057,0,.6.6,0,0,0-.271.088.962.962,0,0,1-.169.073c-.06-.048-.06-.048-.13-.486-.03-.152-.03-.152-.374-.182-.083-.467,1.107-1.34,1.555-1.669-.034-.091-.11-.1-.184-.114a.283.283,0,0,1-.13-.042c.953-.171.953-.171,1.495-.742a.831.831,0,0,1-.747-.093,1.3,1.3,0,0,1,.411-.047.681.681,0,0,0,.669-.269.257.257,0,0,0-.1-.037s0,0,0,0a.371.371,0,0,1,.249-.128.233.233,0,0,1,.123.036c.62-.222.62-.222.781-.371a.466.466,0,0,0,.1-.115.231.231,0,0,0,.006-.184.262.262,0,0,1-.006-.16.2.2,0,0,1,.144-.107.3.3,0,0,0,.115-.06A1.421,1.421,0,0,0,16.4,9.76a.728.728,0,0,0-.288-.172,1.266,1.266,0,0,0,.263-.074s0-.009,0-.013c0-.061,0-.1.326-.14.312-.034.341-.092.364-.139l.009-.017a3.154,3.154,0,0,1,.266.21,1.056,1.056,0,0,1,.129.2,1.187,1.187,0,0,0,.11.18.446.446,0,0,0,.149.1c.118.06.252.127.255.306a1.135,1.135,0,0,1-.889.868,3.686,3.686,0,0,0-.747.191.233.233,0,0,0-.079.264.175.175,0,0,0,.114.029,1.84,1.84,0,0,0,.518-.121.93.93,0,0,1,.3-.073,1.857,1.857,0,0,1,.629.223c-.048.054-.048.054-.287.145a3.014,3.014,0,0,0,1.142.251.464.464,0,0,0,.208-.033c0-.034,0-.034-.06-.061a4.1,4.1,0,0,1-.478-.44,1.162,1.162,0,0,1,.665.222.187.187,0,0,0,.081.042h0c.074-.025.176-.218.215-.367.026-.1.024-.17-.006-.2a.848.848,0,0,0-.289-.172.588.588,0,0,1-.388-.336c-.081-.261.362-.408.367-.409.137,0,.445.379.448.383.07.093.141.189.209.189h.011c.166-.033.408-.61.478-.786l0-.009a.593.593,0,0,0,0-.08l-1.4-.325a2.024,2.024,0,0,1,.414-.214l.013-.006c.142-.065.207-.095.2-.136a1.63,1.63,0,0,0-.747-.62H18.58a1.021,1.021,0,0,1-.269-.036.248.248,0,0,1-.094-.117c-.031-.061-.064-.124-.149-.131a2.274,2.274,0,0,0-.651.184c-.22.084-.22.084-.254.084a1.2,1.2,0,0,1-.044-.4c-.043,0-.088-.007-.135-.007a1.342,1.342,0,0,0-.313.037,3.4,3.4,0,0,0-1.47,1.26.078.078,0,0,0,.027.086.657.657,0,0,0,.355.071,2.455,2.455,0,0,0,.305-.021.583.583,0,0,0-.187.35,1.259,1.259,0,0,0-.3.318c-.134.174-.272.354-.433.354a.3.3,0,0,1-.2-.09.487.487,0,0,1,.179-.247c.121-.112.234-.218.105-.358a.859.859,0,0,0-.352.3,1.483,1.483,0,0,1-.178.2c-.045-.124.21-.449.213-.452h-.236c.374-.612.374-.612.374-.687a.305.305,0,0,0-.056-.041c.221-.337.221-.337,1.241-.935a.52.52,0,0,0-.094-.009.506.506,0,0,0-.093.009c-.75.174-1.737,1.466-1.928,1.723l0,.006.03.056h.028a.908.908,0,0,0,.23-.022v.052a.924.924,0,0,0-.3.186v.044h.052a1.216,1.216,0,0,1-.323.324,1.075,1.075,0,0,0-.375.418c-.131-.141-.131-.141.118-.4a.813.813,0,0,0,.333-.164c.034-.042-.045-.193-.048-.2a.248.248,0,0,0-.127-.126.2.2,0,0,0-.052.03,2.708,2.708,0,0,1-.269.245l-.043.027c-.14.087-.182.113-.188.138a.157.157,0,0,0,.034,0,.155.155,0,0,0,.034,0h.086s0,.006.007.014a.057.057,0,0,0,.042.051,5.023,5.023,0,0,0-.413.309c-.02.016-.138.1-.565.1-.057,0-.119,0-.182,0a.268.268,0,0,1-.033-.086.235.235,0,0,0-.038-.092c-.457.117-.6.367-.878.92a.3.3,0,0,1,.021-.21.361.361,0,0,0,.031-.161,1.124,1.124,0,0,0-.286.1.942.942,0,0,1-.385.108.554.554,0,0,1-.077-.005.82.82,0,0,1,.13-.1.408.408,0,0,0,.214-.239l-.049-.026a.158.158,0,0,1-.084.027.969.969,0,0,1-.166-.027.549.549,0,0,0-.079-.085.446.446,0,0,0-.206.126.9.9,0,0,1-.089.074.716.716,0,0,1,.067-.108,1.157,1.157,0,0,0-.179.156,1.265,1.265,0,0,1,.235-.337c-.3.278-.3.278-.856.742.084-.08.175-.157.263-.231s.192-.163.28-.248a9.171,9.171,0,0,0-.889.783.536.536,0,0,1,.063-.093l-1.02,1.135a20.732,20.732,0,0,0-1.927,2.7l.01-.015.016-.021a5.4,5.4,0,0,0-.441,1.246c-.022.073-.056.178-.082.256a.823.823,0,0,0,.06.1A6.663,6.663,0,0,0,5.4,18.584a.893.893,0,0,0,.056.453.361.361,0,0,0-.05,0,.351.351,0,0,0-.05,0l-.021,0-.021,0-.023-.06c-.005-.015-.01-.028-.014-.041-.013-.039-.021-.064-.038-.067a.951.951,0,0,0,0,.42c.036.117.106.134.144.134H5.4a.123.123,0,0,0,.073-.078.285.285,0,0,0,0-.1.555.555,0,0,0,0-.078,1.171,1.171,0,0,1,.1.464l-.179-.093c-.659.812-.89,4.9-.452,5.667.06,0,.06,0,1.012,1.951H5.73a13.312,13.312,0,0,0,.922,1.277l.042.055c.078-.11.159-.224-.231-.775a4.748,4.748,0,0,1-.71-1.888,1.057,1.057,0,0,1,.523.761,1.7,1.7,0,0,0,.164.512c.118.189.247.36.384.541.061.08.123.162.184.246a2.343,2.343,0,0,0,.387.4,1.889,1.889,0,0,1,.454.514,1.378,1.378,0,0,1,.116.367.834.834,0,0,0,.3.575.945.945,0,0,0,.164.078c.038.014.08.033.124.053a1.318,1.318,0,0,0,.186.074c.18.045.366.083.546.119.16.032.325.065.485.1a.848.848,0,0,0,.2.021c.081,0,.164-.008.243-.016s.162-.015.244-.015a.75.75,0,0,1,.381.089c.785.445.785.445,1.061.475h.138a2.761,2.761,0,0,1,1.4.812,2.479,2.479,0,0,0,1.634.829h.063C15.29,32.111,15.44,31.982,15.582,31.982Zm23.194.088a3.533,3.533,0,0,1,.366.019.209.209,0,0,1,.093.052.383.383,0,0,1,.112.28.391.391,0,0,0,.108.278.547.547,0,0,0,.359.1.867.867,0,0,1,.22.029.691.691,0,0,1-.03.739c-.434,1.006-.434,1.006-.373,1.294a3.43,3.43,0,0,1-.341,2.448,4.553,4.553,0,0,1-.677,1.025,7.107,7.107,0,0,0-.47.635,3.575,3.575,0,0,0-.378.932,3.7,3.7,0,0,1-.3.784,12.226,12.226,0,0,1-1.42,2.335,1.36,1.36,0,0,0-.337.511,1.008,1.008,0,0,0,.3.043,2.358,2.358,0,0,0,1.269-.5l.949-.658,1.2-.947a3.237,3.237,0,0,0,.331-.426,2.75,2.75,0,0,1,.39-.483,3.148,3.148,0,0,1,.5-.34,3.344,3.344,0,0,0,.6-.422,9.26,9.26,0,0,0,1.584-2.391,9.543,9.543,0,0,1,1.645-2.17,8.832,8.832,0,0,0,1.289-2.465.434.434,0,0,0-.134-.028,1.361,1.361,0,0,0-.2.028c-.049-.067-.049-.067.052-.936a6.956,6.956,0,0,0-.045-.961c0-.333.024-.671.048-1a9.267,9.267,0,0,0,.027-1.494l-.224-2.628c.052.085.052.085.108.462a.412.412,0,0,0,.119-.211,10.691,10.691,0,0,1,.133,3.792,18.658,18.658,0,0,0-.1,2.159l.006,0a.679.679,0,0,1,.239-.09.337.337,0,0,1,.073.012l.02-.043a13.757,13.757,0,0,0,.571-1.272c0,.012,0,.024,0,.036l0-.02c0-.018.005-.037.009-.057l0,.012a.677.677,0,0,1,.013-.071c.007-.03.013-.058.016-.082v-.074l.064-.458,0-.026c.026-.21.058-.472.1-1.14a2.365,2.365,0,0,1-.077.426c-.045-.093-.045-.093,0-.835-.023.236-.023.236-.038.34a10.986,10.986,0,0,1,0-1.957v-.009a9.456,9.456,0,0,1,.116,2.022v0s0,.008,0,.013,0-.006,0-.008v.1c.006-.18.013-.374.021-.579.019-.477.038-.971.035-1.384-.009-.15-.017-.314-.025-.484-.026-.5-.054-1.071-.1-1.52l-.014-.1c-.02-.136-.038-.264-.059-.387l.021.066c-.034-.325-.094-.648-.153-.96l.016.107c.034.221.072.472.112.769a14.9,14.9,0,0,1-.439-2.231v.022c-.7-2.292-.7-2.292-.71-2.4a13.1,13.1,0,0,0-.691-1.675l-.747-1.445-.008-.011-.26-.431c-.224-.372-.478-.794-.7-1.1L42.952,15a20.1,20.1,0,0,0-2.132-2.649l-.867-.869a1.031,1.031,0,0,0-.1-.089,5.318,5.318,0,0,0,.411.44,1.952,1.952,0,0,1-.18-.133,2.028,2.028,0,0,0,.426.429l-.034.022c-.291-.235-.566-.5-.831-.75s-.552-.526-.849-.764a8.585,8.585,0,0,0,.829.575,8.767,8.767,0,0,0-1.611-1.294,3,3,0,0,1-.534-.37l.082.033a1.692,1.692,0,0,0-.2-.133l-.03.026a1.988,1.988,0,0,1-.408-.241l.086.03a1.837,1.837,0,0,0-.627-.37.474.474,0,0,0,.134.2.673.673,0,0,1-.235-.163.7.7,0,0,0-.231-.162.32.32,0,0,0,.084.109.34.34,0,0,1,.079.1c-.067.148-.067.148-.056.237a7.137,7.137,0,0,0,.453.891c.335.507.308.674.306.68-.06.454-.06.454-.314.635-.093.063-.091.095-.041.218.006.013.581,1.329,1.151,1.329a.372.372,0,0,0,.157-.035c.2-.091.1-.417.053-.573a13.75,13.75,0,0,1,1.378,1.475c.092.158.187.322.373.322a1.2,1.2,0,0,0-.056-.7c-.247-.459-.19-.511-.063-.624,0-.107,0-.152-.333-.37C39,12.32,39,12.32,38.7,11.836a.414.414,0,0,1-.031-.277.355.355,0,0,0-.067-.322c-.448-.458-.448-.458-.459-.488l-.026-.055a.3.3,0,0,1,.023-.034,2.332,2.332,0,0,1,.747.532H38.84c.434.954.434.954.841,1.331a1.539,1.539,0,0,0,.674.33,1.38,1.38,0,0,1,.586.276,1.07,1.07,0,0,1-.172-.066l-.034.022a.913.913,0,0,0,.079.118,4.179,4.179,0,0,0-.624-.174,7.582,7.582,0,0,1,.747.924c-.114,0-.178-.082-.239-.161s-.125-.161-.239-.161h-.023l-.026.037s.283.513.314.551.228.29.217.4h-.172c-.016,0-.022.035-.029.071a.339.339,0,0,1-.016.066l.023.03c-.33-.022-.494-.033-.576-.033s-.084.011-.085.033l-.093.055a1.666,1.666,0,0,0-.47-.159l.3.052a.672.672,0,0,0-.408-.139l-.047,0c-.087,0-.1,0-.351-.27a1.281,1.281,0,0,1-.373-.74c0-.11-.158-.547-.277-.562,0,0-.23,0-.289.084a.081.081,0,0,0-.007.078,7.544,7.544,0,0,0,.774,1.183c.124.14.131.161.134.173a.007.007,0,0,1,0,.007c-.006.01-.042.02-.111.031l-.221.037-.063.089h-.055c-.3,0-.3,0-.39.085a3.563,3.563,0,0,0,.168.588l-.056.1a.863.863,0,0,0-.456.052,1.577,1.577,0,0,0,.127.322,1.134,1.134,0,0,1-.247.118.639.639,0,0,1-.052.233l-.062,0a.754.754,0,0,1-.472-.165,2.346,2.346,0,0,0,.134.2l-.037.111c-.039.015-.148.056-.228.077a.565.565,0,0,0-.344-.117.571.571,0,0,0-.082.006l-.049.1.221.188-.09.067a1.781,1.781,0,0,1,1.053.75,1.748,1.748,0,0,1,.262,1.257,9.634,9.634,0,0,1-1.178-.179c-.322-.063-.655-.128-.989-.162a1.226,1.226,0,0,0,.142.192c0,.02.082,1.953.329,2.025-.068.6-.068.6-.079.651a2.454,2.454,0,0,1,.833,0c.086.341.086.341.09.348l1.192-.392a.351.351,0,0,0,.281-.2.574.574,0,0,0-.045-.535c.191-.778.2-.781.691-.969,0-.629,0-.629.06-.669a.24.24,0,0,1,.156-.062.483.483,0,0,1,.227.086.492.492,0,0,0,.233.087c.143-.25.27-.416.424-.416a.356.356,0,0,1,.233.113,16.355,16.355,0,0,1,1.846,2.436c.052.166.07.262.03.326-.06.094-.249.12-.664.176a3.551,3.551,0,0,0,.564.6.579.579,0,0,0,0-.3.693.693,0,0,1-.018-.255h.1a1.175,1.175,0,0,0,.112-.223,1.366,1.366,0,0,1,.093-.195,1.223,1.223,0,0,1-.1-.492l.1-.026.146.188c-.038-.17-.038-.17-.6-.839a.952.952,0,0,0,.026-.107c-.264-.114-.473-.2-1.181-1.637a.423.423,0,0,1,.164-.133l1.6,1.848.482,1.364.509,1.15V22.26a4.125,4.125,0,0,0-.161-.791c-.172-.854-.172-.854-.09-.917a.835.835,0,0,1,.549.473,2.108,2.108,0,0,0,.09-.2h.116a2.556,2.556,0,0,0-.185-1.131,2.631,2.631,0,0,1-.189-1.087.319.319,0,0,1,.2,0l-.045.1a.751.751,0,0,0,.254.211.585.585,0,0,1,0,.37,4.089,4.089,0,0,1,.239.369c.213-.122.122-.3.025-.489a.565.565,0,0,1-.1-.424.411.411,0,0,1,.087-.011c.095,0,.121.057.159.159l-.056.1c.06.093.06.093.146.429l-.06.089a4.248,4.248,0,0,0,.368.659,2.293,2.293,0,0,1,.495,1.318l-.093.052a.932.932,0,0,1-.271-.386c-.106-.219-.207-.426-.445-.426a.506.506,0,0,0-.125.017.372.372,0,0,1-.079.192,1.52,1.52,0,0,0-.213-.059.385.385,0,0,0,.1.174.366.366,0,0,1-.231.069.471.471,0,0,0-.184.038,1.228,1.228,0,0,0,0,.241l.1.029a2.388,2.388,0,0,0,.647,1.549l.074-.078v-.107a.878.878,0,0,1,.175.218.668.668,0,0,0,.229.252,1.037,1.037,0,0,0,.049-.214.583.583,0,0,0,.179.118c.082,1.5.095,1.735-.071,2.144-.222,0-.255-.066-.325-.274a.312.312,0,0,0-.187.074c-.356-.025-.525-.3-.688-.556s-.345-.552-.732-.552a.856.856,0,0,0-.081.434,1.029,1.029,0,0,1-.047.361l-.1.041c-.16-.116-1.831-1.621-1.947-1.811a.233.233,0,0,1,.052-.233c.09-.14.09-.14.023-1.031a3.733,3.733,0,0,0-.329-.2.269.269,0,0,1-.187.08,3.3,3.3,0,0,1-.561-.11,1.4,1.4,0,0,0-.149.181.981.981,0,0,0-.356-.066,2.12,2.12,0,0,0-.77.2,2.131,2.131,0,0,1-.772.2.975.975,0,0,1-.321-.053h-.12a.927.927,0,0,1-.173.024c-.117,0-.206-.061-.365-.25l-.049-.033a.7.7,0,0,0-.1.089.524.524,0,0,0-.093.31.517.517,0,0,1-.09.3.849.849,0,0,1-.293.188.914.914,0,0,0-.391.278.357.357,0,0,0-.031.213c0,.028,0,.053,0,.076-.052.946-.052.946-.31,1.072a2.713,2.713,0,0,0-.676.5c-.144.223-1.193,2.022-1.2,2.04a1.8,1.8,0,0,0,.144.74,2.092,2.092,0,0,1,.147.628.725.725,0,0,1-.209.436c-.136.171-.276.349-.165.61a13.75,13.75,0,0,0,.626,1.322c.114.22.232.447.341.674a4.328,4.328,0,0,0,1.341,1.223h0a10.111,10.111,0,0,0,1.046-.171A7.4,7.4,0,0,1,38.777,32.07Zm3.654,6.959-.172.176c-.41.539-.42.543-.689.642-.229.084-.279.16-.489.478l-.133.2a1.425,1.425,0,0,1-.373.424A7.268,7.268,0,0,0,39.385,42.3h.02c.164,0,.19-.025.847-.668.355-.349.69-.727,1.013-1.093.184-.208.375-.424.568-.633l-.049.1h.006c.017,0,.022-.008.066-.083A5.354,5.354,0,0,0,42.431,39.029ZM17.959,29.742a.232.232,0,0,0-.054.006.084.084,0,0,0-.039.093.275.275,0,0,0,.215.168l.071,0a1.09,1.09,0,0,0,.366-.063c0-.019,0-.061-.254-.138A1.25,1.25,0,0,0,17.959,29.742Zm-2.5-.331-.059,0a1.028,1.028,0,0,0,.324.136,1.069,1.069,0,0,1,.263.1c.036.02.04.061.045.1s.012.1.086.11c.1,0,.148-.071.19-.14s.076-.124.158-.131a.369.369,0,0,1,.1,0,7.761,7.761,0,0,0,.83.069c.026,0,.045,0,.045-.035a.335.335,0,0,0-.025-.109.255.255,0,0,1-.02-.148.093.093,0,0,0-.021-.082c-.178-.227-1.262-.324-1.422-.324h-.025c-.023,0-.027,0-.037.019s0,.022.013.034l.01.008a.422.422,0,0,1,.135.448.7.7,0,0,1-.3-.023A1.131,1.131,0,0,0,15.463,29.412Zm-1.057-.219-.035,0a.106.106,0,0,0-.063.108.185.185,0,0,0,.085.156.675.675,0,0,0,.2.032.181.181,0,0,0,.13-.036.066.066,0,0,0,.018-.05A.376.376,0,0,0,14.406,29.193Zm-.426-1.529c0,.141.238.2.4.241.274.071.3.13.369.3l.006.014a.707.707,0,0,0,.1.222.327.327,0,0,1,.074.122.176.176,0,0,1-.1.1.2.2,0,0,0-.072.054,1.236,1.236,0,0,0,.618.167,1.208,1.208,0,0,0,.3-.037c0-.045-.991-1.224-1-1.232a1.169,1.169,0,0,0-.987-.172,1.462,1.462,0,0,0-.545.336.679.679,0,0,0,.1.008.666.666,0,0,0,.386-.123.628.628,0,0,1,.309-.1c.11,0,.178.043.188.072a.033.033,0,0,1,0,.032.057.057,0,0,1-.048.019A.2.2,0,0,1,13.98,27.664ZM45.1,23.575a.031.031,0,0,0-.019.006.393.393,0,0,0,.071.306.142.142,0,0,0,.041.046.447.447,0,0,0,.058,0,.476.476,0,0,0,.058,0,1.886,1.886,0,0,0,.037-.26v-.03a.079.079,0,0,0-.019.005.249.249,0,0,1-.07.017.117.117,0,0,1-.063-.023c-.015,0-.027-.014-.04-.03a.128.128,0,0,0-.035-.032A.031.031,0,0,0,45.1,23.575Zm1.144-.957h0c.04.282.092.558.151.863a14.682,14.682,0,0,0-.475-2.23l-.022-.069c-.036-.113-.07-.22-.1-.313.244.857.262.932.36,1.346l.014.057c-.008-.027-.015-.051-.021-.075l-.005-.02.1.447A.034.034,0,0,1,46.247,22.619Zm-2.347.387a.047.047,0,0,0-.043.021.078.078,0,0,0,.009.075.987.987,0,0,0,.6.279c-.021-.025-.046-.058-.072-.092-.071-.092-.117-.153-.118-.156a.194.194,0,0,0-.079-.049,1.577,1.577,0,0,1-.183-.038Zm1.487-3.364h0c.084.245.18.549.3.933l.1.321-.008-.024c-.013-.042-.028-.091-.043-.144l.009.018.008.016c-.012-.043-.026-.085-.04-.127a1.591,1.591,0,0,1-.057-.194l.006.016.006.016.025.076c-.006-.02-.013-.042-.025-.076l-.237-.713A.506.506,0,0,0,45.387,19.641Zm-4.548.248a.445.445,0,0,0-.31.191.547.547,0,0,0-.011.386.127.127,0,0,0,.058.031c.033.011.068.022.077.069a.51.51,0,0,1,0,.139c0,.022,0,.044,0,.067a.083.083,0,0,0,.071.069c.032,0,.269-.053.277-.249a.433.433,0,0,0,0-.069.493.493,0,0,0-.026-.138.712.712,0,0,1-.022-.091.952.952,0,0,1,0-.167c0-.029,0-.058,0-.086A.156.156,0,0,0,40.839,19.889Zm-1.6.342c-.048,0-.162,0-.184.05a.054.054,0,0,0,.013.057.47.47,0,0,0,.269.119.081.081,0,0,0,.049-.027,1.1,1.1,0,0,0,.093-.115.228.228,0,0,0-.168-.08C39.288,20.232,39.263,20.231,39.238,20.231Zm1.347-1.239h0v.026a1.282,1.282,0,0,0,0,.237.163.163,0,0,1-.071.161.082.082,0,0,0-.03.076.264.264,0,0,0,.034.062c.007.009.179.214.19.222a2.43,2.43,0,0,0-.034-.509A1.112,1.112,0,0,0,40.585,18.992ZM5.413,17.74a1.813,1.813,0,0,0-.232.765l.012,0c.03-.074.054-.152.077-.227s.04-.13.064-.194.041-.1.054-.138.027-.067.043-.111v-.03s.018-.054.009-.067a.006.006,0,0,0-.006,0H5.413Zm16.478-.7a.122.122,0,0,1,.091.041.31.31,0,0,1,.052.191c0,.046.016.069.049.069.1,0,.206-.2.217-.344a1.387,1.387,0,0,0-.344-.822c-.052-.056-.076-.081-.139-.081a1.657,1.657,0,0,0-.291.055.322.322,0,0,1-.058.007c-.055,0-.072-.029-.088-.095-.045-.168-.09-.193-.146-.225-.024-.014-.035-.022-.036-.028s0-.008.013-.014a.181.181,0,0,0,.023-.02,1.267,1.267,0,0,1,.09-.122c.143-.194.2-.315.183-.382h-.026a1.612,1.612,0,0,0-.437.405,3.7,3.7,0,0,0-.267.4,4.17,4.17,0,0,1-.241.366,1.517,1.517,0,0,1-.156.164,1.284,1.284,0,0,0-.177.192c-.029.039-.013.057,0,.066s0,0,0,.006a2.533,2.533,0,0,0,.558.062h.032a4.259,4.259,0,0,1,.815.126c.034.011.066.02.1.027a.308.308,0,0,0,.094-.021A.305.305,0,0,1,21.891,17.036Zm-2.942-.778a.274.274,0,0,0-.044,0c-.021.008-.032.02-.032.034,0,.07.247.183.249.184a.7.7,0,0,0,.3.08.258.258,0,0,0,.208-.08.04.04,0,0,0-.007-.038A1.342,1.342,0,0,0,18.949,16.258Zm17.208-1.084a.171.171,0,0,0-.129.06.354.354,0,0,0-.078.126.407.407,0,0,1-.06.107.908.908,0,0,1-.125.109,1.269,1.269,0,0,0-.129.109v.027H35.7a2.636,2.636,0,0,0,.585-.066,3.409,3.409,0,0,1,.415-.023,2.84,2.84,0,0,0,.511-.038l.527-.18a.17.17,0,0,0-.131-.052.616.616,0,0,0-.076.006.708.708,0,0,1-.077.006.213.213,0,0,1-.09-.017.364.364,0,0,1,.015-.235.375.375,0,0,0,.015-.239c-.093-.246-.189-.28-.28-.28h-.031c-.207,0-.343-.28-.344-.283l.172.034a.551.551,0,0,0,.143.04.025.025,0,0,0,.019-.006.013.013,0,0,0,0-.011A.372.372,0,0,0,37,14.285a7.935,7.935,0,0,1-.788-.524,2.251,2.251,0,0,0-.318-.336,1.107,1.107,0,0,0-.545-.184.733.733,0,0,0,.14-.607.2.2,0,0,0-.193-.135c-.031,0-.062,0-.094,0s-.062,0-.094,0a1.889,1.889,0,0,1-.207.022c-.054,0-.064-.015-.066-.045a.456.456,0,0,1,.05-.157c.032-.072.065-.147.042-.19a.077.077,0,0,0-.059-.036s-.449,0-.512.172a.09.09,0,0,0,0,.054c.018.031.036.061.055.091a.818.818,0,0,1,.139.311.589.589,0,0,1-.021.133.367.367,0,0,0-.006.219h.006a.423.423,0,0,0,.263-.118.236.236,0,0,1,.119-.068.053.053,0,0,1,.027.007c.1.054.068.14.043.223a.22.22,0,0,0-.013.16.5.5,0,0,0,.411.344,1.128,1.128,0,0,1,.344.115v.126a.882.882,0,0,0,.122.165.78.78,0,0,1,.132.186c.012.028.015.048.007.06a.041.041,0,0,1-.037.014.669.669,0,0,1-.22-.075c-.052-.027-.052-.027-.2-.038a.6.6,0,0,0,.141.205.518.518,0,0,1,.15.242c.022.1-.071.157-.206.222a.088.088,0,0,0-.065.042.041.041,0,0,0,0,.042c.018.03.051.085.319.085h.054c.135,0,.415,0,.422.08a.07.07,0,0,1-.014.056c-.023.026-.072.028-.139.028Zm-1.93-1.553h0a.269.269,0,0,1-.042.028.813.813,0,0,0-.3.2.2.2,0,0,0-.056.183.208.208,0,0,0,.108.122.915.915,0,0,0,.2.042,2.331,2.331,0,0,0-.142.478.326.326,0,0,0,.026.237c.009.018.064.03.142.03a.973.973,0,0,0,.49-.133,1.306,1.306,0,0,1,.179-.119.245.245,0,0,1,.088-.022.163.163,0,0,0,.14-.07c.04-.064.024-.115,0-.2-.011-.035-.023-.074-.034-.123a.812.812,0,0,0-.1-.191.18.18,0,0,1-.026-.222.29.29,0,0,0,.026-.2.327.327,0,0,0-.138-.18.7.7,0,0,0-.112-.027.848.848,0,0,0-.117-.047.881.881,0,0,1-.114-.045.251.251,0,0,1-.082-.054s-.286.075-.3.183c-.006.041.028.083.1.123a.14.14,0,0,0,.071,0ZM15.785,12.315l-.032,0a.559.559,0,0,0-.21.084.18.18,0,0,0,0,.2.022.022,0,0,0,.018.008c.067,0,.237-.189.262-.253a.034.034,0,0,0,0-.032C15.818,12.319,15.806,12.315,15.785,12.315Zm-.576-.106a.29.29,0,0,0-.05.005,1.432,1.432,0,0,0-.408.145.2.2,0,0,0-.056.147.079.079,0,0,0,.019.059.013.013,0,0,0,.009,0,1.3,1.3,0,0,0,.514-.3c.011-.014.022-.033.015-.047S15.233,12.209,15.209,12.209Zm-.285-.94a2.39,2.39,0,0,0-.288.348l-.086.138-.236.383c.138,0,.138,0,.15.084,0,.026,0,.044.006.057,0,.03,0,.032.02.032a.5.5,0,0,0,.135-.1.984.984,0,0,1,.5-.275l.038,0a.732.732,0,0,1,.135.017.749.749,0,0,0,.138.017.319.319,0,0,0,.1-.016.075.075,0,0,0,.037-.034.129.129,0,0,0-.03-.122.524.524,0,0,0-.056-.042.423.423,0,0,1-.064-.05.474.474,0,0,1-.046-.065.624.624,0,0,0-.114-.145l-.034-.027a.37.37,0,0,0-.112-.038.346.346,0,0,1-.112-.039.126.126,0,0,1-.055-.071A.082.082,0,0,0,14.924,11.269Zm7.467-2.8a.273.273,0,0,1,.113.025.348.348,0,0,1,.221.24.326.326,0,0,1-.034.212.663.663,0,0,1-.255.163.6.6,0,0,0-.279.2.869.869,0,0,0-.086.578c.022.083,1.042,1.847,1.528,2.016a8.149,8.149,0,0,0,1.154.186c.114,0,.137-.028.169-.068a6.623,6.623,0,0,0,.351-1.3.739.739,0,0,0,0-.206.491.491,0,0,1,.039-.3c.049-.084.051-.088.373-.184.961-.294.961-.294.987-.482s.042-.3.213-.383a3.322,3.322,0,0,1,.659-.233,3.322,3.322,0,0,0,.659-.233,4.051,4.051,0,0,0,.5-.275s.081-.063,0-.191A1.429,1.429,0,0,0,28.468,8a1.207,1.207,0,0,1-.258-.259,2.453,2.453,0,0,1-.146-.417c-.07-.156-.038-.2.049-.287a.108.108,0,0,0,.038-.089c-.008-.061-.082-.131-.247-.233-.8-.482-.8-.494-.87-.6V6.079h.041a.663.663,0,0,0-.355-.147c-.194-.04-.4-.08-.463-.347l-.079-.038V5.478h.027c-.091,0-.309-.024-.38-.031l-.025,0h-.045a2.507,2.507,0,0,0-.459.042.355.355,0,0,1-.061.005.726.726,0,0,1-.226-.049.786.786,0,0,0-.207-.048h-.96c-.374.023-.374.023-.426.054a3.247,3.247,0,0,0-.613.061,1.37,1.37,0,0,1,.314.038H22.83c-.047,0-.095-.005-.142-.005s-.095,0-.142.005a6.013,6.013,0,0,0-1.678.436.874.874,0,0,0,.187.008,1.115,1.115,0,0,1-.534.252c-.007,0-.748.23-.8.272a.181.181,0,0,0-.033.195c.073.142.355.188.358.188.664-.049.961-.066,1.134-.066.2,0,.228.025.274.066.006.007.611.7.415,1.071-.08.151-.079.157-.075.176,0,.045.033.066.068.089a.154.154,0,0,1,.067.067.414.414,0,0,1,.015.111.484.484,0,0,0,.045.214.674.674,0,0,0,.167-.076A.482.482,0,0,1,22.391,8.467Zm-11.4,2.791H11a.374.374,0,0,1-.074.108.458.458,0,0,0-.065.087,3.587,3.587,0,0,0,1.013-.551.776.776,0,0,1,.213-.153.431.431,0,0,0-.034.069,1.418,1.418,0,0,0,.258.076c.213-.072.213-.072.422-.309h-.006c-.019,0-.037.01-.215.106a.5.5,0,0,1,.373-.226h.079c.007,0,.024-.014.04-.034a.212.212,0,0,0,.054-.161.25.25,0,0,1-.124-.16A.13.13,0,0,1,12.958,10a5.824,5.824,0,0,0,.5-.692.555.555,0,0,0-.067-.023V9.265a4.294,4.294,0,0,1-.609.589.148.148,0,0,1,.058-.141A.24.24,0,0,0,12.9,9.64h-.019a2.473,2.473,0,0,1-.284.134.366.366,0,0,1,.048-.056.307.307,0,0,0,.057-.07.815.815,0,0,0-.207.111.974.974,0,0,1-.167.1.691.691,0,0,1,.174-.159.875.875,0,0,0,.14-.117,5.108,5.108,0,0,0-1.119.8c-.027.033-.039.057-.036.073a.146.146,0,0,1,.041.027c0,.034,0,.034-.149.115-.212.135-.228.164-.228.195a.048.048,0,0,0,.041,0,.694.694,0,0,0,.176-.068.749.749,0,0,1,.164-.066.336.336,0,0,1,.077-.009.455.455,0,0,1,.072.007h0a.419.419,0,0,0,.063.006.208.208,0,0,0,.043,0,1.383,1.383,0,0,1-.445.21c-.412.121-.559.3-.558.384a.051.051,0,0,0,.038.052.26.26,0,0,0,.09-.02A.232.232,0,0,1,10.992,11.257Zm1.652-1.931c-.277.119-.277.119-1.495,1.148a.856.856,0,0,0-.277.348,4.049,4.049,0,0,0,.725-.6h.026c.051-.036.1-.075.148-.117A2.036,2.036,0,0,1,12,9.93c.1-.073.212-.142.317-.209.124-.079.253-.161.374-.25.049-.038.049-.038.116-.164a.8.8,0,0,0-.2.111c.056-.05.056-.05.068-.092h-.026Zm17.405,1.265c.043,0,.086,0,.129.005a.675.675,0,0,1,.177.033.781.781,0,0,0,.155.032h.056a2.319,2.319,0,0,0,.411-.08c.276-.071.718-.38.7-.486a.226.226,0,0,0-.05-.106.14.14,0,0,1-.032-.058.055.055,0,0,1,0-.046c.008-.011.025-.011.042-.011h.012a.447.447,0,0,0-.183-.168h-.048a3.3,3.3,0,0,1-.393-.058.507.507,0,0,1-.094-.055.286.286,0,0,0-.164-.068h-.007a.676.676,0,0,0-.2.058,1.213,1.213,0,0,1-.171.057,2.989,2.989,0,0,0-.373.061c-.04.014-.044.048-.048.082a.088.088,0,0,1-.035.076.077.077,0,0,1-.038.009.219.219,0,0,1-.055-.01.225.225,0,0,0-.056-.01.083.083,0,0,0-.041.01L29.7,9.88a.332.332,0,0,0,.005.119.2.2,0,0,1-.05.21,1.711,1.711,0,0,1-.351-.333.656.656,0,0,0-.517-.253.211.211,0,0,0-.134.035.154.154,0,0,0,.111.091.19.19,0,0,1,.095.059c-.019.083-.084.112-.146.139a.262.262,0,0,0-.124.087.512.512,0,0,0,.25,0l.032,0c.116,0,.313.073.35.174.018.05,0,.1-.064.154a.143.143,0,0,0,.12.058.483.483,0,0,0,.079-.009h0a.484.484,0,0,1,.079-.009.16.16,0,0,1,.069.014c.116.054.119.076.119.184.014.012.029.021.078.021a1.658,1.658,0,0,0,.21-.021C29.963,10.592,30.007,10.591,30.049,10.591Zm-12.7-.574-.025,0s-.281.075-.333.2c-.03.074.087.261.135.291a.055.055,0,0,0,.03.009c.109,0,.231-.32.231-.323.028-.078.033-.132.013-.16A.058.058,0,0,0,17.349,10.016Zm-3.287-.95a.583.583,0,0,0-.243.157v.019a.2.2,0,0,0,.015.048.439.439,0,0,1,.026.081.262.262,0,0,1,0,.054v.1a.033.033,0,0,0,.026.008,1.856,1.856,0,0,0,.669-.39c.027-.027.093-.161.077-.2a.017.017,0,0,0-.018-.011.967.967,0,0,0-.179.05c.063-.042.129-.079.194-.114s.121-.066.179-.1A1.669,1.669,0,0,0,15,8.668h-.1l-.228.046a1.478,1.478,0,0,0-.434.226h.075a.019.019,0,0,1,.019.016.034.034,0,0,1-.019.037,2.024,2.024,0,0,1-.269.2H14a.112.112,0,0,1,.032-.073A.1.1,0,0,0,14.061,9.066Zm-.141-.119h0a.616.616,0,0,0-.28.161h.055s0,0,0,0a.12.12,0,0,0-.006.04.125.125,0,0,1-.011.048c0,.007,0,.012,0,.014h0l.012,0a1.175,1.175,0,0,0,.228-.176c.053-.045.076-.073.072-.086s-.007-.006-.016-.006H13.92Zm.013-.3h0a5.2,5.2,0,0,1-.589.318c-.055.015-.074.035-.073.049s.009.014.021.016a1.006,1.006,0,0,0,.225-.107,6.084,6.084,0,0,1,.568-.3,3.115,3.115,0,0,0,.374-.146c.067-.033.266-.173.373-.248l.071-.049c.064-.048.07-.057.077-.067h-.011a.2.2,0,0,0-.092.024,1.574,1.574,0,0,0-.162.11,1.665,1.665,0,0,1-.145.1c.061-.063.128-.12.193-.176a2.686,2.686,0,0,0,.222-.206c-.02.01-.441.23-.453.291-.018.1-.153.181-.4.241l.026-.031a.268.268,0,0,1,.069-.045c.039-.02.079-.041.084-.069a.046.046,0,0,0-.014-.039c-.008,0-.9.443-.908.57l.429-.241a.306.306,0,0,1-.122.106.636.636,0,0,0-.061.039l.119-.057A1.33,1.33,0,0,1,13.933,8.651Zm8.392.04a.188.188,0,0,0-.05.007c-.068.014-.248.108-.265.2a.076.076,0,0,0,.044.08.214.214,0,0,0,.073.013.2.2,0,0,0,.046-.005l.217-.046s.056-.024.067-.065a.057.057,0,0,0,0-.057.13.13,0,0,0-.047-.045.158.158,0,0,1-.035-.028.067.067,0,0,1,0-.046A.193.193,0,0,0,22.326,8.692Zm-8.551-.154a5.184,5.184,0,0,0-.456.283A2.014,2.014,0,0,0,13.775,8.538Zm.958-.6-.013,0a13.551,13.551,0,0,0-1.416.83.3.3,0,0,0,.176-.086.553.553,0,0,1,.1-.067l-.023.031a2.872,2.872,0,0,0,.362-.22c.082-.055.166-.112.254-.163-.217.138-.217.138-.228.153l.747-.428a.22.22,0,0,0,.056-.05A.034.034,0,0,0,14.733,7.939Zm2.829.189a.931.931,0,0,0-.124.008c-.094.015-.123.053-.132.083a.128.128,0,0,0,.042.12.212.212,0,0,0,.129.034,1.333,1.333,0,0,0,.491-.14l.011,0A.929.929,0,0,0,17.562,8.128Zm-2.07-.1h0l-.006,0a1.453,1.453,0,0,0-.362.254s.34-.126.373-.153a1.689,1.689,0,0,0,.217-.183V7.98c.09-.084.09-.084.321-.283.048-.038.052-.042.06-.057h-.034s-.3.092-.333.111l.012.027c0,.019-.02.043-.039.065l-.01.012a.528.528,0,0,1-.127.115.128.128,0,0,1,.018-.055.219.219,0,0,0,.012-.026q0-.019,0-.038a.231.231,0,0,0-.164.088h.026a1.818,1.818,0,0,1-.322.153h.049a.008.008,0,0,1,.007,0c0,.006,0,.018,0,.025l0,.006a.173.173,0,0,0,.039-.01Zm.592-.143a3.092,3.092,0,0,0-.418.225c-.022.017-.037.028-.037.041s.011.023.037.04a.308.308,0,0,0,.071.008.314.314,0,0,0,.236-.107c.047-.042.166-.159.154-.2a.017.017,0,0,0-.016-.011Zm.485-.283h0a.018.018,0,0,1,.007.014c0,.046-.092.172-.1.177a.573.573,0,0,1-.118.083.516.516,0,0,0-.132.1c-.065.072-.092.115-.083.133s.022.012.04.012h.006a4.809,4.809,0,0,0,1.947-.57c.024-.023.032-.044.024-.063-.023-.056-.187-.067-.189-.067a6.025,6.025,0,0,0-.968.3.163.163,0,0,1-.064.013.156.156,0,0,1-.137-.08.032.032,0,0,1,0-.033.036.036,0,0,1,.032-.016.082.082,0,0,0,.05-.018c.132-.039.155-.078.151-.1a.068.068,0,0,0-.053-.048.912.912,0,0,0-.18.042h-.217a.9.9,0,0,0-.138.023.5.5,0,0,0-.157.176.354.354,0,0,0,.093-.023.5.5,0,0,1,.183-.046Zm-1.411.417a.046.046,0,0,0,.018,0,.435.435,0,0,0,.222-.1c.066-.034.073-.055.072-.064a.017.017,0,0,0-.016-.012l-.015,0-.015,0a.7.7,0,0,0-.127.061l-.138.115ZM15.079,7.8h0c-.054.033-.108.069-.16.107a2.757,2.757,0,0,0,.418-.195.077.077,0,0,0,.015-.027l.127-.061.127-.057h-.026a2.4,2.4,0,0,0-.486.223.753.753,0,0,0,.071-.059.748.748,0,0,0-.112.053c-.007.006-.021.02-.02.025A.106.106,0,0,0,15.079,7.8Zm.942-.461a5.289,5.289,0,0,0-.613.275l.164-.065a.826.826,0,0,1,.116-.057.354.354,0,0,0,.1-.035l.127-.061Zm2.036-.4h0c-.279,0-.3.116-.3.165a1,1,0,0,1-.219.1.7.7,0,0,0-.286.159v.023a1.528,1.528,0,0,0,.374-.057,1.247,1.247,0,0,0,.22-.073.871.871,0,0,1,.321-.084.437.437,0,0,1,.1.011c0,.042,0,.042-.067.08a.164.164,0,0,0,.034,0,.966.966,0,0,0,.559-.274.083.083,0,0,0,.02-.074h-.056a1.786,1.786,0,0,1,.445-.287c.451-.111.605-.283.609-.321h-.023a2.831,2.831,0,0,0,.747-.249.276.276,0,0,0-.054-.005.273.273,0,0,0-.054.005l.99-.314a3.45,3.45,0,0,1-.351.046c.124-.035.253-.062.378-.087.108-.022.219-.045.328-.074h-.015a5.093,5.093,0,0,0-.576.047l-.014,0c-.006,0-.912.158-1.121.233a.089.089,0,0,0,.034.03.3.3,0,0,1-.16,0,3.078,3.078,0,0,0-.923.283c0,.016.01.025.039.025a1.931,1.931,0,0,0,.342-.075l-.191.073c.206-.051.854-.232.949-.26a9.5,9.5,0,0,1-1.121.34.3.3,0,0,0-.142.065.426.426,0,0,1-.1.21.206.206,0,0,0-.058-.007,1.8,1.8,0,0,0-.655.264.172.172,0,0,0,.056.011A.124.124,0,0,1,18.2,6.9h0a1.125,1.125,0,0,0,.3-.093,1.044,1.044,0,0,1-.375.155.071.071,0,0,1-.06-.026Zm-1.6.319.048,0c0,.017-.013.025-.027.033s-.029.017-.033.036a.007.007,0,0,0,0,.006.012.012,0,0,0,.01,0,.623.623,0,0,0,.151-.057l.022-.01a.941.941,0,0,0,.246-.233h-.067c0-.005.008-.011.023-.019a.274.274,0,0,0,.074-.054,3.011,3.011,0,0,0-.422.18H16.6c.007,0,.01,0,.011,0a.47.47,0,0,1-.121.048l-.009,0a1.089,1.089,0,0,0-.183.085h.03A.384.384,0,0,1,16.462,7.254Zm1.011-.169-.255.088c-.055.019-.113.033-.168.047s-.091.023-.135.037a.625.625,0,0,0-.13.05,3.015,3.015,0,0,0,.475-.088.638.638,0,0,0,.221-.115l.026-.019Zm-.3-.118h0a.141.141,0,0,0-.049.027.545.545,0,0,0-.068.062.352.352,0,0,1-.119.091l-.03.011c-.064.024-.115.044-.131.081.142-.051.283-.108.418-.172a.041.041,0,0,0,.045-.042c0-.006-.005-.007-.011-.009s-.019,0-.019-.022V6.966Zm.872-.315a.073.073,0,0,1,.028.005.808.808,0,0,1-.146.057,2.364,2.364,0,0,0-.322.115.106.106,0,0,0-.05.088.03.03,0,0,0,.013.026l.164-.046a1.607,1.607,0,0,0,.187-.023,1.592,1.592,0,0,0,.251-.129c.056-.033.115-.068.175-.1a1.162,1.162,0,0,1,.12-.04.909.909,0,0,0,.16-.059h-.071a.281.281,0,0,1,.048-.023c.123-.061.124-.065.127-.08a.006.006,0,0,0,0-.005l-.006,0-.019,0-.016,0s0,0,.008-.008.056-.043.048-.076.019-.037.045-.047a.1.1,0,0,0,.048-.03h-.026a6.9,6.9,0,0,0-.747.283h.082a.644.644,0,0,1-.2.072.445.445,0,0,0-.251.138,1.354,1.354,0,0,0,.232-.1A.5.5,0,0,1,18.049,6.651ZM43.418,34.5a14.149,14.149,0,0,0-1.445-.506,8.1,8.1,0,0,1,1.446.5ZM7.248,16.576h0c.185-.059.382-.118.588-.177l-.266.081C7.458,16.514,7.353,16.546,7.248,16.576Zm36.628-.08a2.974,2.974,0,0,0-.739-.665,2.729,2.729,0,0,1,.74.664Z" transform="translate(18395 7104.001)" fill="url(#linear-gradient2)"/>
    <g id="Group_536" data-name="Group 536" transform="translate(18451.885 7119.042)">
      <path id="Intersection_9" data-name="Intersection 9" d="M101.744,15.257A6.435,6.435,0,0,1,98.972,12.8a6.9,6.9,0,0,1-.966-3.657A9.773,9.773,0,0,1,99.26,4.2,9.018,9.018,0,0,1,102.79.743a10.572,10.572,0,0,1,5.221-1.265,9.325,9.325,0,0,1,3.819.735,5.448,5.448,0,0,1,2.507,2.116l-2.691,2.209a4.39,4.39,0,0,0-3.887-1.886,5.887,5.887,0,0,0-3.128.828,5.682,5.682,0,0,0-2.105,2.255,6.737,6.737,0,0,0-.747,3.173,3.825,3.825,0,0,0,1.184,2.956,4.716,4.716,0,0,0,3.324,1.093,5.594,5.594,0,0,0,4.278-1.863l2.208,2.255a8.488,8.488,0,0,1-6.808,2.783A9.586,9.586,0,0,1,101.744,15.257Zm-73.658.368a8.847,8.847,0,0,1-2.806-1.289L26.8,11.462A8.594,8.594,0,0,0,29.282,12.7a9.307,9.307,0,0,0,2.829.437,4.97,4.97,0,0,0,2.438-.507,1.538,1.538,0,0,0,.9-1.38,1.187,1.187,0,0,0-.714-1.093,12.234,12.234,0,0,0-2.277-.816A23.264,23.264,0,0,1,29.9,8.46,4.635,4.635,0,0,1,28.19,7.184a3.358,3.358,0,0,1-.724-2.254,4.74,4.74,0,0,1,.908-2.875A5.727,5.727,0,0,1,30.95.146a10.387,10.387,0,0,1,3.875-.667,12.867,12.867,0,0,1,3.082.356A8.156,8.156,0,0,1,40.391.859l-1.4,2.852a6.6,6.6,0,0,0-2.024-.931,8.784,8.784,0,0,0-2.345-.31,4.864,4.864,0,0,0-2.507.552,1.633,1.633,0,0,0-.92,1.426,1.151,1.151,0,0,0,.391.885,2.928,2.928,0,0,0,.989.575q.6.219,1.679.517a19.173,19.173,0,0,1,2.53.84,4.582,4.582,0,0,1,1.69,1.242,3.184,3.184,0,0,1,.7,2.151,4.686,4.686,0,0,1-.921,2.886,5.92,5.92,0,0,1-2.6,1.909,10.383,10.383,0,0,1-3.91.679A13.113,13.113,0,0,1,28.086,15.625Zm86.273.229,3.22-16.1h12.166l-.621,2.99h-8.44l-.69,3.5h7.475l-.574,2.9h-7.5l-.735,3.726h8.786l-.621,2.99Zm-24.4,0,3.22-16.1h3.749l-3.22,16.1Zm-11.96,0L74.247-.246h3.841l2.6,11.477L87.979-.246h3.864l-10.189,16.1Zm-11.408,0-2.53-4.508H60.884l-.9,4.508H56.238l3.22-16.1h6.555a7.314,7.314,0,0,1,4.646,1.311,4.425,4.425,0,0,1,1.656,3.68A6.215,6.215,0,0,1,71.1,8.609a6.5,6.5,0,0,1-3.381,2.277l2.806,4.968ZM61.459,8.38h3.174a4.395,4.395,0,0,0,2.886-.851A2.991,2.991,0,0,0,68.543,5.09a2,2,0,0,0-.782-1.725,3.723,3.723,0,0,0-2.231-.574H62.586ZM40.805,15.854l3.22-16.1H56.192l-.621,2.99H47.13l-.69,3.5h7.475l-.575,2.9h-7.5l-.736,3.726h8.786l-.621,2.99Zm-40.825,0L3.2-.246h7.774a7.079,7.079,0,0,1,4,.955,3.1,3.1,0,0,1,1.4,2.725,4.126,4.126,0,0,1-.77,2.518,4.84,4.84,0,0,1-2.1,1.6,3.252,3.252,0,0,1,2.162,3.219,4.241,4.241,0,0,1-1.978,3.8,9.531,9.531,0,0,1-5.267,1.288Zm4.278-2.806H8.651a4.275,4.275,0,0,0,2.438-.6,1.961,1.961,0,0,0,.874-1.725q0-1.655-2.415-1.656H5.04ZM5.569,6.356h3.8a3.87,3.87,0,0,0,2.288-.587,1.954,1.954,0,0,0,.817-1.69q0-1.519-2.37-1.518H6.328Zm12.3,4.461.575-2.875h6.509l-.575,2.875Z" transform="translate(0 0)" fill="url(#linear-gradient2)"/>
    </g>
  </g>
</svg>
