<svg xmlns="http://www.w3.org/2000/svg" xmlns:xlink="http://www.w3.org/1999/xlink" width="1920" height="1060" viewBox="0 0 1920 1060"><defs><clipPath id="a"><rect width="1920" height="1060" transform="translate(-1930 16960)" fill="#fff"/></clipPath><clipPath id="b"><rect width="1920" height="1025" transform="translate(-1930 16927)" fill="#fff" stroke="#707070" stroke-width="1"/></clipPath><linearGradient id="c" x1="0.159" y1="0.181" x2="1" y2="0.572" gradientUnits="objectBoundingBox"><stop offset="0" stop-color="#4956d5"/><stop offset="1" stop-color="#2f3eca"/></linearGradient><linearGradient id="d" x1="0.864" y1="0.107" x2="0.151" y2="0.911" gradientUnits="objectBoundingBox"><stop offset="0" stop-color="#2868d7"/><stop offset="1" stop-color="#00235e"/></linearGradient><filter id="e" x="-166.001" y="4.238" width="2578.821" height="1692.303" filterUnits="userSpaceOnUse"><feOffset dy="-10" input="SourceAlpha"/><feGaussianBlur stdDeviation="20" result="f"/><feFlood flood-opacity="0.4"/><feComposite operator="in" in2="f"/><feComposite in="SourceGraphic"/></filter><linearGradient id="g" x1="1" y1="0.214" x2="0" y2="1" gradientUnits="objectBoundingBox"><stop offset="0" stop-color="#0050d6"/><stop offset="1" stop-color="#fff"/></linearGradient><linearGradient id="h" x1="1" y1="0.214" x2="0" y2="1" gradientUnits="objectBoundingBox"><stop offset="0" stop-color="#132037"/><stop offset="1" stop-color="#2b1a84"/></linearGradient><filter id="i" x="-38.5" y="785.148" width="2006.173" height="872.352" filterUnits="userSpaceOnUse"><feOffset dy="-15" input="SourceAlpha"/><feGaussianBlur stdDeviation="12.5" result="j"/><feFlood flood-opacity="0.4"/><feComposite operator="in" in2="j"/><feComposite in="SourceGraphic"/></filter></defs><g transform="translate(1930 -16960)" clip-path="url(#a)"><g clip-path="url(#b)"><path d="M-2036,17648s449.932,238.381,900.19,66.9,481.592-283.59,1184.724-223.09,0,408.1,0,408.1L-2036,17922.377Z" transform="translate(0 -511)" fill="url(#c)"/><g transform="matrix(1, 0, 0, 1, -1930, 16960)" filter="url(#e)"><path d="M-2036,17648s449.932,238.381,900.19,66.9,481.592-283.59,1184.724-223.09,198.8,1555.73,198.8,1555.73H-2036Z" transform="translate(1930 -17401)" fill="url(#d)"/></g></g><path d="M-2572.785,18978.57v1037.838H-1394.67Z" transform="translate(335 -1796)" fill="rgba(0,0,0,0.2)"/><g transform="translate(-1 -624)"><path d="M0,61.258S208.78-113.847,512.865-107.409,952.924,29.721,1230.53,73.884c355.879,56.615,700.643-12.626,700.643-12.626V758H0Z" transform="translate(-1930 18461)" fill="url(#g)"/><g transform="matrix(1, 0, 0, 1, -1929, 17584)" filter="url(#i)"><path d="M0,47.949s208.78-161.3,512.865-155.371S952.924,18.9,1230.53,59.58c355.879,52.152,700.643-11.63,700.643-11.63V689.77H0Z" transform="translate(-1 945.23)" fill="url(#h)"/></g></g></g></svg>