<svg xmlns="http://www.w3.org/2000/svg" xmlns:xlink="http://www.w3.org/1999/xlink" width="223" height="223" viewBox="0 0 223 223"><defs><clipPath id="a"><circle cx="111.5" cy="111.5" r="111.5" transform="translate(335 1281)" fill="rgba(55,70,205,0.23)"/></clipPath></defs><g transform="translate(-335 -1281)" clip-path="url(#a)"><g transform="translate(335 1281)"><path d="M118.338,81.039H105.271V59.422a23.281,23.281,0,0,1,23.256-23.254A10.2,10.2,0,0,0,138.715,25.98V0h13.066V25.98a23.282,23.282,0,0,1-23.254,23.254,10.2,10.2,0,0,0-10.189,10.188Zm0,0" fill="#7742c9"/><path d="M138.713,0V25.98a10.2,10.2,0,0,1-10.188,10.188,23.187,23.187,0,0,0-16.881,7.285V81.039h6.693V59.421a10.2,10.2,0,0,1,10.189-10.188A23.281,23.281,0,0,0,151.781,25.98V0Zm0,0" fill="#5521a3"/><path d="M181.458,66H168.391v8.5H54.761V64.32H41.695V87.572l31.837,73.5h76.086l31.839-73.5Zm0,0" fill="#31a9f3"/><path d="M191.084,223a32.084,32.084,0,0,1-29.837-20.585l-17.3-45.557L223,122.143v68.94A31.951,31.951,0,0,1,191.084,223Zm0,0" fill="#31a9f3"/><path d="M31.916,223A31.951,31.951,0,0,1,0,191.084v-68.94l66.836,30.075,12.216,4.64-17.3,45.557A32.083,32.083,0,0,1,31.916,223Zm0,0" fill="#31a9f3"/><path d="M41.69,64.32H54.761V74.506H41.69Zm0,0" fill="#7742c9"/><path d="M168.39,64.32h13.071V74.506H168.39Zm0,0" fill="#7742c9"/><path d="M47.64,169.783a47.639,47.639,0,1,1,47.638-47.64A47.693,47.693,0,0,1,47.64,169.783Zm0,0" fill="#2acdfb"/><path d="M175.36,169.783A47.639,47.639,0,1,1,223,122.143,47.693,47.693,0,0,1,175.36,169.783Zm0,0" fill="#2acdfb"/><path d="M181.458,87.572V66H168.391v8.5H111.644v86.567h33.9l15.7,41.343A31.916,31.916,0,0,0,223,191.084v-68.94Zm0,0" fill="#408af2"/><path d="M168.39,64.32h13.071V74.506H168.39Zm0,0" fill="#7742c9"/><path d="M175.36,169.783A47.639,47.639,0,1,1,223,122.143,47.693,47.693,0,0,1,175.36,169.783Zm0,0" fill="#31a9f3"/><path d="M105.271,99.871h12.457v13.066H105.271Zm0,0" fill="#f33e7a"/><path d="M48.228,112.938c3.416,0,6.691-3,6.533-6.533a6.647,6.647,0,0,0-6.533-6.533c-3.418,0-6.691,3-6.533,6.533A6.646,6.646,0,0,0,48.228,112.938Zm0,0" fill="#ffde4e"/><path d="M48.228,144.391c3.416,0,6.691-3,6.533-6.533a6.647,6.647,0,0,0-6.533-6.533c-3.418,0-6.691,3-6.533,6.533A6.646,6.646,0,0,0,48.228,144.391Zm0,0" fill="#7742c9"/><path d="M63.956,128.663c3.416,0,6.69-3,6.533-6.533a6.649,6.649,0,0,0-6.533-6.533c-3.418,0-6.691,3.006-6.533,6.533A6.646,6.646,0,0,0,63.956,128.663Zm0,0" fill="#f33e7a"/><path d="M32.5,128.663c3.418,0,6.691-3,6.533-6.533A6.647,6.647,0,0,0,32.5,115.6c-3.416,0-6.69,3.006-6.533,6.533A6.648,6.648,0,0,0,32.5,128.663Zm0,0" fill="#96e16f"/><path d="M174.925,112.938c3.418,0,6.691-3,6.533-6.533a6.647,6.647,0,0,0-6.533-6.533c-3.416,0-6.69,3-6.533,6.533A6.648,6.648,0,0,0,174.925,112.938Zm0,0" fill="#ffde4e"/><path d="M174.925,144.391c3.418,0,6.691-3,6.533-6.533a6.647,6.647,0,0,0-6.533-6.533c-3.416,0-6.69,3-6.533,6.533A6.648,6.648,0,0,0,174.925,144.391Zm0,0" fill="#7742c9"/><path d="M190.652,128.663c3.418,0,6.691-3,6.533-6.533a6.647,6.647,0,0,0-6.533-6.533c-3.416,0-6.691,3.006-6.533,6.533A6.646,6.646,0,0,0,190.652,128.663Zm0,0" fill="#f33e7a"/><path d="M159.2,128.663c3.418,0,6.691-3,6.533-6.533A6.647,6.647,0,0,0,159.2,115.6c-3.416,0-6.691,3.006-6.533,6.533A6.646,6.646,0,0,0,159.2,128.663Zm0,0" fill="#96e16f"/><path d="M111.644,99.871h6.084v13.066h-6.084Zm0,0" fill="#c22764"/><path d="M174.925,112.938c3.418,0,6.691-3,6.533-6.533a6.647,6.647,0,0,0-6.533-6.533c-3.416,0-6.69,3-6.533,6.533A6.648,6.648,0,0,0,174.925,112.938Zm0,0" fill="#fdb737"/><path d="M174.925,144.391c3.418,0,6.691-3,6.533-6.533a6.647,6.647,0,0,0-6.533-6.533c-3.416,0-6.69,3-6.533,6.533A6.648,6.648,0,0,0,174.925,144.391Zm0,0" fill="#5521a3"/><path d="M190.652,128.663c3.418,0,6.691-3,6.533-6.533a6.647,6.647,0,0,0-6.533-6.533c-3.416,0-6.691,3.006-6.533,6.533A6.646,6.646,0,0,0,190.652,128.663Zm0,0" fill="#c22764"/><path d="M159.2,128.663c3.418,0,6.691-3,6.533-6.533A6.647,6.647,0,0,0,159.2,115.6c-3.416,0-6.691,3.006-6.533,6.533A6.646,6.646,0,0,0,159.2,128.663Zm0,0" fill="#96e16f"/></g></g></svg>