<svg xmlns="http://www.w3.org/2000/svg" xmlns:xlink="http://www.w3.org/1999/xlink" width="618" height="777" viewBox="0 0 618 777">
  <defs>
    <clipPath id="clip-path">
      <rect id="Rectangle_279" data-name="Rectangle 279" width="618" height="777" transform="translate(11355 7137)" fill="#fff"/>
    </clipPath>
    <linearGradient id="linear-gradient" x2="1" y2="1" gradientUnits="objectBoundingBox">
      <stop offset="0" stop-color="#207194"/>
      <stop offset="1" stop-color="#251b6f"/>
    </linearGradient>
    <linearGradient id="linear-gradient-2" x1="0.13" y1="-0.09" x2="1.034" y2="1.108" gradientUnits="objectBoundingBox">
      <stop offset="0" stop-color="#3173bd"/>
      <stop offset="1" stop-color="#209a9a"/>
    </linearGradient>
    <linearGradient id="linear-gradient-7" x1="-1.047" y1="8.192" x2="-1.047" y2="6.512" gradientUnits="objectBoundingBox">
      <stop offset="0" stop-color="#5761d7"/>
      <stop offset="0.01" stop-color="#00edff"/>
      <stop offset="0.13" stop-color="#4f94da"/>
      <stop offset="0.24" stop-color="#49b8dd"/>
      <stop offset="0.34" stop-color="#45d3df"/>
      <stop offset="0.43" stop-color="#43e2e0"/>
      <stop offset="0.51" stop-color="#42e8e0"/>
      <stop offset="0.57" stop-color="#43e0df"/>
      <stop offset="0.67" stop-color="#46ccde"/>
      <stop offset="0.8" stop-color="#00edff"/>
      <stop offset="0.93" stop-color="#00dcff"/>
      <stop offset="1" stop-color="#5761d7"/>
    </linearGradient>
    <linearGradient id="linear-gradient-11" x1="-20.44" y1="0.5" x2="-19.44" y2="0.5" gradientUnits="objectBoundingBox">
      <stop offset="0" stop-color="#42e8e0"/>
      <stop offset="0.15" stop-color="#43e3e0"/>
      <stop offset="0.33" stop-color="#45d5df"/>
      <stop offset="0.52" stop-color="#49bddd"/>
      <stop offset="0.72" stop-color="#4e9cdb"/>
      <stop offset="0.93" stop-color="#5472d8"/>
      <stop offset="1" stop-color="#5761d7"/>
    </linearGradient>
    <linearGradient id="linear-gradient-12" x1="-27.476" y1="0.5" x2="-26.475" y2="0.5" gradientUnits="objectBoundingBox">
      <stop offset="0" stop-color="#c0bff6"/>
      <stop offset="0.29" stop-color="#c5c4f7"/>
      <stop offset="0.64" stop-color="#d3d2f9"/>
      <stop offset="1" stop-color="#e9e9fd"/>
    </linearGradient>
    <linearGradient id="linear-gradient-13" x1="-165.072" y1="0.5" x2="-164.07" y2="0.5" gradientUnits="objectBoundingBox">
      <stop offset="0" stop-color="#5761d7"/>
      <stop offset="0.18" stop-color="#5c66d9"/>
      <stop offset="0.39" stop-color="#6a73df"/>
      <stop offset="0.61" stop-color="#8289e8"/>
      <stop offset="0.85" stop-color="#a3a7f5"/>
      <stop offset="1" stop-color="#bcbeff"/>
    </linearGradient>
    <linearGradient id="linear-gradient-14" x1="-18.968" y1="0.5" x2="-17.968" y2="0.5" xlink:href="#linear-gradient-13"/>
    <linearGradient id="linear-gradient-15" x1="-18.621" y1="0.5" x2="-17.621" y2="0.5" xlink:href="#linear-gradient-12"/>
    <linearGradient id="linear-gradient-16" x1="-73" y1="0.5" x2="-72" y2="0.5" xlink:href="#linear-gradient-12"/>
    <clipPath id="clip-path-2">
      <path id="SVGID" d="M421.246,137.68l244.88,141.386-30.366,179L391.06,316.8Z" transform="translate(-391.06 -137.68)" fill="none"/>
    </clipPath>
    <linearGradient id="linear-gradient-17" x1="-19.383" y1="0.5" x2="-18.383" y2="0.5" xlink:href="#linear-gradient-12"/>
    <linearGradient id="linear-gradient-18" x1="-77.807" y1="0.501" x2="-76.807" y2="0.501" xlink:href="#linear-gradient-12"/>
  </defs>
  <g id="Mask_Group_128" data-name="Mask Group 128" transform="translate(-11355 -7137)" clip-path="url(#clip-path)">
    <g id="Group_563" data-name="Group 563" transform="translate(-623 1331)">
      <g id="Group_536" data-name="Group 536" transform="translate(55 -146)">
        <rect id="Rectangle_278" data-name="Rectangle 278" width="618" height="777" transform="translate(11923 5952)" fill="url(#linear-gradient)"/>
      </g>
    </g>
    <g id="_532_преобразованный_" data-name="532 [преобразованный]" transform="translate(11401.006 7353.995)">
      <g id="Group_572" data-name="Group 572" transform="translate(-276 -231)" opacity="0.7">
        <g id="Group_564" data-name="Group 564" transform="translate(-0.006 409.269)">
          <path id="Path_1756" data-name="Path 1756" d="M47.246,257.271l-2.259,1.286c-8.378,4.783-7.372,13.194,2.226,18.818L484.091,532.559c9.615,5.607,24.178,6.283,32.556,1.517l2.259-1.286c8.362-4.783,7.355-13.194-2.243-18.8L79.785,258.723C70.137,253.115,55.608,252.439,47.246,257.271Z" transform="translate(-39.305 -254.042)" opacity="0.66" fill="url(#linear-gradient-2)"/>
        </g>
        <g id="Group_565" data-name="Group 565" transform="translate(173.972 440.439)">
          <path id="Path_1757" data-name="Path 1757" d="M152.736,276.089l-2.259,1.3c-8.378,4.766-7.372,13.194,2.243,18.8l211,123.279c9.6,5.624,24.178,6.3,32.539,1.517l2.259-1.286c8.362-4.766,7.372-13.194-2.243-18.8l-211-123.3C175.676,272,161.1,271.389,152.736,276.089Z" transform="translate(-144.795 -272.941)" opacity="0.66" fill="url(#linear-gradient-2)"/>
        </g>
        <g id="Group_566" data-name="Group 566" transform="translate(285.556 435.111)">
          <path id="Path_1758" data-name="Path 1758" d="M220.4,272.892l-2.259,1.286c-8.378,4.766-7.372,13.194,2.226,18.8L617.825,524.959c9.615,5.607,24.177,6.3,32.539,1.517l2.259-1.286c8.378-4.766,7.372-13.194-2.226-18.8L252.935,274.41C243.32,268.8,228.758,268.11,220.4,272.892Z" transform="translate(-212.454 -269.711)" opacity="0.66" fill="url(#linear-gradient-2)"/>
        </g>
        <g id="Group_567" data-name="Group 567" transform="translate(55.884 230.366)">
          <path id="Path_1759" data-name="Path 1759" d="M81.121,148.757l-2.259,1.286c-8.362,4.766-7.356,13.194,2.243,18.8l741.323,434.14c9.6,5.607,24.177,6.284,32.539,1.517l2.259-1.286c8.361-4.783,7.372-13.194-2.243-18.8L113.594,150.274C104,144.634,89.367,143.974,81.121,148.757Z" transform="translate(-73.193 -145.564)" opacity="0.66" fill="url(#linear-gradient-2)"/>
        </g>
        <g id="Group_568" data-name="Group 568" transform="translate(11.767 0.005)">
          <path id="Path_1760" data-name="Path 1760" d="M54.371,9.06l-2.259,1.286c-8.362,4.783-7.356,13.194,2.243,18.8L887.6,516.557c9.6,5.607,24.177,6.3,32.539,1.517l2.259-1.286c8.378-4.766,7.372-13.194-2.243-18.8L86.943,10.577C77.311,4.97,62.749,4.294,54.371,9.06Z" transform="translate(-46.443 -5.885)" opacity="0.66" fill="url(#linear-gradient-2)"/>
        </g>
        <g id="Group_569" data-name="Group 569" transform="translate(198.459 42.126)">
          <path id="Path_1761" data-name="Path 1761" d="M167.571,34.6l-2.259,1.286c-8.362,4.783-7.356,13.194,2.243,18.818l564.2,329.645c9.615,5.607,24.177,6.3,32.539,1.517l2.259-1.286c8.378-4.766,7.372-13.194-2.226-18.8L200.126,36.117C190.511,30.51,175.949,29.834,167.571,34.6Z" transform="translate(-159.643 -31.425)" opacity="0.66" fill="url(#linear-gradient-7)"/>
        </g>
        <g id="Group_570" data-name="Group 570" transform="translate(206.765 248.08)">
          <path id="Path_1762" data-name="Path 1762" d="M172.613,159.48l-2.259,1.286c-8.362,4.783-7.372,13.194,2.243,18.8l474.3,277.068c9.6,5.607,24.161,6.284,32.539,1.517l2.259-1.286c8.362-4.783,7.355-13.194-2.243-18.8L205.152,161C195.554,155.39,180.975,154.714,172.613,159.48Z" transform="translate(-164.679 -156.305)" opacity="0.66" fill="url(#linear-gradient-2)"/>
        </g>
        <g id="Group_571" data-name="Group 571" transform="translate(305.25 235.127)">
          <path id="Path_1763" data-name="Path 1763" d="M232.336,151.632l-2.259,1.286c-8.378,4.766-7.372,13.194,2.243,18.8l177.736,103.9c9.6,5.607,24.161,6.284,32.539,1.517l2.259-1.286c8.362-4.783,7.355-13.194-2.243-18.8L264.875,153.15C255.276,147.542,240.7,146.85,232.336,151.632Z" transform="translate(-224.395 -148.451)" opacity="0.66" fill="url(#linear-gradient-2)"/>
        </g>
        <g id="Group_585" data-name="Group 585" transform="translate(198.459 42.126)">
          <path id="Path_1761-2" data-name="Path 1761" d="M167.571,34.6l-2.259,1.286c-8.362,4.783-7.356,13.194,2.243,18.818l564.2,329.645c9.615,5.607,24.177,6.3,32.539,1.517l2.259-1.286c8.378-4.766,7.372-13.194-2.226-18.8L200.126,36.117C190.511,30.51,175.949,29.834,167.571,34.6Z" transform="translate(-159.643 -31.425)" opacity="0.66" fill="url(#linear-gradient-2)"/>
        </g>
      </g>
      <g id="Group_583" data-name="Group 583" transform="translate(87.761 -61.435)">
        <path id="Path_1764" data-name="Path 1764" d="M556.763,478.228a20.363,20.363,0,0,1-10.242-2.735L318.371,343.729a4.193,4.193,0,0,1,0-7.227l142.3-82.152.539.319L699.008,392.023a4.193,4.193,0,0,1,0,7.227L566.945,475.493A20.4,20.4,0,0,1,556.763,478.228ZM460.676,256.885,319.45,338.419a2,2,0,0,0,0,3.494L547.6,473.676a18.427,18.427,0,0,0,18.327,0L697.99,397.393a2.028,2.028,0,0,0,0-3.494Z" transform="translate(-299.866 -6.471)" fill="url(#linear-gradient-11)"/>
        <g id="Group_577" data-name="Group 577" transform="translate(0 0)">
          <g id="Group_574" data-name="Group 574" transform="translate(156.6)">
            <path id="Path_1765" data-name="Path 1765" d="M388.475,322.367l31.783-188.561-2.555-1.078,3.853-2.2h0a2.755,2.755,0,0,1,2.975.2L678.554,277.388a7.147,7.147,0,0,1,3.294,6.468L649.906,473.934a2.435,2.435,0,0,1-1.358,2h0l-3.773,2.156-.639-3.494h.22L391.869,328.855a7.167,7.167,0,0,1-3.394-6.488Z" transform="translate(-384.565 -130.188)" fill="url(#linear-gradient-12)"/>
            <path id="Path_1766" data-name="Path 1766" d="M555.788,207.437l4.173-1.857a5.689,5.689,0,0,1,.539,3.154L528.557,398.813a2.436,2.436,0,0,1-1.358,2h0l-3.773,2.156-.639-3.494h.22l-12.777-7.387Z" transform="translate(-263.236 -55.066)" fill="url(#linear-gradient-13)"/>
            <path id="Path_1767" data-name="Path 1767" d="M389.743,329.951,643.767,476.628c2,1.138,3.653.479,3.993-1.557L679.7,284.992a7.167,7.167,0,0,0-3.314-6.448L422.464,131.887c-2-1.138-3.633-.479-3.993,1.537L386.528,323.5a7.107,7.107,0,0,0,3.214,6.448Z" transform="translate(-386.511 -129.048)" fill="#24126a"/>
            <g id="Group_573" data-name="Group 573" transform="translate(9.081 14.957)" opacity="0.51">
              <path id="Path_1768" data-name="Path 1768" d="M381.956,131.8l244.86,141.366L596.451,452.184,351.75,310.9Z" transform="translate(-351.75 -131.8)" fill="#453c9e"/>
            </g>
          </g>
          <g id="Group_576" data-name="Group 576" transform="translate(0 200.286)">
            <path id="Path_1769" data-name="Path 1769" d="M308.14,312.8l13.875,7.247,139.01-80.256a9.982,9.982,0,0,1,9.064.359L709.859,378.578c2.3-1.278,12.757-6.309,12.757-6.309l-5.091,13.216h0a2.955,2.955,0,0,1-1.417,1.577l-146.4,84.528a10.1,10.1,0,0,1-9.084-.379L315.267,329.546a4.432,4.432,0,0,1-2-2.2h0Z" transform="translate(-308.002 -222.181)" fill="url(#linear-gradient-14)"/>
            <path id="Path_1770" data-name="Path 1770" d="M310.365,323.322,561.913,468.5a10.282,10.282,0,0,0,9.283.379l149.991-86.544c2.4-1.378,2-3.773-.659-5.37L469.04,231.787a10.382,10.382,0,0,0-9.383-.3l-150.05,86.624C307.31,319.33,307.61,321.825,310.365,323.322Z" transform="translate(-308.071 -230.511)" fill="url(#linear-gradient-15)"/>
            <path id="Path_1771" data-name="Path 1771" d="M478.371,335.532v-2.755c0-.26-.16-.379-.359-.28l-9.722,5.63a.818.818,0,0,0-.359.679v2.755c0,.26.16.379.359.26l9.722-5.61a.858.858,0,0,0,.359-.679Z" transform="translate(-148.785 -128.925)" fill="#2842a2"/>
            <path id="Path_1772" data-name="Path 1772" d="M471.081,339.778V337c0-.26-.16-.379-.359-.26L461,342.353a.858.858,0,0,0-.359.679v2.755c0,.26.16.379.359.28l9.722-5.61A.858.858,0,0,0,471.081,339.778Z" transform="translate(-156.049 -124.706)" fill="#2842a2"/>
            <path id="Path_1773" data-name="Path 1773" d="M639.465,363.016,430.521,242.373a4.492,4.492,0,0,0-4.512,0L351.6,285.416a1.6,1.6,0,0,0,0,2.775L560.467,408.774a4.412,4.412,0,0,0,4.492,0l74.506-42.983a1.617,1.617,0,0,0,0-2.775Z" transform="translate(-265.499 -219.296)" fill="#adb1f2"/>
            <path id="Path_1774" data-name="Path 1774" d="M639.465,365.79l-.759.419L430.5,246.005a4.512,4.512,0,0,0-4.492,0l-73.668,42.623-.739-.439a1.6,1.6,0,0,1,0-2.775l74.406-43.043a4.472,4.472,0,0,1,4.492,0L639.465,363.015a1.617,1.617,0,0,1,0,2.775Z" transform="translate(-265.499 -219.295)" fill="#9198db"/>
            <g id="Group_575" data-name="Group 575" transform="translate(96.465 29.306)">
              <path id="Path_1775" data-name="Path 1775" d="M346.35,243.982,527.864,348.773l8.065-4.672L354.416,239.31Z" transform="translate(-287.915 -239.31)" fill="#24126a"/>
              <path id="Path_1776" data-name="Path 1776" d="M336.44,249.7l170.254,98.283,8.065-4.652-170.254-98.3Z" transform="translate(-297.789 -233.611)" fill="#24126a"/>
              <path id="Path_1777" data-name="Path 1777" d="M329.99,253.432,530.43,369.144l8.066-4.652L338.056,248.76Z" transform="translate(-304.216 -229.894)" fill="#24126a"/>
              <path id="Path_1778" data-name="Path 1778" d="M323.53,257.142,523.97,372.874l8.086-4.652L331.6,252.49Z" transform="translate(-310.653 -226.177)" fill="#24126a"/>
              <path id="Path_1779" data-name="Path 1779" d="M317.08,260.882,517.52,376.614l8.065-4.672L325.145,256.21Z" transform="translate(-317.08 -222.471)" fill="#24126a"/>
              <path id="Path_1780" data-name="Path 1780" d="M442.76,299.632l8.065,4.652,8.065-4.652-8.065-4.652Z" transform="translate(-191.851 -183.84)" fill="#24126a"/>
              <path id="Path_1781" data-name="Path 1781" d="M428.5,302.842l16.75,9.663,8.065-4.652-16.75-9.663Z" transform="translate(-206.059 -180.641)" fill="#24126a"/>
            </g>
            <path id="Path_1782" data-name="Path 1782" d="M415.653,347.231,359.294,314.71a2.436,2.436,0,0,1,0-4.612l38.531-22.24a8.8,8.8,0,0,1,7.986,0l56.359,32.522a2.436,2.436,0,0,1,0,4.612l-38.531,22.24a8.765,8.765,0,0,1-7.986,0Z" transform="translate(-258.677 -174.323)" fill="url(#linear-gradient-16)"/>
            <path id="Path_1783" data-name="Path 1783" d="M462.145,322.256l-56.339-32.522a8.8,8.8,0,0,0-7.986,0l-38.531,22.24a3.594,3.594,0,0,0-1.378,1.358c-.579-1.1-.14-2.356,1.378-3.234l38.531-22.24a8.8,8.8,0,0,1,7.986,0l56.339,32.522c1.517.878,2,2.136,1.378,3.254a3.494,3.494,0,0,0-1.377-1.378Z" transform="translate(-258.653 -174.323)" fill="#9198db"/>
          </g>
        </g>
        <g id="Group_582" data-name="Group 582" transform="translate(165.681 14.957)" opacity="0.11">
          <g id="Group_581" data-name="Group 581" transform="translate(0 0)" clip-path="url(#clip-path-2)">
            <g id="Group_580" data-name="Group 580" transform="translate(-7.232 93.39)">
              <path id="Path_1784" data-name="Path 1784" d="M389.718,277.374,641.267,422.553a10.262,10.262,0,0,0,9.283.379L800.6,336.308c2.4-1.378,2-3.773-.659-5.37L548.393,185.759a10.381,10.381,0,0,0-9.3-.379L389.04,272C386.664,273.381,386.963,275.8,389.718,277.374Z" transform="translate(-387.437 -184.459)" fill="url(#linear-gradient-17)"/>
              <path id="Path_1785" data-name="Path 1785" d="M543.843,274.074,487.5,241.552a2.436,2.436,0,0,1,0-4.612l38.571-22.16a8.764,8.764,0,0,1,7.986,0L590.4,247.3a2.436,2.436,0,0,1,0,4.612l-38.591,22.16a8.764,8.764,0,0,1-7.966,0Z" transform="translate(-289.375 -155.205)" fill="url(#linear-gradient-18)"/>
              <path id="Path_1786" data-name="Path 1786" d="M590.31,249.2l-56.279-32.541a8.884,8.884,0,0,0-7.986,0L487.514,238.9a3.5,3.5,0,0,0-1.377,1.378c-.6-1.118-.14-2.376,1.377-3.254l38.531-22.24a8.764,8.764,0,0,1,7.986,0L590.369,247.3c1.537.878,2,2.136,1.4,3.254A3.394,3.394,0,0,0,590.31,249.2Z" transform="translate(-289.345 -155.205)" fill="#9198db"/>
              <g id="Group_579" data-name="Group 579" transform="translate(37.071 48.539)">
                <path id="Path_1787" data-name="Path 1787" d="M694.675,330.01,485.711,209.387a4.412,4.412,0,0,0-4.492,0l-74.406,43.043a1.6,1.6,0,0,0,0,2.775l208.8,120.583a4.552,4.552,0,0,0,4.512,0L694.675,332.8a1.637,1.637,0,0,0,0-2.795Z" transform="translate(-406.006 -208.772)" fill="#adb1f2"/>
                <path id="Path_1788" data-name="Path 1788" d="M694.675,332.8l-.759.419L485.711,213.02a4.512,4.512,0,0,0-4.492,0l-73.668,42.623-.739-.439a1.6,1.6,0,0,1,0-2.775l74.406-43.043a4.412,4.412,0,0,1,4.492,0L694.675,330.01a1.637,1.637,0,0,1,0,2.795Z" transform="translate(-406.006 -208.772)" fill="#9198db"/>
                <g id="Group_578" data-name="Group 578" transform="translate(13.064 8.82)">
                  <path id="Path_1789" data-name="Path 1789" d="M380.467,223.29,562.5,328.381l-7.207,4.172L373.24,227.443Z" transform="translate(-373.24 -191.387)" fill="#24126a"/>
                  <path id="Path_1790" data-name="Path 1790" d="M390.057,217.74l173.029,99.9-7.207,4.152L382.85,221.912Z" transform="translate(-363.664 -196.917)" fill="#24126a"/>
                  <path id="Path_1791" data-name="Path 1791" d="M483.2,271.51l16.151,9.343-7.207,4.152-16.151-9.323Z" transform="translate(-270.858 -143.34)" fill="#24126a"/>
                  <path id="Path_1792" data-name="Path 1792" d="M476.047,278.48l11.26,6.488-7.207,4.172-11.26-6.508Z" transform="translate(-277.983 -136.395)" fill="#24126a"/>
                  <path id="Path_1793" data-name="Path 1793" d="M396.077,214.26l202.1,116.69-7.207,4.172-202.1-116.69Z" transform="translate(-357.666 -200.385)" fill="#24126a"/>
                  <path id="Path_1794" data-name="Path 1794" d="M402.1,210.79l202.1,116.69-7.207,4.153-202.1-116.67Z" transform="translate(-351.668 -203.842)" fill="#24126a"/>
                  <path id="Path_1795" data-name="Path 1795" d="M408.117,207.31,610.214,324l-7.207,4.173-202.1-116.69Z" transform="translate(-345.669 -207.31)" fill="#24126a"/>
                </g>
              </g>
            </g>
          </g>
        </g>
      </g>
      <g id="Group_584" data-name="Group 584" transform="translate(288.479 -140.09)">
        <path id="Path_1796" data-name="Path 1796" d="M396.152,106.331,369.3,90.819V84.91l26.852,15.512Z" transform="translate(-369.3 -84.91)" fill="#42e8e0" opacity="0.5"/>
        <path id="Path_1797" data-name="Path 1797" d="M394.473,105.349l-9.663-5.59V93.87l9.663,5.57Z" transform="translate(-353.846 -75.982)" fill="#42e8e0" opacity="0.5"/>
        <path id="Path_1798" data-name="Path 1798" d="M398.278,107.533l-6.568-3.773V97.85l6.568,3.793Z" transform="translate(-346.97 -72.016)" fill="#42e8e0" opacity="0.5"/>
        <path id="Path_1799" data-name="Path 1799" d="M383.934,106.014,369.3,97.569V91.66l14.634,8.445Z" transform="translate(-369.3 -78.184)" fill="#42e8e0" opacity="0.5"/>
        <path id="Path_1800" data-name="Path 1800" d="M396.628,113.331,378.68,102.969V97.08l17.948,10.361Z" transform="translate(-359.954 -72.784)" fill="#42e8e0" opacity="0.5"/>
        <path id="Path_1801" data-name="Path 1801" d="M396.288,113.153l-6.568-3.793V103.45l6.568,3.793Z" transform="translate(-348.953 -66.437)" fill="#42e8e0" opacity="0.5"/>
        <path id="Path_1802" data-name="Path 1802" d="M401.378,116.093,394.81,112.3V106.39l6.568,3.793Z" transform="translate(-343.881 -63.507)" fill="#42e8e0" opacity="0.5"/>
        <path id="Path_1803" data-name="Path 1803" d="M379.881,110.428,369.3,104.319V98.41l10.581,6.109Z" transform="translate(-369.3 -71.458)" fill="#42e8e0"/>
        <path id="Path_1804" data-name="Path 1804" d="M380.273,110.646l-3.613-2.1V102.66l3.613,2.1Z" transform="translate(-361.966 -67.224)" fill="#42e8e0"/>
        <path id="Path_1805" data-name="Path 1805" d="M387.108,114.593,380.52,110.8V104.89l6.588,3.793Z" transform="translate(-358.12 -65.002)" fill="#42e8e0" opacity="0.5"/>
        <path id="Path_1806" data-name="Path 1806" d="M408.37,133.629,369.3,111.049V105.16l39.07,22.559Z" transform="translate(-369.3 -64.733)" fill="#42e8e0" opacity="0.5"/>
        <path id="Path_1807" data-name="Path 1807" d="M400.593,129.129l-9.663-5.59V117.65l9.663,5.59Z" transform="translate(-347.747 -52.287)" fill="#42e8e0" opacity="0.5"/>
        <path id="Path_1808" data-name="Path 1808" d="M379.881,123.928,369.3,117.8V111.91l10.581,6.109Z" transform="translate(-369.3 -58.007)" fill="#42e8e0" opacity="0.5"/>
        <path id="Path_1809" data-name="Path 1809" d="M397.4,134.028,376.66,122.049V116.16L397.4,128.138Z" transform="translate(-361.966 -53.772)" fill="#42e8e0" opacity="0.5"/>
        <path id="Path_1810" data-name="Path 1810" d="M395.688,133.043l-6.588-3.793V123.34l6.588,3.813Z" transform="translate(-349.571 -46.618)" fill="#42e8e0" opacity="0.5"/>
        <path id="Path_1811" data-name="Path 1811" d="M390.961,137.067,369.3,124.549V118.66l21.661,12.5Z" transform="translate(-369.3 -51.281)" fill="#42e8e0" opacity="0.5"/>
        <path id="Path_1812" data-name="Path 1812" d="M397.872,141.043,382.2,132V126.11l15.672,9.044Z" transform="translate(-356.446 -43.858)" fill="#42e8e0"/>
        <path id="Path_1813" data-name="Path 1813" d="M402.691,143.828l-10.581-6.109V131.83l10.581,6.109Z" transform="translate(-346.572 -38.158)" fill="#42e8e0" opacity="0.5"/>
        <path id="Path_1814" data-name="Path 1814" d="M376.607,135.532,369.3,131.3V125.41l7.307,4.212Z" transform="translate(-369.3 -44.555)" fill="#42e8e0" opacity="0.5"/>
        <path id="Path_1815" data-name="Path 1815" d="M384.683,140.189l-9.663-5.59V128.71l9.663,5.59Z" transform="translate(-363.6 -41.267)" fill="#42e8e0" opacity="0.5"/>
        <path id="Path_1816" data-name="Path 1816" d="M397.492,147.583,381.92,138.6V132.69l15.572,9Z" transform="translate(-356.725 -37.301)" fill="#42e8e0" opacity="0.5"/>
        <path id="Path_1817" data-name="Path 1817" d="M391.7,150.986l-22.4-12.937V132.16L391.7,145.1Z" transform="translate(-369.3 -37.83)" fill="#42e8e0" opacity="0.5"/>
        <path id="Path_1818" data-name="Path 1818" d="M403.582,157.848l-21-12.118V139.82l21,12.138Z" transform="translate(-356.068 -30.197)" fill="#42e8e0" opacity="0.5"/>
        <path id="Path_1819" data-name="Path 1819" d="M401.738,156.773l-6.588-3.793V147.09l6.588,3.793Z" transform="translate(-343.543 -22.953)" fill="#42e8e0"/>
        <path id="Path_1820" data-name="Path 1820" d="M406.858,159.733l-6.568-3.793V150.05l6.568,3.793Z" transform="translate(-338.421 -20.004)" fill="#42e8e0" opacity="0.5"/>
        <path id="Path_1821" data-name="Path 1821" d="M382.716,152.546,369.3,144.8V138.91l13.416,7.746Z" transform="translate(-369.3 -31.104)" fill="#42e8e0" opacity="0.5"/>
        <path id="Path_1822" data-name="Path 1822" d="M404.16,110.929l18.627,10.761v-5.909L404.16,105.04Z" transform="translate(-334.565 -64.852)" fill="#42e8e0"/>
        <path id="Path_1823" data-name="Path 1823" d="M406.15,118.849l14.654,8.445v-5.909L406.15,112.94Z" transform="translate(-332.582 -56.981)" fill="#42e8e0" opacity="0.5"/>
        <path id="Path_1824" data-name="Path 1824" d="M408.18,126.749l10.6,6.129v-5.909l-10.6-6.109Z" transform="translate(-330.559 -49.089)" fill="#42e8e0" opacity="0.5"/>
        <path id="Path_1825" data-name="Path 1825" d="M405.77,132.109l15.412,8.9V135.1L405.77,126.22Z" transform="translate(-332.961 -43.748)" fill="#42e8e0" opacity="0.5"/>
        <path id="Path_1826" data-name="Path 1826" d="M408.18,140.249l10.6,6.129v-5.909l-10.6-6.109Z" transform="translate(-330.559 -35.637)" fill="#42e8e0" opacity="0.5"/>
        <path id="Path_1827" data-name="Path 1827" d="M406.76,146.179l13.436,7.746v-5.889L406.76,140.29Z" transform="translate(-331.974 -29.729)" fill="#42e8e0" opacity="0.5"/>
        <path id="Path_1828" data-name="Path 1828" d="M409.82,154.709l7.327,4.212v-5.889L409.82,148.8Z" transform="translate(-328.925 -21.249)" fill="#42e8e0" opacity="0.5"/>
        <path id="Path_1829" data-name="Path 1829" d="M406.38,159.459l14.194,8.185v-5.889L406.38,153.57Z" transform="translate(-332.353 -16.496)" fill="#42e8e0" opacity="0.5"/>
        <path id="Path_1830" data-name="Path 1830" d="M406.76,166.439l13.436,7.746V168.3L406.76,160.53Z" transform="translate(-331.974 -9.561)" fill="#42e8e0" opacity="0.5"/>
        <path id="Path_1831" data-name="Path 1831" d="M383.79,153.173l-5.71-3.294V143.97l5.71,3.314Z" transform="translate(-360.551 -26.062)" fill="#42e8e0" opacity="0.5"/>
        <path id="Path_1832" data-name="Path 1832" d="M395.857,160.146,383,152.719V146.81l12.857,7.427Z" transform="translate(-355.649 -23.232)" fill="#42e8e0" opacity="0.5"/>
        <path id="Path_1833" data-name="Path 1833" d="M448.322,136.322,421.47,120.809V114.92l26.852,15.512Z" transform="translate(-317.317 -55.008)" fill="#42e8e0" opacity="0.5"/>
        <path id="Path_1834" data-name="Path 1834" d="M446.643,135.349l-9.663-5.57V123.87l9.663,5.59Z" transform="translate(-301.863 -46.09)" fill="#42e8e0" opacity="0.5"/>
        <path id="Path_1835" data-name="Path 1835" d="M450.448,137.543l-6.568-3.793V127.86l6.568,3.773Z" transform="translate(-294.987 -42.114)" fill="#42e8e0"/>
        <path id="Path_1836" data-name="Path 1836" d="M436.1,136l-14.634-8.445V121.67l14.634,8.445Z" transform="translate(-317.317 -48.282)" fill="#42e8e0" opacity="0.5"/>
        <path id="Path_1837" data-name="Path 1837" d="M448.8,143.351,430.85,132.989V127.08L448.8,137.441Z" transform="translate(-307.971 -42.891)" fill="#42e8e0" opacity="0.5"/>
        <path id="Path_1838" data-name="Path 1838" d="M448.458,143.143l-6.568-3.793V133.46l6.568,3.793Z" transform="translate(-296.97 -36.534)" fill="#42e8e0"/>
        <path id="Path_1839" data-name="Path 1839" d="M453.548,146.083l-6.568-3.793V136.4l6.568,3.793Z" transform="translate(-291.898 -33.605)" fill="#42e8e0" opacity="0.5"/>
        <path id="Path_1840" data-name="Path 1840" d="M432.051,140.428l-10.581-6.109V128.41l10.581,6.129Z" transform="translate(-317.317 -41.566)" fill="#42e8e0" opacity="0.5"/>
        <path id="Path_1841" data-name="Path 1841" d="M432.444,140.646l-3.614-2.076V132.66l3.614,2.1Z" transform="translate(-309.983 -37.331)" fill="#42e8e0" opacity="0.5"/>
        <path id="Path_1842" data-name="Path 1842" d="M439.278,144.583l-6.588-3.793V134.9l6.588,3.793Z" transform="translate(-306.137 -35.099)" fill="#42e8e0" opacity="0.5"/>
        <path id="Path_1843" data-name="Path 1843" d="M460.54,163.629l-39.07-22.559V135.16l39.07,22.579Z" transform="translate(-317.317 -34.84)" fill="#42e8e0" opacity="0.5"/>
        <path id="Path_1844" data-name="Path 1844" d="M452.763,159.129l-9.663-5.57V147.65l9.663,5.59Z" transform="translate(-295.765 -22.395)" fill="#42e8e0" opacity="0.5"/>
        <path id="Path_1845" data-name="Path 1845" d="M432.051,153.928l-10.581-6.109V141.91l10.581,6.109Z" transform="translate(-317.317 -28.114)" fill="#42e8e0" opacity="0.5"/>
        <path id="Path_1846" data-name="Path 1846" d="M449.573,164.048,428.83,152.069V146.16l20.743,11.978Z" transform="translate(-309.983 -23.88)" fill="#42e8e0" opacity="0.5"/>
        <path id="Path_1847" data-name="Path 1847" d="M447.838,163.033l-6.568-3.793V153.35l6.568,3.793Z" transform="translate(-297.588 -16.716)" fill="#42e8e0" opacity="0.5"/>
        <path id="Path_1848" data-name="Path 1848" d="M443.131,167.067l-21.661-12.5V148.66l21.661,12.518Z" transform="translate(-317.317 -21.389)" fill="#42e8e0"/>
        <path id="Path_1849" data-name="Path 1849" d="M450.032,171.063l-15.652-9.044V156.11l15.652,9.064Z" transform="translate(-304.453 -13.965)" fill="#42e8e0" opacity="0.5"/>
        <path id="Path_1850" data-name="Path 1850" d="M454.861,173.848l-10.581-6.109V161.83l10.581,6.109Z" transform="translate(-294.589 -8.266)" fill="#42e8e0" opacity="0.5"/>
        <path id="Path_1851" data-name="Path 1851" d="M428.777,165.532l-7.307-4.212V155.41l7.307,4.232Z" transform="translate(-317.317 -14.663)" fill="#42e8e0" opacity="0.5"/>
        <path id="Path_1852" data-name="Path 1852" d="M436.853,170.209l-9.663-5.59V158.71l9.663,5.59Z" transform="translate(-311.617 -11.375)" fill="#42e8e0" opacity="0.5"/>
        <path id="Path_1853" data-name="Path 1853" d="M449.662,177.593l-15.572-9V162.7l15.572,8.984Z" transform="translate(-304.742 -7.399)" fill="#42e8e0"/>
        <path id="Path_1854" data-name="Path 1854" d="M443.87,181.006l-22.4-12.937V162.16l22.4,12.937Z" transform="translate(-317.317 -7.937)" fill="#42e8e0" opacity="0.5"/>
        <path id="Path_1855" data-name="Path 1855" d="M455.752,187.858l-21-12.138V169.83l21,12.118Z" transform="translate(-304.085 -0.295)" fill="#42e8e0" opacity="0.5"/>
        <path id="Path_1856" data-name="Path 1856" d="M453.908,186.773l-6.588-3.793V177.09l6.588,3.793Z" transform="translate(-291.56 6.939)" fill="#42e8e0" opacity="0.5"/>
        <path id="Path_1857" data-name="Path 1857" d="M459.028,189.753l-6.568-3.793V180.05l6.568,3.793Z" transform="translate(-286.438 9.889)" fill="#42e8e0" opacity="0.5"/>
        <path id="Path_1858" data-name="Path 1858" d="M434.886,182.565,421.47,174.8V168.91l13.416,7.746Z" transform="translate(-317.317 -1.211)" fill="#42e8e0" opacity="0.5"/>
        <path id="Path_1859" data-name="Path 1859" d="M456.33,140.949l18.607,10.741V145.8L456.33,135.04Z" transform="translate(-282.582 -34.96)" fill="#42e8e0"/>
        <path id="Path_1860" data-name="Path 1860" d="M458.32,148.839l14.634,8.445v-5.889L458.32,142.95Z" transform="translate(-280.599 -27.078)" fill="#42e8e0" opacity="0.5"/>
        <path id="Path_1861" data-name="Path 1861" d="M460.35,156.759l10.581,6.109v-5.889L460.35,150.87Z" transform="translate(-278.576 -19.187)" fill="#42e8e0" opacity="0.5"/>
        <path id="Path_1862" data-name="Path 1862" d="M457.94,162.129l15.392,8.884v-5.889l-15.392-8.9Z" transform="translate(-280.978 -13.856)" fill="#42e8e0" opacity="0.5"/>
        <path id="Path_1863" data-name="Path 1863" d="M460.35,170.269l10.581,6.109v-5.889L460.35,164.36Z" transform="translate(-278.576 -5.745)" fill="#42e8e0" opacity="0.5"/>
        <path id="Path_1864" data-name="Path 1864" d="M458.93,176.2l13.416,7.746v-5.909L458.93,170.29Z" transform="translate(-279.991 0.164)" fill="#42e8e0" opacity="0.5"/>
        <path id="Path_1865" data-name="Path 1865" d="M461.99,184.7l7.307,4.232v-5.909l-7.307-4.212Z" transform="translate(-276.942 8.653)" fill="#42e8e0" opacity="0.5"/>
        <path id="Path_1866" data-name="Path 1866" d="M458.55,189.479l14.175,8.185v-5.909L458.55,183.57Z" transform="translate(-280.37 13.396)" fill="#42e8e0" opacity="0.5"/>
        <path id="Path_1867" data-name="Path 1867" d="M458.93,196.429l13.416,7.766v-5.909L458.93,190.54Z" transform="translate(-279.991 20.341)" fill="#42e8e0" opacity="0.5"/>
        <path id="Path_1868" data-name="Path 1868" d="M435.96,183.183l-5.71-3.314V173.98l5.71,3.294Z" transform="translate(-308.569 3.84)" fill="#42e8e0"/>
        <path id="Path_1869" data-name="Path 1869" d="M448.007,190.136l-12.837-7.427V176.82l12.837,7.407Z" transform="translate(-303.666 6.67)" fill="#42e8e0" opacity="0.5"/>
        <path id="Path_1870" data-name="Path 1870" d="M396.152,167.092,369.3,151.6V145.69L396.152,161.2Z" transform="translate(-369.3 -24.348)" fill="#42e8e0" opacity="0.5"/>
        <path id="Path_1871" data-name="Path 1871" d="M394.473,166.129l-9.663-5.59V154.65l9.663,5.57Z" transform="translate(-353.846 -15.42)" fill="#42e8e0" opacity="0.5"/>
        <path id="Path_1872" data-name="Path 1872" d="M398.278,168.333l-6.568-3.793V158.63l6.568,3.793Z" transform="translate(-346.97 -11.454)" fill="#42e8e0" opacity="0.5"/>
        <path id="Path_1873" data-name="Path 1873" d="M383.934,166.794,369.3,158.349V152.44l14.634,8.445Z" transform="translate(-369.3 -17.622)" fill="#42e8e0" opacity="0.5"/>
        <path id="Path_1874" data-name="Path 1874" d="M396.628,174.111,378.68,163.769V157.86l17.948,10.361Z" transform="translate(-359.954 -12.222)" fill="#42e8e0" opacity="0.5"/>
        <path id="Path_1875" data-name="Path 1875" d="M396.288,173.933l-6.568-3.793V164.23l6.568,3.793Z" transform="translate(-348.953 -5.875)" fill="#42e8e0" opacity="0.5"/>
        <path id="Path_1876" data-name="Path 1876" d="M401.378,176.873l-6.568-3.793V167.17l6.568,3.793Z" transform="translate(-343.881 -2.945)" fill="#42e8e0" opacity="0.5"/>
        <path id="Path_1877" data-name="Path 1877" d="M379.881,171.208,369.3,165.1V159.19l10.581,6.109Z" transform="translate(-369.3 -10.896)" fill="#42e8e0" opacity="0.5"/>
        <path id="Path_1878" data-name="Path 1878" d="M380.273,171.426l-3.613-2.076V163.44l3.613,2.1Z" transform="translate(-361.966 -6.662)" fill="#42e8e0" opacity="0.5"/>
        <path id="Path_1879" data-name="Path 1879" d="M387.108,175.373l-6.588-3.793V165.67l6.588,3.793Z" transform="translate(-358.12 -4.44)" fill="#42e8e0" opacity="0.5"/>
        <path id="Path_1880" data-name="Path 1880" d="M408.37,194.409,369.3,171.849V165.94L408.37,188.5Z" transform="translate(-369.3 -4.171)" fill="#42e8e0" opacity="0.5"/>
        <path id="Path_1881" data-name="Path 1881" d="M400.593,189.909l-9.663-5.59V178.43l9.663,5.59Z" transform="translate(-347.747 8.274)" fill="#42e8e0" opacity="0.5"/>
        <path id="Path_1882" data-name="Path 1882" d="M379.881,184.708,369.3,178.579V172.69l10.581,6.109Z" transform="translate(-369.3 2.555)" fill="#42e8e0" opacity="0.5"/>
        <path id="Path_1883" data-name="Path 1883" d="M397.4,194.808,376.66,182.829V176.94L397.4,188.918Z" transform="translate(-361.966 6.79)" fill="#42e8e0" opacity="0.5"/>
        <path id="Path_1884" data-name="Path 1884" d="M395.688,193.823l-6.588-3.793V184.12l6.588,3.813Z" transform="translate(-349.571 13.944)" fill="#42e8e0" opacity="0.5"/>
        <path id="Path_1885" data-name="Path 1885" d="M390.961,197.847,369.3,185.329V179.44l21.661,12.5Z" transform="translate(-369.3 9.281)" fill="#42e8e0" opacity="0.5"/>
        <path id="Path_1886" data-name="Path 1886" d="M397.872,201.843,382.2,192.779V186.89l15.672,9.044Z" transform="translate(-356.446 16.704)" fill="#42e8e0" opacity="0.5"/>
        <path id="Path_1887" data-name="Path 1887" d="M402.691,204.608,392.11,198.5V192.61l10.581,6.109Z" transform="translate(-346.572 22.404)" fill="#42e8e0" opacity="0.5"/>
        <path id="Path_1888" data-name="Path 1888" d="M376.607,196.312l-7.307-4.232V186.19l7.307,4.212Z" transform="translate(-369.3 16.007)" fill="#42e8e0" opacity="0.5"/>
        <path id="Path_1889" data-name="Path 1889" d="M384.683,200.969l-9.663-5.59V189.49l9.663,5.59Z" transform="translate(-363.6 19.295)" fill="#42e8e0" opacity="0.5"/>
        <path id="Path_1890" data-name="Path 1890" d="M397.492,208.363l-15.572-8.984V193.47l15.572,9Z" transform="translate(-356.725 23.261)" fill="#42e8e0" opacity="0.5"/>
        <path id="Path_1891" data-name="Path 1891" d="M391.7,211.766l-22.4-12.937V192.94l22.4,12.937Z" transform="translate(-369.3 22.732)" fill="#42e8e0" opacity="0.5"/>
        <path id="Path_1892" data-name="Path 1892" d="M403.582,218.628l-21-12.118V200.6l21,12.138Z" transform="translate(-356.068 30.365)" fill="#42e8e0" opacity="0.5"/>
        <path id="Path_1893" data-name="Path 1893" d="M401.738,217.553l-6.588-3.793V207.87l6.588,3.773Z" transform="translate(-343.543 37.609)" fill="#42e8e0" opacity="0.5"/>
        <path id="Path_1894" data-name="Path 1894" d="M406.858,220.513l-6.568-3.793V210.83l6.568,3.793Z" transform="translate(-338.421 40.558)" fill="#42e8e0" opacity="0.5"/>
        <path id="Path_1895" data-name="Path 1895" d="M382.716,213.326,369.3,205.579V199.69l13.416,7.746Z" transform="translate(-369.3 29.458)" fill="#42e8e0" opacity="0.5"/>
        <path id="Path_1896" data-name="Path 1896" d="M404.16,171.709l18.627,10.761v-5.889L404.16,165.82Z" transform="translate(-334.565 -4.29)" fill="#42e8e0" opacity="0.5"/>
        <path id="Path_1897" data-name="Path 1897" d="M406.15,179.629l14.654,8.445v-5.909L406.15,173.72Z" transform="translate(-332.582 3.581)" fill="#42e8e0" opacity="0.5"/>
        <path id="Path_1898" data-name="Path 1898" d="M408.18,187.529l10.6,6.129v-5.909l-10.6-6.109Z" transform="translate(-330.559 11.473)" fill="#42e8e0" opacity="0.5"/>
        <path id="Path_1899" data-name="Path 1899" d="M405.77,192.889l15.412,8.9v-5.909L405.77,187Z" transform="translate(-332.961 16.814)" fill="#42e8e0" opacity="0.5"/>
        <path id="Path_1900" data-name="Path 1900" d="M408.18,201.029l10.6,6.129v-5.909l-10.6-6.109Z" transform="translate(-330.559 24.925)" fill="#42e8e0" opacity="0.5"/>
        <path id="Path_1901" data-name="Path 1901" d="M406.76,206.959l13.436,7.746v-5.889L406.76,201.07Z" transform="translate(-331.974 30.833)" fill="#42e8e0" opacity="0.5"/>
        <path id="Path_1902" data-name="Path 1902" d="M409.82,215.489l7.327,4.212v-5.889l-7.327-4.232Z" transform="translate(-328.925 39.313)" fill="#42e8e0" opacity="0.5"/>
        <path id="Path_1903" data-name="Path 1903" d="M406.38,220.239l14.194,8.185v-5.889L406.38,214.35Z" transform="translate(-332.353 44.066)" fill="#42e8e0" opacity="0.5"/>
        <path id="Path_1904" data-name="Path 1904" d="M406.76,227.219l13.436,7.746v-5.889L406.76,221.31Z" transform="translate(-331.974 51.001)" fill="#42e8e0" opacity="0.5"/>
        <path id="Path_1905" data-name="Path 1905" d="M383.79,213.944l-5.71-3.294V204.76l5.71,3.294Z" transform="translate(-360.551 34.51)" fill="#42e8e0" opacity="0.5"/>
        <path id="Path_1906" data-name="Path 1906" d="M395.857,220.926,383,213.5V207.59l12.857,7.427Z" transform="translate(-355.649 37.33)" fill="#42e8e0" opacity="0.5"/>
        <path id="Path_1907" data-name="Path 1907" d="M405.591,246.167l-21.7-12.537V227.74l21.7,12.517Z" transform="translate(-354.762 57.408)" fill="#42e8e0" opacity="0.5"/>
        <path id="Path_1908" data-name="Path 1908" d="M406.465,246.661l-8.545-4.931V235.84l8.545,4.931Z" transform="translate(-340.783 65.479)" fill="#42e8e0" opacity="0.5"/>
        <path id="Path_1909" data-name="Path 1909" d="M448.322,197.1,421.47,181.589V175.7l26.852,15.512Z" transform="translate(-317.317 5.554)" fill="#42e8e0" opacity="0.5"/>
        <path id="Path_1910" data-name="Path 1910" d="M446.643,196.129l-9.663-5.57V184.65l9.663,5.59Z" transform="translate(-301.863 14.472)" fill="#42e8e0" opacity="0.5"/>
        <path id="Path_1911" data-name="Path 1911" d="M450.448,198.333l-6.568-3.793V188.63l6.568,3.793Z" transform="translate(-294.987 18.438)" fill="#42e8e0" opacity="0.5"/>
        <path id="Path_1912" data-name="Path 1912" d="M436.1,196.784l-14.634-8.445V182.45l14.634,8.445Z" transform="translate(-317.317 12.28)" fill="#42e8e0" opacity="0.5"/>
        <path id="Path_1913" data-name="Path 1913" d="M448.8,204.121,430.85,193.759V187.87L448.8,198.211Z" transform="translate(-307.971 17.681)" fill="#42e8e0" opacity="0.5"/>
        <path id="Path_1914" data-name="Path 1914" d="M448.458,203.923l-6.568-3.793V194.24l6.568,3.793Z" transform="translate(-296.97 24.028)" fill="#42e8e0" opacity="0.5"/>
        <path id="Path_1915" data-name="Path 1915" d="M453.548,206.863l-6.568-3.793V197.18l6.568,3.793Z" transform="translate(-291.898 26.957)" fill="#42e8e0" opacity="0.5"/>
        <path id="Path_1916" data-name="Path 1916" d="M432.051,201.2l-10.581-6.109V189.2l10.581,6.109Z" transform="translate(-317.317 19.006)" fill="#42e8e0" opacity="0.5"/>
        <path id="Path_1917" data-name="Path 1917" d="M432.444,201.426l-3.614-2.076V193.44l3.614,2.1Z" transform="translate(-309.983 23.231)" fill="#42e8e0" opacity="0.5"/>
        <path id="Path_1918" data-name="Path 1918" d="M439.278,205.363l-6.588-3.793V195.68l6.588,3.793Z" transform="translate(-306.137 25.463)" fill="#42e8e0" opacity="0.5"/>
        <path id="Path_1919" data-name="Path 1919" d="M460.54,224.409l-39.07-22.559V195.94l39.07,22.579Z" transform="translate(-317.317 25.722)" fill="#42e8e0" opacity="0.5"/>
        <path id="Path_1920" data-name="Path 1920" d="M452.763,219.929l-9.663-5.59V208.43l9.663,5.59Z" transform="translate(-295.765 38.167)" fill="#42e8e0" opacity="0.5"/>
        <path id="Path_1921" data-name="Path 1921" d="M432.051,214.708,421.47,208.6V202.69l10.581,6.129Z" transform="translate(-317.317 32.447)" fill="#42e8e0" opacity="0.5"/>
        <path id="Path_1922" data-name="Path 1922" d="M449.573,224.828,428.83,212.849V206.94l20.743,11.978Z" transform="translate(-309.983 36.682)" fill="#42e8e0" opacity="0.5"/>
        <path id="Path_1923" data-name="Path 1923" d="M447.838,223.813l-6.568-3.793V214.13l6.568,3.793Z" transform="translate(-297.588 43.846)" fill="#42e8e0" opacity="0.5"/>
        <path id="Path_1924" data-name="Path 1924" d="M443.131,227.847l-21.661-12.5V209.44l21.661,12.518Z" transform="translate(-317.317 39.173)" fill="#42e8e0" opacity="0.5"/>
        <path id="Path_1925" data-name="Path 1925" d="M450.032,231.843,434.38,222.8V216.89l15.652,9.064Z" transform="translate(-304.453 46.596)" fill="#42e8e0" opacity="0.5"/>
        <path id="Path_1926" data-name="Path 1926" d="M454.861,234.628l-10.581-6.109V222.61l10.581,6.109Z" transform="translate(-294.589 52.296)" fill="#42e8e0" opacity="0.5"/>
        <path id="Path_1927" data-name="Path 1927" d="M428.777,226.312,421.47,222.1V216.19l7.307,4.232Z" transform="translate(-317.317 45.899)" fill="#42e8e0" opacity="0.5"/>
        <path id="Path_1928" data-name="Path 1928" d="M436.853,230.989l-9.663-5.59V219.49l9.663,5.59Z" transform="translate(-311.617 49.187)" fill="#42e8e0" opacity="0.5"/>
        <path id="Path_1929" data-name="Path 1929" d="M449.662,238.373l-15.572-9V223.48l15.572,8.984Z" transform="translate(-304.742 53.163)" fill="#42e8e0" opacity="0.5"/>
        <path id="Path_1930" data-name="Path 1930" d="M443.87,241.786l-22.4-12.937V222.94l22.4,12.937Z" transform="translate(-317.317 52.625)" fill="#42e8e0" opacity="0.5"/>
        <path id="Path_1931" data-name="Path 1931" d="M455.752,248.638l-21-12.138V230.61l21,12.118Z" transform="translate(-304.085 60.267)" fill="#42e8e0" opacity="0.5"/>
        <path id="Path_1932" data-name="Path 1932" d="M453.908,247.553l-6.588-3.793V237.87l6.588,3.793Z" transform="translate(-291.56 67.501)" fill="#42e8e0" opacity="0.5"/>
        <path id="Path_1933" data-name="Path 1933" d="M459.028,250.533l-6.568-3.793V240.83l6.568,3.793Z" transform="translate(-286.438 70.451)" fill="#42e8e0" opacity="0.5"/>
        <path id="Path_1934" data-name="Path 1934" d="M434.886,243.345l-13.416-7.766V229.69l13.416,7.746Z" transform="translate(-317.317 59.351)" fill="#42e8e0" opacity="0.5"/>
        <path id="Path_1935" data-name="Path 1935" d="M456.33,201.729l18.607,10.741v-5.889L456.33,195.82Z" transform="translate(-282.582 25.602)" fill="#42e8e0" opacity="0.5"/>
        <path id="Path_1936" data-name="Path 1936" d="M458.32,209.619l14.634,8.445v-5.889L458.32,203.73Z" transform="translate(-280.599 33.484)" fill="#42e8e0" opacity="0.5"/>
        <path id="Path_1937" data-name="Path 1937" d="M460.35,217.539l10.581,6.109v-5.889L460.35,211.65Z" transform="translate(-278.576 41.375)" fill="#42e8e0" opacity="0.5"/>
        <path id="Path_1938" data-name="Path 1938" d="M457.94,222.909l15.392,8.884V225.9L457.94,217Z" transform="translate(-280.978 46.706)" fill="#42e8e0" opacity="0.5"/>
        <path id="Path_1939" data-name="Path 1939" d="M460.35,231.049l10.581,6.109v-5.889L460.35,225.14Z" transform="translate(-278.576 54.817)" fill="#42e8e0" opacity="0.5"/>
        <path id="Path_1940" data-name="Path 1940" d="M458.93,236.979l13.416,7.746v-5.909L458.93,231.07Z" transform="translate(-279.991 60.726)" fill="#42e8e0" opacity="0.5"/>
        <path id="Path_1941" data-name="Path 1941" d="M461.99,245.479l7.307,4.232V243.8l-7.307-4.212Z" transform="translate(-276.942 69.215)" fill="#42e8e0" opacity="0.5"/>
        <path id="Path_1942" data-name="Path 1942" d="M458.55,250.259l14.175,8.185v-5.909L458.55,244.35Z" transform="translate(-280.37 73.958)" fill="#42e8e0" opacity="0.5"/>
        <path id="Path_1943" data-name="Path 1943" d="M458.93,257.209l13.416,7.746v-5.889L458.93,251.32Z" transform="translate(-279.991 80.903)" fill="#42e8e0" opacity="0.5"/>
        <path id="Path_1944" data-name="Path 1944" d="M435.96,243.963l-5.71-3.314V234.76l5.71,3.294Z" transform="translate(-308.569 64.402)" fill="#42e8e0" opacity="0.5"/>
        <path id="Path_1945" data-name="Path 1945" d="M448.007,250.916l-12.837-7.427V237.6l12.837,7.427Z" transform="translate(-303.666 67.232)" fill="#42e8e0" opacity="0.5"/>
        <path id="Path_1946" data-name="Path 1946" d="M457.761,276.167l-21.7-12.517V257.74l21.7,12.537Z" transform="translate(-302.779 87.3)" fill="#42e8e0" opacity="0.5"/>
        <path id="Path_1947" data-name="Path 1947" d="M458.635,276.681l-8.545-4.931V265.84l8.545,4.931Z" transform="translate(-288.8 95.371)" fill="#42e8e0" opacity="0.5"/>
      </g>
    </g>
  </g>
</svg>
