<svg xmlns="http://www.w3.org/2000/svg" xmlns:xlink="http://www.w3.org/1999/xlink" width="615" height="566.786" viewBox="0 0 615 566.786"><defs><linearGradient id="a" x2="1" y2="1" gradientUnits="objectBoundingBox"><stop offset="0" stop-color="#11013c"/><stop offset="1" stop-color="#083269"/></linearGradient><radialGradient id="b" cx="-581.184" cy="-233.491" r="328.456" gradientTransform="translate(-390.311 -129.392) scale(0.577 0.577)" gradientUnits="userSpaceOnUse"><stop offset="0" stop-color="#f3f3ff"/><stop offset="1" stop-color="#ceceef"/></radialGradient><linearGradient id="c" x1="0.5" y1="1" x2="0.5" gradientUnits="objectBoundingBox"><stop offset="0" stop-color="#161242"/><stop offset="0.06" stop-color="#26224f"/><stop offset="0.53" stop-color="#9a98ad"/><stop offset="0.85" stop-color="#e3e2e8"/><stop offset="1" stop-color="#fff"/></linearGradient><linearGradient id="d" x1="3.196" y1="-0.642" x2="4.973" y2="-1.317" gradientUnits="objectBoundingBox"><stop offset="0" stop-color="#161242"/><stop offset="0.2" stop-color="#181546"/><stop offset="0.4" stop-color="#201d52"/><stop offset="0.59" stop-color="#2c2a66"/><stop offset="0.79" stop-color="#3e3c81"/><stop offset="0.99" stop-color="#5454a5"/><stop offset="1" stop-color="#5656a8"/></linearGradient><linearGradient id="e" x1="135.15" y1="-180.006" x2="136.3" y2="-180.006" gradientTransform="matrix(1, 0, 0, 1, 0, 0)" xlink:href="#b"/><linearGradient id="f" x1="135.15" y1="-180.005" x2="136.3" y2="-180.005" gradientTransform="matrix(1, 0, 0, 1, 0, 0)" xlink:href="#b"/><linearGradient id="i" x1="137.06" y1="221.745" x2="138.21" y2="221.745" gradientTransform="matrix(1, 0, 0, 1, 0, 0)" xlink:href="#b"/><linearGradient id="j" x1="137.06" y1="221.92" x2="138.21" y2="221.92" gradientTransform="matrix(1, 0, 0, 1, 0, 0)" xlink:href="#b"/><linearGradient id="k" x1="136.73" y1="219.758" x2="137.89" y2="219.758" gradientTransform="matrix(1, 0, 0, 1, 0, 0)" xlink:href="#b"/><linearGradient id="l" x1="136.73" y1="221.197" x2="137.89" y2="221.197" gradientTransform="matrix(1, 0, 0, 1, 0, 0)" xlink:href="#b"/><linearGradient id="m" x1="136.73" y1="221.37" x2="137.89" y2="221.37" gradientTransform="matrix(1, 0, 0, 1, 0, 0)" xlink:href="#b"/><linearGradient id="n" x1="136.4" y1="220.307" x2="137.55" y2="220.307" gradientTransform="matrix(1, 0, 0, 1, 0, 0)" xlink:href="#b"/><linearGradient id="o" x1="136.06" y1="219.59" x2="137.22" y2="219.59" gradientTransform="matrix(1, 0, 0, 1, 0, 0)" xlink:href="#b"/><linearGradient id="p" x1="136.06" y1="219.764" x2="137.22" y2="219.764" gradientTransform="matrix(1, 0, 0, 1, 0, 0)" xlink:href="#b"/><linearGradient id="q" x1="137.098" y1="218.871" x2="138.26" y2="218.871" gradientTransform="matrix(1, 0, 0, 1, 0, 0)" xlink:href="#b"/><linearGradient id="r" x1="137.098" y1="219.041" x2="138.26" y2="219.041" gradientTransform="matrix(1, 0, 0, 1, 0, 0)" xlink:href="#b"/><linearGradient id="s" x1="137.098" y1="219.213" x2="138.26" y2="219.213" gradientTransform="matrix(1, 0, 0, 1, 0, 0)" xlink:href="#b"/><linearGradient id="t" x1="137.098" y1="219.381" x2="138.26" y2="219.381" gradientTransform="matrix(1, 0, 0, 1, 0, 0)" xlink:href="#b"/><linearGradient id="u" x1="135.4" y1="218.149" x2="136.55" y2="218.149" gradientTransform="matrix(1, 0, 0, 1, 0, 0)" xlink:href="#b"/><linearGradient id="v" x1="135.4" y1="218.324" x2="136.55" y2="218.324" gradientTransform="matrix(1, 0, 0, 1, 0, 0)" xlink:href="#b"/><linearGradient id="w" x1="135.06" y1="217.434" x2="136.22" y2="217.434" gradientTransform="matrix(1, 0, 0, 1, 0, 0)" xlink:href="#b"/><linearGradient id="x" x1="135.06" y1="217.606" x2="136.22" y2="217.606" gradientTransform="matrix(1, 0, 0, 1, 0, 0)" xlink:href="#b"/><linearGradient id="y" x1="135.06" y1="216.528" x2="136.22" y2="216.528" gradientTransform="matrix(1, 0, 0, 1, 0, 0)" xlink:href="#b"/><linearGradient id="z" x1="136.088" y1="216.717" x2="137.25" y2="216.717" gradientTransform="matrix(1, 0, 0, 1, 0, 0)" xlink:href="#b"/><linearGradient id="aa" x1="136.088" y1="216.883" x2="137.25" y2="216.883" gradientTransform="matrix(1, 0, 0, 1, 0, 0)" xlink:href="#b"/><linearGradient id="ab" x1="136.088" y1="40.303" x2="137.25" y2="40.303" gradientTransform="matrix(1, 0, 0, 1, 0, 0)" xlink:href="#b"/><linearGradient id="ac" x1="135.06" y1="16.718" x2="136.22" y2="16.718" gradientTransform="matrix(1, 0, 0, 1, 0, 0)" xlink:href="#b"/><linearGradient id="ad" x1="135.4" y1="26.677" x2="136.55" y2="26.677" gradientTransform="matrix(1, 0, 0, 1, 0, 0)" xlink:href="#b"/><linearGradient id="ae" x1="137.098" y1="14.629" x2="138.26" y2="14.629" gradientTransform="matrix(1, 0, 0, 1, 0, 0)" xlink:href="#b"/><linearGradient id="af" x1="136.06" y1="18.925" x2="137.22" y2="18.925" gradientTransform="matrix(1, 0, 0, 1, 0, 0)" xlink:href="#b"/><linearGradient id="ag" x1="136.4" y1="21.516" x2="137.55" y2="21.516" gradientTransform="matrix(1, 0, 0, 1, 0, 0)" xlink:href="#b"/><linearGradient id="ah" x1="136.73" y1="15.098" x2="137.89" y2="15.098" gradientTransform="matrix(1, 0, 0, 1, 0, 0)" xlink:href="#b"/><linearGradient id="ai" x1="137.06" y1="12.832" x2="138.21" y2="12.832" gradientTransform="matrix(1, 0, 0, 1, 0, 0)" xlink:href="#b"/><radialGradient id="aj" cx="-502.254" cy="-387.122" r="155.895" gradientTransform="translate(-329.028 -236.427) scale(0.578 0.578)" xlink:href="#b"/><linearGradient id="ak" x1="0.5" y1="1" x2="0.5" y2="0" xlink:href="#c"/><linearGradient id="al" x1="6.973" y1="-4.711" x2="7.871" y2="-5.412" xlink:href="#d"/><linearGradient id="am" x1="199.447" y1="305.859" x2="200.611" y2="305.859" gradientTransform="matrix(1, 0, 0, 1, 0, 0)" xlink:href="#b"/><linearGradient id="an" x1="199.447" y1="306.025" x2="200.611" y2="306.025" gradientTransform="matrix(1, 0, 0, 1, 0, 0)" xlink:href="#b"/><linearGradient id="ao" x1="199.11" y1="305.142" x2="200.273" y2="305.142" gradientTransform="matrix(1, 0, 0, 1, 0, 0)" xlink:href="#b"/><linearGradient id="ap" x1="199.11" y1="305.312" x2="200.273" y2="305.312" gradientTransform="matrix(1, 0, 0, 1, 0, 0)" xlink:href="#b"/><linearGradient id="aq" x1="199.11" y1="305.482" x2="200.273" y2="305.482" gradientTransform="matrix(1, 0, 0, 1, 0, 0)" xlink:href="#b"/><linearGradient id="ar" x1="198.782" y1="304.425" x2="199.946" y2="304.425" gradientTransform="matrix(1, 0, 0, 1, 0, 0)" xlink:href="#b"/><linearGradient id="as" x1="195.26" y1="303.708" x2="196.405" y2="303.708" gradientTransform="matrix(1, 0, 0, 1, 0, 0)" xlink:href="#b"/><linearGradient id="at" x1="195.26" y1="303.874" x2="196.405" y2="303.874" gradientTransform="matrix(1, 0, 0, 1, 0, 0)" xlink:href="#b"/><linearGradient id="au" x1="198.119" y1="302.987" x2="199.283" y2="302.987" gradientTransform="matrix(1, 0, 0, 1, 0, 0)" xlink:href="#b"/><linearGradient id="av" x1="198.119" y1="303.161" x2="199.283" y2="303.161" gradientTransform="matrix(1, 0, 0, 1, 0, 0)" xlink:href="#b"/><linearGradient id="aw" x1="198.119" y1="303.331" x2="199.283" y2="303.331" gradientTransform="matrix(1, 0, 0, 1, 0, 0)" xlink:href="#b"/><linearGradient id="ax" x1="198.119" y1="303.501" x2="199.283" y2="303.501" gradientTransform="matrix(1, 0, 0, 1, 0, 0)" xlink:href="#b"/><linearGradient id="ay" x1="197.792" y1="302.274" x2="198.939" y2="302.274" gradientTransform="matrix(1, 0, 0, 1, 0, 0)" xlink:href="#b"/><linearGradient id="az" x1="197.792" y1="302.444" x2="198.939" y2="302.444" gradientTransform="matrix(1, 0, 0, 1, 0, 0)" xlink:href="#b"/><linearGradient id="ba" x1="197.454" y1="301.557" x2="198.601" y2="301.557" gradientTransform="matrix(1, 0, 0, 1, 0, 0)" xlink:href="#b"/><linearGradient id="bb" x1="197.454" y1="301.727" x2="198.601" y2="301.727" gradientTransform="matrix(1, 0, 0, 1, 0, 0)" xlink:href="#b"/><linearGradient id="bc" x1="197.454" y1="301.897" x2="198.601" y2="301.897" gradientTransform="matrix(1, 0, 0, 1, 0, 0)" xlink:href="#b"/><linearGradient id="bd" x1="197.119" y1="300.836" x2="198.267" y2="300.836" gradientTransform="matrix(1, 0, 0, 1, 0, 0)" xlink:href="#b"/><linearGradient id="be" x1="197.119" y1="301.01" x2="198.267" y2="301.01" gradientTransform="matrix(1, 0, 0, 1, 0, 0)" xlink:href="#b"/><radialGradient id="bf" cx="-808.115" cy="-457.381" r="155.937" gradientTransform="translate(-523.177 -280.989) scale(0.577 0.577)" xlink:href="#b"/><linearGradient id="bh" x1="8.271" y1="-6.717" x2="9.169" y2="-7.418" xlink:href="#d"/><linearGradient id="bi" x1="238.711" y1="374.363" x2="239.858" y2="374.363" gradientTransform="matrix(1, 0, 0, 1, 0, 0)" xlink:href="#b"/><linearGradient id="bj" x1="238.711" y1="374.539" x2="239.858" y2="374.539" gradientTransform="matrix(1, 0, 0, 1, 0, 0)" xlink:href="#b"/><linearGradient id="bk" x1="238.354" y1="373.652" x2="239.518" y2="373.652" gradientTransform="matrix(1, 0, 0, 1, 0, 0)" xlink:href="#b"/><linearGradient id="bl" x1="238.354" y1="373.822" x2="239.518" y2="373.822" gradientTransform="matrix(1, 0, 0, 1, 0, 0)" xlink:href="#b"/><linearGradient id="bm" x1="238.354" y1="373.991" x2="239.518" y2="373.991" gradientTransform="matrix(1, 0, 0, 1, 0, 0)" xlink:href="#b"/><linearGradient id="bn" x1="238.01" y1="372.935" x2="239.174" y2="372.935" gradientTransform="matrix(1, 0, 0, 1, 0, 0)" xlink:href="#b"/><linearGradient id="bo" x1="237.682" y1="372.212" x2="238.846" y2="372.212" gradientTransform="matrix(1, 0, 0, 1, 0, 0)" xlink:href="#b"/><linearGradient id="bp" x1="237.682" y1="372.388" x2="238.846" y2="372.388" gradientTransform="matrix(1, 0, 0, 1, 0, 0)" xlink:href="#b"/><linearGradient id="bq" x1="237.366" y1="371.501" x2="238.53" y2="371.501" gradientTransform="matrix(1, 0, 0, 1, 0, 0)" xlink:href="#b"/><linearGradient id="br" x1="237.366" y1="371.671" x2="238.53" y2="371.671" gradientTransform="matrix(1, 0, 0, 1, 0, 0)" xlink:href="#b"/><linearGradient id="bs" x1="237.366" y1="371.84" x2="238.53" y2="371.84" gradientTransform="matrix(1, 0, 0, 1, 0, 0)" xlink:href="#b"/><linearGradient id="bt" x1="237.366" y1="372.01" x2="238.53" y2="372.01" gradientTransform="matrix(1, 0, 0, 1, 0, 0)" xlink:href="#b"/><linearGradient id="bu" x1="233.212" y1="370.784" x2="234.357" y2="370.784" gradientTransform="matrix(1, 0, 0, 1, 0, 0)" xlink:href="#b"/><linearGradient id="bv" x1="233.212" y1="370.954" x2="234.357" y2="370.954" gradientTransform="matrix(1, 0, 0, 1, 0, 0)" xlink:href="#b"/><linearGradient id="bw" x1="236.694" y1="370.067" x2="237.842" y2="370.067" gradientTransform="matrix(1, 0, 0, 1, 0, 0)" xlink:href="#b"/><linearGradient id="bx" x1="236.694" y1="370.237" x2="237.842" y2="370.237" gradientTransform="matrix(1, 0, 0, 1, 0, 0)" xlink:href="#b"/><linearGradient id="by" x1="236.694" y1="370.401" x2="237.842" y2="370.401" gradientTransform="matrix(1, 0, 0, 1, 0, 0)" xlink:href="#b"/><linearGradient id="bz" x1="236.366" y1="369.35" x2="237.514" y2="369.35" gradientTransform="matrix(1, 0, 0, 1, 0, 0)" xlink:href="#b"/><linearGradient id="ca" x1="236.366" y1="369.52" x2="237.514" y2="369.52" gradientTransform="matrix(1, 0, 0, 1, 0, 0)" xlink:href="#b"/><radialGradient id="cb" cx="-832.55" cy="-292.182" r="100.364" gradientTransform="translate(-535.416 -179.437) scale(0.578 0.578)" xlink:href="#b"/><linearGradient id="cc" x1="0.5" y1="1" x2="0.5" y2="0" xlink:href="#c"/><linearGradient id="cd" x1="12.87" y1="-10.534" x2="13.767" y2="-11.236" xlink:href="#d"/><linearGradient id="ce" x1="329.044" y1="533.098" x2="330.203" y2="533.098" gradientTransform="matrix(1, 0, 0, 1, 0, 0)" xlink:href="#b"/><linearGradient id="cf" x1="329.044" y1="526.348" x2="330.203" y2="526.348" gradientTransform="matrix(1, 0, 0, 1, 0, 0)" xlink:href="#b"/><linearGradient id="cg" x1="328.725" y1="532.385" x2="329.885" y2="532.385" gradientTransform="matrix(1, 0, 0, 1, 0, 0)" xlink:href="#b"/><linearGradient id="ch" x1="328.725" y1="532.556" x2="329.885" y2="532.556" gradientTransform="matrix(1, 0, 0, 1, 0, 0)" xlink:href="#b"/><linearGradient id="ci" x1="328.725" y1="532.728" x2="329.885" y2="532.728" gradientTransform="matrix(1, 0, 0, 1, 0, 0)" xlink:href="#b"/><linearGradient id="cj" x1="321.102" y1="524.763" x2="322.236" y2="524.763" gradientTransform="matrix(1, 0, 0, 1, 0, 0)" xlink:href="#b"/><linearGradient id="ck" x1="320.791" y1="524.049" x2="321.924" y2="524.049" gradientTransform="matrix(1, 0, 0, 1, 0, 0)" xlink:href="#b"/><linearGradient id="cl" x1="320.791" y1="531.098" x2="321.924" y2="531.098" gradientTransform="matrix(1, 0, 0, 1, 0, 0)" xlink:href="#b"/><linearGradient id="cm" x1="327.725" y1="523.335" x2="328.885" y2="523.335" gradientTransform="matrix(1, 0, 0, 1, 0, 0)" xlink:href="#b"/><linearGradient id="cn" x1="327.725" y1="530.385" x2="328.885" y2="530.385" gradientTransform="matrix(1, 0, 0, 1, 0, 0)" xlink:href="#b"/><linearGradient id="co" x1="327.725" y1="523.672" x2="328.885" y2="523.672" gradientTransform="matrix(1, 0, 0, 1, 0, 0)" xlink:href="#b"/><linearGradient id="cp" x1="327.725" y1="530.741" x2="328.885" y2="530.741" gradientTransform="matrix(1, 0, 0, 1, 0, 0)" xlink:href="#b"/><linearGradient id="cq" x1="327.385" y1="522.62" x2="328.544" y2="522.62" gradientTransform="matrix(1, 0, 0, 1, 0, 0)" xlink:href="#b"/><linearGradient id="cr" x1="327.385" y1="529.662" x2="328.544" y2="529.662" gradientTransform="matrix(1, 0, 0, 1, 0, 0)" xlink:href="#b"/><linearGradient id="cs" x1="327.044" y1="528.78" x2="328.203" y2="528.78" gradientTransform="matrix(1, 0, 0, 1, 0, 0)" xlink:href="#b"/><linearGradient id="ct" x1="327.044" y1="522.075" x2="328.203" y2="522.075" gradientTransform="matrix(1, 0, 0, 1, 0, 0)" xlink:href="#b"/><linearGradient id="cu" x1="327.044" y1="529.112" x2="328.203" y2="529.112" gradientTransform="matrix(1, 0, 0, 1, 0, 0)" xlink:href="#b"/><linearGradient id="cv" x1="326.725" y1="528.046" x2="327.885" y2="528.046" gradientTransform="matrix(1, 0, 0, 1, 0, 0)" xlink:href="#b"/><linearGradient id="cw" x1="326.725" y1="521.361" x2="327.885" y2="521.361" gradientTransform="matrix(1, 0, 0, 1, 0, 0)" xlink:href="#b"/></defs><g transform="translate(-299 -247)"><path d="M0,0H615V566.786H0Z" transform="translate(299 247)" fill="url(#a)"/><g transform="translate(561.501 280.492)"><g transform="translate(0.077 0)"><path d="M444.191,188.711,343.78,130.72,444.191,72.73l100.437,57.99Z" transform="translate(-343.78 -72.73)" fill="url(#b)"/><path d="M442.787,547.454l2.757-393.2L544.628,95.45,444.191,151.832,343.78,95.45l99.008,58.756Z" transform="translate(-343.78 -37.46)" fill="url(#c)"/></g><path d="M442.834,547.454l-99.084-57.2V95.45l99.084,58.756Z" transform="translate(-343.75 -37.46)" fill="url(#d)"/><g transform="translate(8.78 94.745)"><path d="M464.724,306.73,385.6,261.118V169.87l79.124,45.611ZM387.106,260.3l76.24,44.029V216.3l-76.24-44.029Z" transform="translate(-385.6 -169.87)" fill="#1a1a4c"/><path d="M464.724,272.552,385.6,226.94V211.83l79.124,45.637Zm-77.618-46.428,76.24,44.029V258.207l-76.24-44Z" transform="translate(-385.6 -104.731)" fill="#1a1a4c"/><path d="M464.724,282.6,385.6,236.965V221.88l79.124,45.611Zm-77.618-46.428,76.24,44V268.308l-76.24-44.029Z" transform="translate(-385.6 -89.13)" fill="#1a1a4c"/><path d="M464.724,292.642,385.6,247V231.92l79.124,45.637Zm-77.618-46.428,76.24,44V278.348l-76.24-44Z" transform="translate(-385.6 -73.544)" fill="#1a1a4c"/></g><g transform="translate(73.943 171.419)"><path d="M375.272,144.306l-2.552-1.48V139.89l2.552,1.48Z" transform="translate(-372.72 -139.89)" fill="url(#e)"/><path d="M375.272,146.456l-2.552-1.48V142.04l2.552,1.48Z" transform="translate(-372.72 -136.552)" fill="url(#f)"/><path d="M375.272,148.606l-2.552-1.48V144.19l2.552,1.48Z" transform="translate(-372.72 -133.215)" fill="url(#e)"/><path d="M375.272,150.756,372.72,149.3V146.34l2.552,1.48Z" transform="translate(-372.72 -129.877)" fill="url(#f)"/></g><g transform="translate(136.936 129.611)"><g transform="translate(38.465 2.45)"><path d="M415.022,129.615l-2.552,1.48V128.16l2.552-1.48Z" transform="translate(-412.47 -121.039)" fill="url(#i)"/><path d="M415.022,127.431l-2.552,1.455V125.95l2.552-1.48Z" transform="translate(-412.47 -124.47)" fill="url(#j)"/></g><g transform="translate(32.951)"><path d="M412.862,130.881l-2.552,1.48V129.4l2.552-1.48Z" transform="translate(-410.31 -116.664)" fill="url(#k)"/><path d="M412.862,128.655l-2.552,1.48v-2.961l2.552-1.455Z" transform="translate(-410.31 -120.079)" fill="url(#l)"/><path d="M412.862,126.445l-2.552,1.48V124.99l2.552-1.48Z" transform="translate(-410.31 -123.51)" fill="url(#m)"/></g><path d="M410.712,132.105l-2.552,1.48v-2.961l2.552-1.455Z" transform="translate(-380.696 -114.723)" fill="url(#n)"/><g transform="translate(21.976 11.971)"><path d="M408.562,133.345l-2.552,1.48V131.89l2.552-1.48Z" transform="translate(-406.01 -124.769)" fill="url(#o)"/><path d="M408.562,131.161l-2.552,1.455V129.68l2.552-1.48Z" transform="translate(-406.01 -128.2)" fill="url(#p)"/></g><g transform="translate(16.488 3.88)"><path d="M406.387,134.611l-2.527,1.455V133.13l2.527-1.48Z" transform="translate(-403.86 -114.753)" fill="url(#q)"/><path d="M406.387,132.385l-2.527,1.48V130.9l2.527-1.455Z" transform="translate(-403.86 -118.168)" fill="url(#r)"/><path d="M406.387,130.175l-2.527,1.48v-2.961l2.527-1.455Z" transform="translate(-403.86 -121.599)" fill="url(#s)"/><path d="M406.387,127.965l-2.527,1.48V126.51l2.527-1.48Z" transform="translate(-403.86 -125.03)" fill="url(#t)"/></g><g transform="translate(10.975 18.326)"><path d="M404.252,135.835l-2.552,1.48v-2.961l2.552-1.455Z" transform="translate(-401.7 -127.259)" fill="url(#u)"/><path d="M404.252,133.625l-2.552,1.48V132.17l2.552-1.48Z" transform="translate(-401.7 -130.69)" fill="url(#v)"/></g><g transform="translate(5.488 15.85)"><path d="M402.1,137.075l-2.552,1.48V135.62l2.552-1.48Z" transform="translate(-399.55 -122.858)" fill="url(#w)"/><path d="M402.1,134.891l-2.552,1.455V133.41l2.552-1.48Z" transform="translate(-399.55 -126.289)" fill="url(#x)"/><path d="M402.1,132.681l-2.552,1.48V131.2l2.552-1.48Z" transform="translate(-399.55 -129.72)" fill="url(#y)"/></g><g transform="translate(0 24.682)"><path d="M399.927,138.341,397.4,139.8V136.86l2.527-1.48Z" transform="translate(-397.4 -129.765)" fill="url(#z)"/><path d="M399.927,136.115,397.4,137.6v-2.961l2.527-1.455Z" transform="translate(-397.4 -133.18)" fill="url(#aa)"/></g><g transform="translate(0 38.311)"><path d="M399.927,159.455l-2.527,1.48V155.6l2.527-1.48Z" transform="translate(-397.4 -114.303)" fill="url(#ab)"/><path d="M402.1,164.533l-2.552,1.48V150.265l2.552-1.455Z" transform="translate(-394.062 -122.546)" fill="url(#ac)"/><path d="M404.252,159.319,401.7,160.8V151.61l2.552-1.48Z" transform="translate(-390.725 -120.497)" fill="url(#ad)"/><path d="M406.387,163.947,403.86,165.4V146.59l2.527-1.48Z" transform="translate(-387.371 -128.29)" fill="url(#ae)"/><path d="M408.562,159.84l-2.552,1.48V147.18l2.552-1.48Z" transform="translate(-384.034 -127.374)" fill="url(#af)"/><path d="M410.712,157.514l-2.552,1.455V146.615l2.552-1.455Z" transform="translate(-380.696 -128.212)" fill="url(#ag)"/><path d="M412.862,160.191l-2.552,1.48V142.86l2.552-1.48Z" transform="translate(-377.359 -134.08)" fill="url(#ah)"/><path d="M415.022,161.466l-2.552,1.48V140l2.552-1.48Z" transform="translate(-374.005 -138.52)" fill="url(#ai)"/></g></g></g><g transform="translate(395.851 535.477)"><g transform="translate(0 0)" opacity="0.2"><g transform="translate(0.025)"><path d="M326.539,227.711,278.86,200.17l47.679-27.54,47.679,27.54Z" transform="translate(-278.86 -172.63)" fill="url(#aj)"/><path d="M325.875,287.685l1.3-76.342,47.041-27.923-47.679,26.775L278.86,183.42l47.015,27.9Z" transform="translate(-278.86 -155.88)" fill="url(#ak)"/></g><path d="M325.891,287.685,278.85,260.528V183.42l47.041,27.9Z" transform="translate(-278.85 -155.88)" fill="url(#al)"/></g><g transform="translate(63.555 54.341)" opacity="0.5"><g transform="translate(23.533 1.506)"><path d="M314.527,197.647l-1.557.919v-1.812l1.557-.893Z" transform="translate(-312.97 -192.414)" fill="url(#am)"/><path d="M314.527,196.3l-1.557.919V195.4l1.557-.893Z" transform="translate(-312.97 -194.51)" fill="url(#an)"/></g><g transform="translate(20.164)"><path d="M313.207,198.407l-1.557.919v-1.812l1.557-.893Z" transform="translate(-311.65 -189.729)" fill="url(#ao)"/><path d="M313.207,197.057l-1.557.919v-1.812l1.557-.893Z" transform="translate(-311.65 -191.824)" fill="url(#ap)"/><path d="M313.207,195.707l-1.557.919v-1.812l1.557-.893Z" transform="translate(-311.65 -193.92)" fill="url(#aq)"/></g><path d="M311.887,199.192l-1.557.893v-1.812l1.557-.893Z" transform="translate(-293.535 -188.549)" fill="url(#ar)"/><g transform="translate(13.426 7.325)"><path d="M310.592,199.952l-1.582.893v-1.812l1.582-.893Z" transform="translate(-309.01 -194.694)" fill="url(#as)"/><path d="M310.592,198.6l-1.582.893v-1.812l1.582-.893Z" transform="translate(-309.01 -196.79)" fill="url(#at)"/></g><g transform="translate(10.082 2.374)"><path d="M309.257,200.712l-1.557.893v-1.812l1.557-.893Z" transform="translate(-307.7 -188.563)" fill="url(#au)"/><path d="M309.257,199.362l-1.557.893v-1.812l1.557-.893Z" transform="translate(-307.7 -190.659)" fill="url(#av)"/><path d="M309.257,198.012l-1.557.893v-1.812l1.557-.893Z" transform="translate(-307.7 -192.754)" fill="url(#aw)"/><path d="M309.257,196.637l-1.557.919v-1.812l1.557-.893Z" transform="translate(-307.7 -194.85)" fill="url(#ax)"/></g><g transform="translate(6.713 11.205)"><path d="M307.937,201.472l-1.557.893v-1.812l1.557-.893Z" transform="translate(-306.38 -196.214)" fill="url(#ay)"/><path d="M307.937,200.122l-1.557.893V199.2l1.557-.893Z" transform="translate(-306.38 -198.31)" fill="url(#az)"/></g><g transform="translate(3.344 9.699)"><path d="M306.617,202.232l-1.557.893v-1.787l1.557-.919Z" transform="translate(-305.06 -193.529)" fill="url(#ba)"/><path d="M306.617,200.882l-1.557.893v-1.812l1.557-.893Z" transform="translate(-305.06 -195.624)" fill="url(#bb)"/><path d="M306.617,199.532l-1.557.893v-1.812l1.557-.893Z" transform="translate(-305.06 -197.72)" fill="url(#bc)"/></g><g transform="translate(0 15.085)"><path d="M305.307,202.992l-1.557.893v-1.812l1.557-.893Z" transform="translate(-303.75 -197.734)" fill="url(#bd)"/><path d="M305.307,201.642l-1.557.893v-1.787l1.557-.919Z" transform="translate(-303.75 -199.83)" fill="url(#be)"/></g></g></g><g transform="translate(790.246 624.811)"><g transform="translate(0 0)" opacity="0.2"><g transform="translate(0.026)"><path d="M481.059,262.711,433.38,235.17l47.679-27.54,47.7,27.54Z" transform="translate(-433.38 -207.63)" fill="url(#bf)"/><path d="M480.4,322.685l1.3-76.342,47.066-27.923-47.7,26.775L433.38,218.42l47.015,27.9Z" transform="translate(-433.38 -190.88)" fill="url(#c)"/></g><path d="M480.411,322.685,433.37,295.528V218.42l47.041,27.9Z" transform="translate(-433.37 -190.88)" fill="url(#bh)"/></g><g transform="translate(63.989 55.081)" opacity="0.5"><g transform="translate(23.533 1.506)"><path d="M469.217,232.937l-1.557.919v-1.812l1.557-.893Z" transform="translate(-467.66 -227.704)" fill="url(#bi)"/><path d="M469.217,231.587l-1.557.919v-1.812l1.557-.893Z" transform="translate(-467.66 -229.8)" fill="url(#bj)"/></g><g transform="translate(20.164)"><path d="M467.9,233.7l-1.557.919V232.8l1.557-.893Z" transform="translate(-466.34 -225.019)" fill="url(#bk)"/><path d="M467.9,232.347l-1.557.919v-1.812l1.557-.893Z" transform="translate(-466.34 -227.114)" fill="url(#bl)"/><path d="M467.9,231l-1.557.919V230.1l1.557-.893Z" transform="translate(-466.34 -229.21)" fill="url(#bm)"/></g><path d="M466.587,234.482l-1.557.893v-1.812l1.557-.893Z" transform="translate(-448.21 -223.839)" fill="url(#bn)"/><g transform="translate(13.451 7.325)"><path d="M465.267,235.217l-1.557.919v-1.812l1.557-.893Z" transform="translate(-463.71 -229.984)" fill="url(#bo)"/><path d="M465.267,233.867l-1.557.919v-1.812l1.557-.893Z" transform="translate(-463.71 -232.08)" fill="url(#bp)"/></g><g transform="translate(10.082 2.374)"><path d="M463.947,236l-1.557.893v-1.812l1.557-.893Z" transform="translate(-462.39 -223.853)" fill="url(#bq)"/><path d="M463.947,234.627l-1.557.919v-1.812l1.557-.893Z" transform="translate(-462.39 -225.949)" fill="url(#br)"/><path d="M463.947,233.277l-1.557.919v-1.812l1.557-.893Z" transform="translate(-462.39 -228.044)" fill="url(#bs)"/><path d="M463.947,231.927l-1.557.919v-1.812l1.557-.893Z" transform="translate(-462.39 -230.14)" fill="url(#bt)"/></g><g transform="translate(6.713 11.205)"><path d="M462.652,236.762l-1.582.893v-1.812l1.582-.893Z" transform="translate(-461.07 -231.504)" fill="url(#bu)"/><path d="M462.652,235.412l-1.582.893v-1.812l1.582-.893Z" transform="translate(-461.07 -233.6)" fill="url(#bv)"/></g><g transform="translate(3.369 9.699)"><path d="M461.317,237.522l-1.557.893V236.6l1.557-.893Z" transform="translate(-459.76 -228.818)" fill="url(#bw)"/><path d="M461.317,236.172l-1.557.893v-1.812l1.557-.893Z" transform="translate(-459.76 -230.914)" fill="url(#bx)"/><path d="M461.317,234.822l-1.557.893V233.9l1.557-.893Z" transform="translate(-459.76 -233.01)" fill="url(#by)"/></g><g transform="translate(0 15.085)"><path d="M460,238.282l-1.557.893v-1.812L460,236.47Z" transform="translate(-458.44 -233.024)" fill="url(#bz)"/><path d="M460,236.932l-1.557.893v-1.812L460,235.12Z" transform="translate(-458.44 -235.12)" fill="url(#ca)"/></g></g></g><g transform="translate(807.245 433.228)"><g transform="translate(0)" opacity="0.2"><path d="M470.735,168.023,440.03,150.309l30.705-17.739,30.68,17.739Z" transform="translate(-440.03 -132.57)" fill="url(#cb)"/><path d="M470.3,206.623l.842-49.134,30.271-17.969-30.68,17.229L440.03,139.52,470.3,157.463Z" transform="translate(-440.03 -121.781)" fill="url(#cc)"/><path d="M470.3,206.623,440.03,189.139V139.52L470.3,157.463Z" transform="translate(-440.03 -121.781)" fill="url(#cd)"/></g><g transform="translate(40.022 35.683)" opacity="0.5"><g transform="translate(16.999 1.072)"><path d="M463.493,149.252l-1.123.638v-1.3l1.123-.638Z" transform="translate(-462.37 -145.449)" fill="url(#ce)"/><path d="M463.493,148.272l-1.123.664v-1.3l1.123-.664Z" transform="translate(-462.37 -146.97)" fill="url(#cf)"/></g><g transform="translate(14.574)"><path d="M462.543,149.776l-1.123.664v-1.3l1.123-.638Z" transform="translate(-461.42 -143.523)" fill="url(#cg)"/><path d="M462.543,148.822l-1.123.638v-1.276l1.123-.664Z" transform="translate(-461.42 -145.044)" fill="url(#ch)"/><path d="M462.543,147.852l-1.123.638v-1.3l1.123-.638Z" transform="translate(-461.42 -146.55)" fill="url(#ci)"/></g><path d="M461.609,150.342l-1.149.664v-1.3l1.149-.664Z" transform="translate(-448.336 -142.685)" fill="url(#cj)"/><g transform="translate(9.699 5.283)"><path d="M460.659,150.892l-1.148.664v-1.3l1.148-.664Z" transform="translate(-459.51 -147.114)" fill="url(#ck)"/><path d="M460.659,149.922l-1.148.638v-1.3l1.148-.638Z" transform="translate(-459.51 -148.62)" fill="url(#cl)"/></g><g transform="translate(7.274 1.71)"><path d="M459.683,151.442l-1.123.664v-1.3l1.123-.664Z" transform="translate(-458.56 -142.687)" fill="url(#cm)"/><path d="M459.683,150.472l-1.123.638v-1.3l1.123-.638Z" transform="translate(-458.56 -144.193)" fill="url(#cn)"/><path d="M459.683,149.492l-1.123.664v-1.3l1.123-.664Z" transform="translate(-458.56 -145.714)" fill="url(#co)"/><path d="M459.683,148.522l-1.123.638v-1.3l1.123-.638Z" transform="translate(-458.56 -147.22)" fill="url(#cp)"/></g><g transform="translate(4.85 8.091)"><path d="M458.733,151.992l-1.123.664v-1.327l1.123-.638Z" transform="translate(-457.61 -148.214)" fill="url(#cq)"/><path d="M458.733,151l-1.123.664v-1.3l1.123-.638Z" transform="translate(-457.61 -149.72)" fill="url(#cr)"/></g><g transform="translate(2.425 6.994)"><path d="M457.783,152.542l-1.123.638v-1.3l1.123-.638Z" transform="translate(-456.66 -146.263)" fill="url(#cs)"/><path d="M457.783,151.562l-1.123.664v-1.3l1.123-.664Z" transform="translate(-456.66 -147.784)" fill="url(#ct)"/><path d="M457.783,150.592l-1.123.638v-1.3l1.123-.638Z" transform="translate(-456.66 -149.29)" fill="url(#cu)"/></g><g transform="translate(0 10.873)"><path d="M456.833,153.092l-1.123.638v-1.3l1.123-.638Z" transform="translate(-455.71 -149.289)" fill="url(#cv)"/><path d="M456.833,152.112l-1.123.664v-1.3l1.123-.664Z" transform="translate(-455.71 -150.81)" fill="url(#cw)"/></g></g></g></g></svg>