<svg xmlns="http://www.w3.org/2000/svg" xmlns:xlink="http://www.w3.org/1999/xlink" width="615" height="462" viewBox="0 0 615 462"><defs><clipPath id="a"><rect width="615" height="462" transform="translate(17607 5906)" fill="#fff"/></clipPath><linearGradient id="b" x2="1" y2="1.011" gradientUnits="objectBoundingBox"><stop offset="0" stop-color="#3a2a46"/><stop offset="1" stop-color="#18087a"/></linearGradient><linearGradient id="c" x1="0.5" y1="0.964" x2="0.5" y2="0.301" gradientUnits="objectBoundingBox"><stop offset="0.28" stop-color="#5213ba"/><stop offset="1" stop-color="#4750b7"/></linearGradient><linearGradient id="e" x1="-1.598" y1="-2.238" x2="0.687" y2="0.745" xlink:href="#c"/><linearGradient id="f" x1="0.344" y1="-6.799" x2="0.59" y2="4.704" xlink:href="#c"/><linearGradient id="g" x1="0.186" y1="-1.277" x2="0.762" y2="1.688" xlink:href="#c"/><linearGradient id="h" x1="0.084" y1="-1.481" x2="0.66" y2="1.484" xlink:href="#c"/><linearGradient id="i" x1="0.843" y1="3.102" x2="0.378" y2="-0.395" xlink:href="#c"/><linearGradient id="j" x1="1.057" y1="1.794" x2="-0.575" y2="-1.652" xlink:href="#c"/><linearGradient id="k" x1="1.444" y1="4.796" x2="-1.155" y2="-6.776" xlink:href="#c"/><linearGradient id="l" x1="1.823" y1="5.896" x2="-0.619" y2="-3.891" xlink:href="#c"/><linearGradient id="m" x1="1.011" y1="32.254" x2="0.434" y2="-3.601" xlink:href="#c"/><linearGradient id="n" x1="2.244" y1="21.635" x2="-0.512" y2="-11.62" xlink:href="#c"/><linearGradient id="o" y1="2.107" y2="0.695" xlink:href="#c"/><linearGradient id="p" x1="-3.071" y1="2.107" x2="-3.071" y2="0.695" xlink:href="#c"/><clipPath id="q"><path d="M346.812,338.976a33.024,33.024,0,0,0-12.733,2.313,56.241,56.241,0,0,0,4.38-5.489c4.026,2.95,12.362-.777,13.7-2.454,2.031-2.7.777-9.713,0-15.258a70.742,70.742,0,0,0-2.066-10.6c-.777-3.532-3.921-6.64-10.384-6.869a6.233,6.233,0,0,0-3.762,1.324,25.527,25.527,0,0,0-1.608-5.616c-1.042-2.9-4.238-4.715-10.331-4.892-3.267-.089-6.481,3.285-9.522,8.066-1.06-3.126-4.415-4.892-10.879-4.609-2.95.123-5.651,3.055-8.159,7.276a15.894,15.894,0,0,0-7.665-2.207c-5.209-.423-10.808,7.929-15.894,16.795-8.3,7.064-15.046,18.754-24.724,36.044-12.574,4.981-18.472,16.654-25.059,25.607-9.607,12.91-19.249,25.766-19.249,25.766h93.9s1.537-9.007,9.858-26.931a8.282,8.282,0,0,0-.212-6.834c8.459-.794,17.536-2.755,23.646-7.152,14.552-10.472,33.218-6.609,32.988-14.958C362.759,338.337,356.013,338.831,346.812,338.976Z" transform="translate(-202.862 -291.437)" fill="none"/></clipPath><linearGradient id="r" x1="0.5" y1="0.626" x2="0.5" y2="0.225" gradientUnits="objectBoundingBox"><stop offset="0" stop-color="blue" stop-opacity="0"/><stop offset="1" stop-color="#48a5f9"/></linearGradient><clipPath id="s"><path d="M462.9,380.394c-6.764-9.186-14.039-21-28.255-25.99-4.481-10.72-8.3-19.126-12.5-25.625a4.353,4.353,0,0,0-.194-.635c-4.185-12.044-9.166-30.233-16.529-30.94-4.929-.477-8.088.371-9.858,2.172-2.1-5.192-4.627-9.024-7.824-9.554-7.294-1.2-10.9.742-11.814,4.679a2.983,2.983,0,0,0,0,.389,45.17,45.17,0,0,0-1.66,4.768,6.746,6.746,0,0,0-4.2-2.384c-6.075-.548-9.466.883-10.843,3.621a15.46,15.46,0,0,0-1.13,2.3c-1.943-3.025-4.062-5.033-6.428-5.3a12.733,12.733,0,0,0-7.594,1.378,7.866,7.866,0,0,0-1.219.618c-2.507,1.68-4.062,7.24-5.489,11.814s-3.691,10.418-2.313,12.592c1.766,2.791,6.551,3.744,10.437,2.366,2.72,5.952,6.273,12.1,8.671,14.451l.477.794c-10.684-2.016-11.108-4.451-21.422-4.468-9.186,0-15.894-.494-16.141,9.465-.177,8.353,18.455,4.326,33.113,14.675,7.17,5.068,18.331,6.781,27.85,7.223l2.737,2.649a12.84,12.84,0,0,0,.336,8.83c8.229,18.036,7.081,25.942,7.081,25.942h90.7a202.186,202.186,0,0,0-15.982-25.83Z" transform="translate(-317.068 -289.47)" fill="none"/></clipPath><linearGradient id="u" x1="1.624" y1="2.201" x2="0.335" y2="0.25" xlink:href="#c"/></defs><g transform="translate(-17607 -5906)" clip-path="url(#a)"><g transform="translate(2335.777 1043.503)"><g transform="translate(15091.529 4794.588)"><rect width="794.693" height="529.795" rx="3.034" fill="url(#b)"/><g transform="translate(498.431 322.61)"><rect width="45.015" height="4.521" transform="translate(92.926)" fill="#92e8ff" opacity="0.5"/><rect width="29.562" height="4.521" transform="translate(90.366 7.47)" fill="#92e8ff" opacity="0.5"/><rect width="11.002" height="4.521" transform="translate(126.939 7.47)" fill="#92e8ff" opacity="0.5"/><rect width="25.006" height="4.521" transform="translate(112.934 14.958)" fill="#92e8ff" opacity="0.5"/><rect width="15.01" height="4.521" transform="translate(122.93 22.428)" fill="#92e8ff"/><rect width="20.38" height="4.521" transform="translate(97.43 22.428)" fill="#92e8ff" opacity="0.5"/><rect width="51.019" height="4.521" transform="translate(86.922 29.915)" fill="#92e8ff" opacity="0.5"/><rect width="30.004" height="4.521" transform="translate(107.937 37.386)" fill="#92e8ff" opacity="0.5"/><rect width="11.002" height="4.521" transform="translate(126.939 44.874)" fill="#92e8ff" opacity="0.5"/><rect width="17.041" height="4.521" transform="translate(90.366 14.958)" fill="#92e8ff" opacity="0.5"/><rect width="11.002" height="4.521" transform="translate(98.418 82.259)" fill="#92e8ff" opacity="0.5"/><rect width="11.002" height="4.521" transform="translate(81.412 82.259)" fill="#92e8ff" opacity="0.5"/><rect width="35.019" height="4.521" transform="translate(102.921 52.344)" fill="#92e8ff" opacity="0.5"/><rect width="27.567" height="4.521" transform="translate(90.366 59.814)" fill="#92e8ff" opacity="0.5"/><rect width="15.01" height="4.521" transform="translate(122.93 59.814)" fill="#92e8ff" opacity="0.5"/><rect width="25.006" height="4.521" transform="translate(95.416 44.874)" fill="#92e8ff" opacity="0.5"/><rect width="25.006" height="4.521" transform="translate(112.934 67.302)" fill="#92e8ff" opacity="0.5"/><rect width="11.002" height="4.521" transform="translate(126.939 74.772)" fill="#92e8ff" opacity="0.5"/><rect width="11.002" height="4.521" transform="translate(97.43 67.302)" fill="#92e8ff"/><rect width="25.006" height="4.521" transform="translate(112.934 82.259)" fill="#92e8ff"/><rect width="29.421" height="4.521" transform="translate(92.926 74.772)" fill="#92e8ff" opacity="0.5"/><rect width="51.019" height="4.521" transform="translate(86.922 89.729)" fill="#92e8ff"/><rect width="14.004" height="4.521" transform="translate(123.937 97.217)" fill="#92e8ff" opacity="0.5"/><rect width="26.366" height="4.521" transform="translate(91.425 97.217)" fill="#92e8ff" opacity="0.5"/><rect width="28.432" height="4.521" transform="translate(77.173 104.688)" fill="#92e8ff" opacity="0.5"/><rect width="27.143" height="4.521" transform="translate(110.798 104.688)" fill="#92e8ff" opacity="0.5"/><rect width="38.022" height="4.521" transform="translate(99.919 112.176)" fill="#92e8ff" opacity="0.5"/><rect width="26.314" height="4.521" transform="translate(0 112.176)" fill="#92e8ff" opacity="0.5"/><rect width="11.002" height="4.521" transform="translate(0 104.688)" fill="#92e8ff" opacity="0.5"/><rect width="25.006" height="4.521" transform="translate(0 97.217)" fill="#92e8ff" opacity="0.5"/><rect width="15.01" height="4.521" transform="translate(0 89.729)" fill="#92e8ff" opacity="0.5"/><rect width="29.828" height="4.521" transform="translate(0 82.259)" fill="#92e8ff" opacity="0.5"/><rect width="38.022" height="4.521" transform="translate(0 74.772)" fill="#92e8ff" opacity="0.5"/><rect width="11.002" height="4.521" transform="translate(0 67.302)" fill="#92e8ff"/><rect width="20.468" height="4.521" transform="translate(0 59.814)" fill="#92e8ff" opacity="0.5"/><rect width="25.006" height="4.521" transform="translate(0 52.344)" fill="#92e8ff" opacity="0.5"/><rect width="25.006" height="4.521" transform="translate(0 44.874)" fill="#92e8ff" opacity="0.5"/><rect width="11.002" height="4.521" transform="translate(0 37.386)" fill="#92e8ff" opacity="0.5"/><rect width="25.006" height="4.521" transform="translate(0 29.915)" fill="#92e8ff" opacity="0.5"/><rect width="29.828" height="4.521" transform="translate(0 22.428)" fill="#92e8ff" opacity="0.5"/><rect width="14.004" height="4.521" transform="translate(0 14.958)" fill="#92e8ff" opacity="0.5"/><rect width="27.143" height="4.521" transform="translate(0 7.47)" fill="#92e8ff" opacity="0.5"/><rect width="22.216" height="4.521" fill="#92e8ff" opacity="0.5"/></g><g transform="translate(507.491 26.314)" opacity="0.1"><rect width="88.334" height="8.866" transform="translate(182.321)" fill="#92e8ff" opacity="0.5"/><rect width="58.012" height="8.866" transform="translate(177.322 14.657)" fill="#92e8ff" opacity="0.5"/><rect width="21.599" height="8.866" transform="translate(249.057 14.657)" fill="#92e8ff" opacity="0.5"/><rect width="49.076" height="8.866" transform="translate(221.578 29.333)" fill="#92e8ff" opacity="0.5"/><rect width="29.439" height="8.866" transform="translate(241.216 44.008)" fill="#92e8ff"/><rect width="39.964" height="8.866" transform="translate(191.151 44.008)" fill="#92e8ff" opacity="0.5"/><rect width="100.114" height="8.866" transform="translate(170.541 58.684)" fill="#92e8ff" opacity="0.5"/><rect width="58.878" height="8.866" transform="translate(211.777 73.359)" fill="#92e8ff" opacity="0.5"/><rect width="21.599" height="8.866" transform="translate(249.057 88.034)" fill="#92e8ff" opacity="0.5"/><rect width="33.43" height="8.866" transform="translate(177.322 29.333)" fill="#92e8ff" opacity="0.5"/><rect width="21.599" height="8.866" transform="translate(193.128 161.393)" fill="#92e8ff" opacity="0.5"/><rect width="21.599" height="8.866" transform="translate(159.751 161.393)" fill="#92e8ff" opacity="0.5"/><rect width="68.696" height="8.866" transform="translate(201.958 102.692)" fill="#92e8ff" opacity="0.5"/><rect width="54.075" height="8.866" transform="translate(177.322 117.367)" fill="#92e8ff" opacity="0.5"/><rect width="29.439" height="8.866" transform="translate(241.216 117.367)" fill="#92e8ff" opacity="0.5"/><rect width="49.076" height="8.866" transform="translate(187.23 88.034)" fill="#92e8ff" opacity="0.5"/><rect width="49.076" height="8.866" transform="translate(221.578 132.042)" fill="#92e8ff" opacity="0.5"/><rect width="21.599" height="8.866" transform="translate(249.057 146.718)" fill="#92e8ff" opacity="0.5"/><rect width="21.599" height="8.866" transform="translate(191.151 132.042)" fill="#92e8ff"/><rect width="49.076" height="8.866" transform="translate(221.578 161.393)" fill="#92e8ff"/><rect width="57.748" height="8.866" transform="translate(182.321 146.718)" fill="#92e8ff" opacity="0.5"/><rect width="100.114" height="8.866" transform="translate(170.541 176.051)" fill="#92e8ff"/><rect width="27.479" height="8.866" transform="translate(243.176 190.726)" fill="#92e8ff" opacity="0.5"/><rect width="51.744" height="8.866" transform="translate(179.389 190.726)" fill="#92e8ff" opacity="0.5"/><rect width="55.77" height="8.866" transform="translate(151.433 205.401)" fill="#92e8ff" opacity="0.5"/><rect width="53.263" height="8.866" transform="translate(217.393 205.401)" fill="#92e8ff" opacity="0.5"/><rect width="74.596" height="8.866" transform="translate(196.059 220.077)" fill="#92e8ff" opacity="0.5"/><rect width="51.637" height="8.866" transform="translate(0 220.077)" fill="#92e8ff" opacity="0.5"/><rect width="21.599" height="8.866" transform="translate(0 205.401)" fill="#92e8ff" opacity="0.5"/><rect width="49.076" height="8.866" transform="translate(0 190.726)" fill="#92e8ff" opacity="0.5"/><rect width="29.439" height="8.866" transform="translate(0 176.051)" fill="#92e8ff" opacity="0.5"/><rect width="58.524" height="8.866" transform="translate(0 161.393)" fill="#92e8ff" opacity="0.5"/><rect width="74.596" height="8.866" transform="translate(0 146.718)" fill="#92e8ff" opacity="0.5"/><rect width="21.599" height="8.866" transform="translate(0 132.042)" fill="#92e8ff"/><rect width="40.159" height="8.866" transform="translate(0 117.367)" fill="#92e8ff" opacity="0.5"/><rect width="49.076" height="8.866" transform="translate(0 102.692)" fill="#92e8ff" opacity="0.5"/><rect width="49.076" height="8.866" transform="translate(0 88.034)" fill="#92e8ff" opacity="0.5"/><rect width="21.599" height="8.866" transform="translate(0 73.359)" fill="#92e8ff" opacity="0.5"/><rect width="49.076" height="8.866" transform="translate(0 58.684)" fill="#92e8ff" opacity="0.5"/><rect width="58.524" height="8.866" transform="translate(0 44.008)" fill="#92e8ff" opacity="0.5"/><rect width="27.479" height="8.866" transform="translate(0 29.333)" fill="#92e8ff" opacity="0.5"/><rect width="53.263" height="8.866" transform="translate(0 14.657)" fill="#92e8ff" opacity="0.5"/><rect width="43.603" height="8.866" fill="#92e8ff" opacity="0.5"/></g><g transform="translate(405.28 168.298)"><path d="M555,381.974H233.588a3.744,3.744,0,0,1-3.744-3.532l-9.2-204.854a3.637,3.637,0,0,1,3.532-3.9l339.069-.371a3.691,3.691,0,0,1,3.638,3.9l-8.19,205.172A3.726,3.726,0,0,1,555,381.974Z" transform="translate(-220.631 -169.315)" fill="#f6feff"/><path d="M555,383.483H233.588a3.744,3.744,0,0,1-3.744-3.532L220.64,175.1a3.655,3.655,0,0,1,3.532-3.9l339.069-.353a3.691,3.691,0,0,1,3.638,3.9L558.684,379.9a3.726,3.726,0,0,1-3.691,3.585Z" transform="translate(-220.63 -167.733)" fill="#242893"/><path d="M551.358,182.792l-6.746,180.131a6.676,6.676,0,0,1-6.694,6.323H240.068a6.71,6.71,0,0,1-6.694-6.322l-7.665-179.76a6.535,6.535,0,0,1,6.464-7.011l312.58-.318a6.551,6.551,0,0,1,6.61,6.958Z" transform="translate(-215.384 -162.554)" fill="url(#c)"/></g><g transform="translate(462.546 256.05)"><rect width="51.937" height="105.976" fill="#0d85d6"/><rect width="51.937" height="7.117" transform="translate(0 98.859)" fill="#92e8ff"/><rect width="9.483" height="4.221" transform="translate(8.689 76.097)" fill="#92e8ff"/><rect width="2.737" height="4.221" transform="translate(8.689 69.121)" fill="#92e8ff"/><rect width="5.104" height="4.221" transform="translate(8.689 62.127)" fill="#92e8ff"/><rect width="6.234" height="4.221" transform="translate(8.689 55.151)" fill="#92e8ff"/><rect width="6.234" height="4.221" transform="translate(8.689 48.159)" fill="#92e8ff"/><rect width="2.737" height="4.221" transform="translate(8.689 41.183)" fill="#92e8ff"/><rect width="6.234" height="4.221" transform="translate(8.689 34.189)" fill="#92e8ff"/><rect width="7.435" height="4.221" transform="translate(8.689 27.213)" fill="#92e8ff"/><rect width="3.496" height="4.221" transform="translate(8.689 20.221)" fill="#92e8ff"/><rect width="6.764" height="4.221" transform="translate(8.689 13.245)" fill="#92e8ff"/><rect width="2.737" height="4.221" transform="translate(33.8 41.183)" fill="#92e8ff"/><rect width="6.764" height="4.221" transform="translate(29.774 13.245)" fill="#92e8ff"/><rect width="5.545" height="4.221" transform="translate(8.689 6.251)" fill="#92e8ff"/></g><path d="M234.987,391.168a4.645,4.645,0,0,1-4.627-4.292l-12.185-205a4.7,4.7,0,0,1,1.219-3.532,4.415,4.415,0,0,1,3.2-1.431l339.6-5.3a4.556,4.556,0,0,1,3.267,1.324,4.68,4.68,0,0,1,1.344,3.426l-5.3,205.613a4.627,4.627,0,0,1-4.556,4.433l-321.962,4.662Zm327.29-217.71h0l-339.6,5.3a2.719,2.719,0,0,0-1.943.865,2.879,2.879,0,0,0-.742,2.172l12.185,205a2.861,2.861,0,0,0,2.861,2.631h0L557,384.758a2.843,2.843,0,0,0,2.825-2.7l5.3-205.614a2.967,2.967,0,0,0-.83-2.154,2.72,2.72,0,0,0-2.016-.83Z" transform="translate(182.086 1.374)" fill="#92e8ff"/><g transform="translate(428.516 107.884)"><rect width="47.929" height="6.817" fill="#92e8ff" opacity="0.5"/><rect width="47.929" height="6.817" transform="translate(19.161 11.284)" fill="#92e8ff" opacity="0.5"/><rect width="11.709" height="6.817" transform="translate(0 11.284)" fill="#92e8ff"/><rect width="26.631" height="6.817" transform="translate(0 22.552)" fill="#92e8ff" opacity="0.5"/><rect width="15.983" height="6.817" transform="translate(0 33.836)" fill="#92e8ff" opacity="0.5"/><rect width="18.49" height="6.817" transform="translate(21.439 33.836)" fill="#92e8ff"/><rect width="54.321" height="6.817" transform="translate(0 45.104)" fill="#92e8ff" opacity="0.5"/><rect width="40.389" height="6.817" transform="translate(0 56.388)" fill="#92e8ff" opacity="0.5"/><rect width="11.709" height="6.817" transform="translate(0 67.672)" fill="#92e8ff" opacity="0.5"/><rect width="11.726" height="6.817" transform="translate(46.339 33.836)" fill="#92e8ff" opacity="0.5"/><rect width="11.726" height="6.817" transform="translate(30.358 124.043)" fill="#92e8ff" opacity="0.5"/><rect width="11.709" height="6.817" transform="translate(48.459 124.043)" fill="#92e8ff" opacity="0.5"/><rect width="37.28" height="6.817" transform="translate(0 78.94)" fill="#92e8ff" opacity="0.5"/><rect width="14.375" height="6.817" transform="translate(54.851 90.224)" fill="#92e8ff" opacity="0.5"/><rect width="49.536" height="6.817" transform="translate(0 90.224)" fill="#92e8ff" opacity="0.5"/><rect width="26.631" height="6.817" transform="translate(18.631 67.672)" fill="#92e8ff" opacity="0.5"/><rect width="26.631" height="6.817" transform="translate(0 101.491)" fill="#92e8ff" opacity="0.5"/><rect width="11.709" height="6.817" transform="translate(0 112.776)" fill="#92e8ff" opacity="0.5"/><rect width="11.709" height="6.817" transform="translate(31.416 101.491)" fill="#92e8ff" opacity="0.5"/><rect width="26.631" height="6.817" transform="translate(0 124.043)" fill="#92e8ff" opacity="0.5"/><rect width="26.631" height="6.817" transform="translate(21.298 112.776)" fill="#92e8ff" opacity="0.5"/><rect width="54.321" height="6.817" transform="translate(0 135.327)" fill="#92e8ff" opacity="0.5"/><rect width="14.905" height="6.817" transform="translate(0 146.612)" fill="#92e8ff"/><rect width="46.198" height="6.817" transform="translate(21.439 146.612)" fill="#92e8ff" opacity="0.5"/><rect width="11.903" height="6.817" transform="translate(34.419 157.879)" fill="#92e8ff" opacity="0.5"/><rect width="28.909" height="6.817" transform="translate(0 157.879)" fill="#92e8ff" opacity="0.5"/><rect width="40.476" height="6.817" transform="translate(0 169.163)" fill="#92e8ff" opacity="0.5"/><rect width="28.027" height="6.817" transform="translate(118.85 169.163)" fill="#92e8ff" opacity="0.5"/><rect width="11.709" height="6.817" transform="translate(135.151 157.879)" fill="#92e8ff" opacity="0.5"/><rect width="26.631" height="6.817" transform="translate(120.246 146.612)" fill="#92e8ff" opacity="0.5"/><rect width="15.983" height="6.817" transform="translate(130.895 135.327)" fill="#92e8ff" opacity="0.5"/><rect width="31.753" height="6.817" transform="translate(115.106 124.043)" fill="#92e8ff" opacity="0.5"/><rect width="40.476" height="6.817" transform="translate(106.401 112.776)" fill="#92e8ff" opacity="0.5"/><rect width="11.709" height="6.817" transform="translate(135.151 101.491)" fill="#92e8ff" opacity="0.5"/><rect width="21.792" height="6.817" transform="translate(125.085 90.224)" fill="#92e8ff" opacity="0.5"/><rect width="26.631" height="6.817" transform="translate(120.246 78.94)" fill="#92e8ff" opacity="0.5"/><rect width="26.631" height="6.817" transform="translate(120.246 67.672)" fill="#92e8ff" opacity="0.5"/><rect width="11.709" height="6.817" transform="translate(135.151 56.388)" fill="#92e8ff"/><rect width="26.631" height="6.817" transform="translate(120.246 45.104)" fill="#92e8ff" opacity="0.5"/><rect width="31.753" height="6.817" transform="translate(115.106 33.836)" fill="#92e8ff" opacity="0.5"/><rect width="14.905" height="6.817" transform="translate(131.954 22.552)" fill="#92e8ff" opacity="0.5"/><rect width="28.909" height="6.817" transform="translate(117.968 11.284)" fill="#92e8ff" opacity="0.5"/><rect width="23.664" height="6.817" transform="translate(123.213)" fill="#92e8ff" opacity="0.5"/></g><g transform="translate(558.245 203.813)"><rect width="166.797" height="104.493" rx="0.893" fill="#242893"/><rect width="166.797" height="97.994" transform="translate(0 6.499)" fill="url(#c)"/><rect width="98.701" height="4.203" transform="translate(10.067 15.117)" fill="#92e8ff"/><rect width="98.701" height="4.203" transform="translate(10.067 22.057)" fill="#92e8ff"/><rect width="43.426" height="4.203" transform="translate(10.067 29.015)" fill="#92e8ff"/><rect width="98.701" height="4.203" transform="translate(10.067 35.956)" fill="#92e8ff"/><rect width="117.721" height="4.203" transform="translate(10.067 42.914)" fill="#92e8ff"/><rect width="55.276" height="4.203" transform="translate(10.067 49.854)" fill="#92e8ff"/><rect width="107.142" height="4.203" transform="translate(10.067 56.794)" fill="#92e8ff"/><rect width="87.716" height="4.203" transform="translate(10.067 63.752)" fill="#92e8ff"/></g><rect width="1.766" height="158.215" transform="translate(530.095 203.813)" fill="#92e8ff"/><path d="M209.641,68.759l-3.921-3.938-5.739,5.739-5.739-5.739-3.921,3.938,5.722,5.739-5.722,5.722,3.921,3.938,5.739-5.722,5.739,5.722,3.921-3.938L203.919,74.5Z" transform="translate(197.365 67.221)" fill="url(#e)"/><g transform="translate(591.57 129.856)"><rect width="31.064" height="5.015" transform="translate(13.93 28.592) rotate(-66.99)" fill="url(#f)"/><path d="M300.141,66.452l-9.731,9.731,9.731,9.731,3.55-3.532-6.18-6.2,6.18-6.18Z" transform="translate(-290.41 -60.945)" fill="url(#g)"/><path d="M309.313,66.452,305.781,70l6.18,6.18-6.18,6.2,3.532,3.532,9.746-9.731Z" transform="translate(-274.47 -60.945)" fill="url(#h)"/></g><g transform="translate(392.432 408.491)"><path d="M577.2,323.658A3.726,3.726,0,0,1,574.074,328l-356.252,1.324a3.178,3.178,0,0,1-2.772-4.309" transform="translate(-213.791 -249.452)" fill="#171d6d"/><path d="M573.922,361.61,217.67,362.934c-2.241,0-3.337-1.271-2.472-2.843l37.969-68.714A5.422,5.422,0,0,1,257.6,289.4H552.411c1.766,0,3.532.865,3.832,1.943L576.959,358.8C577.436,360.374,576.076,361.61,573.922,361.61Z" transform="translate(-213.727 -284.985)" fill="#242893"/><path d="M198.453,263.294l232.368-.777-1.289-53.772-202.082.123Z" transform="translate(-186.634 -192.021)" fill="url(#i)"/><path d="M343.331,262.351l55.735-.177-15.382-53.456-48.6.018Z" transform="translate(-44.946 -192.048)" fill="url(#j)"/><path d="M315.329,244.187l44.133-.159L356.954,226.4l-42.261.106Z" transform="translate(-66.091 -173.708)" fill="url(#k)"/><path d="M314.705,226.829l40.371-.071-2.561-18.036-38.463.036Z" transform="translate(-66.757 -192.04)" fill="url(#l)"/><path d="M213.581,210.035l200.19-.089-.141-5.616-197.031.036Z" transform="translate(-170.946 -196.596)" fill="url(#m)"/><path d="M314.09,209.945l38.11-.018-.794-5.6H313.9Z" transform="translate(-66.918 -196.598)" fill="url(#n)"/><path d="M568.71,362.611h0l-350.795-1.431a3.637,3.637,0,0,1-3.286-1.482,2.649,2.649,0,0,1,.106-2.649l38.057-67.461a6.093,6.093,0,0,1,5.153-2.353l290.292,2.24a4.768,4.768,0,0,1,4.609,2.577l19.779,66.595a2.666,2.666,0,0,1-.407,2.42,4.2,4.2,0,0,1-3.514,1.537Zm0-1.766a2.7,2.7,0,0,0,2.049-.742.919.919,0,0,0,.123-.865L551.1,292.661a3.337,3.337,0,0,0-2.932-1.324L257.879,289.1a4.308,4.308,0,0,0-3.532,1.448l-38.089,67.3a.9.9,0,0,0-.106.865c.159.3.724.618,1.766.618Z" transform="translate(-214.325 -287.227)" fill="#92e8ff"/></g><g transform="translate(369.091 413.047)"><g transform="translate(10.738 3.954)"><path d="M270.534,327.115c-2.331-8.83-6.946-21.6-1.289-26.155s10.278-4.609,12.715-2.825,3.249,8.582,4.1,14.128,2.1,12.556,0,15.258C284.574,329.482,272.512,334.639,270.534,327.115Z" transform="translate(-147.569 -285.561)" fill="#dd8583"/><path d="M263.093,322.338c-2.353-8.83-6.958-21.581-1.289-26.137s10.26-4.609,12.7-2.825,3.267,8.582,4.115,14.128,2.808,12.009,1.608,14.269S265.053,329.878,263.093,322.338Z" transform="translate(-155.297 -290.496)" fill="#dd8583"/><path d="M303.836,356.431c-20.485,14.552-29.687,25.889-34.914,39.4H208.137c11.532-17.1,22.816-32.424,26.49-38.852,28.256-49.836,31.367-62.71,81.107-55.752C358.651,307.163,320.489,344.617,303.836,356.431Z" transform="translate(-208.137 -283.036)" fill="#f8b7b0"/><path d="M260.581,324.472c5.616-11.409,12.786-28.8,20.165-28.556s10.418,4.326,10.6,8.388-3.408,13.457-7.311,20.026-9.166,13.527-11.78,14.817S255.866,334.186,260.581,324.472Z" transform="translate(-154.764 -286.733)" fill="#f8b7b0"/><path d="M252.974,320.087c5.545-11.443,12.626-28.873,20.009-28.679s10.6,2.825,10.754,6.869-4.817,13.368-8.689,19.955-7.717,15.153-10.313,16.459S248.259,329.765,252.974,320.087Z" transform="translate(-162.645 -291.407)" fill="#f8b7b0"/><path d="M243.755,323.145c4.817-11.8,10.754-29.687,18.137-30.023s10.738,2.031,11.2,6.057-3.956,13.667-7.381,20.521-6.728,15.647-9.237,17.148S239.693,333.14,243.755,323.145Z" transform="translate(-171.95 -289.66)" fill="#f8b7b0"/><path d="M234.454,323.1c6.251-11.108,14.41-28.118,21.774-27.5s10.4,3.373,10.331,7.4-5.634,13.086-9.908,19.426S248,337.1,245.337,338.323,229.156,332.5,234.454,323.1Z" transform="translate(-182.11 -287.073)" fill="#f8b7b0"/><path d="M280.643,310.853c-6.11,12.362-3.762,14.022,3.073,12.715,11.02-2.136,11.3-4.627,21.722-4.733,9.2-.089,15.894-.635,16.229,9.324.23,8.353-18.437,4.481-32.988,14.958s-45.916,7.064-45.916,7.064Z" transform="translate(-172.229 -271.241)" fill="#f8b7b0"/></g><g transform="translate(232.527 0)"><path d="M341.336,317.7c3.232-7.417,9.042-18.1,4.221-21.3s-9.186-2.807-11.691-1.148-4.062,7.24-5.489,11.814-3.691,10.418-2.313,12.592C328.76,323.918,338.686,323.97,341.336,317.7Z" transform="translate(-308.082 -284.767)" fill="#dd8583"/><path d="M351.205,324.654c3.373-8.566,9.448-20.613,4.379-25.819s-9.66-5.775-12.362-4.292-4.257,8.141-5.739,13.545-4.221,11.6-3.3,13.968S348.326,331.891,351.205,324.654Z" transform="translate(-299.408 -284.938)" fill="#dd8583"/><path d="M359.878,320.77c3.373-8.566,9.448-20.613,4.362-25.819s-9.66-5.775-12.362-4.292-4.238,8.141-5.739,13.545-4.221,11.6-3.285,13.968S357.035,328.01,359.878,320.77Z" transform="translate(-290.422 -288.966)" fill="#dd8583"/><path d="M444.052,396.291H388.039c-3.867-13.086-11.814-24.971-29.4-40.917-15.135-13.739-48.6-55.4-5.3-56.282,50.224-1.042,51.8,12.114,73.959,64.936C429.677,369.8,436.477,381.933,444.052,396.291Z" transform="translate(-301.502 -279.542)" fill="#f8b7b0"/><path d="M356.558,324.416c-4.221-11.987-9.307-30.128-16.654-30.745s-10.861,3.073-11.5,7.064,1.766,13.779,4.892,20.751,7.506,14.534,9.924,16.124S360.144,334.552,356.558,324.416Z" transform="translate(-305.31 -285.176)" fill="#f8b7b0"/><path d="M365.4,324.189c-4.185-12.009-9.148-30.181-16.495-30.834s-10.825,1.536-11.5,5.527,3.214,13.863,6.273,20.856,5.88,15.894,8.3,17.554S368.935,334.362,365.4,324.189Z" transform="translate(-295.946 -285.551)" fill="#f8b7b0"/><path d="M372.306,321.782c-3.391-12.362-7.17-30.763-14.464-31.964s-10.9.742-11.814,4.679,2.3,14.128,4.892,21.192,4.838,16.336,7.152,18.1S375.164,332.166,372.306,321.782Z" transform="translate(-287.097 -289.466)" fill="#f8b7b0"/><path d="M382.836,324.27c-4.185-12.044-9.166-30.234-16.529-30.94s-10.825,1.465-11.479,5.457,3.214,13.863,6.287,20.874,5.9,15.982,8.318,17.66S386.385,334.442,382.836,324.27Z" transform="translate(-277.882 -285.596)" fill="#f8b7b0"/><path d="M357.883,309.024c6.216,12.238,3.885,14-2.95,12.733-11.055-2.031-11.355-4.521-21.774-4.538-9.186,0-15.894-.494-16.141,9.466-.177,8.353,18.455,4.326,33.113,14.675s45.916,6.746,45.916,6.746Z" transform="translate(-317.017 -269.184)" fill="#f8b7b0"/></g><path d="M202.866,374.195s9.642-12.856,19.214-25.819,17.66-31.7,46.763-27.408c29.757,4.38,41.395,18.508,37.774,26.3-8.388,17.924-9.858,26.931-9.858,26.931Z" transform="translate(-202.866 -257.446)" fill="url(#o)"/><path d="M446.87,374.384a202.189,202.189,0,0,0-16.02-25.819c-9.572-12.98-20.132-31.241-49.995-28.027s-35.531,20.291-31.912,28.027c8.336,17.907,7.188,25.819,7.188,25.819Z" transform="translate(-52.383 -257.632)" fill="url(#p)"/></g><g transform="translate(369.087 417.06)" clip-path="url(#q)"><path d="M192.393,417.237c25.165-38.852,67.1-99.76,95.8-99.778s47.152,5.969,43.232,26.826,3.938,6.746,15.236,13.315,8.282,7.982-3.025,20.344-8.83,38.41-17.554,47.681S192.393,417.237,192.393,417.237Z" transform="translate(-213.722 -264.449)" fill="#ff4a1a" opacity="0.1"/><path d="M279.595,174.231,144.832,349.116H634.487L559.892,174.231" transform="translate(-218.894 -236.38)" fill="url(#r)"/></g><g transform="translate(601.722 413.052)" clip-path="url(#s)"><path d="M493.356,418.546c-25.165-38.852-67.1-99.778-95.8-99.778S350.4,324.72,354.32,345.576s-3.938,6.764-15.223,13.331-8.3,7.982,3,20.344,8.83,38.41,17.554,47.681S493.356,418.546,493.356,418.546Z" transform="translate(-301.603 -259.085)" fill="#ff4a1a" opacity="0.1"/><path d="M279.595,174.231,144.832,349.116H634.487L559.892,174.231" transform="translate(-451.529 -232.373)" fill="url(#r)"/></g><g transform="translate(451.509 414.053)"><rect width="6.234" height="3.567" transform="translate(0 5.898)" fill="#92e8ff"/><rect width="2.737" height="3.567" fill="#92e8ff"/><rect width="5.616" height="3.567" transform="translate(3.797)" fill="#92e8ff"/></g><g transform="translate(520.224 415.554)"><rect width="6.234" height="3.567" transform="translate(0 17.712)" fill="#92e8ff"/><rect width="2.737" height="3.567" transform="translate(0 11.796)" fill="#92e8ff"/><rect width="2.737" height="3.567" transform="translate(7.435 17.712)" fill="#92e8ff"/><rect width="6.234" height="3.567" transform="translate(0 5.898)" fill="#92e8ff"/><rect width="7.435" height="3.567" fill="#92e8ff"/></g><g transform="translate(606.863 421.876)"><rect width="5.122" height="3.567" transform="translate(6.817 11.796)" fill="#92e8ff"/><rect width="6.234" height="3.567" transform="translate(5.704 5.898)" fill="#92e8ff"/><rect width="4.115" height="3.567" transform="translate(0 5.898)" fill="#92e8ff"/><rect width="9.571" height="3.567" transform="translate(2.366)" fill="#92e8ff"/></g><path d="M351.316,193.945h-2.791v4.062h-4.061V200.8h4.062v4.044h2.791V200.8h4.044v-2.791h-4.044Z" transform="translate(357.214 201.124)" fill="url(#u)"/></g></g></g></svg>