<svg xmlns="http://www.w3.org/2000/svg" width="46.391" height="39.197" viewBox="0 0 46.391 39.197"><g transform="translate(0 -0.098)"><path d="M289.894,260.068H276.255a.739.739,0,0,1-.739-.739V247.7a.739.739,0,1,1,1.479,0v10.891h12.16V247.7a.74.74,0,0,1,1.479,0v11.632A.739.739,0,0,1,289.894,260.068Zm0,0" transform="translate(-246.401 -220.773)" fill="#fff"/><path d="M255.835,200.248a.739.739,0,0,1-.481-1.3l9.064-7.769a.74.74,0,0,1,.968,0l8.891,7.769a.739.739,0,0,1-.973,1.114l-8.409-7.348-8.578,7.353A.737.737,0,0,1,255.835,200.248Zm0,0" transform="translate(-228.139 -170.729)" fill="#fff"/><path d="M29.854,33.114H4.964A4.97,4.97,0,0,1,0,28.15V5.061A4.97,4.97,0,0,1,4.964.1H32.425a4.97,4.97,0,0,1,4.964,4.964V20.989a.739.739,0,0,1-1.479,0V5.061a3.489,3.489,0,0,0-3.486-3.485H4.964A3.489,3.489,0,0,0,1.479,5.061V28.15a3.489,3.489,0,0,0,3.486,3.485h24.89a.74.74,0,0,1,0,1.479Zm0,0" transform="translate(0)" fill="#fff"/><path d="M36.65,82.873H.739a.739.739,0,1,1,0-1.479H36.65a.739.739,0,1,1,0,1.479Zm0,0" transform="translate(0 -72.706)" fill="#fff"/><path d="M82.836,32.645A2.066,2.066,0,1,1,84.9,30.578,2.069,2.069,0,0,1,82.836,32.645Zm0-2.654a.588.588,0,1,0,.588.588A.589.589,0,0,0,82.836,29.99Zm0,0" transform="translate(-72.234 -25.411)" fill="#fff"/><path d="M26.426,32.469A2.066,2.066,0,1,1,28.492,30.4,2.069,2.069,0,0,1,26.426,32.469Zm0-2.654a.588.588,0,1,0,.588.588A.589.589,0,0,0,26.426,29.815Zm0,0" transform="translate(-21.785 -25.254)" fill="#fff"/><path d="M139.25,32.824a2.066,2.066,0,1,1,2.066-2.066A2.069,2.069,0,0,1,139.25,32.824Zm0-2.654a.588.588,0,1,0,.588.588A.589.589,0,0,0,139.25,30.17Zm0,0" transform="translate(-122.687 -25.572)" fill="#fff"/></g></svg>