<svg xmlns="http://www.w3.org/2000/svg" xmlns:xlink="http://www.w3.org/1999/xlink" width="1783.586" height="1002.338" viewBox="0 0 1783.586 1002.338"><defs><clipPath id="a"><rect width="1783.586" height="1002.338" fill="#fff"/></clipPath><filter id="b" x="-204.266" y="-100.137" width="2503.752" height="431.759" filterUnits="userSpaceOnUse"><feOffset dy="-20" input="SourceAlpha"/><feGaussianBlur stdDeviation="17.5" result="c"/><feFlood flood-opacity="0.18"/><feComposite operator="in" in2="c"/><feComposite in="SourceGraphic"/></filter><filter id="d" x="-52.847" y="755.982" width="2608.459" height="318.812" filterUnits="userSpaceOnUse"><feOffset dy="-20" input="SourceAlpha"/><feGaussianBlur stdDeviation="17.5" result="e"/><feFlood flood-opacity="0.259"/><feComposite operator="in" in2="e"/><feComposite in="SourceGraphic"/></filter></defs><g clip-path="url(#a)"><g transform="translate(-151.766 -36.926)"><g transform="matrix(1, 0, 0, 1, 151.77, 36.93)" filter="url(#b)"><path d="M2398.684,1270.975C1674.8,997.833,1347.69,1096.558,821.146,1316.122S0,1182.11,0,1182.11v-56.137s292.732,368.741,821.146,144.975,860.2-312.661,1577.538-42.671C2398.419,1228.674,2398.927,1228.011,2398.684,1270.975Z" transform="translate(-151.77 -1088.87)" fill="#8059c4"/></g><path d="M2398.684,1270.975C1674.8,997.833,1347.69,1096.558,821.146,1316.122S0,1182.11,0,1182.11v-56.137s292.732,368.741,821.146,144.975,860.2-312.661,1577.538-42.671C2398.419,1228.674,2398.927,1228.011,2398.684,1270.975Z" transform="translate(0 -1061.231)" fill="#8059c4" opacity="0.6"/><g transform="translate(151.419 860.05)"><path d="M2503.388,1198.475c-755.478-178.728-1096.871-114.128-1646.4,29.542S0,1140.327,0,1140.327v-36.733s305.51,241.282,856.99,94.863,897.753-204.587,1646.4-27.921C2503.112,1170.8,2503.641,1170.362,2503.388,1198.475Z" transform="translate(0 -1061.231)" fill="#8059c4" stroke="#707070" stroke-width="1" opacity="0.34"/><g transform="translate(0 5.358)"><g transform="matrix(1, 0, 0, 1, 0.35, -828.48)" filter="url(#d)"><path d="M2503.388,1198.475c-755.478-178.728-1096.871-114.128-1646.4,29.542S0,1140.327,0,1140.327v-36.733s305.51,241.282,856.99,94.863,897.753-204.587,1646.4-27.921C2503.112,1170.8,2503.641,1170.362,2503.388,1198.475Z" transform="translate(-0.35 -232.75)" fill="#6d35ce"/></g></g></g></g></g></svg>