<svg xmlns="http://www.w3.org/2000/svg" xmlns:xlink="http://www.w3.org/1999/xlink" width="100" height="100" viewBox="0 0 100 100">
  <defs>
    <clipPath id="clip-path">
      <circle id="Ellipse_168" data-name="Ellipse 168" cx="50" cy="50" r="50" transform="translate(10330 7385)" fill="#fff"/>
    </clipPath>
  </defs>
  <g id="soc-vk" transform="translate(-10330 -7385)" clip-path="url(#clip-path)">
    <g id="Group_259" data-name="Group 259" transform="translate(10329.521 7384.521)">
      <path id="Path_484" data-name="Path 484" d="M0,552.362v101H101v-101Z" transform="translate(0 -552.362)" fill="#537599"/>
      <path id="Path_485" data-name="Path 485" d="M217.936,153.892v60.438h-34.99L146.535,177.92l21.124-21.383-13.019-13.019,19.313-1.5,14.14,14.14,19.183-12.925Z" transform="translate(-116.934 -113.329)" opacity="0.3"/>
      <path id="Path_486" data-name="Path 486" d="M94.118,136.438c-4.3.02-7.042.025-10.908.025-3.233,0-5.049,1.309-5.107,2.089-.053.714,1.6,1.291,2.6,1.869a5.277,5.277,0,0,1,1.843,3.794v11.23a2.839,2.839,0,0,1-1.1,2.506,2.148,2.148,0,0,1-1.427.417,1.69,1.69,0,0,1-1.408-.6c-4.259-5.513-4.273-6.194-10.24-17.3a4.1,4.1,0,0,0-1.168-1.54,4.759,4.759,0,0,0-2.879-.713c-4.8,0-7.755.069-10.908.069-2.985,0-2.7,1.83-2.3,2.664,3.578,7.461,7.211,14.585,11.388,21.816,4.891,8.468,9.362,13.555,16.886,17.208a20.746,20.746,0,0,0,8.535,1.723h7.733c.994,0,2.645-.784,2.645-1.837v-5.8c0-1.659,1.654-2.262,2.556-2.67a2.552,2.552,0,0,1,2.74.877c4.323,4.622,3.832,4.119,7.771,8.257a3.767,3.767,0,0,0,3.245,1.427c11.361,0,11.37.022,14.083,0,.745-.006,1.851-1.124,2.1-1.559.323-.575,1.056-2.628-.12-3.958-3.992-4.515-8.062-8.649-11.962-12.751a1.814,1.814,0,0,1-.53-1.168,2.3,2.3,0,0,1,.53-1.313c4.374-6.072,7.987-11.213,11.918-17.6,1.278-2.077,1.112-3.546.877-4.053a2.552,2.552,0,0,0-2.071-1.4c-5.249-.029-7.519-.1-13.118-.095-1.672,0-3.153-.126-4.072,1.888-2.46,5.4-6.475,13.628-9.961,17.05a3.543,3.543,0,0,1-2.254,1.1,1.689,1.689,0,0,1-1.66-1.73c-.086-5.872-.014-10.881-.044-16.634a2.622,2.622,0,0,0-1.313-2.6A5.4,5.4,0,0,0,94.118,136.438Z" transform="translate(-40.594 -108.877)" fill="#fff"/>
    </g>
  </g>
</svg>
