<svg xmlns="http://www.w3.org/2000/svg" xmlns:xlink="http://www.w3.org/1999/xlink" width="100" height="100" viewBox="0 0 100 100">
  <defs>
    <clipPath id="clip-path">
      <circle id="Ellipse_181" data-name="Ellipse 181" cx="50" cy="50" r="50" transform="translate(11415 9531)" fill="#fff" opacity="0.377"/>
    </clipPath>
    <linearGradient id="linear-gradient" x1="0.279" y1="0.279" x2="1" y2="1" gradientUnits="objectBoundingBox">
      <stop offset="0" stop-opacity="0.4"/>
      <stop offset="0.8" stop-opacity="0"/>
    </linearGradient>
    <clipPath id="clip-path-2">
      <path id="Path_1601" data-name="Path 1601" d="M56.763,142.581A15.781,15.781,0,0,1,41,126.819V56.763A15.781,15.781,0,0,1,56.763,41h70.056a15.781,15.781,0,0,1,15.763,15.763v70.056a15.781,15.781,0,0,1-15.763,15.763Z" transform="translate(-41 -41)"/>
    </clipPath>
    <radialGradient id="radial-gradient" cx="78.813" cy="78.813" r="78.813" gradientUnits="userSpaceOnUse">
      <stop offset="0" stop-color="#fff" stop-opacity="0.2"/>
      <stop offset="1" stop-color="#fff" stop-opacity="0"/>
    </radialGradient>
    <clipPath id="clip-path-3">
      <path id="Path_1602" data-name="Path 1602" d="M126.931,142.956H56.875A16.043,16.043,0,0,1,40.85,126.931V56.875A16.043,16.043,0,0,1,56.875,40.85h70.056a16.043,16.043,0,0,1,16.025,16.025v70.056A16.043,16.043,0,0,1,126.931,142.956ZM56.875,41.375a15.518,15.518,0,0,0-15.5,15.5v70.056a15.518,15.518,0,0,0,15.5,15.5h70.056a15.518,15.518,0,0,0,15.5-15.5V56.875a15.518,15.518,0,0,0-15.5-15.5Z" transform="translate(-40.85 -40.85)"/>
    </clipPath>
    <linearGradient id="linear-gradient-2" x2="1" y2="1" gradientUnits="objectBoundingBox">
      <stop offset="0.2" stop-color="#fff" stop-opacity="0.8"/>
      <stop offset="0.7" stop-color="#fff" stop-opacity="0"/>
    </linearGradient>
  </defs>
  <g id="soc-yandex" transform="translate(-11415 -9531)" clip-path="url(#clip-path)">
    <g id="iconfinder_1-02_2303698" transform="translate(11412.243 9528.396)">
      <path id="Path_1596" data-name="Path 1596" d="M547.279,1183.362Z" transform="translate(-466.963 -1008.222)" fill="url(#linear-gradient)"/>
      <path id="Path_1598" data-name="Path 1598" d="M127.57,145.084H57.514A17.514,17.514,0,0,1,40,127.57V57.514A17.514,17.514,0,0,1,57.514,40H127.57a17.514,17.514,0,0,1,17.514,17.514V127.57A17.514,17.514,0,0,1,127.57,145.084Z" transform="translate(-40 -40)" fill="red"/>
      <g id="Group_493" data-name="Group 493" transform="translate(1.751 1.751)">
        <g id="Group_492" data-name="Group 492" clip-path="url(#clip-path-2)">
          <circle id="Ellipse_180" data-name="Ellipse 180" cx="78.813" cy="78.813" r="78.813" transform="translate(-71.808 -71.808)" fill="url(#radial-gradient)"/>
        </g>
      </g>
      <g id="Group_495" data-name="Group 495" transform="translate(1.489 1.489)">
        <g id="Group_494" data-name="Group 494" transform="translate(0 0)" clip-path="url(#clip-path-3)">
          <rect id="Rectangle_280" data-name="Rectangle 280" width="175.14" height="175.14" transform="translate(-36.517 -36.517)" fill="url(#linear-gradient-2)"/>
        </g>
      </g>
      <path id="Path_1603" data-name="Path 1603" d="M93.98,50.1,82.79,75.969,63.267,56.446,73.511,94.863,71.03,119.836,88.692,137.5h21.4A17.514,17.514,0,0,0,127.6,119.983V83.721Z" transform="translate(-22.517 -32.413)" opacity="0.12"/>
      <path id="path48" d="M96.559,50H90.634a.847.847,0,0,0-.928.632c-.075.375-8.885,27.258-9.525,29.5-.454,1.588-1.934,7.184-2.289,8.528l-3.064-8.372c-.744-2.3-7.88-22.255-8.09-23.052-.115-.438-.316-.983-1.084-.983H59.87a.757.757,0,0,0-.7,1.006c.145.308,10.594,28.126,14.815,38.753v23.365c0,.426.17.682.6.682h5.478a.607.607,0,0,0,.594-.682V96.193c3.518-9.834,16.371-44.819,16.511-45.211C97.331,50.5,97.281,50,96.559,50Z" transform="translate(-25.637 -32.486)" fill="#fff"/>
      <path id="path48_2_" d="M67.6,90.492c0,.426.17.682.6.682h5.478a.607.607,0,0,0,.594-.682V88.438a5.447,5.447,0,0,1-2.635,1.531A14.77,14.77,0,0,1,67.6,90.492Z" transform="translate(-19.255 -3.604)" fill="red" opacity="0.4"/>
    </g>
  </g>
</svg>
