<svg id="soc-google" xmlns="http://www.w3.org/2000/svg" width="100" height="100" viewBox="0 0 100 100">
  <circle id="Ellipse_167" data-name="Ellipse 167" cx="50" cy="50" r="50" fill="#cf4c3c"/>
  <path id="Path_481" data-name="Path 481" d="M186.917,194.017l-8.06,9.7L163.68,187.93H142.712l-8.487,9.189v19.844l40.747,40.772a56.614,56.614,0,0,0,39.487-36.17Z" transform="translate(-117.601 -159.453)" fill="#ad3228"/>
  <path id="Path_482" data-name="Path 482" d="M132.162,187.206h10.106a12.847,12.847,0,1,1-3.488-13.776,1.392,1.392,0,0,0,1.893-.007l3.712-3.493a1.387,1.387,0,0,0,0-2.017,20.61,20.61,0,0,0-13.815-5.665A20.693,20.693,0,1,0,150.821,184.1c.016-.137.027-4.75.027-4.75H132.162a1.386,1.386,0,0,0-1.386,1.386v5.081a1.386,1.386,0,0,0,1.386,1.386Z" transform="translate(-89.695 -132.936)" fill="#fff"/>
  <path id="Path_483" data-name="Path 483" d="M329.374,220.026v-4.965a1.214,1.214,0,0,0-1.215-1.215H323.98a1.215,1.215,0,0,0-1.215,1.215v4.965H317.8a1.216,1.216,0,0,0-1.216,1.215v4.178a1.216,1.216,0,0,0,1.216,1.215h4.964V231.6a1.215,1.215,0,0,0,1.215,1.215h4.179a1.215,1.215,0,0,0,1.215-1.215v-4.965h4.965a1.216,1.216,0,0,0,1.215-1.215v-4.178a1.215,1.215,0,0,0-1.215-1.215Z" transform="translate(-256.374 -173.175)" fill="#d1d1d1"/>
</svg>
