<svg xmlns="http://www.w3.org/2000/svg" width="100" height="100" viewBox="0 0 100 100">
  <g id="soc-facebook" transform="translate(-0.002)">
    <ellipse id="Ellipse_166" data-name="Ellipse 166" cx="50" cy="50" rx="50" ry="50" transform="translate(0.001)" fill="#4e598f"/>
    <path id="Path_477" data-name="Path 477" d="M197.087,143.572l-23.55-23.558c-.39.118-1.364-.335-1.792-.249-10.1,1.684-19.865,0-29.629,2.694-4.714,1.347-5.051,7.071-6.734,10.774-2.357,6.734-2.02,14.141-5.051,20.539-2.02,4.377-6.734,7.071-8.418,12.121-.562,2.106-.528,4.762-1.163,6.775l23.629,23.618c.923.051,1.852.079,2.787.079a50,50,0,0,0,50-50C197.166,145.428,197.138,144.5,197.087,143.572Z" transform="translate(-97.166 -96.365)" fill="#364270"/>
    <g id="Group_258" data-name="Group 258" transform="translate(21.381 21.38)">
      <path id="Path_478" data-name="Path 478" d="M158.994,109.466H117.181a7.713,7.713,0,0,0-7.713,7.713v41.813a7.713,7.713,0,0,0,7.713,7.713H137.8l.036-20.453h-5.314A1.254,1.254,0,0,1,131.27,145l-.026-6.594a1.254,1.254,0,0,1,1.254-1.259H137.8V130.78c0-7.393,4.515-11.419,11.11-11.419h5.412a1.254,1.254,0,0,1,1.254,1.254v5.559a1.254,1.254,0,0,1-1.253,1.254l-3.321,0c-3.586,0-4.281,1.7-4.281,4.206v5.515H154.6a1.253,1.253,0,0,1,1.245,1.4l-.781,6.594a1.254,1.254,0,0,1-1.245,1.106h-7.064l-.036,20.454h12.271a7.713,7.713,0,0,0,7.713-7.713V117.179a7.713,7.713,0,0,0-7.713-7.713Z" transform="translate(-109.468 -109.466)" fill="#fff"/>
      <path id="Path_479" data-name="Path 479" d="M254.329,318.262l.036-20.453h-.088v20.453Z" transform="translate(-225.994 -261.023)" fill="#fff"/>
    </g>
    <path id="Path_480" data-name="Path 480" d="M275.52,109.466H254.277V137.15h.053v-6.37c0-7.393,4.515-11.419,11.11-11.419h5.412a1.254,1.254,0,0,1,1.254,1.254v5.559a1.254,1.254,0,0,1-1.253,1.254l-3.321,0c-3.586,0-4.281,1.7-4.281,4.206v5.515h7.881a1.253,1.253,0,0,1,1.245,1.4l-.781,6.594a1.254,1.254,0,0,1-1.245,1.106h-7.064l-.036,20.454H275.52a7.713,7.713,0,0,0,7.713-7.713V117.179A7.713,7.713,0,0,0,275.52,109.466Z" transform="translate(-204.613 -88.086)" fill="#d1d1d1"/>
  </g>
</svg>
