<svg xmlns="http://www.w3.org/2000/svg" xmlns:xlink="http://www.w3.org/1999/xlink" width="626" height="626" viewBox="0 0 626 626"><defs><clipPath id="a"><circle cx="313" cy="313" r="313" transform="translate(10330 7385)" fill="#fff"/></clipPath></defs><g transform="translate(-10330 -7385)" clip-path="url(#a)"><g transform="translate(10327 6829.638)"><path d="M0,552.362v632.271H632.271V552.362Z" fill="#537599"/><path d="M593.506,216.355V594.7H374.468L146.535,366.768l132.234-133.86-81.5-81.5,120.9-9.391,88.518,88.518,120.088-80.91Z" transform="translate(38.765 589.932)" opacity="0.3"/><path d="M321.6,136.438c-26.92.125-44.086.158-68.285.158-20.241,0-31.608,8.193-31.969,13.08-.33,4.468,10,8.081,16.281,11.7,6.063,3.759,11.539,15.69,11.539,23.75v70.3c0,6.681-1.518,11.334-6.915,15.688-2.571,2.074-5.627,2.626-8.931,2.608-2.673-.015-6.309-.514-8.812-3.754-26.661-34.51-26.749-38.772-64.1-108.316-1.811-3.373-3.6-6.952-7.311-9.642s-9.207-4.465-18.02-4.465c-30.02,0-48.546.435-68.285.435-18.684,0-16.887,11.458-14.384,16.676,22.4,46.707,45.144,91.3,71.289,136.571,30.618,53.011,58.609,84.852,105.708,107.723,10.932,5.309,30.644,10.788,53.427,10.788h48.408c6.22,0,16.558-4.908,16.558-11.5V371.919c0-10.386,10.355-14.162,16-16.716,6.655-3.008,13.635,1.734,17.15,5.493,27.063,28.931,23.987,25.783,48.645,51.688,5.572,5.854,9.78,8.931,20.312,8.931,71.119,0,71.178.136,88.162,0,4.664-.037,11.589-7.034,13.12-9.761,2.02-3.6,6.613-16.45-.751-24.777-24.993-28.263-50.469-54.14-74.885-79.824a11.354,11.354,0,0,1-3.319-7.311c-.056-2.954,1.592-5.822,3.319-8.22,27.384-38.009,50-70.194,74.608-110.173,8-13,6.963-22.2,5.493-25.37-1.7-3.671-6.945-8.741-12.962-8.773-32.856-.184-47.067-.644-82.116-.593-10.469.015-19.74-.788-25.488,11.816-15.4,33.774-40.536,85.311-62.358,106.735-4.029,3.954-9.411,6.892-14.108,6.915s-9.691-3.176-10.393-10.828c-.537-36.758-.09-68.118-.277-104.127-.057-11.007-4.7-13.839-8.22-16.281C334.966,137.432,327.418,136.41,321.6,136.438Z" transform="translate(13.459 588.456)" fill="#fff"/></g></g></svg>