<svg id="google-plus_2_" data-name="google-plus (2)" xmlns="http://www.w3.org/2000/svg" width="100" height="100" viewBox="0 0 100 100">
  <circle id="Ellipse_169" data-name="Ellipse 169" cx="50" cy="50" r="50" fill="#cf4c3c"/>
  <path id="Path_487" data-name="Path 487" d="M180.919,193.324l-7.143,8.594L160.327,187.93H141.746l-7.521,8.143v17.585l36.109,36.131a50.169,50.169,0,0,0,34.992-32.053Z" transform="translate(-108.11 -151.311)" fill="#ad3228"/>
  <path id="Path_488" data-name="Path 488" d="M129.579,184.364h8.955a11.385,11.385,0,1,1-3.091-12.207,1.234,1.234,0,0,0,1.678-.006l3.289-3.1a1.229,1.229,0,0,0,0-1.788,18.264,18.264,0,0,0-12.242-5.02,18.337,18.337,0,1,0,17.942,19.365c.014-.121.024-4.209.024-4.209H129.579a1.229,1.229,0,0,0-1.229,1.229v4.5a1.228,1.228,0,0,0,1.228,1.229Z" transform="translate(-88.106 -130.581)" fill="#fff"/>
  <path id="Path_489" data-name="Path 489" d="M327.918,219.322v-4.4a1.076,1.076,0,0,0-1.076-1.076h-3.7a1.077,1.077,0,0,0-1.077,1.076v4.4h-4.4a1.077,1.077,0,0,0-1.078,1.077v3.7a1.078,1.078,0,0,0,1.078,1.077h4.4v4.4a1.077,1.077,0,0,0,1.077,1.077h3.7a1.076,1.076,0,0,0,1.076-1.077v-4.4h4.4a1.077,1.077,0,0,0,1.077-1.077v-3.7a1.077,1.077,0,0,0-1.077-1.077Z" transform="translate(-254.769 -172.091)" fill="#d1d1d1"/>
</svg>
