<svg xmlns="http://www.w3.org/2000/svg" xmlns:xlink="http://www.w3.org/1999/xlink" width="1920" height="997" viewBox="0 0 1920 997">
  <defs>
    <clipPath id="clip-path">
      <rect id="Rectangle_321" data-name="Rectangle 321" width="1920" height="997" fill="#fff"/>
    </clipPath>
    <linearGradient id="linear-gradient" x1="-0.009" y1="-0.034" x2="0.859" y2="0.969" gradientUnits="objectBoundingBox">
      <stop offset="0" stop-color="#11013c"/>
      <stop offset="1" stop-color="#083269"/>
    </linearGradient>
    <linearGradient id="linear-gradient-2" x1="3.196" y1="-0.642" x2="4.973" y2="-1.317" gradientUnits="objectBoundingBox">
      <stop offset="0" stop-color="#1e1c36"/>
      <stop offset="0.2" stop-color="#181546"/>
      <stop offset="0.4" stop-color="#201d52"/>
      <stop offset="0.59" stop-color="#2c2a66"/>
      <stop offset="0.79" stop-color="#3e3c81"/>
      <stop offset="0.99" stop-color="#5454a5"/>
      <stop offset="1" stop-color="#5656a8"/>
    </linearGradient>
    <filter id="Path_1669" x="1118.58" y="658.826" width="267.082" height="317.401" filterUnits="userSpaceOnUse">
      <feOffset dy="35" input="SourceAlpha"/>
      <feGaussianBlur stdDeviation="22.5" result="blur"/>
      <feFlood flood-color="#020112" flood-opacity="0.353"/>
      <feComposite operator="in" in2="blur"/>
      <feComposite in="SourceGraphic"/>
    </filter>
    <radialGradient id="radial-gradient" cx="-2395.496" cy="-671.951" r="489.212" gradientTransform="translate(-1157.11 -314.661) scale(0.577 0.577)" gradientUnits="userSpaceOnUse">
      <stop offset="0" stop-color="#f3f3ff"/>
      <stop offset="1" stop-color="#ceceef"/>
    </radialGradient>
    <linearGradient id="linear-gradient-3" x1="0.5" y1="1" x2="0.5" gradientUnits="objectBoundingBox">
      <stop offset="0" stop-color="#161242"/>
      <stop offset="0.06" stop-color="#26224f"/>
      <stop offset="0.53" stop-color="#9a98ad"/>
      <stop offset="0.85" stop-color="#e3e2e8"/>
      <stop offset="1" stop-color="#fff"/>
    </linearGradient>
    <linearGradient id="linear-gradient-4" x1="3.196" y1="-0.642" x2="4.973" y2="-1.317" gradientUnits="objectBoundingBox">
      <stop offset="0" stop-color="#161242"/>
      <stop offset="0.2" stop-color="#181546"/>
      <stop offset="0.4" stop-color="#201d52"/>
      <stop offset="0.59" stop-color="#2c2a66"/>
      <stop offset="0.79" stop-color="#3e3c81"/>
      <stop offset="0.99" stop-color="#5454a5"/>
      <stop offset="1" stop-color="#5656a8"/>
    </linearGradient>
    <linearGradient id="linear-gradient-5" x1="135.15" y1="-180.006" x2="136.3" y2="-180.006" gradientTransform="matrix(1, 0, 0, 1, 0, 0)" xlink:href="#radial-gradient"/>
    <linearGradient id="linear-gradient-6" x1="135.15" y1="-180.005" x2="136.3" y2="-180.005" gradientTransform="matrix(1, 0, 0, 1, 0, 0)" xlink:href="#radial-gradient"/>
    <linearGradient id="linear-gradient-9" x1="137.06" y1="221.745" x2="138.21" y2="221.745" gradientTransform="matrix(1, 0, 0, 1, 0, 0)" xlink:href="#radial-gradient"/>
    <linearGradient id="linear-gradient-10" x1="137.06" y1="221.92" x2="138.21" y2="221.92" gradientTransform="matrix(1, 0, 0, 1, 0, 0)" xlink:href="#radial-gradient"/>
    <linearGradient id="linear-gradient-11" x1="136.73" y1="219.758" x2="137.89" y2="219.758" gradientTransform="matrix(1, 0, 0, 1, 0, 0)" xlink:href="#radial-gradient"/>
    <linearGradient id="linear-gradient-12" x1="136.73" y1="221.197" x2="137.89" y2="221.197" gradientTransform="matrix(1, 0, 0, 1, 0, 0)" xlink:href="#radial-gradient"/>
    <linearGradient id="linear-gradient-13" x1="136.73" y1="221.37" x2="137.89" y2="221.37" gradientTransform="matrix(1, 0, 0, 1, 0, 0)" xlink:href="#radial-gradient"/>
    <linearGradient id="linear-gradient-14" x1="136.4" y1="220.307" x2="137.55" y2="220.307" gradientTransform="matrix(1, 0, 0, 1, 0, 0)" xlink:href="#radial-gradient"/>
    <linearGradient id="linear-gradient-15" x1="136.06" y1="219.59" x2="137.22" y2="219.59" gradientTransform="matrix(1, 0, 0, 1, 0, 0)" xlink:href="#radial-gradient"/>
    <linearGradient id="linear-gradient-16" x1="136.06" y1="219.764" x2="137.22" y2="219.764" gradientTransform="matrix(1, 0, 0, 1, 0, 0)" xlink:href="#radial-gradient"/>
    <linearGradient id="linear-gradient-17" x1="137.098" y1="218.871" x2="138.26" y2="218.871" gradientTransform="matrix(1, 0, 0, 1, 0, 0)" xlink:href="#radial-gradient"/>
    <linearGradient id="linear-gradient-18" x1="137.098" y1="219.041" x2="138.26" y2="219.041" gradientTransform="matrix(1, 0, 0, 1, 0, 0)" xlink:href="#radial-gradient"/>
    <linearGradient id="linear-gradient-19" x1="137.098" y1="219.213" x2="138.26" y2="219.213" gradientTransform="matrix(1, 0, 0, 1, 0, 0)" xlink:href="#radial-gradient"/>
    <linearGradient id="linear-gradient-20" x1="137.098" y1="219.381" x2="138.26" y2="219.381" gradientTransform="matrix(1, 0, 0, 1, 0, 0)" xlink:href="#radial-gradient"/>
    <linearGradient id="linear-gradient-21" x1="135.4" y1="218.149" x2="136.55" y2="218.149" gradientTransform="matrix(1, 0, 0, 1, 0, 0)" xlink:href="#radial-gradient"/>
    <linearGradient id="linear-gradient-22" x1="135.4" y1="218.324" x2="136.55" y2="218.324" gradientTransform="matrix(1, 0, 0, 1, 0, 0)" xlink:href="#radial-gradient"/>
    <linearGradient id="linear-gradient-23" x1="135.06" y1="217.434" x2="136.22" y2="217.434" gradientTransform="matrix(1, 0, 0, 1, 0, 0)" xlink:href="#radial-gradient"/>
    <linearGradient id="linear-gradient-24" x1="135.06" y1="217.606" x2="136.22" y2="217.606" gradientTransform="matrix(1, 0, 0, 1, 0, 0)" xlink:href="#radial-gradient"/>
    <linearGradient id="linear-gradient-25" x1="135.06" y1="216.528" x2="136.22" y2="216.528" gradientTransform="matrix(1, 0, 0, 1, 0, 0)" xlink:href="#radial-gradient"/>
    <linearGradient id="linear-gradient-26" x1="136.088" y1="216.717" x2="137.25" y2="216.717" gradientTransform="matrix(1, 0, 0, 1, 0, 0)" xlink:href="#radial-gradient"/>
    <linearGradient id="linear-gradient-27" x1="136.088" y1="216.883" x2="137.25" y2="216.883" gradientTransform="matrix(1, 0, 0, 1, 0, 0)" xlink:href="#radial-gradient"/>
    <linearGradient id="linear-gradient-28" x1="136.088" y1="40.303" x2="137.25" y2="40.303" gradientTransform="matrix(1, 0, 0, 1, 0, 0)" xlink:href="#radial-gradient"/>
    <linearGradient id="linear-gradient-29" x1="135.06" y1="16.718" x2="136.22" y2="16.718" gradientTransform="matrix(1, 0, 0, 1, 0, 0)" xlink:href="#radial-gradient"/>
    <linearGradient id="linear-gradient-30" x1="135.4" y1="26.677" x2="136.55" y2="26.677" gradientTransform="matrix(1, 0, 0, 1, 0, 0)" xlink:href="#radial-gradient"/>
    <linearGradient id="linear-gradient-31" x1="137.098" y1="14.629" x2="138.26" y2="14.629" gradientTransform="matrix(1, 0, 0, 1, 0, 0)" xlink:href="#radial-gradient"/>
    <linearGradient id="linear-gradient-32" x1="136.06" y1="18.925" x2="137.22" y2="18.925" gradientTransform="matrix(1, 0, 0, 1, 0, 0)" xlink:href="#radial-gradient"/>
    <linearGradient id="linear-gradient-33" x1="136.4" y1="21.516" x2="137.55" y2="21.516" gradientTransform="matrix(1, 0, 0, 1, 0, 0)" xlink:href="#radial-gradient"/>
    <linearGradient id="linear-gradient-34" x1="136.73" y1="15.098" x2="137.89" y2="15.098" gradientTransform="matrix(1, 0, 0, 1, 0, 0)" xlink:href="#radial-gradient"/>
    <linearGradient id="linear-gradient-35" x1="137.06" y1="12.832" x2="138.21" y2="12.832" gradientTransform="matrix(1, 0, 0, 1, 0, 0)" xlink:href="#radial-gradient"/>
    <radialGradient id="radial-gradient-2" cx="-1986.379" cy="-1345.792" r="232.195" gradientTransform="translate(-956.182 -641.347) scale(0.578 0.578)" xlink:href="#radial-gradient"/>
    <linearGradient id="linear-gradient-36" x1="0.5" y1="1" x2="0.5" y2="0" xlink:href="#linear-gradient-3"/>
    <linearGradient id="linear-gradient-37" x1="6.973" y1="-4.711" x2="7.871" y2="-5.412" xlink:href="#linear-gradient-4"/>
    <linearGradient id="linear-gradient-38" x1="199.447" y1="305.859" x2="200.611" y2="305.859" gradientTransform="matrix(1, 0, 0, 1, 0, 0)" xlink:href="#radial-gradient"/>
    <linearGradient id="linear-gradient-39" x1="199.447" y1="306.025" x2="200.611" y2="306.025" gradientTransform="matrix(1, 0, 0, 1, 0, 0)" xlink:href="#radial-gradient"/>
    <linearGradient id="linear-gradient-40" x1="199.11" y1="305.142" x2="200.273" y2="305.142" gradientTransform="matrix(1, 0, 0, 1, 0, 0)" xlink:href="#radial-gradient"/>
    <linearGradient id="linear-gradient-41" x1="199.11" y1="305.312" x2="200.273" y2="305.312" gradientTransform="matrix(1, 0, 0, 1, 0, 0)" xlink:href="#radial-gradient"/>
    <linearGradient id="linear-gradient-42" x1="199.11" y1="305.482" x2="200.273" y2="305.482" gradientTransform="matrix(1, 0, 0, 1, 0, 0)" xlink:href="#radial-gradient"/>
    <linearGradient id="linear-gradient-43" x1="198.782" y1="304.425" x2="199.946" y2="304.425" gradientTransform="matrix(1, 0, 0, 1, 0, 0)" xlink:href="#radial-gradient"/>
    <linearGradient id="linear-gradient-44" x1="195.26" y1="303.708" x2="196.405" y2="303.708" gradientTransform="matrix(1, 0, 0, 1, 0, 0)" xlink:href="#radial-gradient"/>
    <linearGradient id="linear-gradient-45" x1="195.26" y1="303.874" x2="196.405" y2="303.874" gradientTransform="matrix(1, 0, 0, 1, 0, 0)" xlink:href="#radial-gradient"/>
    <linearGradient id="linear-gradient-46" x1="198.119" y1="302.987" x2="199.283" y2="302.987" gradientTransform="matrix(1, 0, 0, 1, 0, 0)" xlink:href="#radial-gradient"/>
    <linearGradient id="linear-gradient-47" x1="198.119" y1="303.161" x2="199.283" y2="303.161" gradientTransform="matrix(1, 0, 0, 1, 0, 0)" xlink:href="#radial-gradient"/>
    <linearGradient id="linear-gradient-48" x1="198.119" y1="303.331" x2="199.283" y2="303.331" gradientTransform="matrix(1, 0, 0, 1, 0, 0)" xlink:href="#radial-gradient"/>
    <linearGradient id="linear-gradient-49" x1="198.119" y1="303.501" x2="199.283" y2="303.501" gradientTransform="matrix(1, 0, 0, 1, 0, 0)" xlink:href="#radial-gradient"/>
    <linearGradient id="linear-gradient-50" x1="197.792" y1="302.274" x2="198.939" y2="302.274" gradientTransform="matrix(1, 0, 0, 1, 0, 0)" xlink:href="#radial-gradient"/>
    <linearGradient id="linear-gradient-51" x1="197.792" y1="302.444" x2="198.939" y2="302.444" gradientTransform="matrix(1, 0, 0, 1, 0, 0)" xlink:href="#radial-gradient"/>
    <linearGradient id="linear-gradient-52" x1="197.454" y1="301.557" x2="198.601" y2="301.557" gradientTransform="matrix(1, 0, 0, 1, 0, 0)" xlink:href="#radial-gradient"/>
    <linearGradient id="linear-gradient-53" x1="197.454" y1="301.727" x2="198.601" y2="301.727" gradientTransform="matrix(1, 0, 0, 1, 0, 0)" xlink:href="#radial-gradient"/>
    <linearGradient id="linear-gradient-54" x1="197.454" y1="301.897" x2="198.601" y2="301.897" gradientTransform="matrix(1, 0, 0, 1, 0, 0)" xlink:href="#radial-gradient"/>
    <linearGradient id="linear-gradient-55" x1="197.119" y1="300.836" x2="198.267" y2="300.836" gradientTransform="matrix(1, 0, 0, 1, 0, 0)" xlink:href="#radial-gradient"/>
    <linearGradient id="linear-gradient-56" x1="197.119" y1="301.01" x2="198.267" y2="301.01" gradientTransform="matrix(1, 0, 0, 1, 0, 0)" xlink:href="#radial-gradient"/>
    <radialGradient id="radial-gradient-3" cx="-3128.729" cy="-1606.694" r="232.258" gradientTransform="translate(-1504.168 -766.613) scale(0.577 0.577)" xlink:href="#radial-gradient"/>
    <linearGradient id="linear-gradient-58" x1="8.271" y1="-6.717" x2="9.169" y2="-7.418" xlink:href="#linear-gradient-4"/>
    <linearGradient id="linear-gradient-59" x1="238.711" y1="374.363" x2="239.858" y2="374.363" gradientTransform="matrix(1, 0, 0, 1, 0, 0)" xlink:href="#radial-gradient"/>
    <linearGradient id="linear-gradient-60" x1="238.711" y1="374.539" x2="239.858" y2="374.539" gradientTransform="matrix(1, 0, 0, 1, 0, 0)" xlink:href="#radial-gradient"/>
    <linearGradient id="linear-gradient-61" x1="238.354" y1="373.652" x2="239.518" y2="373.652" gradientTransform="matrix(1, 0, 0, 1, 0, 0)" xlink:href="#radial-gradient"/>
    <linearGradient id="linear-gradient-62" x1="238.354" y1="373.822" x2="239.518" y2="373.822" gradientTransform="matrix(1, 0, 0, 1, 0, 0)" xlink:href="#radial-gradient"/>
    <linearGradient id="linear-gradient-63" x1="238.354" y1="373.991" x2="239.518" y2="373.991" gradientTransform="matrix(1, 0, 0, 1, 0, 0)" xlink:href="#radial-gradient"/>
    <linearGradient id="linear-gradient-64" x1="238.01" y1="372.935" x2="239.174" y2="372.935" gradientTransform="matrix(1, 0, 0, 1, 0, 0)" xlink:href="#radial-gradient"/>
    <linearGradient id="linear-gradient-65" x1="237.682" y1="372.212" x2="238.846" y2="372.212" gradientTransform="matrix(1, 0, 0, 1, 0, 0)" xlink:href="#radial-gradient"/>
    <linearGradient id="linear-gradient-66" x1="237.682" y1="372.388" x2="238.846" y2="372.388" gradientTransform="matrix(1, 0, 0, 1, 0, 0)" xlink:href="#radial-gradient"/>
    <linearGradient id="linear-gradient-67" x1="237.366" y1="371.501" x2="238.53" y2="371.501" gradientTransform="matrix(1, 0, 0, 1, 0, 0)" xlink:href="#radial-gradient"/>
    <linearGradient id="linear-gradient-68" x1="237.366" y1="371.671" x2="238.53" y2="371.671" gradientTransform="matrix(1, 0, 0, 1, 0, 0)" xlink:href="#radial-gradient"/>
    <linearGradient id="linear-gradient-69" x1="237.366" y1="371.84" x2="238.53" y2="371.84" gradientTransform="matrix(1, 0, 0, 1, 0, 0)" xlink:href="#radial-gradient"/>
    <linearGradient id="linear-gradient-70" x1="237.366" y1="372.01" x2="238.53" y2="372.01" gradientTransform="matrix(1, 0, 0, 1, 0, 0)" xlink:href="#radial-gradient"/>
    <linearGradient id="linear-gradient-71" x1="233.212" y1="370.784" x2="234.357" y2="370.784" gradientTransform="matrix(1, 0, 0, 1, 0, 0)" xlink:href="#radial-gradient"/>
    <linearGradient id="linear-gradient-72" x1="233.212" y1="370.954" x2="234.357" y2="370.954" gradientTransform="matrix(1, 0, 0, 1, 0, 0)" xlink:href="#radial-gradient"/>
    <linearGradient id="linear-gradient-73" x1="236.694" y1="370.067" x2="237.842" y2="370.067" gradientTransform="matrix(1, 0, 0, 1, 0, 0)" xlink:href="#radial-gradient"/>
    <linearGradient id="linear-gradient-74" x1="236.694" y1="370.237" x2="237.842" y2="370.237" gradientTransform="matrix(1, 0, 0, 1, 0, 0)" xlink:href="#radial-gradient"/>
    <linearGradient id="linear-gradient-75" x1="236.694" y1="370.401" x2="237.842" y2="370.401" gradientTransform="matrix(1, 0, 0, 1, 0, 0)" xlink:href="#radial-gradient"/>
    <linearGradient id="linear-gradient-76" x1="236.366" y1="369.35" x2="237.514" y2="369.35" gradientTransform="matrix(1, 0, 0, 1, 0, 0)" xlink:href="#radial-gradient"/>
    <linearGradient id="linear-gradient-77" x1="236.366" y1="369.52" x2="237.514" y2="369.52" gradientTransform="matrix(1, 0, 0, 1, 0, 0)" xlink:href="#radial-gradient"/>
    <radialGradient id="radial-gradient-4" cx="-3190.657" cy="-1025.98" r="149.485" gradientTransform="translate(-1532.317 -489.432) scale(0.578 0.578)" xlink:href="#radial-gradient"/>
    <linearGradient id="linear-gradient-78" x1="0.5" y1="1" x2="0.5" y2="0" xlink:href="#linear-gradient-3"/>
    <linearGradient id="linear-gradient-79" x1="12.87" y1="-10.534" x2="13.767" y2="-11.236" xlink:href="#linear-gradient-4"/>
    <linearGradient id="linear-gradient-80" x1="329.044" y1="533.098" x2="330.203" y2="533.098" gradientTransform="matrix(1, 0, 0, 1, 0, 0)" xlink:href="#radial-gradient"/>
    <linearGradient id="linear-gradient-81" x1="329.044" y1="526.348" x2="330.203" y2="526.348" gradientTransform="matrix(1, 0, 0, 1, 0, 0)" xlink:href="#radial-gradient"/>
    <linearGradient id="linear-gradient-82" x1="328.725" y1="532.385" x2="329.885" y2="532.385" gradientTransform="matrix(1, 0, 0, 1, 0, 0)" xlink:href="#radial-gradient"/>
    <linearGradient id="linear-gradient-83" x1="328.725" y1="532.556" x2="329.885" y2="532.556" gradientTransform="matrix(1, 0, 0, 1, 0, 0)" xlink:href="#radial-gradient"/>
    <linearGradient id="linear-gradient-84" x1="328.725" y1="532.728" x2="329.885" y2="532.728" gradientTransform="matrix(1, 0, 0, 1, 0, 0)" xlink:href="#radial-gradient"/>
    <linearGradient id="linear-gradient-85" x1="321.102" y1="524.763" x2="322.236" y2="524.763" gradientTransform="matrix(1, 0, 0, 1, 0, 0)" xlink:href="#radial-gradient"/>
    <linearGradient id="linear-gradient-86" x1="320.791" y1="524.049" x2="321.924" y2="524.049" gradientTransform="matrix(1, 0, 0, 1, 0, 0)" xlink:href="#radial-gradient"/>
    <linearGradient id="linear-gradient-87" x1="320.791" y1="531.098" x2="321.924" y2="531.098" gradientTransform="matrix(1, 0, 0, 1, 0, 0)" xlink:href="#radial-gradient"/>
    <linearGradient id="linear-gradient-88" x1="327.725" y1="523.335" x2="328.885" y2="523.335" gradientTransform="matrix(1, 0, 0, 1, 0, 0)" xlink:href="#radial-gradient"/>
    <linearGradient id="linear-gradient-89" x1="327.725" y1="530.385" x2="328.885" y2="530.385" gradientTransform="matrix(1, 0, 0, 1, 0, 0)" xlink:href="#radial-gradient"/>
    <linearGradient id="linear-gradient-90" x1="327.725" y1="523.672" x2="328.885" y2="523.672" gradientTransform="matrix(1, 0, 0, 1, 0, 0)" xlink:href="#radial-gradient"/>
    <linearGradient id="linear-gradient-91" x1="327.725" y1="530.741" x2="328.885" y2="530.741" gradientTransform="matrix(1, 0, 0, 1, 0, 0)" xlink:href="#radial-gradient"/>
    <linearGradient id="linear-gradient-92" x1="327.385" y1="522.62" x2="328.544" y2="522.62" gradientTransform="matrix(1, 0, 0, 1, 0, 0)" xlink:href="#radial-gradient"/>
    <linearGradient id="linear-gradient-93" x1="327.385" y1="529.662" x2="328.544" y2="529.662" gradientTransform="matrix(1, 0, 0, 1, 0, 0)" xlink:href="#radial-gradient"/>
    <linearGradient id="linear-gradient-94" x1="327.044" y1="528.78" x2="328.203" y2="528.78" gradientTransform="matrix(1, 0, 0, 1, 0, 0)" xlink:href="#radial-gradient"/>
    <linearGradient id="linear-gradient-95" x1="327.044" y1="522.075" x2="328.203" y2="522.075" gradientTransform="matrix(1, 0, 0, 1, 0, 0)" xlink:href="#radial-gradient"/>
    <linearGradient id="linear-gradient-96" x1="327.044" y1="529.112" x2="328.203" y2="529.112" gradientTransform="matrix(1, 0, 0, 1, 0, 0)" xlink:href="#radial-gradient"/>
    <linearGradient id="linear-gradient-97" x1="326.725" y1="528.046" x2="327.885" y2="528.046" gradientTransform="matrix(1, 0, 0, 1, 0, 0)" xlink:href="#radial-gradient"/>
    <linearGradient id="linear-gradient-98" x1="326.725" y1="521.361" x2="327.885" y2="521.361" gradientTransform="matrix(1, 0, 0, 1, 0, 0)" xlink:href="#radial-gradient"/>
  </defs>
  <g id="Mask_Group_145" data-name="Mask Group 145" clip-path="url(#clip-path)">
    <g id="Group_590" data-name="Group 590">
      <path id="Path_1668" data-name="Path 1668" d="M0,0H1920V1000H0Z" transform="translate(0 -3)" fill="#fff"/>
      <path id="Path_1609" data-name="Path 1609" d="M19950.246,6837.186s-390.518,239.884-467.432,544.263,307.744,119.279,325.445,494.668,911.42,381,1423.916-57.745l-267.828-740.38Z" transform="translate(-18770 -7160)" fill="url(#linear-gradient)"/>
      <g transform="matrix(1, 0, 0, 1, 0, 0)" filter="url(#Path_1669)">
        <path id="Path_1669-2" data-name="Path 1669" d="M19363.08,8000.129V7890.845l132.082,43.745v138.656Z" transform="translate(-18177 -7199.52)" fill="url(#linear-gradient-2)"/>
      </g>
      <g id="Group_525" data-name="Group 525" transform="translate(-13040 -4089)">
        <g id="Group_253" data-name="Group 253" transform="translate(14210.31 4239.47)">
          <g id="Group_205" data-name="Group 205" transform="translate(0.114 0)">
            <path id="Path_372" data-name="Path 372" d="M493.336,245.476,343.78,159.1,493.336,72.73,642.93,159.1Z" transform="translate(-343.78 -72.73)" fill="url(#radial-gradient)"/>
            <path id="Path_373" data-name="Path 373" d="M491.245,768.68l4.106-585.64L642.93,95.45,493.336,179.428,343.78,95.45l147.465,87.513Z" transform="translate(-343.78 -9.077)" fill="url(#linear-gradient-3)"/>
          </g>
          <path id="Path_374" data-name="Path 374" d="M491.329,768.68,343.75,683.485V95.45l147.579,87.513Z" transform="translate(-343.75 -9.077)" fill="url(#linear-gradient-4)"/>
          <g id="Group_206" data-name="Group 206" transform="translate(13.078 141.116)">
            <path id="Path_375" data-name="Path 375" d="M503.451,373.713,385.6,305.778V169.87L503.451,237.8ZM387.843,304.562,501.4,370.14V239.022L387.843,173.444Z" transform="translate(-385.6 -169.87)" fill="#1a1a4c"/>
            <path id="Path_376" data-name="Path 376" d="M503.451,302.271,385.6,234.336V211.83L503.451,279.8ZM387.843,233.119,501.4,298.7V280.905l-113.554-65.54Z" transform="translate(-385.6 -52.314)" fill="#1a1a4c"/>
            <path id="Path_377" data-name="Path 377" d="M503.451,312.321,385.6,244.348V221.88l117.851,67.935ZM387.843,243.169,501.4,308.709V291.032L387.843,225.454Z" transform="translate(-385.6 -24.158)" fill="#1a1a4c"/>
            <path id="Path_378" data-name="Path 378" d="M503.451,322.361,385.6,254.388V231.92l117.851,67.973ZM387.843,253.209,501.4,318.749V301.072l-113.554-65.54Z" transform="translate(-385.6 3.971)" fill="#1a1a4c"/>
          </g>
          <g id="Group_207" data-name="Group 207" transform="translate(110.133 255.317)">
            <path id="Path_379" data-name="Path 379" d="M376.521,146.467l-3.8-2.2V139.89l3.8,2.2Z" transform="translate(-372.72 -139.89)" fill="url(#linear-gradient-5)"/>
            <path id="Path_380" data-name="Path 380" d="M376.521,148.617l-3.8-2.2V142.04l3.8,2.2Z" transform="translate(-372.72 -133.867)" fill="url(#linear-gradient-6)"/>
            <path id="Path_381" data-name="Path 381" d="M376.521,150.767l-3.8-2.2V144.19l3.8,2.2Z" transform="translate(-372.72 -127.843)" fill="url(#linear-gradient-5)"/>
            <path id="Path_382" data-name="Path 382" d="M376.521,152.917l-3.8-2.167v-4.41l3.8,2.2Z" transform="translate(-372.72 -121.82)" fill="url(#linear-gradient-6)"/>
          </g>
          <g id="Group_217" data-name="Group 217" transform="translate(203.957 193.046)">
            <g id="Group_215" data-name="Group 215">
              <g id="Group_208" data-name="Group 208" transform="translate(57.29 3.65)">
                <path id="Path_383" data-name="Path 383" d="M416.272,131.052l-3.8,2.2v-4.372l3.8-2.2Z" transform="translate(-412.47 -118.278)" fill="url(#linear-gradient-9)"/>
                <path id="Path_384" data-name="Path 384" d="M416.272,128.88l-3.8,2.167v-4.372l3.8-2.2Z" transform="translate(-412.47 -124.47)" fill="url(#linear-gradient-10)"/>
              </g>
              <g id="Group_209" data-name="Group 209" transform="translate(49.079)">
                <path id="Path_385" data-name="Path 385" d="M414.111,132.33l-3.8,2.2v-4.41l3.8-2.2Z" transform="translate(-410.31 -111.155)" fill="url(#linear-gradient-11)"/>
                <path id="Path_386" data-name="Path 386" d="M414.111,130.092l-3.8,2.2v-4.41l3.8-2.167Z" transform="translate(-410.31 -117.318)" fill="url(#linear-gradient-12)"/>
                <path id="Path_387" data-name="Path 387" d="M414.111,127.882l-3.8,2.2v-4.372l3.8-2.2Z" transform="translate(-410.31 -123.51)" fill="url(#linear-gradient-13)"/>
              </g>
              <path id="Path_388" data-name="Path 388" d="M411.961,133.542l-3.8,2.2v-4.41l3.8-2.167Z" transform="translate(-367.255 -107.653)" fill="url(#linear-gradient-14)"/>
              <g id="Group_210" data-name="Group 210" transform="translate(32.732 17.83)">
                <path id="Path_389" data-name="Path 389" d="M409.812,134.782l-3.8,2.2v-4.372l3.8-2.2Z" transform="translate(-406.01 -122.008)" fill="url(#linear-gradient-15)"/>
                <path id="Path_390" data-name="Path 390" d="M409.812,132.61l-3.8,2.167V130.4l3.8-2.2Z" transform="translate(-406.01 -128.2)" fill="url(#linear-gradient-16)"/>
              </g>
              <g id="Group_211" data-name="Group 211" transform="translate(24.558 5.778)">
                <path id="Path_391" data-name="Path 391" d="M407.624,136.06l-3.764,2.167v-4.372l3.764-2.2Z" transform="translate(-403.86 -106.483)" fill="url(#linear-gradient-17)"/>
                <path id="Path_392" data-name="Path 392" d="M407.624,133.822l-3.764,2.2v-4.41l3.764-2.167Z" transform="translate(-403.86 -112.647)" fill="url(#linear-gradient-18)"/>
                <path id="Path_393" data-name="Path 393" d="M407.624,131.612l-3.764,2.2v-4.41l3.764-2.167Z" transform="translate(-403.86 -118.838)" fill="url(#linear-gradient-19)"/>
                <path id="Path_394" data-name="Path 394" d="M407.624,129.4l-3.764,2.2v-4.372l3.764-2.2Z" transform="translate(-403.86 -125.03)" fill="url(#linear-gradient-20)"/>
              </g>
              <g id="Group_212" data-name="Group 212" transform="translate(16.347 27.296)">
                <path id="Path_395" data-name="Path 395" d="M405.5,137.272l-3.8,2.2v-4.41l3.8-2.167Z" transform="translate(-401.7 -124.498)" fill="url(#linear-gradient-21)"/>
                <path id="Path_396" data-name="Path 396" d="M405.5,135.062l-3.8,2.2v-4.372l3.8-2.2Z" transform="translate(-401.7 -130.69)" fill="url(#linear-gradient-22)"/>
              </g>
              <g id="Group_213" data-name="Group 213" transform="translate(8.173 23.608)">
                <path id="Path_397" data-name="Path 397" d="M403.352,138.512l-3.8,2.2v-4.372l3.8-2.2Z" transform="translate(-399.55 -117.337)" fill="url(#linear-gradient-23)"/>
                <path id="Path_398" data-name="Path 398" d="M403.352,136.34l-3.8,2.167v-4.372l3.8-2.2Z" transform="translate(-399.55 -123.528)" fill="url(#linear-gradient-24)"/>
                <path id="Path_399" data-name="Path 399" d="M403.352,134.13l-3.8,2.2v-4.41l3.8-2.2Z" transform="translate(-399.55 -129.72)" fill="url(#linear-gradient-25)"/>
              </g>
              <g id="Group_214" data-name="Group 214" transform="translate(0 36.762)">
                <path id="Path_400" data-name="Path 400" d="M401.164,139.79l-3.764,2.167v-4.372l3.764-2.2Z" transform="translate(-397.4 -127.016)" fill="url(#linear-gradient-26)"/>
                <path id="Path_401" data-name="Path 401" d="M401.164,137.552l-3.764,2.2v-4.41l3.764-2.167Z" transform="translate(-397.4 -133.18)" fill="url(#linear-gradient-27)"/>
              </g>
            </g>
            <g id="Group_216" data-name="Group 216" transform="translate(0 57.062)">
              <path id="Path_402" data-name="Path 402" d="M401.164,162.065l-3.764,2.2v-7.945l3.764-2.2Z" transform="translate(-397.4 -94.815)" fill="url(#linear-gradient-28)"/>
              <path id="Path_403" data-name="Path 403" d="M403.352,172.228l-3.8,2.2V150.977l3.8-2.167Z" transform="translate(-391.376 -109.691)" fill="url(#linear-gradient-29)"/>
              <path id="Path_404" data-name="Path 404" d="M405.5,163.816l-3.8,2.2V152.335l3.8-2.2Z" transform="translate(-385.353 -105.993)" fill="url(#linear-gradient-30)"/>
              <path id="Path_405" data-name="Path 405" d="M407.624,173.166l-3.764,2.167V147.315l3.764-2.2Z" transform="translate(-379.301 -120.057)" fill="url(#linear-gradient-31)"/>
              <path id="Path_406" data-name="Path 406" d="M409.812,166.761l-3.8,2.2V147.9l3.8-2.2Z" transform="translate(-373.278 -118.404)" fill="url(#linear-gradient-32)"/>
              <path id="Path_407" data-name="Path 407" d="M411.961,163.56l-3.8,2.167v-18.4l3.8-2.167Z" transform="translate(-367.255 -119.917)" fill="url(#linear-gradient-33)"/>
              <path id="Path_408" data-name="Path 408" d="M414.111,169.4l-3.8,2.2V143.585l3.8-2.2Z" transform="translate(-361.231 -130.507)" fill="url(#linear-gradient-34)"/>
              <path id="Path_409" data-name="Path 409" d="M416.272,172.7l-3.8,2.2V140.725l3.8-2.2Z" transform="translate(-355.179 -138.52)" fill="url(#linear-gradient-35)"/>
            </g>
          </g>
        </g>
        <circle id="Ellipse_161" data-name="Ellipse 161" cx="6.159" cy="6.159" r="6.159" transform="translate(14164.278 4239.627)" fill="#d4088c" opacity="0.8"/>
        <circle id="Ellipse_162" data-name="Ellipse 162" cx="2.889" cy="2.889" r="2.889" transform="translate(14625.578 4629.419)" fill="#6ee8fc"/>
        <path id="Path_476" data-name="Path 476" d="M516.753,202.562a3.8,3.8,0,1,1-3.8-3.8A3.8,3.8,0,0,1,516.753,202.562Z" transform="translate(14325.48 4375.875)" fill="#6ee8fc"/>
        <g id="Group_252" data-name="Group 252" transform="translate(14100.91 4439.793)">
          <circle id="Ellipse_159" data-name="Ellipse 159" cx="5.588" cy="5.588" r="5.588" transform="translate(0 0)" fill="#6ee8fc"/>
        </g>
        <g id="Group_254" data-name="Group 254" transform="translate(13883.851 4280.982)">
          <g id="Group_220" data-name="Group 220" transform="translate(0 0)" opacity="0.2">
            <g id="Group_219" data-name="Group 219" transform="translate(0.038)">
              <path id="Path_410" data-name="Path 410" d="M349.874,254.669l-71.014-41.02,71.014-41.019,71.014,41.019Z" transform="translate(-278.86 -172.63)" fill="url(#radial-gradient-2)"/>
              <path id="Path_411" data-name="Path 411" d="M348.886,338.716l1.939-113.707,70.064-41.59L349.874,223.3,278.86,183.42l70.026,41.552Z" transform="translate(-278.86 -142.401)" fill="url(#linear-gradient-36)"/>
            </g>
            <path id="Path_412" data-name="Path 412" d="M348.914,338.716,278.85,298.267V183.42l70.064,41.552Z" transform="translate(-278.85 -142.401)" fill="url(#linear-gradient-37)"/>
          </g>
          <g id="Group_228" data-name="Group 228" transform="translate(94.66 80.937)" opacity="0.5">
            <g id="Group_221" data-name="Group 221" transform="translate(35.051 2.243)">
              <path id="Path_413" data-name="Path 413" d="M315.289,198.521l-2.319,1.369v-2.7l2.319-1.331Z" transform="translate(-312.97 -190.728)" fill="url(#linear-gradient-38)"/>
              <path id="Path_414" data-name="Path 414" d="M315.289,197.171l-2.319,1.369v-2.7l2.319-1.331Z" transform="translate(-312.97 -194.51)" fill="url(#linear-gradient-39)"/>
            </g>
            <g id="Group_222" data-name="Group 222" transform="translate(30.033)">
              <path id="Path_415" data-name="Path 415" d="M313.969,199.281l-2.319,1.369v-2.7l2.319-1.331Z" transform="translate(-311.65 -186.356)" fill="url(#linear-gradient-40)"/>
              <path id="Path_416" data-name="Path 416" d="M313.969,197.931,311.65,199.3v-2.7l2.319-1.331Z" transform="translate(-311.65 -190.138)" fill="url(#linear-gradient-41)"/>
              <path id="Path_417" data-name="Path 417" d="M313.969,196.581l-2.319,1.369v-2.7l2.319-1.331Z" transform="translate(-311.65 -193.92)" fill="url(#linear-gradient-42)"/>
            </g>
            <path id="Path_418" data-name="Path 418" d="M312.649,200.079l-2.319,1.331v-2.7l2.319-1.331Z" transform="translate(-285.315 -184.226)" fill="url(#linear-gradient-43)"/>
            <g id="Group_223" data-name="Group 223" transform="translate(19.997 10.911)">
              <path id="Path_419" data-name="Path 419" d="M311.367,200.839l-2.357,1.33v-2.7l2.357-1.331Z" transform="translate(-309.01 -193.008)" fill="url(#linear-gradient-44)"/>
              <path id="Path_420" data-name="Path 420" d="M311.367,199.489l-2.357,1.331v-2.7l2.357-1.331Z" transform="translate(-309.01 -196.79)" fill="url(#linear-gradient-45)"/>
            </g>
            <g id="Group_224" data-name="Group 224" transform="translate(15.016 3.536)">
              <path id="Path_421" data-name="Path 421" d="M310.019,201.6,307.7,202.93v-2.7l2.319-1.331Z" transform="translate(-307.7 -183.504)" fill="url(#linear-gradient-46)"/>
              <path id="Path_422" data-name="Path 422" d="M310.019,200.249,307.7,201.58v-2.7l2.319-1.33Z" transform="translate(-307.7 -187.286)" fill="url(#linear-gradient-47)"/>
              <path id="Path_423" data-name="Path 423" d="M310.019,198.9,307.7,200.23v-2.7l2.319-1.331Z" transform="translate(-307.7 -191.068)" fill="url(#linear-gradient-48)"/>
              <path id="Path_424" data-name="Path 424" d="M310.019,197.511,307.7,198.88v-2.7l2.319-1.331Z" transform="translate(-307.7 -194.85)" fill="url(#linear-gradient-49)"/>
            </g>
            <g id="Group_225" data-name="Group 225" transform="translate(9.998 16.689)">
              <path id="Path_425" data-name="Path 425" d="M308.7,202.359l-2.319,1.331v-2.7l2.319-1.331Z" transform="translate(-306.38 -194.528)" fill="url(#linear-gradient-50)"/>
              <path id="Path_426" data-name="Path 426" d="M308.7,201.009l-2.319,1.33v-2.7l2.319-1.331Z" transform="translate(-306.38 -198.31)" fill="url(#linear-gradient-51)"/>
            </g>
            <g id="Group_226" data-name="Group 226" transform="translate(4.98 14.446)">
              <path id="Path_427" data-name="Path 427" d="M307.379,203.119l-2.319,1.331v-2.661l2.319-1.368Z" transform="translate(-305.06 -190.156)" fill="url(#linear-gradient-52)"/>
              <path id="Path_428" data-name="Path 428" d="M307.379,201.769,305.06,203.1v-2.7l2.319-1.331Z" transform="translate(-305.06 -193.938)" fill="url(#linear-gradient-53)"/>
              <path id="Path_429" data-name="Path 429" d="M307.379,200.419l-2.319,1.331v-2.7l2.319-1.331Z" transform="translate(-305.06 -197.72)" fill="url(#linear-gradient-54)"/>
            </g>
            <g id="Group_227" data-name="Group 227" transform="translate(0 22.468)">
              <path id="Path_430" data-name="Path 430" d="M306.069,203.879l-2.319,1.331v-2.7l2.319-1.331Z" transform="translate(-303.75 -196.048)" fill="url(#linear-gradient-55)"/>
              <path id="Path_431" data-name="Path 431" d="M306.069,202.529l-2.319,1.331V201.2l2.319-1.369Z" transform="translate(-303.75 -199.83)" fill="url(#linear-gradient-56)"/>
            </g>
          </g>
        </g>
        <g id="Group_255" data-name="Group 255" transform="translate(14643.002 4810.264)">
          <g id="Group_231" data-name="Group 231" transform="translate(0 0)" opacity="0.2">
            <g id="Group_230" data-name="Group 230" transform="translate(0.038)">
              <path id="Path_432" data-name="Path 432" d="M504.394,289.669,433.38,248.65l71.014-41.02,71.052,41.02Z" transform="translate(-433.38 -207.63)" fill="url(#radial-gradient-3)"/>
              <path id="Path_433" data-name="Path 433" d="M503.406,373.716l1.939-113.707,70.1-41.59L504.394,258.3,433.38,218.42l70.026,41.552Z" transform="translate(-433.38 -177.401)" fill="url(#linear-gradient-3)"/>
            </g>
            <path id="Path_434" data-name="Path 434" d="M503.434,373.716,433.37,333.267V218.42l70.064,41.552Z" transform="translate(-433.37 -177.401)" fill="url(#linear-gradient-58)"/>
          </g>
          <g id="Group_239" data-name="Group 239" transform="translate(95.307 82.039)" opacity="0.5">
            <g id="Group_232" data-name="Group 232" transform="translate(35.051 2.243)">
              <path id="Path_435" data-name="Path 435" d="M469.979,233.811l-2.319,1.369v-2.7l2.319-1.331Z" transform="translate(-467.66 -226.018)" fill="url(#linear-gradient-59)"/>
              <path id="Path_436" data-name="Path 436" d="M469.979,232.461l-2.319,1.369v-2.7l2.319-1.331Z" transform="translate(-467.66 -229.8)" fill="url(#linear-gradient-60)"/>
            </g>
            <g id="Group_233" data-name="Group 233" transform="translate(30.033)">
              <path id="Path_437" data-name="Path 437" d="M468.659,234.571l-2.319,1.369v-2.7l2.319-1.33Z" transform="translate(-466.34 -221.646)" fill="url(#linear-gradient-61)"/>
              <path id="Path_438" data-name="Path 438" d="M468.659,233.221l-2.319,1.369v-2.7l2.319-1.331Z" transform="translate(-466.34 -225.428)" fill="url(#linear-gradient-62)"/>
              <path id="Path_439" data-name="Path 439" d="M468.659,231.871l-2.319,1.369v-2.7l2.319-1.331Z" transform="translate(-466.34 -229.21)" fill="url(#linear-gradient-63)"/>
            </g>
            <path id="Path_440" data-name="Path 440" d="M467.349,235.369,465.03,236.7V234l2.319-1.331Z" transform="translate(-439.977 -219.516)" fill="url(#linear-gradient-64)"/>
            <g id="Group_234" data-name="Group 234" transform="translate(20.035 10.911)">
              <path id="Path_441" data-name="Path 441" d="M466.029,236.091l-2.319,1.368v-2.7l2.319-1.331Z" transform="translate(-463.71 -228.298)" fill="url(#linear-gradient-65)"/>
              <path id="Path_442" data-name="Path 442" d="M466.029,234.741l-2.319,1.369v-2.7l2.319-1.331Z" transform="translate(-463.71 -232.08)" fill="url(#linear-gradient-66)"/>
            </g>
            <g id="Group_235" data-name="Group 235" transform="translate(15.016 3.535)">
              <path id="Path_443" data-name="Path 443" d="M464.709,236.889l-2.319,1.331v-2.7l2.319-1.331Z" transform="translate(-462.39 -218.793)" fill="url(#linear-gradient-67)"/>
              <path id="Path_444" data-name="Path 444" d="M464.709,235.5l-2.319,1.369v-2.7l2.319-1.331Z" transform="translate(-462.39 -222.576)" fill="url(#linear-gradient-68)"/>
              <path id="Path_445" data-name="Path 445" d="M464.709,234.151l-2.319,1.369v-2.7l2.319-1.331Z" transform="translate(-462.39 -226.358)" fill="url(#linear-gradient-69)"/>
              <path id="Path_446" data-name="Path 446" d="M464.709,232.8l-2.319,1.369v-2.7l2.319-1.331Z" transform="translate(-462.39 -230.14)" fill="url(#linear-gradient-70)"/>
            </g>
            <g id="Group_236" data-name="Group 236" transform="translate(9.998 16.689)">
              <path id="Path_447" data-name="Path 447" d="M463.427,237.649l-2.357,1.331v-2.7l2.357-1.33Z" transform="translate(-461.07 -229.818)" fill="url(#linear-gradient-71)"/>
              <path id="Path_448" data-name="Path 448" d="M463.427,236.3l-2.357,1.331v-2.7l2.357-1.331Z" transform="translate(-461.07 -233.6)" fill="url(#linear-gradient-72)"/>
            </g>
            <g id="Group_237" data-name="Group 237" transform="translate(5.018 14.446)">
              <path id="Path_449" data-name="Path 449" d="M462.079,238.409l-2.319,1.331v-2.7l2.319-1.331Z" transform="translate(-459.76 -225.446)" fill="url(#linear-gradient-73)"/>
              <path id="Path_450" data-name="Path 450" d="M462.079,237.059l-2.319,1.331v-2.7l2.319-1.331Z" transform="translate(-459.76 -229.228)" fill="url(#linear-gradient-74)"/>
              <path id="Path_451" data-name="Path 451" d="M462.079,235.709l-2.319,1.331v-2.7l2.319-1.331Z" transform="translate(-459.76 -233.01)" fill="url(#linear-gradient-75)"/>
            </g>
            <g id="Group_238" data-name="Group 238" transform="translate(0 22.468)">
              <path id="Path_452" data-name="Path 452" d="M460.759,239.169,458.44,240.5v-2.7l2.319-1.331Z" transform="translate(-458.44 -231.338)" fill="url(#linear-gradient-76)"/>
              <path id="Path_453" data-name="Path 453" d="M460.759,237.819l-2.319,1.331v-2.7l2.319-1.331Z" transform="translate(-458.44 -235.12)" fill="url(#linear-gradient-77)"/>
            </g>
          </g>
        </g>
        <g id="Group_256" data-name="Group 256" transform="translate(14767.838 4350.839)">
          <g id="Group_242" data-name="Group 242" transform="translate(0)" opacity="0.2">
            <g id="Group_241" data-name="Group 241">
              <path id="Path_454" data-name="Path 454" d="M485.763,185.375,440.03,158.991l45.733-26.421,45.7,26.421Z" transform="translate(-440.03 -132.57)" fill="url(#radial-gradient-4)"/>
              <path id="Path_455" data-name="Path 455" d="M485.117,239.465l1.254-73.181,45.087-26.763-45.7,25.661L440.03,139.52l45.087,26.725Z" transform="translate(-440.03 -113.099)" fill="url(#linear-gradient-78)"/>
            </g>
            <path id="Path_456" data-name="Path 456" d="M485.117,239.465,440.03,213.424v-73.9l45.087,26.725Z" transform="translate(-440.03 -113.099)" fill="url(#linear-gradient-79)"/>
          </g>
          <g id="Group_250" data-name="Group 250" transform="translate(59.609 53.147)" opacity="0.5">
            <g id="Group_243" data-name="Group 243" transform="translate(25.319 1.597)">
              <path id="Path_457" data-name="Path 457" d="M464.043,149.889l-1.673.95V148.9l1.673-.95Z" transform="translate(-462.37 -144.224)" fill="url(#linear-gradient-80)"/>
              <path id="Path_458" data-name="Path 458" d="M464.043,148.909l-1.673.988v-1.939l1.673-.988Z" transform="translate(-462.37 -146.97)" fill="url(#linear-gradient-81)"/>
            </g>
            <g id="Group_244" data-name="Group 244" transform="translate(21.707)">
              <path id="Path_459" data-name="Path 459" d="M463.093,150.4l-1.673.988V149.45l1.673-.95Z" transform="translate(-461.42 -141.087)" fill="url(#linear-gradient-82)"/>
              <path id="Path_460" data-name="Path 460" d="M463.093,149.459l-1.673.95v-1.9l1.673-.988Z" transform="translate(-461.42 -143.832)" fill="url(#linear-gradient-83)"/>
              <path id="Path_461" data-name="Path 461" d="M463.093,148.489l-1.673.95V147.5l1.673-.95Z" transform="translate(-461.42 -146.55)" fill="url(#linear-gradient-84)"/>
            </g>
            <path id="Path_462" data-name="Path 462" d="M462.171,150.979l-1.711.988v-1.939l1.711-.988Z" transform="translate(-442.402 -139.574)" fill="url(#linear-gradient-85)"/>
            <g id="Group_245" data-name="Group 245" transform="translate(14.446 7.869)">
              <path id="Path_463" data-name="Path 463" d="M461.221,151.529l-1.711.988v-1.939l1.711-.988Z" transform="translate(-459.51 -145.902)" fill="url(#linear-gradient-86)"/>
              <path id="Path_464" data-name="Path 464" d="M461.221,150.559l-1.711.95V149.57l1.711-.95Z" transform="translate(-459.51 -148.62)" fill="url(#linear-gradient-87)"/>
            </g>
            <g id="Group_246" data-name="Group 246" transform="translate(10.835 2.547)">
              <path id="Path_465" data-name="Path 465" d="M460.233,152.079l-1.673.988v-1.939l1.673-.988Z" transform="translate(-458.56 -139.039)" fill="url(#linear-gradient-88)"/>
              <path id="Path_466" data-name="Path 466" d="M460.233,151.109l-1.673.95V150.12l1.673-.95Z" transform="translate(-458.56 -141.757)" fill="url(#linear-gradient-89)"/>
              <path id="Path_467" data-name="Path 467" d="M460.233,150.129l-1.673.988v-1.939l1.673-.988Z" transform="translate(-458.56 -144.502)" fill="url(#linear-gradient-90)"/>
              <path id="Path_468" data-name="Path 468" d="M460.233,149.159l-1.673.95V148.17l1.673-.95Z" transform="translate(-458.56 -147.22)" fill="url(#linear-gradient-91)"/>
            </g>
            <g id="Group_247" data-name="Group 247" transform="translate(7.223 12.051)">
              <path id="Path_469" data-name="Path 469" d="M459.283,152.629l-1.673.988V151.64l1.673-.95Z" transform="translate(-457.61 -147.002)" fill="url(#linear-gradient-92)"/>
              <path id="Path_470" data-name="Path 470" d="M459.283,151.621l-1.673.988V150.67l1.673-.95Z" transform="translate(-457.61 -149.72)" fill="url(#linear-gradient-93)"/>
            </g>
            <g id="Group_248" data-name="Group 248" transform="translate(3.612 10.416)">
              <path id="Path_471" data-name="Path 471" d="M458.333,153.179l-1.673.95V152.19l1.673-.95Z" transform="translate(-456.66 -143.827)" fill="url(#linear-gradient-94)"/>
              <path id="Path_472" data-name="Path 472" d="M458.333,152.2l-1.673.988v-1.939l1.673-.988Z" transform="translate(-456.66 -146.572)" fill="url(#linear-gradient-95)"/>
              <path id="Path_473" data-name="Path 473" d="M458.333,151.229l-1.673.95V150.24l1.673-.95Z" transform="translate(-456.66 -149.29)" fill="url(#linear-gradient-96)"/>
            </g>
            <g id="Group_249" data-name="Group 249" transform="translate(0 16.195)">
              <path id="Path_474" data-name="Path 474" d="M457.383,153.729l-1.673.95V152.74l1.673-.95Z" transform="translate(-455.71 -148.064)" fill="url(#linear-gradient-97)"/>
              <path id="Path_475" data-name="Path 475" d="M457.383,152.749l-1.673.988V151.8l1.673-.988Z" transform="translate(-455.71 -150.81)" fill="url(#linear-gradient-98)"/>
            </g>
          </g>
        </g>
        <path id="Path_1610" data-name="Path 1610" d="M516.753,202.562a3.8,3.8,0,1,1-3.8-3.8A3.8,3.8,0,0,1,516.753,202.562Z" transform="translate(14090.807 4126.413)" fill="#6ee8fc"/>
        <path id="Path_1611" data-name="Path 1611" d="M516.753,202.562a3.8,3.8,0,1,1-3.8-3.8A3.8,3.8,0,0,1,516.753,202.562Z" transform="translate(14036.031 4574.663)" fill="#6ee8fc"/>
        <circle id="Ellipse_252" data-name="Ellipse 252" cx="6.159" cy="6.159" r="6.159" transform="translate(14129.587 4798.341)" fill="#d4088c" opacity="0.8"/>
        <circle id="Ellipse_253" data-name="Ellipse 253" cx="2.963" cy="2.963" r="2.963" transform="translate(14079.378 4624.618)" fill="#d4088c" opacity="0.8"/>
      </g>
      <circle id="Ellipse_255" data-name="Ellipse 255" cx="3.746" cy="3.746" r="3.746" transform="translate(785.686 186.642)" fill="#d4088c" opacity="0.8"/>
      <circle id="Ellipse_256" data-name="Ellipse 256" cx="1.121" cy="1.121" r="1.121" transform="translate(1860.328 607.239)" fill="#6ee8fc"/>
      <circle id="Ellipse_272" data-name="Ellipse 272" cx="3.246" cy="3.246" r="3.246" transform="translate(1787.686 174.642)" fill="#d4088c" opacity="0.8"/>
    </g>
  </g>
</svg>
