<svg xmlns="http://www.w3.org/2000/svg" xmlns:xlink="http://www.w3.org/1999/xlink" width="256.709" height="81.866" viewBox="0 0 256.709 81.866">
  <defs>
    <linearGradient id="linear-gradient" x1="-0.009" y1="-0.034" x2="0.859" y2="0.969" gradientUnits="objectBoundingBox">
      <stop offset="0" stop-color="#11013c"/>
      <stop offset="1" stop-color="#083269"/>
    </linearGradient>
    <linearGradient id="linear-gradient-2" x1="-0.009" y1="-0.034" x2="0.859" y2="0.969" gradientUnits="objectBoundingBox">
      <stop offset="0" stop-color="#00115a"/>
      <stop offset="1" stop-color="#0094cb"/>
    </linearGradient>
    <filter id="Ellipse_314" x="0" y="0" width="76.201" height="76.202" filterUnits="userSpaceOnUse">
      <feOffset input="SourceAlpha"/>
      <feGaussianBlur stdDeviation="7.5" result="blur"/>
      <feFlood flood-color="#006ca5"/>
      <feComposite operator="in" in2="blur"/>
      <feComposite in="SourceGraphic"/>
    </filter>
    <filter id="Exclusion_13" x="0.324" y="1.786" width="80.195" height="80.08" filterUnits="userSpaceOnUse">
      <feOffset input="SourceAlpha"/>
      <feGaussianBlur stdDeviation="2.5" result="blur-2"/>
      <feFlood flood-color="#0071c4" flood-opacity="0.412"/>
      <feComposite operator="in" in2="blur-2"/>
      <feComposite in="SourceGraphic"/>
    </filter>
    <linearGradient id="linear-gradient-8" x1="-0.009" y1="-0.034" x2="1.506" y2="1.207" gradientUnits="objectBoundingBox">
      <stop offset="0" stop-color="#010e48"/>
      <stop offset="1" stop-color="#0bb2f0"/>
    </linearGradient>
  </defs>
  <g id="Group_1194" data-name="Group 1194" transform="translate(-20713.717 -7042.221)">
    <g id="Group_1191" data-name="Group 1191" transform="translate(100 43)">
      <g id="Group_1188" data-name="Group 1188" transform="translate(20615 7003)">
        <path id="Path_2433" data-name="Path 2433" d="M31.7-2.587c16.888,0,41.345,2.8,41.345,19.685S44.249,75.075,27.361,75.075-4.76,47.29-4.76,30.4,14.808-2.587,31.7-2.587Z" transform="translate(4.76 2.587)" fill="url(#linear-gradient)"/>
        <path id="Exclusion_12" data-name="Exclusion 12" d="M26.917,65.08a16.961,16.961,0,0,1-10.176-3.859,38.125,38.125,0,0,1-8.589-9.552A54.955,54.955,0,0,1,2.216,39.464,37.816,37.816,0,0,1,0,27.645C0,21.039,3.633,14.066,9.968,8.515,16.053,3.183,23.746,0,30.549,0c9.3,0,16.918.99,22.63,2.941C61.152,5.665,65.195,10.226,65.195,16.5c0,3.385-1.38,8.075-3.991,13.562a97.212,97.212,0,0,1-9.841,16.038A77.144,77.144,0,0,1,38.868,59.479a32.577,32.577,0,0,1-6.243,4.094A13.4,13.4,0,0,1,26.917,65.08ZM31.126,3.744c-5.819,0-12.4,2.723-17.607,7.285C8.1,15.777,4.992,21.742,4.992,27.393A32.35,32.35,0,0,0,6.887,37.5a47.007,47.007,0,0,0,5.078,10.441,32.614,32.614,0,0,0,7.348,8.171,14.51,14.51,0,0,0,8.705,3.3c2.865,0,6.3-1.612,10.224-4.792a65.989,65.989,0,0,0,10.689-11.45c7.078-9.415,11.833-19.591,11.833-25.321,0-5.364-3.458-9.265-10.279-11.6C45.6,4.59,39.086,3.744,31.126,3.744Z" transform="translate(6.54 5.507)" fill="url(#linear-gradient-2)"/>
        <g transform="matrix(1, 0, 0, 1, -1.28, -3.78)" filter="url(#Ellipse_314)">
          <circle id="Ellipse_314-2" data-name="Ellipse 314" cx="15.601" cy="15.601" r="15.601" transform="translate(22.5 22.5)" fill="#fff"/>
        </g>
        <g transform="matrix(1, 0, 0, 1, -1.28, -3.78)" filter="url(#Exclusion_13)">
          <path id="Exclusion_13-2" data-name="Exclusion 13" d="M26.917,65.08a16.961,16.961,0,0,1-10.176-3.859,38.125,38.125,0,0,1-8.589-9.552A54.955,54.955,0,0,1,2.216,39.464,37.816,37.816,0,0,1,0,27.645C0,21.039,3.633,14.066,9.968,8.515,16.053,3.183,23.746,0,30.549,0c9.3,0,16.918.99,22.63,2.941C61.152,5.665,65.195,10.226,65.195,16.5c0,3.385-1.38,8.075-3.991,13.562a97.212,97.212,0,0,1-9.841,16.038A77.144,77.144,0,0,1,38.868,59.479a32.577,32.577,0,0,1-6.243,4.094A13.4,13.4,0,0,1,26.917,65.08ZM31.126,3.744c-5.819,0-12.4,2.723-17.607,7.285C8.1,15.777,4.992,21.742,4.992,27.393A32.35,32.35,0,0,0,6.887,37.5a47.007,47.007,0,0,0,5.078,10.441,32.614,32.614,0,0,0,7.348,8.171,14.51,14.51,0,0,0,8.705,3.3c2.865,0,6.3-1.612,10.224-4.792a65.989,65.989,0,0,0,10.689-11.45c7.078-9.415,11.833-19.591,11.833-25.321,0-5.364-3.458-9.265-10.279-11.6C45.6,4.59,39.086,3.744,31.126,3.744Z" transform="translate(7.82 9.29)" fill="url(#linear-gradient-2)"/>
        </g>
        <g id="internet" transform="translate(18.721 16.225)">
          <path id="Path_2443" data-name="Path 2443" d="M18.581,0A18.581,18.581,0,1,1,0,18.581,18.581,18.581,0,0,1,18.581,0Z" fill="#001952"/>
          <path id="Path_2438" data-name="Path 2438" d="M445.552,126.834a18.494,18.494,0,0,0-2.988-10.109s-1.06,1.549-.861,2.544,1.369,1.072,1.248,1.8-.983-.209-2.045,1.715-.531,4.58,1,4.778A8.649,8.649,0,0,0,445.552,126.834Z" transform="translate(-408.389 -108.253)" fill="url(#linear-gradient-2)"/>
          <path id="Path_2439" data-name="Path 2439" d="M317.754,8.92a18.5,18.5,0,0,1,5.941,2.827s-2.155-.355-2.971.374-2.006,2.456-2.971,0S317.754,8.92,317.754,8.92Z" transform="translate(-294.293 -8.273)" fill="url(#linear-gradient-2)"/>
          <path id="Path_2440" data-name="Path 2440" d="M63.519,6.331A18.537,18.537,0,0,1,77.49,0s-1.261.763,1.128,2.057,1.294,1.891.8,2.29-1.361-.8-1.925-1.593a5.067,5.067,0,0,0-4.844-1.36c-1.858.664-3.451,1.154-3.185,1.772s3.451-.577,4.645-.511.8.8-.332,1.659S72.513,6.238,73.708,6.9s2.654.73,2.986.332-.6-2.986,1.659-1.858,4.115,1.792,2.256,3.451-3.982,3.517-4.048,4.579.664,1.925.266,1.991-.764-.431-1.029-.8a2.435,2.435,0,0,0-2.09-.266c-.6.232-1.726,1.128-1.095,1.991s1.493.464,2.356.863,1.667,1.914,1.5,2.256-.9-.091-1.5-1.261-1.73-.4-2.524-.6a2.842,2.842,0,0,1-2.188-1.725c-.8-1.394-2.445-1.784-3.119-2.588-1.93-2.3-1.792-4.048-2.19-4.844A16.793,16.793,0,0,0,63.519,6.331Z" transform="translate(-58.909)" fill="url(#linear-gradient-2)"/>
          <path id="Path_2441" data-name="Path 2441" d="M251.324,259.076a6.5,6.5,0,0,1,2.986,1.062,4.438,4.438,0,0,0,2.655,1.527c1.526.332,2.19,1.194,1.195,2.853a33.209,33.209,0,0,1-3.65,5.11c-.862.8-1.924,1.46-2.323,2.787s-.531,2.123.332,2.654c0,0-.464,1.128-1.526-.332s-.2-3.185,0-4.181.73-3.981.4-4.712-1.858-1.195-2.256-2.721S249.433,258.628,251.324,259.076Z" transform="translate(-230.951 -240.229)" fill="url(#linear-gradient-2)"/>
        </g>
      </g>
      <g id="Group_1193" data-name="Group 1193">
        <g id="Group_1187" data-name="Group 1187" transform="translate(20704.854 7011.765)">
          <path id="Intersection_9" data-name="Intersection 9" d="M56.264,26.095a14.243,14.243,0,0,1-4.514-2.073L54.192,19.4a13.818,13.818,0,0,0,4,2,15.01,15.01,0,0,0,4.551.7,8,8,0,0,0,3.922-.815A2.472,2.472,0,0,0,68.1,19.065a1.911,1.911,0,0,0-1.147-1.758,19.71,19.71,0,0,0-3.663-1.314,37.349,37.349,0,0,1-4.108-1.424,7.466,7.466,0,0,1-2.757-2.054,5.4,5.4,0,0,1-1.166-3.626,7.63,7.63,0,0,1,1.462-4.625,9.221,9.221,0,0,1,4.145-3.071A16.707,16.707,0,0,1,67.1.121a20.69,20.69,0,0,1,4.958.573,13.126,13.126,0,0,1,4,1.646L73.8,6.928a10.632,10.632,0,0,0-3.256-1.5,14.14,14.14,0,0,0-3.774-.5,7.82,7.82,0,0,0-4.033.888,2.626,2.626,0,0,0-1.48,2.294,1.847,1.847,0,0,0,.629,1.424,4.738,4.738,0,0,0,1.591.925q.963.352,2.7.832a30.751,30.751,0,0,1,4.07,1.351,7.388,7.388,0,0,1,2.72,2A5.123,5.123,0,0,1,74.1,18.1a7.54,7.54,0,0,1-1.48,4.643,9.518,9.518,0,0,1-4.181,3.071,16.7,16.7,0,0,1-6.29,1.092A21.052,21.052,0,0,1,56.264,26.095Zm25.457.37L85.9,5.449H77.613l1-4.884h22.569l-1,4.884h-8.25L87.714,26.465Zm-53.429,0,5.18-25.9H53.045l-1,4.81H38.467L37.357,11H49.382l-.925,4.662H36.4l-1.184,5.994H49.345l-1,4.81Zm-28.305,0L5.167.564H17.673A11.393,11.393,0,0,1,24.111,2.1a4.988,4.988,0,0,1,2.257,4.385,6.638,6.638,0,0,1-1.24,4.051,7.793,7.793,0,0,1-3.385,2.572,5.231,5.231,0,0,1,3.478,5.179,6.821,6.821,0,0,1-3.182,6.106,15.341,15.341,0,0,1-8.473,2.072ZM6.869,21.95h7.067a6.876,6.876,0,0,0,3.922-.962,3.154,3.154,0,0,0,1.406-2.775q0-2.664-3.884-2.664H8.127ZM8.977,11.183h6.106a6.231,6.231,0,0,0,3.681-.943,3.144,3.144,0,0,0,1.314-2.72q0-2.442-3.812-2.442H10.2Z" transform="translate(0 0)" fill="url(#linear-gradient-8)"/>
        </g>
        <g id="Group_1190" data-name="Group 1190" transform="translate(20702.367 7046.247)">
          <path id="Intersection_9-2" data-name="Intersection 9" d="M123.01,25.5a10.348,10.348,0,0,1-4.459-3.959A11.089,11.089,0,0,1,117,15.66a15.722,15.722,0,0,1,2.017-7.936,14.51,14.51,0,0,1,5.679-5.568,17,17,0,0,1,8.4-2.035A14.99,14.99,0,0,1,139.234,1.3a8.758,8.758,0,0,1,4.033,3.4L138.938,8.26a7.064,7.064,0,0,0-6.253-3.034,9.464,9.464,0,0,0-5.032,1.332,9.13,9.13,0,0,0-3.385,3.626,10.823,10.823,0,0,0-1.2,5.106,6.151,6.151,0,0,0,1.905,4.755,7.59,7.59,0,0,0,5.346,1.758,9,9,0,0,0,6.882-3l3.552,3.626Q136.9,26.908,129.8,26.908A15.422,15.422,0,0,1,123.01,25.5ZM4.518,26.095A14.248,14.248,0,0,1,0,24.022L2.445,19.4a13.817,13.817,0,0,0,4,2,15.01,15.01,0,0,0,4.551.7,8,8,0,0,0,3.922-.815,2.472,2.472,0,0,0,1.443-2.219,1.911,1.911,0,0,0-1.147-1.758,19.71,19.71,0,0,0-3.663-1.314A37.349,37.349,0,0,1,7.44,14.569a7.456,7.456,0,0,1-2.756-2.054A5.4,5.4,0,0,1,3.519,8.889,7.63,7.63,0,0,1,4.98,4.264,9.221,9.221,0,0,1,9.124,1.193,16.707,16.707,0,0,1,15.359.121a20.69,20.69,0,0,1,4.958.573,13.126,13.126,0,0,1,4,1.646L22.055,6.928A10.632,10.632,0,0,0,18.8,5.43a14.14,14.14,0,0,0-3.774-.5,7.82,7.82,0,0,0-4.033.888,2.625,2.625,0,0,0-1.48,2.294,1.849,1.849,0,0,0,.628,1.424,4.747,4.747,0,0,0,1.591.925q.963.352,2.7.832A30.769,30.769,0,0,1,18.5,12.645a7.392,7.392,0,0,1,2.719,2,5.123,5.123,0,0,1,1.129,3.46,7.54,7.54,0,0,1-1.48,4.643,9.518,9.518,0,0,1-4.181,3.071,16.7,16.7,0,0,1-6.29,1.092A21.046,21.046,0,0,1,4.518,26.095Zm138.786.37,5.18-25.9h19.573l-1,4.81H153.48L152.37,11h12.025l-.925,4.662H151.408l-1.184,5.994h14.134l-1,4.81Zm-39.257,0,5.18-25.9h6.031l-5.179,25.9Zm-19.239,0L78.777.564h6.179l4.181,18.463L100.866.564h6.216L90.69,26.465Zm-18.352,0-4.071-7.252H57.28l-1.443,7.252H49.806l5.18-25.9H65.531q4.81,0,7.474,2.109a7.12,7.12,0,0,1,2.664,5.92,10,10,0,0,1-1.961,6.216,10.466,10.466,0,0,1-5.439,3.663l4.514,7.992ZM58.2,14.44h5.106a7.07,7.07,0,0,0,4.644-1.369A4.816,4.816,0,0,0,69.6,9.149a3.223,3.223,0,0,0-1.258-2.776,5.983,5.983,0,0,0-3.589-.924H60.017ZM24.979,26.465l5.18-25.9H49.731l-1,4.81H35.154L34.043,11H46.068l-.924,4.662H33.081L31.9,21.654H46.031l-1,4.81Z" transform="translate(0 0)" fill="url(#linear-gradient-8)"/>
        </g>
      </g>
    </g>
  </g>
</svg>
