<svg xmlns="http://www.w3.org/2000/svg" xmlns:xlink="http://www.w3.org/1999/xlink" width="281.516" height="76.829" viewBox="0 0 281.516 76.829">
  <defs>
    <linearGradient id="linear-gradient" x1="-0.063" y1="0.271" x2="3.739" y2="0.589" gradientUnits="objectBoundingBox">
      <stop offset="0" stop-color="#051645"/>
      <stop offset="1" stop-color="#0766e2"/>
    </linearGradient>
  </defs>
  <g id="Group_554" data-name="Group 554" transform="translate(-18395 -7104.001)">
    <path id="Exclusion_10" data-name="Exclusion 10" d="M38.415,76.832A38.425,38.425,0,0,1,23.462,3.022,38.425,38.425,0,0,1,53.367,73.813,38.174,38.174,0,0,1,38.415,76.832ZM23.052,47.286h0c.368,0,.695.552,1,1.688.067.264.067.264-.436,1.348a7.322,7.322,0,0,0-.281,2.346c.047.087.085.155.115.2a44.149,44.149,0,0,0,3.363,3.623,4.613,4.613,0,0,0,1.2.65,5.426,5.426,0,0,1,1.046.533,3.278,3.278,0,0,1,1.1,2.077c0,.032,1.06,4.658,2.833,7.125,1.829,2.556,3.594,2.831,4.268,2.831a1.353,1.353,0,0,0,.226-.014c-2.114-1.1-2.114-1.1-1.915-1.974-.293-.312-.293-.312-.851-1.831h0a.363.363,0,0,1,.122-.018c.061,0,.16.007.358.02,0-.038,0-.038-.485-.7.37-.328.37-.328.342-.592l.094-.06a.92.92,0,0,0,.27.045.477.477,0,0,0,.443-.243.385.385,0,0,0-.006-.387l-.194-.269c1.506-.038,2.137-3.635,2.137-3.671a1.966,1.966,0,0,1,1.016-.823,1.164,1.164,0,0,0,.595-.681,1.621,1.621,0,0,1,.316-.5.5.5,0,0,1,.354-.145.506.506,0,0,1,.093.009h.007c.213,0,.231,0,.259-.175a5.163,5.163,0,0,0,.028-.729,5.943,5.943,0,0,1,.016-.63,1.437,1.437,0,0,0-.027-.238.662.662,0,0,1,.054-.518l.017-.025c.155-.231.249-.37.116-.555a.33.33,0,0,1-.067-.126,3.1,3.1,0,0,0,1.7-1.809v-.055a1.048,1.048,0,0,0-.089-.146.66.66,0,0,1-.122-.243.6.6,0,0,1,.047-.28c.053-.162.1-.316-.074-.395a.486.486,0,0,0-.2-.047.644.644,0,0,0-.17.028.605.605,0,0,1-.157.028.3.3,0,0,1-.073-.009,2.745,2.745,0,0,1-.941-.474,3.072,3.072,0,0,0-.765-.42c-.585-.178-1.191-.312-1.777-.441-.349-.077-.709-.156-1.06-.244a1.224,1.224,0,0,1-.643-.714,2,2,0,0,0-.3-.475,5.855,5.855,0,0,1-.7-.595,4.906,4.906,0,0,0-.9-.726A3.808,3.808,0,0,0,33.11,47.5a3.664,3.664,0,0,1-1.3-.4,4.711,4.711,0,0,1-.754-.61,3.9,3.9,0,0,0-.942-.711,1.417,1.417,0,0,0-.337-.1,24.087,24.087,0,0,0-3.276-.348c-1.742,0-2.59.614-2.748,1.992a2.335,2.335,0,0,0-1.3-.257l-.281,0-.271,0a1.606,1.606,0,0,1-1.184-.29.761.761,0,0,1-.128-.636,2.711,2.711,0,0,0-.276-1.644,1.637,1.637,0,0,0-.76-.167,4.848,4.848,0,0,0-.694.068h0a4.88,4.88,0,0,1-.7.068l-.091,0c.248-.812.248-.812.067-1.19a4.229,4.229,0,0,0,.441-1.436,1.081,1.081,0,0,0-.644-.277c-.376,0-.856.333-1.012,1.922a.9.9,0,0,0-.463.185.9.9,0,0,1-.462.184.54.54,0,0,1-.273-.079,3.363,3.363,0,0,1-1.657-1.923A1.259,1.259,0,0,1,14.195,41a1.6,1.6,0,0,0,.16-.625.617.617,0,0,0-.177-.37.515.515,0,0,1-.16-.5,5.341,5.341,0,0,1,1.264-1.557,1,1,0,0,1,.577-.119,6.888,6.888,0,0,1,1.278.163l.127-.11a.769.769,0,0,0-.222-.152,1.042,1.042,0,0,1-.181-.111.286.286,0,0,1,.033-.159,17.487,17.487,0,0,1,2.634-.362,1.57,1.57,0,0,1,.688,1.249,1.561,1.561,0,0,0,.653,1.217c.651-.7.306-1.333-.06-2.008a2.293,2.293,0,0,1-.42-1.412,2.54,2.54,0,0,1,1.282-1.6,4.843,4.843,0,0,0,.855-.712c0-.02-.026-.043-.054-.068a.342.342,0,0,1-.046-.047.137.137,0,0,1-.006-.1.3.3,0,0,0,.006-.048l.144-.039v-.181l-.144-.055.227-2.257V32.4c.111-.066.111-.066.2-1.557a1.873,1.873,0,0,1,.265.472,1.683,1.683,0,0,0,.161-.469,1.151,1.151,0,0,1,.292-.627,15.521,15.521,0,0,1,1.447-.718c.122-1.167.122-1.167.778-1.781h.006c.105,0,.141-.021,2.02-1.1a.188.188,0,0,1-.038.084.35.35,0,0,0-.027.048,1.081,1.081,0,0,0,.342.071v.164C27,27.765,27,27.765,27,28a4.16,4.16,0,0,0,2.483-1.5.89.89,0,0,0,.162-.847,1.037,1.037,0,0,0-.359.543,1.785,1.785,0,0,1-.16.34l-.613-.175a.553.553,0,0,0,.293-.208h-.066a.926.926,0,0,1-.18.018.908.908,0,0,1-.344-.067.242.242,0,0,1-.16-.28v-.055a.546.546,0,0,0,0,.427c-.292-.139-.34-.291-.447-.625-.269-.1-.286-.12-.4-.26l.007-.006c.4-.109.687-.187.769-.59a.218.218,0,0,0-.165-.089c-.222,0-.74.322-2.922,1.678,1.982-2.049,1.982-2.049,4.019-2.663a.448.448,0,0,0,.253.06,4.645,4.645,0,0,0,2.613-1.342c-.1-.252-.1-.252.049-.619l-.094-.143-.5-.1H31.09a1.991,1.991,0,0,0-.955.389.209.209,0,0,0-.035-.086.437.437,0,0,1-.026-.051c.164-.228.238-.262.861-.5-1.032.085-2.274.188-3.649.328,1.206-.129,2.276-.22,3.655-.335a.256.256,0,0,0,.1-.066.972.972,0,0,0-1.06-.323.606.606,0,0,1-.125.025.181.181,0,0,1-.08-.025.33.33,0,0,1,0-.161.243.243,0,0,0-.028-.2.436.436,0,0,0-.193-.109.544.544,0,0,1-.26-.159c-.043-.052-.012-.1.043-.2l.029-.05.01-.017c.068-.117.109-.188-.17-.679-.425-.761-.6-1.076-.749-1.076-.107,0-.2.169-.355.45a.185.185,0,0,0,.006.157.161.161,0,0,1-.006.167.222.222,0,0,1-.172.055.257.257,0,0,0-.221.087c-.231.312-.231.312-.293.334a.614.614,0,0,1-.178.027,1.1,1.1,0,0,1-.493-.16,1.512,1.512,0,0,0-.355-.145,1.466,1.466,0,0,1,.287-.981.728.728,0,0,0-.24-.034l-.1,0h-.007l-.1,0a.8.8,0,0,1-.169-.015c-.048,0-.076-.047-.137-.149l-.006-.011c-.067-.11-.074-.121-.553-.284a.417.417,0,0,0-.221,0,10.924,10.924,0,0,0-1.4.208.893.893,0,0,1-.1.5.659.659,0,0,0,.012.742.535.535,0,0,1-.17.222.44.44,0,0,0-.183.293.628.628,0,0,0,.134.355.785.785,0,0,1,.148.363c0,.011-.007,1.1-.613,1.244a.6.6,0,0,0-.37.205.194.194,0,0,0-.017.156.839.839,0,0,1-.171.153,2.264,2.264,0,0,0-.038.68,1.224,1.224,0,0,1-.443,1.239,1.5,1.5,0,0,0-.6-.469,2.873,2.873,0,0,1-.337-.2,1.05,1.05,0,0,0,0-.9l.061-.049c.042-.034.089-.072.122-.094s.021-.055.009-.08a.085.085,0,0,1-.009-.029h-.183a.5.5,0,0,0-.364-.139,1.662,1.662,0,0,0-.229.021,1.69,1.69,0,0,1-.23.021.591.591,0,0,1-.155-.019,1.107,1.107,0,0,1-.436-.283,1.386,1.386,0,0,0-.37-.265l-.188-.044a.5.5,0,0,0-.085-.007.89.89,0,0,0-.4.13,1.421,1.421,0,0,1-.25.108c-.088-.071-.088-.071-.193-.718-.045-.224-.045-.224-.553-.268-.123-.691,1.635-1.98,2.3-2.466-.051-.134-.163-.152-.271-.168a.418.418,0,0,1-.192-.062c1.408-.252,1.408-.252,2.209-1.1a1.228,1.228,0,0,1-1.1-.137,1.924,1.924,0,0,1,.607-.069,1.006,1.006,0,0,0,.989-.4.379.379,0,0,0-.155-.055s0,0,0-.006a.548.548,0,0,1,.368-.189.345.345,0,0,1,.181.053c.916-.328.916-.328,1.154-.548a.688.688,0,0,0,.149-.17.342.342,0,0,0,.008-.272.387.387,0,0,1-.008-.237.3.3,0,0,1,.212-.158.438.438,0,0,0,.169-.089,2.1,2.1,0,0,0,.11-.257,1.081,1.081,0,0,0-.425-.255,1.855,1.855,0,0,0,.389-.109c0-.007,0-.013,0-.02,0-.089,0-.154.481-.207.461-.05.5-.136.538-.206,0-.009.009-.017.013-.025a4.66,4.66,0,0,1,.392.311,1.56,1.56,0,0,1,.191.3,1.754,1.754,0,0,0,.162.265.659.659,0,0,0,.22.147c.175.088.373.188.376.453a1.676,1.676,0,0,1-1.314,1.282,5.447,5.447,0,0,0-1.1.283.345.345,0,0,0-.116.39.258.258,0,0,0,.168.043A2.718,2.718,0,0,0,25,16.926a1.373,1.373,0,0,1,.439-.108,2.743,2.743,0,0,1,.93.329c-.071.079-.071.079-.425.214a4.453,4.453,0,0,0,1.687.371.686.686,0,0,0,.307-.049c0-.05,0-.05-.089-.09a6.052,6.052,0,0,1-.707-.65,1.717,1.717,0,0,1,.983.328.277.277,0,0,0,.12.063h.007c.109-.037.261-.323.318-.543.038-.145.035-.251-.008-.3a1.254,1.254,0,0,0-.427-.255.869.869,0,0,1-.573-.5c-.12-.385.535-.6.542-.6.2,0,.658.56.662.565.1.137.209.279.309.279h.017c.245-.049.6-.9.706-1.162l.006-.014a.876.876,0,0,0,0-.119L27.73,14.2a2.991,2.991,0,0,1,.612-.316l.02-.009c.21-.1.306-.14.3-.2a2.408,2.408,0,0,0-1.1-.915l-.077,0a1.508,1.508,0,0,1-.4-.053.366.366,0,0,1-.139-.174c-.046-.09-.094-.184-.22-.194a3.359,3.359,0,0,0-.961.272c-.325.124-.325.124-.375.124a1.778,1.778,0,0,1-.066-.593c-.063-.006-.13-.01-.2-.01a1.982,1.982,0,0,0-.463.055,5.021,5.021,0,0,0-2.173,1.862.115.115,0,0,0,.04.127.972.972,0,0,0,.525.105,3.615,3.615,0,0,0,.45-.031.862.862,0,0,0-.276.517,1.86,1.86,0,0,0-.45.471c-.2.257-.4.523-.64.523a.448.448,0,0,1-.3-.133.72.72,0,0,1,.264-.365c.178-.166.346-.323.155-.529a1.269,1.269,0,0,0-.52.448,2.191,2.191,0,0,1-.263.291c-.067-.183.311-.664.315-.668h-.348c.553-.9.553-.9.553-1.014a.451.451,0,0,0-.083-.06c.326-.5.326-.5,1.833-1.382a.768.768,0,0,0-.138-.013.748.748,0,0,0-.138.013c-1.108.258-2.567,2.165-2.848,2.545l-.007.009.044.083H20.7a1.342,1.342,0,0,0,.34-.033v.077a1.366,1.366,0,0,0-.437.274v.066h.077a1.8,1.8,0,0,1-.478.478,1.588,1.588,0,0,0-.555.618c-.193-.209-.193-.209.175-.595a1.2,1.2,0,0,0,.491-.243c.05-.061-.066-.285-.071-.294a.367.367,0,0,0-.188-.186.291.291,0,0,0-.077.045,4,4,0,0,1-.4.362l-.064.04c-.206.128-.269.167-.278.2a.232.232,0,0,0,.049.005.229.229,0,0,0,.049-.005h.128c.005,0,.007.008.01.021a.084.084,0,0,0,.061.076,7.431,7.431,0,0,0-.6.449l-.011.008c-.029.024-.2.143-.835.143-.085,0-.175,0-.27-.007a.4.4,0,0,1-.048-.126.347.347,0,0,0-.057-.136c-.675.173-.885.542-1.3,1.359a.438.438,0,0,1,.031-.31.533.533,0,0,0,.046-.238,1.661,1.661,0,0,0-.422.144,1.392,1.392,0,0,1-.569.16.819.819,0,0,1-.113-.008,1.212,1.212,0,0,1,.192-.141.6.6,0,0,0,.316-.352l-.072-.039a.233.233,0,0,1-.124.039,1.431,1.431,0,0,1-.246-.039.811.811,0,0,0-.116-.126.659.659,0,0,0-.3.187,1.331,1.331,0,0,1-.132.109,1.059,1.059,0,0,1,.1-.159,1.709,1.709,0,0,0-.265.23,1.87,1.87,0,0,1,.347-.5c-.447.411-.447.411-1.265,1.1.125-.118.258-.232.388-.341s.284-.241.413-.366a13.551,13.551,0,0,0-1.314,1.156.791.791,0,0,1,.094-.137L11.9,19.632A30.631,30.631,0,0,0,9.05,23.62l.014-.022.023-.031a7.972,7.972,0,0,0-.652,1.841c-.033.107-.083.263-.122.378a1.215,1.215,0,0,0,.088.142,9.844,9.844,0,0,0-.387,1.562,1.319,1.319,0,0,0,.083.669.533.533,0,0,0-.074-.005.518.518,0,0,0-.074.005.118.118,0,0,1-.061,0l-.033-.088c-.008-.022-.015-.042-.021-.06-.019-.057-.031-.094-.056-.1a1.4,1.4,0,0,0,0,.62c.054.173.157.2.213.2h.022a.181.181,0,0,0,.107-.115.421.421,0,0,0,0-.142.82.82,0,0,0,0-.115,1.73,1.73,0,0,1,.143.685L8,28.905c-.974,1.2-1.315,7.243-.668,8.374.088,0,.088,0,1.5,2.883H8.5a19.668,19.668,0,0,0,1.362,1.886l.063.082c.115-.163.235-.331-.342-1.146a7.016,7.016,0,0,1-1.049-2.79A1.561,1.561,0,0,1,9.3,39.318a2.513,2.513,0,0,0,.243.756c.174.279.365.531.568.8.09.118.182.24.271.363a3.461,3.461,0,0,0,.571.594,2.79,2.79,0,0,1,.671.76,2.036,2.036,0,0,1,.172.543,1.232,1.232,0,0,0,.447.85,1.4,1.4,0,0,0,.243.115c.056.02.118.048.183.078a1.947,1.947,0,0,0,.275.109c.266.067.541.122.807.175.237.048.48.1.716.153a1.252,1.252,0,0,0,.291.031c.12,0,.242-.012.36-.023s.239-.023.361-.023a1.109,1.109,0,0,1,.563.131c1.159.658,1.159.658,1.568.7h.2a4.079,4.079,0,0,1,2.071,1.2A3.663,3.663,0,0,0,22.3,47.853l.093,0C22.62,47.477,22.842,47.286,23.052,47.286Zm34.269.13a5.22,5.22,0,0,1,.54.027A.309.309,0,0,1,58,47.52a.566.566,0,0,1,.166.414.578.578,0,0,0,.16.411.808.808,0,0,0,.531.154,1.281,1.281,0,0,1,.325.043,1.02,1.02,0,0,1-.044,1.092c-.641,1.486-.641,1.486-.552,1.912a5.068,5.068,0,0,1-.5,3.616,6.727,6.727,0,0,1-1,1.514,10.5,10.5,0,0,0-.694.938,5.282,5.282,0,0,0-.558,1.377,5.467,5.467,0,0,1-.441,1.158c-1.764,3.108-1.815,3.16-2.1,3.45a2.01,2.01,0,0,0-.5.755,1.462,1.462,0,0,0,.438.064,3.471,3.471,0,0,0,1.876-.741l1.4-.972,1.772-1.4a4.784,4.784,0,0,0,.489-.63,4.062,4.062,0,0,1,.577-.714,4.651,4.651,0,0,1,.737-.5,4.942,4.942,0,0,0,.892-.623A13.681,13.681,0,0,0,63.317,55.3a14.1,14.1,0,0,1,2.43-3.206,13.049,13.049,0,0,0,1.9-3.642.642.642,0,0,0-.2-.041,2.011,2.011,0,0,0-.3.041c-.072-.1-.072-.1.077-1.382a10.278,10.278,0,0,0-.067-1.419c0-.492.036-.991.071-1.473a13.693,13.693,0,0,0,.04-2.208l-.331-3.883c.077.126.077.126.16.683a.609.609,0,0,0,.176-.311,15.8,15.8,0,0,1,.2,5.6,27.563,27.563,0,0,0-.147,3.191l.008-.005a1,1,0,0,1,.354-.132.5.5,0,0,1,.108.017,20.725,20.725,0,0,0,.874-1.944c0,.019,0,.038,0,.055,0-.021,0-.042.008-.062l.008-.051c0,.009,0,.018-.006.027a.464.464,0,0,1,.01-.063l0,.033c0-.018.008-.038.011-.059l0-.017a1.264,1.264,0,0,0,.025-.13v-.11l.095-.677v-.007c.039-.309.087-.694.158-1.716a3.416,3.416,0,0,1-.114.63c-.067-.137-.067-.137,0-1.234-.033.349-.033.349-.056.5a16.235,16.235,0,0,1,0-2.892l0-.013a13.971,13.971,0,0,1,.172,2.987v-.006a.211.211,0,0,1,0,.021.125.125,0,0,0,0-.013v.151c.008-.267.019-.553.031-.855.027-.7.056-1.434.052-2.045-.013-.222-.025-.464-.038-.715-.038-.743-.08-1.583-.15-2.246l-.024-.165c-.028-.195-.054-.379-.083-.555l.03.1c-.05-.481-.139-.957-.226-1.418l.008.05c.055.355.116.756.183,1.244a22.023,22.023,0,0,1-.65-3.3v.032c-1.032-3.386-1.032-3.386-1.049-3.55a19.354,19.354,0,0,0-1.021-2.474l-1.1-2.135-.012-.017-.384-.636c-.331-.55-.707-1.173-1.028-1.63L63.49,22.2a29.7,29.7,0,0,0-3.149-3.913L59.06,17a1.524,1.524,0,0,0-.143-.131,7.857,7.857,0,0,0,.608.65,2.884,2.884,0,0,1-.265-.2,3,3,0,0,0,.629.634l-.05.032c-.431-.347-.837-.734-1.23-1.109s-.813-.776-1.252-1.127a12.676,12.676,0,0,0,1.224.85A12.953,12.953,0,0,0,56.2,14.692a4.429,4.429,0,0,1-.789-.546l.122.049a2.5,2.5,0,0,0-.293-.2l-.044.039a2.937,2.937,0,0,1-.6-.356l.127.044a2.714,2.714,0,0,0-.927-.546.7.7,0,0,0,.2.294.994.994,0,0,1-.348-.241,1.029,1.029,0,0,0-.342-.24.473.473,0,0,0,.125.161.5.5,0,0,1,.117.145c-.1.219-.1.219-.083.35a10.544,10.544,0,0,0,.669,1.316c.495.749.455,1,.453,1.005-.088.671-.088.671-.463.939-.137.092-.134.14-.061.322.008.02.858,1.964,1.7,1.964a.55.55,0,0,0,.232-.052c.3-.135.15-.616.079-.847a20.315,20.315,0,0,1,2.036,2.18c.136.234.277.475.552.475a1.767,1.767,0,0,0-.083-1.027c-.365-.678-.28-.755-.094-.922,0-.158,0-.224-.491-.546-.337-.219-.337-.219-.784-.934a.612.612,0,0,1-.045-.41.525.525,0,0,0-.1-.475c-.662-.677-.662-.677-.679-.721l-.039-.082a.438.438,0,0,1,.033-.049,3.446,3.446,0,0,1,1.1.787h-.067c.641,1.409.641,1.409,1.242,1.966a2.274,2.274,0,0,0,1,.488,2.039,2.039,0,0,1,.866.408,1.581,1.581,0,0,1-.254-.1l-.05.032a1.348,1.348,0,0,0,.116.175,6.175,6.175,0,0,0-.922-.257,11.2,11.2,0,0,1,1.1,1.365c-.169,0-.262-.121-.353-.238s-.184-.239-.354-.239h-.033l-.039.055s.419.758.464.814.336.428.32.59h-.254c-.024,0-.033.051-.043.105a.5.5,0,0,1-.024.1l.033.044c-.488-.033-.73-.049-.851-.049s-.124.016-.126.049l-.138.082a2.465,2.465,0,0,0-.694-.235l.439.077a.993.993,0,0,0-.6-.2l-.07,0c-.128,0-.155,0-.519-.4a1.893,1.893,0,0,1-.552-1.093c0-.162-.234-.808-.409-.83,0,0-.34,0-.426.125a.12.12,0,0,0-.01.115,11.146,11.146,0,0,0,1.143,1.748c.183.207.193.238.2.255a.011.011,0,0,1,0,.01c-.009.015-.062.03-.165.046l-.326.054-.094.131h-.081c-.439,0-.446.007-.576.126a5.263,5.263,0,0,0,.248.869l-.083.147a1.275,1.275,0,0,0-.674.076,2.33,2.33,0,0,0,.188.475,1.676,1.676,0,0,1-.364.175.944.944,0,0,1-.077.345c-.031,0-.062,0-.092,0a1.115,1.115,0,0,1-.7-.244,3.467,3.467,0,0,0,.2.3l-.055.164c-.057.022-.218.082-.337.114a.834.834,0,0,0-.508-.173.844.844,0,0,0-.121.009l-.072.153.326.278-.132.1a2.631,2.631,0,0,1,1.556,1.108,2.583,2.583,0,0,1,.387,1.858,14.234,14.234,0,0,1-1.741-.264c-.476-.093-.967-.188-1.461-.239a1.811,1.811,0,0,0,.21.284c0,.029.121,2.885.486,2.993-.1.879-.1.879-.116.961a3.625,3.625,0,0,1,1.231,0c.127.5.127.5.132.514l1.761-.579a.519.519,0,0,0,.415-.3.847.847,0,0,0-.067-.791c.282-1.149.3-1.154,1.021-1.431,0-.929,0-.929.088-.988a.355.355,0,0,1,.23-.092.713.713,0,0,1,.336.127.726.726,0,0,0,.345.129c.211-.369.4-.615.627-.615a.527.527,0,0,1,.345.167,24.164,24.164,0,0,1,2.727,3.6c.076.246.1.388.044.482-.089.139-.368.177-.981.261a5.247,5.247,0,0,0,.833.885.856.856,0,0,0-.007-.448,1.024,1.024,0,0,1-.026-.377h.155a1.736,1.736,0,0,0,.165-.329,2.017,2.017,0,0,1,.138-.288,1.808,1.808,0,0,1-.149-.726l.154-.038.216.278c-.056-.251-.056-.251-.889-1.239a1.407,1.407,0,0,0,.039-.158c-.391-.168-.7-.3-1.745-2.419a.625.625,0,0,1,.243-.2l2.363,2.731L63.9,31.55l.752,1.7v-.328a6.1,6.1,0,0,0-.238-1.169c-.254-1.262-.254-1.262-.132-1.354a1.233,1.233,0,0,1,.812.7,3.112,3.112,0,0,0,.132-.3h.171a3.777,3.777,0,0,0-.273-1.672,3.887,3.887,0,0,1-.279-1.605.471.471,0,0,1,.3,0l-.067.142a1.109,1.109,0,0,0,.375.311.864.864,0,0,1,0,.546,6.042,6.042,0,0,1,.354.545c.315-.181.18-.444.037-.722a.835.835,0,0,1-.148-.626.608.608,0,0,1,.129-.017c.14,0,.179.085.236.235l-.083.148c.088.137.088.137.215.634l-.088.131a6.276,6.276,0,0,0,.544.974,3.388,3.388,0,0,1,.731,1.947l-.138.077a1.377,1.377,0,0,1-.4-.57c-.157-.324-.306-.63-.657-.63a.747.747,0,0,0-.185.025.55.55,0,0,1-.116.284,2.245,2.245,0,0,0-.315-.087.569.569,0,0,0,.149.257.54.54,0,0,1-.341.1.7.7,0,0,0-.272.056,1.814,1.814,0,0,0,0,.356l.148.043a3.528,3.528,0,0,0,.956,2.289l.11-.115V33.7a1.3,1.3,0,0,1,.258.322.987.987,0,0,0,.339.372,1.53,1.53,0,0,0,.072-.317.862.862,0,0,0,.265.175c.121,2.223.14,2.564-.1,3.168-.328,0-.377-.1-.481-.4a.461.461,0,0,0-.276.109c-.527-.037-.776-.436-1.016-.822-.25-.4-.509-.816-1.082-.816a1.265,1.265,0,0,0-.119.641,1.52,1.52,0,0,1-.069.533l-.154.06c-.236-.172-2.7-2.394-2.877-2.676a.345.345,0,0,1,.077-.345c.132-.207.132-.207.033-1.524a5.515,5.515,0,0,0-.486-.289.4.4,0,0,1-.276.118,4.869,4.869,0,0,1-.829-.162,2.074,2.074,0,0,0-.221.267,1.45,1.45,0,0,0-.527-.1,3.132,3.132,0,0,0-1.138.3,3.149,3.149,0,0,1-1.141.3,1.44,1.44,0,0,1-.474-.078h-.177a1.369,1.369,0,0,1-.256.036c-.173,0-.3-.09-.539-.37l-.072-.049a1.038,1.038,0,0,0-.143.131.774.774,0,0,0-.138.459.763.763,0,0,1-.133.448,1.254,1.254,0,0,1-.433.277,1.351,1.351,0,0,0-.578.41.527.527,0,0,0-.046.314c0,.041,0,.079,0,.113-.077,1.4-.077,1.4-.458,1.584a4.009,4.009,0,0,0-1,.732c-.213.329-1.763,2.987-1.778,3.014a2.655,2.655,0,0,0,.213,1.094,3.09,3.09,0,0,1,.218.928,1.071,1.071,0,0,1-.309.644c-.2.253-.407.515-.244.9a20.315,20.315,0,0,0,.926,1.953c.168.325.343.661.5,1a6.394,6.394,0,0,0,1.981,1.807h.007a14.937,14.937,0,0,0,1.546-.253A10.931,10.931,0,0,1,57.322,47.416Zm5.4,10.282-.255.26c-.606.8-.621.8-1.019.949-.339.125-.412.236-.722.706-.057.087-.122.184-.2.3a2.105,2.105,0,0,1-.552.626,10.739,10.739,0,0,0-1.756,1.99h.029c.242,0,.28-.037,1.251-.987.525-.516,1.019-1.074,1.5-1.614.272-.308.553-.626.839-.935l-.072.141h.008c.026,0,.032-.012.1-.123A7.909,7.909,0,0,0,62.721,57.7ZM26.563,43.977a.343.343,0,0,0-.079.009.124.124,0,0,0-.058.137.406.406,0,0,0,.317.248c.031,0,.066,0,.105,0a1.61,1.61,0,0,0,.541-.094c0-.029,0-.09-.375-.2A1.847,1.847,0,0,0,26.563,43.977Zm-3.687-.489-.088,0a1.519,1.519,0,0,0,.479.2,1.579,1.579,0,0,1,.388.149c.053.03.06.09.067.148.009.075.018.153.127.162.153,0,.218-.1.28-.206s.113-.184.234-.194a.544.544,0,0,1,.143,0,11.468,11.468,0,0,0,1.226.1c.039,0,.067,0,.067-.051a.5.5,0,0,0-.037-.16.377.377,0,0,1-.03-.218A.138.138,0,0,0,25.7,43.3c-.263-.335-1.865-.479-2.1-.479l-.038,0c-.033,0-.039,0-.055.028s0,.032.019.05l.015.012a.624.624,0,0,1,.2.662,1.03,1.03,0,0,1-.447-.034A1.671,1.671,0,0,0,22.877,43.488Zm-1.562-.323-.051,0a.157.157,0,0,0-.093.159.274.274,0,0,0,.125.231,1,1,0,0,0,.3.048.268.268,0,0,0,.192-.052.1.1,0,0,0,.027-.074A.555.555,0,0,0,21.315,43.165Zm-.63-2.259c0,.209.352.3.585.355.4.105.44.192.545.449l.008.02a1.044,1.044,0,0,0,.155.328.484.484,0,0,1,.11.181.26.26,0,0,1-.147.146.292.292,0,0,0-.107.08,1.824,1.824,0,0,0,.913.247,1.781,1.781,0,0,0,.439-.055c0-.066-1.465-1.809-1.48-1.82a1.727,1.727,0,0,0-1.458-.254,2.16,2.16,0,0,0-.806.5,1,1,0,0,0,.152.012.985.985,0,0,0,.57-.181.927.927,0,0,1,.456-.141c.163,0,.262.064.278.107a.049.049,0,0,1,0,.047.084.084,0,0,1-.07.027A.287.287,0,0,1,20.685,40.906Zm45.984-6.04a.046.046,0,0,0-.028.009.58.58,0,0,0,.105.453.209.209,0,0,0,.061.067.7.7,0,0,0,.086.005.671.671,0,0,0,.086-.005,2.786,2.786,0,0,0,.055-.384v-.045a.117.117,0,0,0-.029.008.367.367,0,0,1-.1.026.173.173,0,0,1-.094-.033c-.022,0-.04-.021-.059-.044a.188.188,0,0,0-.052-.047A.045.045,0,0,0,66.668,34.866ZM68.36,33.45h0c.059.416.136.825.223,1.277a21.691,21.691,0,0,0-.7-3.295l-.032-.1c-.054-.169-.1-.327-.15-.463.36,1.266.387,1.376.532,1.988l.02.085c-.012-.039-.021-.076-.031-.111l-.008-.03.143.661A.075.075,0,0,1,68.36,33.45Zm-3.469.573a.069.069,0,0,0-.064.031.115.115,0,0,0,.014.111,1.459,1.459,0,0,0,.889.412c-.03-.037-.068-.086-.107-.136-.1-.136-.173-.226-.175-.231a.287.287,0,0,0-.116-.073,2.331,2.331,0,0,1-.27-.057Zm2.2-4.971h0c.123.363.266.811.446,1.379l.13.408-.008-.026c-.014-.047-.029-.1-.043-.152a.078.078,0,0,1,.009.015c0,.01.01.021.014.031-.018-.063-.039-.126-.06-.187a2.351,2.351,0,0,1-.084-.287.2.2,0,0,1,.012.029l.007.018-.35-1.053A.747.747,0,0,0,67.088,29.053Zm-6.72.366a.657.657,0,0,0-.458.283.808.808,0,0,0-.016.571.187.187,0,0,0,.085.045c.049.016.1.033.113.1a.753.753,0,0,1,0,.206c0,.032,0,.065,0,.1a.123.123,0,0,0,.1.1c.047,0,.4-.078.409-.368a.639.639,0,0,0,0-.1.729.729,0,0,0-.039-.2,1.051,1.051,0,0,1-.033-.135,1.406,1.406,0,0,1,0-.247c0-.043,0-.085,0-.127A.231.231,0,0,0,60.368,29.419ZM58,29.924c-.071,0-.239.007-.272.074a.08.08,0,0,0,.02.084.694.694,0,0,0,.4.175.12.12,0,0,0,.072-.04,1.631,1.631,0,0,0,.138-.17.337.337,0,0,0-.248-.119C58.077,29.926,58.04,29.924,58,29.924Zm1.99-1.83h0v.039a1.894,1.894,0,0,0,0,.35.241.241,0,0,1-.105.238.121.121,0,0,0-.044.112.391.391,0,0,0,.05.091c.011.013.265.316.281.328a3.6,3.6,0,0,0-.049-.752A1.643,1.643,0,0,0,59.993,28.094ZM8.027,26.244a2.679,2.679,0,0,0-.343,1.13l.017.005c.045-.11.08-.225.114-.336.029-.095.06-.193.1-.286s.06-.155.08-.2.04-.1.063-.164v-.045s.027-.079.013-.1a.01.01,0,0,0-.008,0H8.027ZM32.373,25.2a.181.181,0,0,1,.134.06.458.458,0,0,1,.077.283c0,.067.024.1.072.1.143,0,.3-.291.32-.509a2.05,2.05,0,0,0-.508-1.215c-.077-.083-.112-.12-.205-.12a2.449,2.449,0,0,0-.429.081.476.476,0,0,1-.086.01c-.081,0-.106-.043-.13-.14-.067-.248-.132-.286-.215-.333-.035-.02-.052-.032-.053-.041s.007-.012.019-.021a.267.267,0,0,0,.034-.029,1.872,1.872,0,0,1,.132-.181c.212-.286.3-.466.271-.564h-.039a2.381,2.381,0,0,0-.646.6,5.471,5.471,0,0,0-.4.59,6.159,6.159,0,0,1-.355.54,2.241,2.241,0,0,1-.231.242,1.9,1.9,0,0,0-.261.284c-.043.057-.019.084-.006.1s.006.007.006.009a3.742,3.742,0,0,0,.825.091h.048a6.293,6.293,0,0,1,1.2.186c.05.016.1.029.143.04a.456.456,0,0,0,.138-.03A.451.451,0,0,1,32.373,25.2Zm-4.346-1.149a.4.4,0,0,0-.066,0c-.031.012-.047.029-.048.05,0,.1.364.271.368.272a1.032,1.032,0,0,0,.439.118.379.379,0,0,0,.306-.118.059.059,0,0,0-.01-.056A1.982,1.982,0,0,0,28.027,24.055Zm25.425-1.6a.253.253,0,0,0-.191.088.523.523,0,0,0-.115.186.6.6,0,0,1-.089.158,1.342,1.342,0,0,1-.185.161,1.874,1.874,0,0,0-.191.162v.04l.1,0a3.9,3.9,0,0,0,.864-.1,5.036,5.036,0,0,1,.613-.034,4.2,4.2,0,0,0,.755-.056l.778-.266a.251.251,0,0,0-.193-.077.911.911,0,0,0-.112.009,1.046,1.046,0,0,1-.114.008.315.315,0,0,1-.133-.026.537.537,0,0,1,.022-.347.554.554,0,0,0,.023-.353c-.138-.364-.28-.414-.413-.414h-.046c-.307,0-.507-.413-.508-.418l.254.05a.815.815,0,0,0,.211.059.037.037,0,0,0,.029-.009.019.019,0,0,0,0-.016.549.549,0,0,0-.121-.124,11.723,11.723,0,0,1-1.165-.775,3.326,3.326,0,0,0-.47-.5,1.636,1.636,0,0,0-.806-.272,1.083,1.083,0,0,0,.207-.9.291.291,0,0,0-.285-.2c-.046,0-.092,0-.138,0s-.092,0-.138,0a2.791,2.791,0,0,1-.305.033c-.079,0-.1-.022-.1-.066a.674.674,0,0,1,.074-.231c.047-.107.1-.217.063-.281a.113.113,0,0,0-.088-.053c-.006,0-.663,0-.756.254a.133.133,0,0,0,0,.079c.026.045.054.09.082.134a1.209,1.209,0,0,1,.205.459.87.87,0,0,1-.03.2.542.542,0,0,0-.008.323h.009a.625.625,0,0,0,.389-.174.349.349,0,0,1,.176-.1.079.079,0,0,1,.039.01c.14.08.1.207.063.329a.325.325,0,0,0-.019.236.735.735,0,0,0,.608.508,1.667,1.667,0,0,1,.508.17v.186a1.3,1.3,0,0,0,.18.244,1.153,1.153,0,0,1,.195.275c.018.041.022.071.01.089a.061.061,0,0,1-.055.021.988.988,0,0,1-.325-.11c-.077-.04-.077-.04-.3-.056a.886.886,0,0,0,.209.3.765.765,0,0,1,.222.357c.032.153-.106.232-.3.328a.13.13,0,0,0-.1.063.06.06,0,0,0,0,.063c.026.044.075.125.471.125h.08c.2,0,.613,0,.624.119a.1.1,0,0,1-.02.083c-.035.038-.107.041-.206.041a.251.251,0,0,0-.041,0ZM50.6,20.158v0a.4.4,0,0,1-.062.042,1.2,1.2,0,0,0-.442.294.3.3,0,0,0-.083.271.308.308,0,0,0,.16.181,1.352,1.352,0,0,0,.292.062,3.444,3.444,0,0,0-.21.707.482.482,0,0,0,.039.35c.015.027.095.044.21.044a1.434,1.434,0,0,0,.724-.2,1.93,1.93,0,0,1,.265-.176.362.362,0,0,1,.13-.032.241.241,0,0,0,.207-.1c.058-.1.035-.17,0-.293-.016-.051-.035-.11-.051-.181a1.2,1.2,0,0,0-.149-.283.266.266,0,0,1-.039-.328.428.428,0,0,0,.039-.294.483.483,0,0,0-.2-.265,1.029,1.029,0,0,0-.166-.04,1.254,1.254,0,0,0-.173-.069,1.3,1.3,0,0,1-.169-.066.371.371,0,0,1-.121-.079s-.423.11-.444.27c-.008.061.041.122.147.182a.206.206,0,0,0,.105,0ZM23.352,18.228l-.048,0a.826.826,0,0,0-.31.124.265.265,0,0,0,0,.3.035.035,0,0,0,.028.012c.1,0,.353-.284.386-.374a.05.05,0,0,0,0-.047C23.4,18.234,23.382,18.228,23.352,18.228Zm-.851-.157a.427.427,0,0,0-.073.008,2.116,2.116,0,0,0-.6.214.3.3,0,0,0-.082.217.117.117,0,0,0,.028.088.023.023,0,0,0,.014,0,1.92,1.92,0,0,0,.759-.438c.016-.02.032-.048.022-.069S22.536,18.071,22.5,18.071Zm-.421-1.388a3.531,3.531,0,0,0-.425.514l-.127.2-.348.565c.2,0,.2,0,.221.124,0,.038.007.065.008.084,0,.044,0,.047.03.047a.742.742,0,0,0,.2-.148,1.454,1.454,0,0,1,.746-.407.5.5,0,0,1,.057,0,1.082,1.082,0,0,1,.2.025,1.106,1.106,0,0,0,.2.025A.471.471,0,0,0,23,17.689a.111.111,0,0,0,.055-.05.19.19,0,0,0-.044-.181.775.775,0,0,0-.083-.063.625.625,0,0,1-.094-.073.7.7,0,0,1-.068-.1.923.923,0,0,0-.169-.214l-.05-.04a.546.546,0,0,0-.165-.056.512.512,0,0,1-.166-.057.186.186,0,0,1-.082-.1A.122.122,0,0,0,22.08,16.683Zm11.032-4.141a.4.4,0,0,1,.167.038.514.514,0,0,1,.327.354.481.481,0,0,1-.051.313.98.98,0,0,1-.377.241.879.879,0,0,0-.413.29,1.285,1.285,0,0,0-.127.854c.033.123,1.539,2.729,2.258,2.978a12.194,12.194,0,0,0,1.7.275c.168,0,.2-.042.25-.1a9.777,9.777,0,0,0,.519-1.916,1.092,1.092,0,0,0,0-.3.725.725,0,0,1,.058-.447c.072-.125.075-.13.552-.272,1.419-.435,1.419-.435,1.458-.712s.062-.442.315-.565a4.908,4.908,0,0,1,.974-.345,4.908,4.908,0,0,0,.974-.345,5.985,5.985,0,0,0,.74-.407s.12-.093,0-.283a2.111,2.111,0,0,0-.354-.34,1.783,1.783,0,0,1-.381-.383,3.624,3.624,0,0,1-.215-.616c-.1-.231-.056-.293.072-.424a.159.159,0,0,0,.056-.132c-.011-.09-.121-.193-.366-.344-1.177-.713-1.187-.729-1.286-.886V9.014h.06a.98.98,0,0,0-.525-.217c-.287-.058-.584-.119-.684-.512l-.116-.057v-.1h.04c-.135,0-.456-.035-.561-.046l-.037,0h-.067a3.7,3.7,0,0,0-.678.063.524.524,0,0,1-.089.008,1.073,1.073,0,0,1-.334-.072A1.162,1.162,0,0,0,36.675,8H35.257c-.553.034-.553.034-.63.079a4.8,4.8,0,0,0-.905.09,2.024,2.024,0,0,1,.464.057H33.76c-.069-.005-.14-.008-.21-.008s-.14,0-.21.008a8.885,8.885,0,0,0-2.479.644,1.291,1.291,0,0,0,.276.012,1.647,1.647,0,0,1-.789.373c-.011,0-1.1.34-1.176.4a.267.267,0,0,0-.048.288c.107.209.525.277.529.278.981-.072,1.42-.1,1.676-.1.3,0,.337.037.406.1.009.01.9,1.035.613,1.582-.118.223-.116.232-.111.26,0,.066.049.1.1.132a.228.228,0,0,1,.1.1.611.611,0,0,1,.022.165.716.716,0,0,0,.066.316,1,1,0,0,0,.246-.112A.712.712,0,0,1,33.112,12.543ZM16.27,16.666h.011a.552.552,0,0,1-.109.159.676.676,0,0,0-.1.129,5.3,5.3,0,0,0,1.5-.814,1.146,1.146,0,0,1,.315-.226.637.637,0,0,0-.05.1,2.1,2.1,0,0,0,.382.112c.314-.107.314-.107.624-.457h-.008c-.028,0-.055.015-.318.157a.734.734,0,0,1,.552-.334h.116c.01,0,.035-.021.059-.05a.313.313,0,0,0,.08-.238.37.37,0,0,1-.183-.237.192.192,0,0,1,.034-.159,8.605,8.605,0,0,0,.745-1.022.819.819,0,0,0-.1-.034v-.033a6.344,6.344,0,0,1-.9.87.218.218,0,0,1,.086-.208.354.354,0,0,0,.08-.109h-.028a3.654,3.654,0,0,1-.419.2.541.541,0,0,1,.071-.083.453.453,0,0,0,.083-.1,1.2,1.2,0,0,0-.306.164,1.439,1.439,0,0,1-.247.142,1.021,1.021,0,0,1,.257-.235,1.293,1.293,0,0,0,.207-.173,7.546,7.546,0,0,0-1.653,1.176c-.04.048-.058.084-.053.107a.216.216,0,0,1,.06.04c0,.05,0,.05-.221.169-.314.2-.337.242-.337.288a.071.071,0,0,0,.06,0,1.025,1.025,0,0,0,.259-.1,1.106,1.106,0,0,1,.243-.1.5.5,0,0,1,.113-.013.672.672,0,0,1,.106.01h.006a.619.619,0,0,0,.094.009.308.308,0,0,0,.064-.007,2.043,2.043,0,0,1-.657.311c-.608.179-.826.438-.824.568a.075.075,0,0,0,.057.077.384.384,0,0,0,.132-.03A.342.342,0,0,1,16.27,16.666Zm2.441-2.854c-.409.176-.409.176-2.209,1.7a1.265,1.265,0,0,0-.409.514,5.982,5.982,0,0,0,1.071-.893H17.2c.075-.053.144-.111.218-.173a3.008,3.008,0,0,1,.333-.251c.154-.109.314-.21.468-.308.184-.117.373-.237.553-.369.072-.057.072-.057.171-.243a1.179,1.179,0,0,0-.3.164c.083-.074.083-.074.1-.136h-.039Zm25.716,1.868c.063,0,.127,0,.19.008a1,1,0,0,1,.262.048,1.155,1.155,0,0,0,.229.047h.083a3.426,3.426,0,0,0,.607-.118c.408-.105,1.061-.562,1.027-.718a.334.334,0,0,0-.075-.157.207.207,0,0,1-.047-.086.081.081,0,0,1,0-.068c.012-.016.036-.017.062-.017h.017a.661.661,0,0,0-.271-.248h-.071a4.879,4.879,0,0,1-.581-.086.749.749,0,0,1-.139-.081.423.423,0,0,0-.243-.1h-.01a1,1,0,0,0-.3.085,1.792,1.792,0,0,1-.253.085,4.416,4.416,0,0,0-.552.09c-.059.021-.065.072-.07.121a.13.13,0,0,1-.051.112.114.114,0,0,1-.056.014.324.324,0,0,1-.081-.014.333.333,0,0,0-.083-.015.122.122,0,0,0-.061.015l-.049.033a.49.49,0,0,0,.008.176.288.288,0,0,1-.074.31,2.528,2.528,0,0,1-.518-.491.969.969,0,0,0-.764-.374.312.312,0,0,0-.2.052.228.228,0,0,0,.164.134.281.281,0,0,1,.14.087c-.029.123-.124.165-.215.206a.387.387,0,0,0-.183.128.757.757,0,0,0,.37,0,.278.278,0,0,1,.047,0c.171,0,.463.108.517.256.027.074,0,.151-.1.227a.212.212,0,0,0,.177.086.714.714,0,0,0,.117-.013h.006a.715.715,0,0,1,.117-.013.236.236,0,0,1,.1.021c.171.079.176.112.176.272.021.018.042.032.115.032a2.45,2.45,0,0,0,.311-.032C44.3,15.683,44.364,15.681,44.427,15.681Zm-18.765-.849a.217.217,0,0,0-.038,0s-.416.111-.491.3c-.045.11.128.385.2.43a.076.076,0,0,0,.044.014c.161,0,.341-.472.342-.477.042-.115.048-.195.019-.236A.086.086,0,0,0,25.662,14.832Zm-4.857-1.4a.861.861,0,0,0-.359.231v.029a.3.3,0,0,0,.023.072.648.648,0,0,1,.038.12.387.387,0,0,1,0,.079V14.1a.051.051,0,0,0,.038.013,2.73,2.73,0,0,0,.989-.578c.039-.04.138-.237.114-.294a.026.026,0,0,0-.026-.016,1.428,1.428,0,0,0-.265.074c.092-.062.191-.116.287-.169s.178-.1.265-.154a2.466,2.466,0,0,0,.276-.136h-.149l-.337.068a2.183,2.183,0,0,0-.641.334h.111a.028.028,0,0,1,.028.024.051.051,0,0,1-.028.055,2.99,2.99,0,0,1-.4.3h-.055a.166.166,0,0,1,.047-.108A.152.152,0,0,0,20.805,13.428Zm-.209-.176h0a.911.911,0,0,0-.414.238h.072c.006,0,.008,0,.009,0s0,0,0,.007a.177.177,0,0,0-.008.059.193.193,0,0,1-.016.071c0,.011-.007.019-.005.022l0,0,.016,0a1.736,1.736,0,0,0,.337-.26c.078-.067.112-.108.106-.126s-.01-.009-.023-.009H20.6Zm.019-.437v0a7.68,7.68,0,0,1-.87.469c-.082.022-.11.052-.108.073s.013.021.031.024A1.487,1.487,0,0,0,20,13.225a8.988,8.988,0,0,1,.839-.446,4.6,4.6,0,0,0,.553-.215c.1-.049.393-.256.552-.367.067-.048.1-.072.105-.073.095-.071.1-.085.114-.1h-.016a.294.294,0,0,0-.136.036,2.327,2.327,0,0,0-.239.163,2.459,2.459,0,0,1-.214.148c.09-.092.189-.178.285-.26a3.969,3.969,0,0,0,.328-.305c-.03.015-.652.34-.669.429-.026.147-.227.267-.6.356l.039-.046a.4.4,0,0,1,.1-.066c.057-.03.116-.061.124-.1a.068.068,0,0,0-.021-.058c-.012.007-1.331.655-1.342.842l.635-.356a.452.452,0,0,1-.18.157.939.939,0,0,0-.09.058l.176-.085A1.965,1.965,0,0,1,20.616,12.816Zm12.4.06a.278.278,0,0,0-.074.01c-.1.02-.367.16-.391.3a.113.113,0,0,0,.065.118.324.324,0,0,0,.108.019.289.289,0,0,0,.068-.008l.32-.068s.083-.035.1-.1a.084.084,0,0,0,0-.085.191.191,0,0,0-.07-.066.234.234,0,0,1-.051-.041.1.1,0,0,1,0-.068A.285.285,0,0,0,33.015,12.875Zm-12.634-.227a7.66,7.66,0,0,0-.673.418A2.975,2.975,0,0,0,20.381,12.648Zm1.416-.885a.049.049,0,0,0-.019,0,20.021,20.021,0,0,0-2.093,1.226.439.439,0,0,0,.26-.127.816.816,0,0,1,.143-.1l-.033.046a4.243,4.243,0,0,0,.536-.325c.121-.082.246-.166.375-.241-.32.2-.32.2-.337.226l1.1-.633a.325.325,0,0,0,.083-.074A.051.051,0,0,0,21.8,11.763Zm4.18.28a1.376,1.376,0,0,0-.183.012c-.138.022-.182.079-.195.122a.19.19,0,0,0,.062.177.315.315,0,0,0,.192.05,1.985,1.985,0,0,0,.728-.208l.013-.006A1.373,1.373,0,0,0,25.978,12.042ZM22.92,11.9v0l-.009.005a2.147,2.147,0,0,0-.535.375s.5-.186.552-.226a2.5,2.5,0,0,0,.32-.271v.039c.132-.124.132-.124.474-.418.071-.056.077-.062.089-.085h-.05s-.447.136-.491.164l.017.04c0,.028-.03.064-.057.1l-.015.018a.78.78,0,0,1-.187.169.189.189,0,0,1,.027-.081.324.324,0,0,0,.017-.038q0-.028,0-.057a.341.341,0,0,0-.243.13h.039a2.687,2.687,0,0,1-.475.226h.072a.011.011,0,0,1,.01,0c.005.008,0,.026-.007.037a.04.04,0,0,0,0,.009.255.255,0,0,0,.058-.015C22.582,12,22.7,11.967,22.92,11.9Zm.874-.211a4.568,4.568,0,0,0-.618.333c-.033.025-.055.042-.054.06s.017.033.054.058a.471.471,0,0,0,.105.013.46.46,0,0,0,.347-.159c.069-.062.245-.235.228-.29a.025.025,0,0,0-.023-.016Zm.716-.419h0a.027.027,0,0,1,.01.02c.006.068-.136.255-.143.262a.846.846,0,0,1-.174.122.762.762,0,0,0-.2.144c-.1.107-.135.17-.123.2s.033.018.06.018h.008c.023,0,2.287-.244,2.876-.842.035-.034.047-.066.036-.092-.034-.083-.277-.1-.279-.1a8.9,8.9,0,0,0-1.43.441.241.241,0,0,1-.094.02.231.231,0,0,1-.2-.118.047.047,0,0,1,0-.049.053.053,0,0,1,.047-.023.121.121,0,0,0,.074-.027c.195-.057.229-.116.223-.155a.1.1,0,0,0-.079-.071,1.348,1.348,0,0,0-.265.062h-.32a1.329,1.329,0,0,0-.2.033.733.733,0,0,0-.231.26.522.522,0,0,0,.138-.033.744.744,0,0,1,.271-.068Zm-1.67.354-.022,0a1.034,1.034,0,0,0-.188.09l-.2.17a.073.073,0,0,0,.026,0,.637.637,0,0,0,.328-.15c.1-.05.108-.081.106-.095a.025.025,0,0,0-.023-.018Zm-.531-.068v0c-.08.049-.16.1-.237.159a4.074,4.074,0,0,0,.618-.288.114.114,0,0,0,.022-.04l.188-.09.188-.085h-.039a3.541,3.541,0,0,0-.718.33,1.112,1.112,0,0,0,.1-.087,1.106,1.106,0,0,0-.166.078c-.011.009-.031.029-.03.037A.157.157,0,0,0,22.309,11.555Zm1.392-.681a7.815,7.815,0,0,0-.906.407l.243-.1a1.22,1.22,0,0,1,.172-.085.523.523,0,0,0,.154-.051l.188-.09Zm3.008-.6h0c-.412,0-.437.171-.447.244a1.47,1.47,0,0,1-.324.149,1.03,1.03,0,0,0-.423.235v.034a2.258,2.258,0,0,0,.553-.085,1.843,1.843,0,0,0,.325-.108,1.287,1.287,0,0,1,.474-.124.646.646,0,0,1,.145.016c0,.062,0,.062-.1.119a.242.242,0,0,0,.051,0,1.427,1.427,0,0,0,.826-.4.122.122,0,0,0,.029-.109h-.083a2.638,2.638,0,0,1,.657-.424c.666-.165.895-.417.9-.474H29.26a4.182,4.182,0,0,0,1.1-.367.407.407,0,0,0-.08-.008.4.4,0,0,0-.08.008l1.463-.464a5.1,5.1,0,0,1-.519.068c.184-.052.374-.091.559-.129.159-.033.324-.067.485-.109l-.022,0a7.524,7.524,0,0,0-.851.069l-.021,0c-.008,0-1.347.233-1.657.345a.132.132,0,0,0,.049.045.44.44,0,0,1-.237,0,4.548,4.548,0,0,0-1.364.418c0,.024.015.038.058.038a2.852,2.852,0,0,0,.505-.111l-.282.108c.3-.075,1.262-.343,1.4-.384a14.031,14.031,0,0,1-1.656.5.437.437,0,0,0-.21.1.629.629,0,0,1-.144.311.3.3,0,0,0-.086-.011,2.665,2.665,0,0,0-.968.39.254.254,0,0,0,.083.016.183.183,0,0,1,.121.041l.011.011-.01-.009a1.665,1.665,0,0,0,.44-.137,1.542,1.542,0,0,1-.554.228.1.1,0,0,1-.088-.039Zm-2.357.472a.571.571,0,0,1,.071,0c0,.025-.019.037-.04.048s-.043.025-.048.053a.011.011,0,0,0,0,.01.018.018,0,0,0,.014,0,.927.927,0,0,0,.226-.086l.028-.013a1.391,1.391,0,0,0,.364-.345h-.1c0-.007.012-.016.034-.029a.4.4,0,0,0,.109-.079,4.449,4.449,0,0,0-.624.266h.16c.01,0,.015,0,.016,0a.694.694,0,0,1-.179.07l-.013,0a1.609,1.609,0,0,0-.271.125h.044A.567.567,0,0,1,24.352,10.751Zm1.494-.25-.376.13c-.082.028-.166.049-.248.07-.066.017-.134.034-.2.054a.924.924,0,0,0-.193.074,4.455,4.455,0,0,0,.7-.13.943.943,0,0,0,.326-.169L25.9,10.5Zm-.437-.175h0a.209.209,0,0,0-.072.04.805.805,0,0,0-.1.091.521.521,0,0,1-.175.134l-.044.017c-.1.036-.17.064-.194.119.21-.075.418-.16.618-.255a.06.06,0,0,0,.067-.062c0-.009-.008-.011-.017-.013s-.028-.006-.028-.032v-.04ZM26.7,9.86a.108.108,0,0,1,.041.008,1.194,1.194,0,0,1-.215.085,3.494,3.494,0,0,0-.475.17.156.156,0,0,0-.074.13.044.044,0,0,0,.019.039l.243-.068a2.375,2.375,0,0,0,.276-.034,2.351,2.351,0,0,0,.37-.191c.083-.049.169-.1.259-.143a1.716,1.716,0,0,1,.177-.06,1.344,1.344,0,0,0,.237-.087h-.1a.415.415,0,0,1,.071-.033c.181-.09.183-.1.188-.118a.009.009,0,0,0,0-.008.011.011,0,0,0-.009,0,.132.132,0,0,0-.028.005.115.115,0,0,1-.023,0s0,0,.012-.012c.027-.021.083-.063.071-.112s.028-.054.067-.07a.145.145,0,0,0,.071-.044h-.039a10.194,10.194,0,0,0-1.1.418h.122a.952.952,0,0,1-.3.107.658.658,0,0,0-.371.2,2,2,0,0,0,.343-.147A.743.743,0,0,1,26.7,9.86ZM64.179,51a20.815,20.815,0,0,0-2.134-.747A11.955,11.955,0,0,1,64.18,51ZM10.741,24.524v0c.237-.076.5-.153.788-.238l-.322.1C11.046,24.433,10.894,24.479,10.741,24.524Zm54.115-.117a4.394,4.394,0,0,0-1.092-.982,4.032,4.032,0,0,1,1.093.981Z" transform="translate(18395 7103.999)" fill="url(#linear-gradient)"/>
    <g id="Group_536" data-name="Group 536" transform="translate(18479.07 7125.479)">
      <path id="Intersection_9" data-name="Intersection 9" d="M154.832,24.754a9.788,9.788,0,0,1-4.217-3.745,10.487,10.487,0,0,1-1.47-5.565,14.874,14.874,0,0,1,1.907-7.508,13.724,13.724,0,0,1,5.373-5.268A16.081,16.081,0,0,1,164.37.743a14.176,14.176,0,0,1,5.81,1.121A8.278,8.278,0,0,1,174,5.083l-4.1,3.361a6.682,6.682,0,0,0-5.915-2.87,8.955,8.955,0,0,0-4.76,1.26,8.64,8.64,0,0,0-3.2,3.43,10.247,10.247,0,0,0-1.137,4.83,5.82,5.82,0,0,0,1.8,4.5,7.187,7.187,0,0,0,5.058,1.662,8.512,8.512,0,0,0,6.51-2.835l3.36,3.43q-3.64,4.235-10.36,4.235A14.586,14.586,0,0,1,154.832,24.754Zm-112.087.56a13.459,13.459,0,0,1-4.271-1.96l2.31-4.375a13.013,13.013,0,0,0,3.78,1.89,14.163,14.163,0,0,0,4.3.665,7.572,7.572,0,0,0,3.71-.769,2.341,2.341,0,0,0,1.365-2.1A1.808,1.808,0,0,0,52.86,17a18.53,18.53,0,0,0-3.465-1.242,35.374,35.374,0,0,1-3.884-1.348A7.041,7.041,0,0,1,42.9,12.469a5.11,5.11,0,0,1-1.1-3.43,7.214,7.214,0,0,1,1.382-4.375A8.721,8.721,0,0,1,47.1,1.759,15.807,15.807,0,0,1,53,.743a19.566,19.566,0,0,1,4.69.543,12.408,12.408,0,0,1,3.78,1.558l-2.135,4.34a10.057,10.057,0,0,0-3.08-1.418,13.385,13.385,0,0,0-3.57-.472,7.4,7.4,0,0,0-3.815.84,2.483,2.483,0,0,0-1.4,2.17,1.746,1.746,0,0,0,.595,1.347,4.493,4.493,0,0,0,1.5.876q.91.332,2.555.787a28.9,28.9,0,0,1,3.85,1.277,7.005,7.005,0,0,1,2.572,1.89,4.846,4.846,0,0,1,1.067,3.272,7.127,7.127,0,0,1-1.4,4.393,9,9,0,0,1-3.955,2.905,15.822,15.822,0,0,1-5.95,1.032A19.889,19.889,0,0,1,42.746,25.313Zm131.285.35,4.9-24.5h18.515l-.945,4.55H183.655l-1.049,5.321H193.98l-.875,4.41h-11.41l-1.12,5.67h13.37L193,25.663Zm-37.135,0,4.9-24.5H147.5l-4.9,24.5Zm-18.2,0-5.7-24.5h5.845l3.955,17.465,11.1-17.465h5.881l-15.505,24.5Zm-17.359,0-3.85-6.86h-4.83l-1.365,6.86h-5.7l4.9-24.5h9.975q4.551,0,7.07,2a6.733,6.733,0,0,1,2.52,5.6,9.459,9.459,0,0,1-1.855,5.88A9.9,9.9,0,0,1,103.05,18.1l4.271,7.56ZM93.53,14.288h4.83a6.684,6.684,0,0,0,4.393-1.3,4.553,4.553,0,0,0,1.557-3.71,3.05,3.05,0,0,0-1.19-2.625,5.66,5.66,0,0,0-3.395-.875h-4.48ZM62.1,25.663,67,1.164H85.515l-.945,4.55H71.726l-1.05,5.321H82.05l-.875,4.41H69.765l-1.121,5.67h13.37l-.945,4.549Zm-62.125,0,4.9-24.5H16.7A10.776,10.776,0,0,1,22.8,2.616,4.719,4.719,0,0,1,24.93,6.764,6.281,6.281,0,0,1,23.757,10.6a7.359,7.359,0,0,1-3.2,2.433,4.951,4.951,0,0,1,3.29,4.9,6.451,6.451,0,0,1-3.01,5.774,14.5,14.5,0,0,1-8.015,1.96Zm6.511-4.27H13.17a6.511,6.511,0,0,0,3.711-.91,2.987,2.987,0,0,0,1.329-2.625q0-2.52-3.675-2.52H7.675ZM8.48,11.209h5.775a5.889,5.889,0,0,0,3.482-.893A2.972,2.972,0,0,0,18.98,7.744q0-2.31-3.605-2.31H9.635ZM27.205,18l.875-4.375h9.905L37.11,18Z" transform="translate(0 0)" fill="url(#linear-gradient)"/>
    </g>
  </g>
</svg>
