<svg xmlns="http://www.w3.org/2000/svg" xmlns:xlink="http://www.w3.org/1999/xlink" width="320" height="1028" viewBox="0 0 320 1028">
  <defs>
    <linearGradient id="linear-gradient21" x1="-0.04" y1="-0.12" x2="1.061" y2="1.238" gradientUnits="objectBoundingBox">
      <stop offset="0" stop-color="#11013c"/>
      <stop offset="1" stop-color="#003e90"/>
    </linearGradient>
    <clipPath id="clip-path">
      <rect id="Rectangle_446" data-name="Rectangle 446" width="320" height="1028" transform="translate(17579 7284)" fill="url(#linear-gradient21)"/>
    </clipPath>
    <linearGradient id="linear-gradient-31" x1="-0.009" y1="-0.034" x2="0.859" y2="0.969" gradientUnits="objectBoundingBox">
      <stop offset="0" stop-color="#11013c"/>
      <stop offset="1" stop-color="#053a80"/>
    </linearGradient>
    <linearGradient id="linear-gradient-81" x1="-0.009" y1="-0.034" x2="1.506" y2="1.207" gradientUnits="objectBoundingBox">
      <stop offset="0" stop-color="#fff"/>
      <stop offset="1" stop-color="#00c4ff"/>
    </linearGradient>
    <filter id="Ellipse_314" x="50.615" y="40.222" width="56.256" height="56.256" filterUnits="userSpaceOnUse">
      <feOffset dy="5" input="SourceAlpha"/>
      <feGaussianBlur stdDeviation="5" result="blur"/>
      <feFlood flood-color="#588b93"/>
      <feComposite operator="in" in2="blur"/>
      <feComposite in="SourceGraphic"/>
    </filter>
    <linearGradient id="linear-gradient-91" x1="-0.009" y1="-0.034" x2="1.506" y2="1.207" gradientUnits="objectBoundingBox">
      <stop offset="0" stop-color="#d3d6e5"/>
      <stop offset="1" stop-color="#0bb2f0"/>
    </linearGradient>
    <linearGradient id="linear-gradient-101" x1="-0.009" y1="-0.034" x2="0.859" y2="0.969" gradientUnits="objectBoundingBox">
      <stop offset="0" stop-color="#00115a"/>
      <stop offset="1" stop-color="#0094cb"/>
    </linearGradient>
    <filter id="Exclusion_13" x="42.59" y="27.627" width="75.695" height="75.589" filterUnits="userSpaceOnUse">
      <feOffset input="SourceAlpha"/>
      <feGaussianBlur stdDeviation="2.5" result="blur-2"/>
      <feFlood flood-color="#0071c4" flood-opacity="0.412"/>
      <feComposite operator="in" in2="blur-2"/>
      <feComposite in="SourceGraphic"/>
    </filter>
  </defs>
  <g id="Group_1201" data-name="Group 1201" transform="translate(-17579 -7291)">
    <g id="Mask_Group_149" data-name="Mask Group 149" transform="translate(0 7)" clip-path="url(#clip-path)">
      <rect id="Rectangle_445" data-name="Rectangle 445" width="320" height="1028" transform="translate(17579 7284)" fill="url(#linear-gradient21)"/>
      <circle id="Ellipse_309" data-name="Ellipse 309" cx="81" cy="81" r="81" transform="translate(17498 7727)" opacity="0.301" fill="url(#linear-gradient-31)"/>
      <circle id="Ellipse_310" data-name="Ellipse 310" cx="19.5" cy="19.5" r="19.5" transform="translate(17815 8082)" opacity="0.301" fill="url(#linear-gradient-31)"/>
      <circle id="Ellipse_311" data-name="Ellipse 311" cx="14.5" cy="14.5" r="14.5" transform="translate(17786 7889)" opacity="0.301" fill="url(#linear-gradient-31)"/>
      <circle id="Ellipse_312" data-name="Ellipse 312" cx="25.5" cy="25.5" r="25.5" transform="translate(17627 8031)" opacity="0.301" fill="url(#linear-gradient-31)"/>
      <circle id="Ellipse_308" data-name="Ellipse 308" cx="188" cy="188" r="188" transform="translate(17551 8139)" opacity="0.301" fill="url(#linear-gradient-31)"/>
    </g>
    <g id="Group_1200" data-name="Group 1200" transform="translate(-3095 276)">
      <g id="Group_1191" data-name="Group 1191" transform="translate(20718 7045)">
        <g id="Group_1188" data-name="Group 1188" transform="translate(0 0)">
          <path id="Path_2433" data-name="Path 2433" d="M29.18-2.587c15.722,0,38.492,2.6,38.492,18.326s-26.8,53.977-42.527,53.977-29.9-25.868-29.9-41.59S13.457-2.587,29.18-2.587Z" transform="translate(4.76 2.587)" fill="url(#linear-gradient-81)"/>
          <g transform="matrix(1, 0, 0, 1, -44, -30)" filter="url(#Ellipse_314)">
            <circle id="Ellipse_314-2" data-name="Ellipse 314" cx="13.128" cy="13.128" r="13.128" transform="translate(65.62 50.22)" fill="#fff"/>
          </g>
          <g id="internet" transform="translate(17.429 15.105)">
            <path id="Path_2443" data-name="Path 2443" d="M17.3,0A17.3,17.3,0,1,1,0,17.3,17.3,17.3,0,0,1,17.3,0Z" fill="url(#linear-gradient-91)"/>
            <path id="Path_2438" data-name="Path 2438" d="M445.193,126.136a17.217,17.217,0,0,0-2.782-9.411,4.243,4.243,0,0,0-.8,2.368c.185.927,1.274,1,1.162,1.677s-.915-.195-1.9,1.6-.494,4.264.927,4.449A8.052,8.052,0,0,0,445.193,126.136Z" transform="translate(-410.595 -108.837)" fill="url(#linear-gradient-101)"/>
            <path id="Path_2439" data-name="Path 2439" d="M317.724,8.92a17.224,17.224,0,0,1,5.531,2.632s-2.006-.331-2.766.349-1.868,2.286-2.766,0S317.724,8.92,317.724,8.92Z" transform="translate(-295.882 -8.317)" fill="url(#linear-gradient-101)"/>
            <path id="Path_2440" data-name="Path 2440" d="M63.519,5.894A17.257,17.257,0,0,1,76.526,0s-1.174.711,1.051,1.915,1.2,1.761.741,2.132-1.267-.741-1.792-1.483A4.718,4.718,0,0,0,72.016,1.3c-1.73.618-3.212,1.074-2.966,1.649s3.212-.537,4.325-.475.741.741-.309,1.544S71.893,5.808,73,6.426s2.471.68,2.78.309S75.229,3.955,77.329,5s3.831,1.668,2.1,3.213-3.707,3.275-3.769,4.263.618,1.792.247,1.854-.711-.4-.958-.741A2.267,2.267,0,0,0,73,13.345c-.556.216-1.607,1.05-1.019,1.853s1.39.432,2.193.8,1.552,1.782,1.4,2.1-.839-.085-1.4-1.174-1.611-.371-2.35-.556a2.646,2.646,0,0,1-2.037-1.606c-.741-1.3-2.276-1.66-2.9-2.409-1.8-2.145-1.668-3.769-2.039-4.51A15.634,15.634,0,0,0,63.519,5.894Z" transform="translate(-59.227)" fill="url(#linear-gradient-101)"/>
            <path id="Path_2441" data-name="Path 2441" d="M251.165,259.073a6.049,6.049,0,0,1,2.78.988,4.132,4.132,0,0,0,2.471,1.421c1.421.309,2.039,1.112,1.112,2.656a30.917,30.917,0,0,1-3.4,4.757,5.983,5.983,0,0,0-2.162,2.595c-.371,1.235-.494,1.976.309,2.471,0,0-.432,1.051-1.421-.309s-.185-2.965,0-3.892.679-3.707.371-4.387-1.73-1.112-2.1-2.533S249.4,258.656,251.165,259.073Z" transform="translate(-232.198 -241.527)" fill="url(#linear-gradient-101)"/>
          </g>
          <path id="Exclusion_12" data-name="Exclusion 12" d="M25.06,60.589A15.79,15.79,0,0,1,15.586,57a35.494,35.494,0,0,1-8-8.893A51.162,51.162,0,0,1,2.063,36.741,35.206,35.206,0,0,1,0,25.737C0,19.587,3.382,13.1,9.28,7.928,14.945,2.964,22.108,0,28.44,0,37.1,0,44.191.921,49.509,2.738,56.932,5.274,60.7,9.52,60.7,15.357c0,3.152-1.285,7.518-3.716,12.626a90.5,90.5,0,0,1-9.162,14.931A71.82,71.82,0,0,1,36.186,55.374a30.329,30.329,0,0,1-5.812,3.812A12.471,12.471,0,0,1,25.06,60.589Zm3.918-57.1c-5.418,0-11.546,2.535-16.392,6.782C7.541,14.688,4.647,20.241,4.647,25.5a30.117,30.117,0,0,0,1.765,9.414,43.763,43.763,0,0,0,4.728,9.72,30.363,30.363,0,0,0,6.841,7.607,13.509,13.509,0,0,0,8.1,3.074c2.667,0,5.869-1.5,9.518-4.461A61.435,61.435,0,0,0,45.555,40.2c6.589-8.766,11.016-18.239,11.016-23.574,0-4.994-3.22-8.626-9.57-10.8C42.453,4.274,36.389,3.486,28.978,3.486Z" transform="translate(6.089 5.127)" fill="url(#linear-gradient-101)"/>
          <g transform="matrix(1, 0, 0, 1, -44, -30)" filter="url(#Exclusion_13)">
            <path id="Exclusion_13-2" data-name="Exclusion 13" d="M25.06,60.589A15.79,15.79,0,0,1,15.586,57a35.494,35.494,0,0,1-8-8.893A51.162,51.162,0,0,1,2.063,36.741,35.206,35.206,0,0,1,0,25.737C0,19.587,3.382,13.1,9.28,7.928,14.945,2.964,22.108,0,28.44,0,37.1,0,44.191.921,49.509,2.738,56.932,5.274,60.7,9.52,60.7,15.357c0,3.152-1.285,7.518-3.716,12.626a90.5,90.5,0,0,1-9.162,14.931A71.82,71.82,0,0,1,36.186,55.374a30.329,30.329,0,0,1-5.812,3.812A12.471,12.471,0,0,1,25.06,60.589Zm3.918-57.1c-5.418,0-11.546,2.535-16.392,6.782C7.541,14.688,4.647,20.241,4.647,25.5a30.117,30.117,0,0,0,1.765,9.414,43.763,43.763,0,0,0,4.728,9.72,30.363,30.363,0,0,0,6.841,7.607,13.509,13.509,0,0,0,8.1,3.074c2.667,0,5.869-1.5,9.518-4.461A61.435,61.435,0,0,0,45.555,40.2c6.589-8.766,11.016-18.239,11.016-23.574,0-4.994-3.22-8.626-9.57-10.8C42.453,4.274,36.389,3.486,28.978,3.486Z" transform="translate(50.09 35.13)" fill="url(#linear-gradient-101)"/>
          </g>
        </g>
        <g id="Group_1193" data-name="Group 1193" transform="translate(81.342 8.273)">
          <g id="Group_1187" data-name="Group 1187" transform="translate(2.299 0)">
            <path id="Intersection_9" data-name="Intersection 9" d="M50.152,22.68a12.719,12.719,0,0,1-4.027-1.848L48.3,16.707a12.3,12.3,0,0,0,3.564,1.782,13.353,13.353,0,0,0,4.059.627,7.134,7.134,0,0,0,3.5-.726,2.205,2.205,0,0,0,1.287-1.98,1.7,1.7,0,0,0-1.023-1.567,17.483,17.483,0,0,0-3.267-1.172A33.232,33.232,0,0,1,52.758,12.4,6.641,6.641,0,0,1,50.3,10.569a4.818,4.818,0,0,1-1.04-3.234,6.805,6.805,0,0,1,1.3-4.125,8.226,8.226,0,0,1,3.7-2.74,14.917,14.917,0,0,1,5.56-.957,18.494,18.494,0,0,1,4.422.511,11.693,11.693,0,0,1,3.564,1.469L65.794,5.586a9.487,9.487,0,0,0-2.9-1.337A12.614,12.614,0,0,0,59.523,3.8a6.975,6.975,0,0,0-3.6.792,2.341,2.341,0,0,0-1.319,2.046,1.652,1.652,0,0,0,.561,1.271,4.23,4.23,0,0,0,1.419.824q.857.315,2.408.743a27.379,27.379,0,0,1,3.631,1.205,6.591,6.591,0,0,1,2.425,1.782,4.571,4.571,0,0,1,1.006,3.085,6.725,6.725,0,0,1-1.32,4.142,8.477,8.477,0,0,1-3.729,2.739,14.9,14.9,0,0,1-5.61.974A18.77,18.77,0,0,1,50.152,22.68Zm22.7.33,3.73-18.744H69.192L70.083-.09h20.13l-.891,4.356H81.963L78.2,23.01Zm-47.651,0,4.62-23.1H47.281L46.39,4.2H34.278l-.99,5.016H44.014l-.825,4.158H32.431L31.374,18.72H43.98l-.891,4.29Zm-25.245,0L4.578-.09H15.732a10.154,10.154,0,0,1,5.742,1.37,4.447,4.447,0,0,1,2.013,3.91A5.925,5.925,0,0,1,22.382,8.8a6.949,6.949,0,0,1-3.02,2.293,4.667,4.667,0,0,1,3.1,4.62,6.082,6.082,0,0,1-2.838,5.445,13.674,13.674,0,0,1-7.557,1.849ZM6.1,18.984h6.3a6.135,6.135,0,0,0,3.5-.858,2.814,2.814,0,0,0,1.254-2.475q0-2.376-3.465-2.376H7.218Zm1.881-9.6h5.445a5.549,5.549,0,0,0,3.283-.842,2.8,2.8,0,0,0,1.172-2.425q0-2.178-3.4-2.178H9.067Z" transform="translate(0 0)" fill="url(#linear-gradient-81)"/>
          </g>
          <g id="Group_1190" data-name="Group 1190" transform="translate(0 32.102)">
            <path id="Intersection_9-2" data-name="Intersection 9" d="M109.72,22.152a9.222,9.222,0,0,1-3.976-3.531,9.887,9.887,0,0,1-1.386-5.247,14.028,14.028,0,0,1,1.8-7.079,12.94,12.94,0,0,1,5.066-4.966,15.159,15.159,0,0,1,7.491-1.815A13.375,13.375,0,0,1,124.191.57a7.809,7.809,0,0,1,3.6,3.037l-3.861,3.168a6.3,6.3,0,0,0-5.576-2.706,8.442,8.442,0,0,0-4.488,1.188,8.146,8.146,0,0,0-3.02,3.234,9.655,9.655,0,0,0-1.073,4.554,5.487,5.487,0,0,0,1.7,4.241,6.771,6.771,0,0,0,4.768,1.568,8.027,8.027,0,0,0,6.138-2.673l3.168,3.234q-3.432,3.993-9.768,3.993A13.751,13.751,0,0,1,109.72,22.152ZM4.037,22.68A12.7,12.7,0,0,1,.012,20.832L2.19,16.707a12.277,12.277,0,0,0,3.564,1.782,13.353,13.353,0,0,0,4.059.627,7.136,7.136,0,0,0,3.5-.726A2.205,2.205,0,0,0,14.6,16.41a1.7,1.7,0,0,0-1.023-1.567,17.533,17.533,0,0,0-3.267-1.172A33.165,33.165,0,0,1,6.645,12.4a6.644,6.644,0,0,1-2.459-1.832,4.818,4.818,0,0,1-1.04-3.234,6.8,6.8,0,0,1,1.3-4.125,8.218,8.218,0,0,1,3.7-2.74,14.922,14.922,0,0,1,5.561-.957,18.5,18.5,0,0,1,4.422.511,11.693,11.693,0,0,1,3.564,1.469L19.679,5.586a9.482,9.482,0,0,0-2.9-1.337A12.619,12.619,0,0,0,13.41,3.8a6.975,6.975,0,0,0-3.6.792,2.34,2.34,0,0,0-1.32,2.046,1.65,1.65,0,0,0,.562,1.271,4.225,4.225,0,0,0,1.418.824q.859.315,2.409.743a27.361,27.361,0,0,1,3.63,1.205,6.584,6.584,0,0,1,2.426,1.782,4.567,4.567,0,0,1,1.007,3.085,6.725,6.725,0,0,1-1.32,4.142A8.487,8.487,0,0,1,14.9,22.433a14.911,14.911,0,0,1-5.611.974A18.77,18.77,0,0,1,4.037,22.68Zm123.783.33,4.62-23.1H149.9l-.891,4.29H136.9l-.99,5.016h10.725l-.825,4.158H135.048l-1.056,5.346H146.6l-.891,4.29Zm-35.013,0,4.62-23.1h5.379l-4.621,23.1Zm-17.16,0L70.268-.09H75.78l3.729,16.467L89.969-.09h5.544L80.895,23.01Zm-16.368,0-3.63-6.468H51.1L49.809,23.01H44.429L49.05-.09h9.4A10.5,10.5,0,0,1,65.12,1.791,6.351,6.351,0,0,1,67.5,7.071a8.923,8.923,0,0,1-1.749,5.544A9.335,9.335,0,0,1,60.9,15.882l4.026,7.128ZM51.921,12.285h4.554a6.3,6.3,0,0,0,4.141-1.221,4.291,4.291,0,0,0,1.469-3.5,2.874,2.874,0,0,0-1.122-2.475,5.333,5.333,0,0,0-3.2-.825H53.537ZM22.287,23.01l4.62-23.1H44.364L43.473,4.2H31.361l-.99,5.016H41.1l-.825,4.158H29.514L28.458,18.72H41.063l-.891,4.29Z" transform="translate(0 0)" fill="url(#linear-gradient-81)"/>
          </g>
        </g>
      </g>
    </g>
  </g>
</svg>
