<svg xmlns="http://www.w3.org/2000/svg" xmlns:xlink="http://www.w3.org/1999/xlink" width="320" height="1028" viewBox="0 0 320 1028">
  <defs>
    <linearGradient id="linear-gradient4" x1="-0.04" y1="-0.12" x2="1.061" y2="1.238" gradientUnits="objectBoundingBox">
      <stop offset="0" stop-color="#11013c"/>
      <stop offset="1" stop-color="#003e90"/>
    </linearGradient>
    <clipPath id="clip-path">
      <rect id="Rectangle_446" data-name="Rectangle 446" width="320" height="1028" transform="translate(17579 7284)" fill="url(#linear-gradient4)"/>
    </clipPath>
    <linearGradient id="linear-gradient-3" x1="-0.009" y1="-0.034" x2="0.859" y2="0.969" gradientUnits="objectBoundingBox">
      <stop offset="0" stop-color="#11013c"/>
      <stop offset="1" stop-color="#053a80"/>
    </linearGradient>
    <linearGradient id="linear-gradient-7" x1="-0.009" y1="-0.034" x2="0.859" y2="0.969" gradientUnits="objectBoundingBox">
      <stop offset="0" stop-color="#fff"/>
      <stop offset="1" stop-color="#fff"/>
    </linearGradient>
  </defs>
  <g id="Mask_Group_149" data-name="Mask Group 149" transform="translate(-17579 -7284)" clip-path="url(#clip-path)">
    <rect id="Rectangle_445" data-name="Rectangle 445" width="320" height="1028" transform="translate(17579 7284)" fill="url(#linear-gradient4)"/>
    <circle id="Ellipse_309" data-name="Ellipse 309" cx="81" cy="81" r="81" transform="translate(17498 7727)" opacity="0.301" fill="url(#linear-gradient-3)"/>
    <circle id="Ellipse_310" data-name="Ellipse 310" cx="19.5" cy="19.5" r="19.5" transform="translate(17815 8082)" opacity="0.301" fill="url(#linear-gradient-3)"/>
    <circle id="Ellipse_311" data-name="Ellipse 311" cx="14.5" cy="14.5" r="14.5" transform="translate(17786 7889)" opacity="0.301" fill="url(#linear-gradient-3)"/>
    <circle id="Ellipse_312" data-name="Ellipse 312" cx="25.5" cy="25.5" r="25.5" transform="translate(17627 8031)" opacity="0.301" fill="url(#linear-gradient-3)"/>
    <g id="Group_1184" data-name="Group 1184" transform="translate(-783 209.999)">
      <path id="Exclusion_10" data-name="Exclusion 10" d="M35.953,71.906A35.963,35.963,0,0,1,21.959,2.825,35.962,35.962,0,0,1,49.948,69.081,35.727,35.727,0,0,1,35.953,71.906ZM21.547,44.225h0c.345,0,.65.517.933,1.58.062.247.062.247-.409,1.262a6.853,6.853,0,0,0-.263,2.2c.044.081.08.145.108.19a41.32,41.32,0,0,0,3.148,3.39,4.317,4.317,0,0,0,1.119.608,5.078,5.078,0,0,1,.979.5A3.068,3.068,0,0,1,28.2,55.894c0,.03.992,4.36,2.652,6.669,1.711,2.392,3.363,2.65,3.993,2.65a1.278,1.278,0,0,0,.212-.013c-1.979-1.026-1.979-1.026-1.792-1.847-.275-.292-.275-.292-.8-1.713h0a.34.34,0,0,1,.114-.017c.057,0,.15.006.336.019,0-.035,0-.035-.454-.656.346-.307.346-.307.32-.554l.088-.056a.861.861,0,0,0,.253.042.446.446,0,0,0,.415-.228.36.36,0,0,0-.006-.362l-.181-.252c1.409-.036,2-3.4,2-3.436a1.84,1.84,0,0,1,.951-.77,1.089,1.089,0,0,0,.557-.638,1.517,1.517,0,0,1,.3-.465.467.467,0,0,1,.331-.136.474.474,0,0,1,.087.008h.006c.2,0,.216,0,.242-.164a4.833,4.833,0,0,0,.026-.682,5.564,5.564,0,0,1,.015-.59,1.345,1.345,0,0,0-.025-.223.62.62,0,0,1,.051-.485l.016-.024c.145-.216.233-.346.109-.52a.309.309,0,0,1-.062-.118,2.9,2.9,0,0,0,1.592-1.693v-.051a.982.982,0,0,0-.083-.137.617.617,0,0,1-.114-.227.562.562,0,0,1,.044-.262c.049-.152.1-.3-.069-.369a.454.454,0,0,0-.189-.044.6.6,0,0,0-.159.026.566.566,0,0,1-.147.026.284.284,0,0,1-.068-.008,2.569,2.569,0,0,1-.881-.444,2.875,2.875,0,0,0-.716-.393c-.547-.167-1.115-.292-1.663-.413-.326-.072-.663-.146-.992-.228a1.146,1.146,0,0,1-.6-.668A1.875,1.875,0,0,0,33.627,46a5.478,5.478,0,0,1-.657-.557,4.592,4.592,0,0,0-.847-.68,3.564,3.564,0,0,0-1.164-.342,3.429,3.429,0,0,1-1.213-.37,4.409,4.409,0,0,1-.706-.571,3.648,3.648,0,0,0-.881-.666,1.326,1.326,0,0,0-.315-.1,22.544,22.544,0,0,0-3.066-.326c-1.631,0-2.424.575-2.572,1.864a2.185,2.185,0,0,0-1.215-.241l-.263,0-.254,0a1.5,1.5,0,0,1-1.108-.271.712.712,0,0,1-.12-.595,2.538,2.538,0,0,0-.259-1.539,1.532,1.532,0,0,0-.711-.156,4.537,4.537,0,0,0-.65.063h0a4.568,4.568,0,0,1-.652.064l-.085,0c.232-.76.232-.76.062-1.114a3.958,3.958,0,0,0,.413-1.344,1.011,1.011,0,0,0-.6-.26c-.352,0-.8.312-.947,1.8a.844.844,0,0,0-.433.173.839.839,0,0,1-.432.173.506.506,0,0,1-.255-.074,3.147,3.147,0,0,1-1.551-1.8,1.179,1.179,0,0,1,.119-.8,1.5,1.5,0,0,0,.149-.585.577.577,0,0,0-.166-.347.482.482,0,0,1-.149-.464,5,5,0,0,1,1.183-1.457.937.937,0,0,1,.54-.112,6.446,6.446,0,0,1,1.2.153l.119-.1a.72.72,0,0,0-.208-.142.975.975,0,0,1-.169-.1.268.268,0,0,1,.031-.149,16.366,16.366,0,0,1,2.465-.339,1.469,1.469,0,0,1,.644,1.169A1.461,1.461,0,0,0,19.5,37c.61-.651.286-1.247-.056-1.879a2.146,2.146,0,0,1-.393-1.322,2.377,2.377,0,0,1,1.2-1.493,4.532,4.532,0,0,0,.8-.666c0-.018-.024-.04-.05-.064a.32.32,0,0,1-.043-.044.128.128,0,0,1-.005-.094.282.282,0,0,0,.005-.045l.135-.036v-.169l-.135-.051.212-2.113v1.267c.1-.061.1-.061.191-1.457a1.753,1.753,0,0,1,.248.441,1.575,1.575,0,0,0,.15-.439,1.077,1.077,0,0,1,.273-.587,14.528,14.528,0,0,1,1.354-.672c.114-1.092.114-1.092.729-1.667h.005c.1,0,.132-.019,1.891-1.026a.176.176,0,0,1-.036.079.328.328,0,0,0-.026.045,1.012,1.012,0,0,0,.32.067v.153c-1.034.729-1.034.729-1.034.944a3.894,3.894,0,0,0,2.324-1.408.833.833,0,0,0,.152-.793.97.97,0,0,0-.336.508,1.671,1.671,0,0,1-.15.318l-.574-.164a.518.518,0,0,0,.274-.195h-.062a.867.867,0,0,1-.169.017.85.85,0,0,1-.322-.063.227.227,0,0,1-.15-.262v-.051a.511.511,0,0,0,0,.4c-.273-.13-.319-.273-.419-.585-.252-.092-.268-.112-.375-.243l.006-.005c.373-.1.643-.175.72-.552a.2.2,0,0,0-.154-.083c-.208,0-.693.3-2.734,1.571,1.855-1.918,1.855-1.918,3.762-2.492a.419.419,0,0,0,.237.056,4.347,4.347,0,0,0,2.445-1.256c-.093-.236-.093-.236.046-.58l-.088-.134-.47-.1H29.07a1.864,1.864,0,0,0-.894.364.2.2,0,0,0-.033-.08.409.409,0,0,1-.025-.048c.153-.214.223-.245.806-.467-.966.079-2.128.176-3.416.307,1.129-.12,2.13-.206,3.421-.313a.24.24,0,0,0,.094-.061.91.91,0,0,0-.992-.3.567.567,0,0,1-.117.023.169.169,0,0,1-.074-.023.309.309,0,0,1,0-.15.227.227,0,0,0-.027-.183.408.408,0,0,0-.18-.1.509.509,0,0,1-.243-.149c-.04-.048-.011-.1.04-.184l.027-.046.009-.016c.064-.109.1-.176-.159-.635C26.9,17.3,26.74,17,26.6,17c-.1,0-.187.159-.333.421a.173.173,0,0,0,.005.147.151.151,0,0,1-.005.157.208.208,0,0,1-.161.052.241.241,0,0,0-.207.081c-.216.292-.216.292-.274.313a.575.575,0,0,1-.167.025,1.027,1.027,0,0,1-.462-.15,1.416,1.416,0,0,0-.332-.136,1.372,1.372,0,0,1,.269-.918.681.681,0,0,0-.224-.032l-.092,0h-.006l-.1,0a.749.749,0,0,1-.158-.014c-.045,0-.071-.044-.128-.139l-.006-.01c-.063-.1-.069-.114-.517-.266a.39.39,0,0,0-.206,0,10.224,10.224,0,0,0-1.307.195.836.836,0,0,1-.1.471.617.617,0,0,0,.012.694.5.5,0,0,1-.159.208.412.412,0,0,0-.171.274.588.588,0,0,0,.125.332.735.735,0,0,1,.138.34c0,.01-.007,1.028-.574,1.164a.561.561,0,0,0-.346.192.181.181,0,0,0-.016.146.785.785,0,0,1-.16.143,2.119,2.119,0,0,0-.036.636,1.145,1.145,0,0,1-.414,1.16,1.4,1.4,0,0,0-.563-.439,2.689,2.689,0,0,1-.315-.187.982.982,0,0,0,0-.847l.057-.045c.039-.032.084-.068.114-.088s.019-.051.009-.075a.079.079,0,0,1-.009-.028h-.171a.464.464,0,0,0-.341-.13,1.555,1.555,0,0,0-.214.02,1.582,1.582,0,0,1-.215.02.553.553,0,0,1-.145-.017,1.036,1.036,0,0,1-.408-.265,1.3,1.3,0,0,0-.346-.248l-.176-.041a.467.467,0,0,0-.079-.007.833.833,0,0,0-.374.121,1.33,1.33,0,0,1-.234.1c-.083-.067-.083-.067-.18-.672-.042-.21-.042-.21-.517-.251-.115-.646,1.53-1.854,2.15-2.308-.047-.126-.152-.142-.254-.158a.391.391,0,0,1-.18-.058c1.317-.236,1.317-.236,2.067-1.026a1.149,1.149,0,0,1-1.034-.128,1.8,1.8,0,0,1,.568-.064.942.942,0,0,0,.925-.372.355.355,0,0,0-.145-.051s0,0,0-.006a.513.513,0,0,1,.344-.177.323.323,0,0,1,.17.049c.857-.307.857-.307,1.08-.513a.644.644,0,0,0,.139-.159.32.32,0,0,0,.008-.255.362.362,0,0,1-.008-.222.28.28,0,0,1,.2-.147.41.41,0,0,0,.159-.083,1.964,1.964,0,0,0,.1-.241,1.006,1.006,0,0,0-.4-.238,1.75,1.75,0,0,0,.364-.1c0-.006,0-.012,0-.019,0-.084,0-.144.45-.194.431-.046.472-.128.5-.193,0-.008.008-.016.013-.024a4.362,4.362,0,0,1,.367.291,1.46,1.46,0,0,1,.178.281,1.642,1.642,0,0,0,.152.248.617.617,0,0,0,.206.137c.164.082.349.176.352.424a1.569,1.569,0,0,1-1.23,1.2,5.1,5.1,0,0,0-1.034.264.323.323,0,0,0-.109.365.241.241,0,0,0,.158.04,2.544,2.544,0,0,0,.716-.167,1.285,1.285,0,0,1,.411-.1,2.567,2.567,0,0,1,.87.308c-.066.074-.066.074-.4.2a4.168,4.168,0,0,0,1.579.347.642.642,0,0,0,.287-.046c0-.047,0-.047-.083-.084a5.664,5.664,0,0,1-.661-.608,1.607,1.607,0,0,1,.92.307.259.259,0,0,0,.112.059h.007c.1-.035.244-.3.3-.508.035-.136.033-.235-.008-.28a1.173,1.173,0,0,0-.4-.238.813.813,0,0,1-.537-.465c-.112-.361.5-.564.507-.566.19,0,.616.524.62.529.1.128.2.261.289.261H27.2c.23-.046.564-.844.661-1.087l.005-.013a.819.819,0,0,0,0-.111l-1.942-.45a2.8,2.8,0,0,1,.573-.3l.019-.009c.2-.09.286-.131.281-.188a2.254,2.254,0,0,0-1.034-.857l-.072,0a1.411,1.411,0,0,1-.372-.05.342.342,0,0,1-.13-.162c-.043-.085-.088-.172-.206-.181a3.144,3.144,0,0,0-.9.254c-.3.116-.3.116-.351.116a1.664,1.664,0,0,1-.061-.555c-.059-.006-.122-.009-.186-.009a1.855,1.855,0,0,0-.433.052,4.7,4.7,0,0,0-2.033,1.742.108.108,0,0,0,.038.119.909.909,0,0,0,.491.1,3.4,3.4,0,0,0,.422-.029.806.806,0,0,0-.259.484,1.741,1.741,0,0,0-.421.44c-.185.241-.376.49-.6.49a.419.419,0,0,1-.277-.125.674.674,0,0,1,.247-.341c.167-.155.324-.3.145-.5a1.188,1.188,0,0,0-.487.42,2.051,2.051,0,0,1-.247.273c-.062-.171.291-.621.295-.625h-.326c.517-.847.517-.847.517-.949a.422.422,0,0,0-.077-.056c.3-.467.3-.467,1.716-1.293a.719.719,0,0,0-.13-.012.7.7,0,0,0-.129.012c-1.037.241-2.4,2.027-2.666,2.382l-.006.008.041.078h.039a1.256,1.256,0,0,0,.318-.031v.072a1.278,1.278,0,0,0-.409.257v.061h.072a1.682,1.682,0,0,1-.447.448,1.486,1.486,0,0,0-.519.578c-.181-.2-.181-.2.163-.557a1.125,1.125,0,0,0,.461-.227c.047-.057-.062-.267-.067-.275a.343.343,0,0,0-.176-.174.272.272,0,0,0-.072.042,3.744,3.744,0,0,1-.372.339l-.06.037c-.193.12-.251.157-.261.19a.217.217,0,0,0,.046.005.214.214,0,0,0,.046-.005h.12s.007.008.009.019a.078.078,0,0,0,.057.071,6.945,6.945,0,0,0-.572.428c-.027.023-.19.134-.781.134-.079,0-.164,0-.252-.006a.371.371,0,0,1-.045-.118.325.325,0,0,0-.053-.128c-.631.162-.828.507-1.214,1.272a.41.41,0,0,1,.029-.29.5.5,0,0,0,.043-.223,1.555,1.555,0,0,0-.4.135,1.3,1.3,0,0,1-.532.15.766.766,0,0,1-.106-.007,1.134,1.134,0,0,1,.179-.132.564.564,0,0,0,.3-.33l-.067-.036a.218.218,0,0,1-.116.037,1.34,1.34,0,0,1-.23-.037.759.759,0,0,0-.109-.118.617.617,0,0,0-.284.175,1.246,1.246,0,0,1-.123.1.991.991,0,0,1,.093-.149,1.6,1.6,0,0,0-.248.216,1.75,1.75,0,0,1,.325-.467c-.419.385-.419.385-1.183,1.026.117-.111.242-.217.363-.319s.266-.225.387-.343A12.682,12.682,0,0,0,12.43,16.9a.741.741,0,0,1,.088-.128l-1.411,1.569a28.668,28.668,0,0,0-2.665,3.733l.013-.021.022-.029a7.461,7.461,0,0,0-.61,1.723c-.031.1-.077.246-.114.354a1.138,1.138,0,0,0,.083.133A9.213,9.213,0,0,0,7.474,25.7a1.235,1.235,0,0,0,.077.626.5.5,0,0,0-.069-.005.485.485,0,0,0-.069.005.11.11,0,0,1-.057,0l-.031-.083c-.008-.02-.014-.039-.02-.057-.018-.053-.029-.088-.052-.093a1.315,1.315,0,0,0,0,.58c.05.162.147.186.2.186h.02a.17.17,0,0,0,.1-.108.394.394,0,0,0,0-.133.768.768,0,0,0,0-.108,1.619,1.619,0,0,1,.134.641l-.248-.128c-.911,1.123-1.231,6.778-.625,7.837.083,0,.083,0,1.4,2.7h-.31A18.408,18.408,0,0,0,9.2,39.322l.059.077c.107-.152.22-.31-.32-1.072a6.566,6.566,0,0,1-.982-2.611,1.461,1.461,0,0,1,.724,1.052,2.352,2.352,0,0,0,.227.708c.163.261.342.5.531.748.084.111.17.225.254.34a3.239,3.239,0,0,0,.535.556,2.611,2.611,0,0,1,.628.711,1.905,1.905,0,0,1,.161.508,1.153,1.153,0,0,0,.418.8,1.307,1.307,0,0,0,.227.108c.053.019.11.045.172.073a1.822,1.822,0,0,0,.257.1c.249.062.507.114.756.164.222.044.45.09.67.143a1.172,1.172,0,0,0,.272.029c.112,0,.226-.011.337-.022s.224-.021.338-.021a1.038,1.038,0,0,1,.527.122c1.085.616,1.085.616,1.467.656h.191a3.818,3.818,0,0,1,1.938,1.123,3.429,3.429,0,0,0,2.259,1.146l.087,0C21.143,44.4,21.351,44.225,21.547,44.225Zm32.073.121a4.886,4.886,0,0,1,.506.026.29.29,0,0,1,.129.072.53.53,0,0,1,.155.387.541.541,0,0,0,.15.384.756.756,0,0,0,.5.144,1.2,1.2,0,0,1,.3.04.955.955,0,0,1-.041,1.022c-.6,1.391-.6,1.391-.516,1.789a4.743,4.743,0,0,1-.471,3.384,6.3,6.3,0,0,1-.936,1.417,9.827,9.827,0,0,0-.65.877,4.944,4.944,0,0,0-.523,1.288,5.117,5.117,0,0,1-.412,1.084c-1.651,2.908-1.7,2.957-1.963,3.229a1.881,1.881,0,0,0-.466.706,1.394,1.394,0,0,0,.41.06,3.26,3.26,0,0,0,1.755-.693l1.312-.91,1.659-1.309a4.476,4.476,0,0,0,.457-.589,3.8,3.8,0,0,1,.54-.668,4.353,4.353,0,0,1,.69-.469,4.625,4.625,0,0,0,.835-.583,12.8,12.8,0,0,0,2.191-3.307,13.2,13.2,0,0,1,2.274-3,12.213,12.213,0,0,0,1.782-3.409.6.6,0,0,0-.186-.039,1.881,1.881,0,0,0-.279.038c-.068-.093-.068-.093.072-1.294a9.619,9.619,0,0,0-.062-1.328c0-.461.034-.928.066-1.379a12.814,12.814,0,0,0,.037-2.066l-.31-3.635c.072.118.072.118.15.639a.57.57,0,0,0,.165-.291,14.783,14.783,0,0,1,.184,5.244,25.8,25.8,0,0,0-.137,2.986l.008,0a.94.94,0,0,1,.331-.124.466.466,0,0,1,.1.016l.028-.059a19.026,19.026,0,0,0,.79-1.758c0,.017,0,.034,0,.049l0-.028c0-.025.007-.05.012-.078l0,.017a.938.938,0,0,1,.018-.1c.009-.041.018-.08.022-.114v-.1l.088-.633,0-.035c.036-.291.08-.652.144-1.577a3.272,3.272,0,0,1-.107.59c-.062-.128-.062-.128,0-1.155-.031.327-.031.327-.052.47a15.19,15.19,0,0,1,0-2.707l0-.012a13.075,13.075,0,0,1,.161,2.8v-.005c0,.006,0,.012,0,.019s0-.008,0-.012v.142c.008-.25.018-.517.029-.8.026-.66.052-1.342.049-1.913-.012-.208-.023-.434-.035-.669-.035-.695-.075-1.482-.141-2.1l-.02-.139c-.027-.188-.052-.365-.081-.535l.029.092c-.046-.45-.13-.9-.211-1.328l.022.148c.046.306.1.652.155,1.063a20.609,20.609,0,0,1-.607-3.085v.03c-.966-3.169-.966-3.169-.981-3.322a18.115,18.115,0,0,0-.956-2.316l-1.034-2L60.74,22.9l-.36-.6c-.31-.515-.662-1.1-.962-1.526l-.024-.033a27.794,27.794,0,0,0-2.948-3.663l-1.2-1.2a1.426,1.426,0,0,0-.134-.123,7.354,7.354,0,0,0,.569.608,2.7,2.7,0,0,1-.248-.184,2.8,2.8,0,0,0,.589.593l-.046.03c-.4-.324-.782-.686-1.15-1.037s-.763-.727-1.174-1.057a11.871,11.871,0,0,0,1.146.8,12.123,12.123,0,0,0-2.228-1.789,4.145,4.145,0,0,1-.739-.511l.114.045a2.339,2.339,0,0,0-.274-.184l-.041.036a2.749,2.749,0,0,1-.564-.333l.119.041a2.541,2.541,0,0,0-.868-.511.656.656,0,0,0,.185.275.93.93,0,0,1-.325-.225.963.963,0,0,0-.32-.224.442.442,0,0,0,.117.151.47.47,0,0,1,.11.136c-.093.2-.093.2-.077.328a9.869,9.869,0,0,0,.626,1.231c.463.7.426.931.424.941-.083.628-.083.628-.434.879-.128.086-.125.131-.057.3.008.018.8,1.838,1.591,1.838a.514.514,0,0,0,.217-.049c.278-.126.14-.577.074-.793a19.013,19.013,0,0,1,1.906,2.04c.127.219.259.445.516.445a1.654,1.654,0,0,0-.077-.961c-.342-.635-.262-.706-.088-.863,0-.148,0-.21-.46-.511-.315-.2-.315-.2-.734-.874a.572.572,0,0,1-.042-.383.491.491,0,0,0-.093-.445c-.62-.633-.62-.633-.635-.675l-.036-.077a.409.409,0,0,1,.031-.046,3.225,3.225,0,0,1,1.034.736h-.062c.6,1.319.6,1.319,1.162,1.84a2.128,2.128,0,0,0,.932.456,1.908,1.908,0,0,1,.81.382,1.48,1.48,0,0,1-.238-.092l-.047.03a1.262,1.262,0,0,0,.109.163,5.779,5.779,0,0,0-.863-.24A10.485,10.485,0,0,1,56.607,19.3c-.158,0-.245-.113-.33-.223s-.173-.223-.331-.223h-.031l-.036.051s.392.709.434.761.315.4.3.552h-.238c-.022,0-.031.048-.04.1a.469.469,0,0,1-.022.091l.031.041c-.457-.031-.684-.046-.8-.046s-.116.015-.118.046l-.129.077a2.3,2.3,0,0,0-.65-.22l.412.072a.93.93,0,0,0-.564-.192l-.066,0c-.12,0-.145,0-.486-.373a1.772,1.772,0,0,1-.516-1.023c0-.152-.219-.757-.382-.777,0,0-.318,0-.4.117a.112.112,0,0,0-.01.108,10.431,10.431,0,0,0,1.07,1.636c.171.194.181.223.186.239a.01.01,0,0,1,0,.009c-.009.014-.058.028-.154.043l-.3.051-.088.123H53.27c-.41,0-.418.007-.539.118a4.927,4.927,0,0,0,.232.813l-.077.137a1.193,1.193,0,0,0-.631.072,2.18,2.18,0,0,0,.176.445,1.568,1.568,0,0,1-.341.163.883.883,0,0,1-.072.323c-.029,0-.058,0-.086,0a1.043,1.043,0,0,1-.652-.228,3.243,3.243,0,0,0,.185.281l-.051.153c-.053.02-.2.077-.315.107a.781.781,0,0,0-.476-.161.79.79,0,0,0-.113.008l-.067.143.3.26-.124.093A2.462,2.462,0,0,1,52.079,24.1a2.417,2.417,0,0,1,.363,1.739,13.322,13.322,0,0,1-1.629-.247c-.445-.087-.905-.176-1.368-.224a1.7,1.7,0,0,0,.2.266c0,.028.114,2.7.455,2.8-.093.823-.093.823-.109.9a3.393,3.393,0,0,1,1.152,0c.119.471.119.471.124.481l1.648-.542A.485.485,0,0,0,53.3,29a.793.793,0,0,0-.063-.74c.264-1.075.277-1.08.956-1.339,0-.869,0-.869.083-.925a.332.332,0,0,1,.216-.086.668.668,0,0,1,.314.119.68.68,0,0,0,.322.121c.2-.345.373-.576.587-.576a.493.493,0,0,1,.323.156,22.616,22.616,0,0,1,2.552,3.368c.071.23.1.363.041.451-.083.13-.345.166-.919.244a4.911,4.911,0,0,0,.78.828.8.8,0,0,0-.007-.419.959.959,0,0,1-.025-.352h.145a1.625,1.625,0,0,0,.155-.308,1.889,1.889,0,0,1,.129-.27,1.692,1.692,0,0,1-.139-.68l.144-.035.2.26c-.052-.235-.052-.235-.832-1.16A1.316,1.316,0,0,0,58.3,27.5c-.366-.158-.654-.283-1.633-2.264a.585.585,0,0,1,.227-.184l2.212,2.556.666,1.886.7,1.59v-.307a5.7,5.7,0,0,0-.222-1.094c-.238-1.181-.238-1.181-.124-1.268a1.154,1.154,0,0,1,.76.654,2.914,2.914,0,0,0,.124-.281h.16a3.535,3.535,0,0,0-.256-1.564,3.638,3.638,0,0,1-.262-1.5.441.441,0,0,1,.28,0l-.062.133a1.038,1.038,0,0,0,.351.291.809.809,0,0,1,0,.511,5.655,5.655,0,0,1,.331.51c.295-.169.169-.415.035-.676a.781.781,0,0,1-.139-.586.569.569,0,0,1,.121-.016c.131,0,.168.079.22.22l-.077.138c.083.128.083.128.2.593l-.083.123a5.874,5.874,0,0,0,.509.912A3.171,3.171,0,0,1,63.03,29.7l-.129.072a1.289,1.289,0,0,1-.375-.534c-.147-.3-.286-.589-.615-.589a.7.7,0,0,0-.173.024.515.515,0,0,1-.109.266,2.1,2.1,0,0,0-.295-.082.532.532,0,0,0,.14.24.506.506,0,0,1-.319.1.652.652,0,0,0-.255.052,1.7,1.7,0,0,0,0,.333l.139.04a3.3,3.3,0,0,0,.895,2.142l.1-.108v-.148a1.214,1.214,0,0,1,.242.3.924.924,0,0,0,.317.348,1.434,1.434,0,0,0,.067-.3.806.806,0,0,0,.248.163c.113,2.08.131,2.4-.1,2.965-.307,0-.353-.091-.45-.378a.432.432,0,0,0-.259.1c-.493-.035-.726-.408-.951-.769s-.477-.764-1.012-.764a1.184,1.184,0,0,0-.112.6,1.423,1.423,0,0,1-.064.5l-.144.056c-.221-.161-2.531-2.241-2.693-2.5a.323.323,0,0,1,.072-.323c.124-.194.124-.194.031-1.426a5.162,5.162,0,0,0-.455-.27.372.372,0,0,1-.258.11,4.558,4.558,0,0,1-.775-.152,1.941,1.941,0,0,0-.207.25,1.357,1.357,0,0,0-.493-.091,2.932,2.932,0,0,0-1.065.279,2.947,2.947,0,0,1-1.068.28,1.348,1.348,0,0,1-.444-.073H52.3a1.281,1.281,0,0,1-.239.034c-.162,0-.285-.084-.5-.346l-.067-.045a.972.972,0,0,0-.134.123.724.724,0,0,0-.129.429.715.715,0,0,1-.124.419,1.173,1.173,0,0,1-.405.26,1.264,1.264,0,0,0-.541.384.493.493,0,0,0-.043.294c0,.038,0,.074,0,.105-.072,1.308-.072,1.308-.429,1.482a3.752,3.752,0,0,0-.935.685c-.2.308-1.65,2.8-1.664,2.821a2.485,2.485,0,0,0,.2,1.024,2.892,2.892,0,0,1,.2.868,1,1,0,0,1-.289.6c-.187.237-.381.482-.228.844a19.013,19.013,0,0,0,.866,1.828c.158.3.321.618.472.932a5.984,5.984,0,0,0,1.854,1.692h.007a13.981,13.981,0,0,0,1.447-.237A10.23,10.23,0,0,1,53.621,44.346Zm5.053,9.623-.238.243c-.567.745-.581.75-.953.888-.317.117-.386.221-.676.66-.054.081-.114.173-.184.277a1.97,1.97,0,0,1-.516.586,10.05,10.05,0,0,0-1.643,1.862h.027c.227,0,.262-.035,1.171-.924.491-.483.954-1.005,1.4-1.511.255-.288.518-.586.786-.875l-.067.132h.008c.024,0,.03-.011.091-.115A7.4,7.4,0,0,0,58.674,53.97ZM24.833,41.128a.321.321,0,0,0-.074.009.116.116,0,0,0-.054.128.38.38,0,0,0,.3.232c.029,0,.062,0,.1,0a1.507,1.507,0,0,0,.506-.088c0-.027,0-.085-.351-.19A1.728,1.728,0,0,0,24.833,41.128Zm-3.45-.458-.082,0a1.422,1.422,0,0,0,.448.188,1.478,1.478,0,0,1,.363.139c.049.028.056.084.062.139.008.07.017.143.119.152.144,0,.2-.1.262-.193s.106-.172.219-.182a.51.51,0,0,1,.134,0,10.732,10.732,0,0,0,1.147.1c.036,0,.062,0,.062-.048a.463.463,0,0,0-.034-.15.353.353,0,0,1-.028-.2.129.129,0,0,0-.029-.114c-.246-.313-1.745-.448-1.966-.448l-.035,0c-.031,0-.037,0-.051.026s0,.03.017.047l.014.011a.584.584,0,0,1,.186.619.964.964,0,0,1-.419-.032A1.564,1.564,0,0,0,21.383,40.67Zm-1.462-.3-.048,0a.147.147,0,0,0-.087.149.256.256,0,0,0,.117.216.934.934,0,0,0,.276.045.251.251,0,0,0,.179-.049.091.091,0,0,0,.025-.069A.52.52,0,0,0,19.921,40.368Zm-.59-2.114c0,.2.329.278.547.333.379.1.412.18.51.42l.008.019a.977.977,0,0,0,.145.307.453.453,0,0,1,.1.169.243.243,0,0,1-.138.137.273.273,0,0,0-.1.075,1.709,1.709,0,0,0,.854.231,1.67,1.67,0,0,0,.412-.051c0-.062-1.371-1.693-1.385-1.7a1.616,1.616,0,0,0-1.365-.238,2.021,2.021,0,0,0-.754.465.939.939,0,0,0,.143.011.921.921,0,0,0,.534-.169.868.868,0,0,1,.427-.132c.153,0,.246.059.261.1a.046.046,0,0,1,0,.044.078.078,0,0,1-.066.026A.269.269,0,0,1,19.331,38.253ZM62.369,32.6a.043.043,0,0,0-.026.009.543.543,0,0,0,.1.424.2.2,0,0,0,.057.063.618.618,0,0,0,.08,0,.658.658,0,0,0,.08,0,2.607,2.607,0,0,0,.051-.36v-.042a.109.109,0,0,0-.027.007.344.344,0,0,1-.1.024.162.162,0,0,1-.088-.031c-.02,0-.037-.02-.055-.041a.176.176,0,0,0-.048-.044A.043.043,0,0,0,62.369,32.6Zm1.582-1.323h0c.056.39.128.771.209,1.194a20.3,20.3,0,0,0-.656-3.084l-.03-.095c-.05-.157-.1-.3-.141-.433.337,1.185.362,1.288.5,1.861l.019.079c-.011-.037-.02-.071-.029-.1l-.007-.028.134.618A.047.047,0,0,1,63.951,31.277Zm-3.246.535a.065.065,0,0,0-.06.029.108.108,0,0,0,.013.1,1.365,1.365,0,0,0,.832.386c-.028-.035-.064-.081-.1-.128-.1-.127-.162-.211-.164-.216a.269.269,0,0,0-.109-.068,2.181,2.181,0,0,1-.253-.053Zm2.057-4.652h0c.116.339.249.759.418,1.29l.141.444-.01-.034c-.018-.059-.039-.125-.059-.2l.013.025.011.022c-.016-.059-.037-.118-.056-.175a2.2,2.2,0,0,1-.079-.269l.009.022.009.022.035.1c-.008-.028-.018-.058-.035-.1l-.328-.986A.7.7,0,0,0,62.761,27.16Zm-6.289.343a.615.615,0,0,0-.429.264.756.756,0,0,0-.015.534.175.175,0,0,0,.08.043c.046.015.093.031.106.095a.7.7,0,0,1,0,.193c0,.03,0,.061,0,.093a.115.115,0,0,0,.1.1c.044,0,.372-.073.382-.345a.6.6,0,0,0,0-.1.682.682,0,0,0-.036-.19.984.984,0,0,1-.031-.126,1.316,1.316,0,0,1,0-.231c0-.04,0-.08,0-.119A.216.216,0,0,0,56.472,27.5Zm-2.213.473c-.066,0-.224.007-.255.069a.075.075,0,0,0,.019.079.65.65,0,0,0,.372.164.112.112,0,0,0,.067-.037,1.527,1.527,0,0,0,.129-.159.316.316,0,0,0-.232-.111C54.328,27.977,54.293,27.976,54.259,27.976Zm1.862-1.713h0V26.3a1.774,1.774,0,0,0,0,.328.225.225,0,0,1-.1.222.113.113,0,0,0-.041.105.366.366,0,0,0,.047.085c.01.012.248.3.263.307a3.361,3.361,0,0,0-.046-.7A1.538,1.538,0,0,0,56.121,26.263ZM7.485,24.531a2.508,2.508,0,0,0-.321,1.058l.016.005c.042-.1.075-.21.107-.314.027-.089.056-.18.089-.268s.056-.145.075-.191.037-.092.059-.153v-.042s.025-.074.012-.092a.009.009,0,0,0-.008,0h-.03Zm22.786-.974a.169.169,0,0,1,.126.057.428.428,0,0,1,.072.264c0,.063.023.1.067.1.133,0,.284-.273.3-.476a1.918,1.918,0,0,0-.476-1.137c-.072-.077-.105-.113-.192-.113a2.292,2.292,0,0,0-.4.075.445.445,0,0,1-.08.009c-.076,0-.1-.041-.122-.131-.063-.233-.124-.267-.2-.312-.033-.019-.049-.03-.049-.038s.007-.011.017-.019a.25.25,0,0,0,.032-.027,1.752,1.752,0,0,1,.124-.169c.2-.268.279-.436.254-.528H29.7a2.229,2.229,0,0,0-.6.56,5.121,5.121,0,0,0-.37.552,5.766,5.766,0,0,1-.333.506,2.1,2.1,0,0,1-.216.226,1.775,1.775,0,0,0-.244.265c-.04.054-.018.078-.006.092s.006.006.006.009a3.5,3.5,0,0,0,.772.085h.044a5.89,5.89,0,0,1,1.127.174c.047.015.091.027.134.037a.427.427,0,0,0,.129-.028A.422.422,0,0,1,30.271,23.557ZM26.2,22.482a.379.379,0,0,0-.061,0c-.029.011-.044.027-.045.047,0,.1.341.253.344.255a.971.971,0,0,0,.41.11.356.356,0,0,0,.287-.11.056.056,0,0,0-.009-.053A1.855,1.855,0,0,0,26.2,22.482Zm23.8-1.5a.237.237,0,0,0-.179.082.49.49,0,0,0-.108.175.563.563,0,0,1-.083.148,1.255,1.255,0,0,1-.173.15,1.755,1.755,0,0,0-.178.151v.037h.091a3.645,3.645,0,0,0,.809-.091,4.714,4.714,0,0,1,.574-.031,3.927,3.927,0,0,0,.707-.053l.729-.249a.235.235,0,0,0-.181-.072.852.852,0,0,0-.1.009.979.979,0,0,1-.106.008.294.294,0,0,1-.124-.024.5.5,0,0,1,.02-.325.518.518,0,0,0,.021-.33c-.129-.341-.262-.388-.387-.388h-.043c-.287,0-.474-.387-.475-.391l.238.047a.763.763,0,0,0,.2.056.034.034,0,0,0,.027-.008.018.018,0,0,0,0-.015.514.514,0,0,0-.114-.116,10.972,10.972,0,0,1-1.09-.725,3.112,3.112,0,0,0-.44-.465,1.531,1.531,0,0,0-.754-.254,1.013,1.013,0,0,0,.194-.839.273.273,0,0,0-.266-.186c-.043,0-.086,0-.129,0s-.086,0-.129,0a2.612,2.612,0,0,1-.286.031c-.074,0-.089-.021-.092-.062a.631.631,0,0,1,.07-.217c.044-.1.09-.2.059-.263a.106.106,0,0,0-.082-.05c-.006,0-.621,0-.708.238a.124.124,0,0,0,0,.074c.024.042.05.084.076.125a1.132,1.132,0,0,1,.192.43.814.814,0,0,1-.029.184.508.508,0,0,0-.008.3h.009a.585.585,0,0,0,.364-.163.326.326,0,0,1,.165-.095.073.073,0,0,1,.037.01c.131.075.095.194.059.308a.3.3,0,0,0-.018.221.688.688,0,0,0,.569.476,1.56,1.56,0,0,1,.475.159v.174a1.22,1.22,0,0,0,.169.229,1.079,1.079,0,0,1,.182.257c.017.038.02.066.01.083a.057.057,0,0,1-.051.02.925.925,0,0,1-.3-.1c-.072-.037-.072-.037-.279-.052a.83.83,0,0,0,.2.284.716.716,0,0,1,.208.334c.03.143-.1.217-.285.307a.121.121,0,0,0-.09.059.057.057,0,0,0,0,.059c.024.041.07.117.441.117h.075c.186,0,.574,0,.584.111a.1.1,0,0,1-.019.078c-.032.036-.1.038-.193.038A.236.236,0,0,0,50,20.983ZM47.33,18.835v0a.373.373,0,0,1-.058.039,1.124,1.124,0,0,0-.414.275.283.283,0,0,0-.077.254.288.288,0,0,0,.15.169,1.265,1.265,0,0,0,.274.058,3.224,3.224,0,0,0-.2.661.451.451,0,0,0,.036.328c.013.025.088.041.2.041a1.345,1.345,0,0,0,.677-.184,1.806,1.806,0,0,1,.248-.164.339.339,0,0,1,.121-.03.225.225,0,0,0,.194-.1c.055-.089.033-.159,0-.274-.015-.048-.032-.1-.048-.17a1.123,1.123,0,0,0-.14-.264.249.249,0,0,1-.036-.307.4.4,0,0,0,.036-.275.452.452,0,0,0-.191-.248.962.962,0,0,0-.155-.037,1.173,1.173,0,0,0-.162-.064,1.219,1.219,0,0,1-.158-.062.347.347,0,0,1-.114-.074s-.4.1-.416.253c-.008.057.038.114.137.17a.193.193,0,0,0,.1,0Zm-25.5-1.805-.045,0a.773.773,0,0,0-.29.116.248.248,0,0,0,0,.28.031.031,0,0,0,.025.011c.093,0,.328-.261.362-.35a.047.047,0,0,0,0-.044C21.873,17.035,21.856,17.029,21.827,17.029Zm-.8-.147a.4.4,0,0,0-.069.007,1.98,1.98,0,0,0-.564.2.278.278,0,0,0-.077.2.109.109,0,0,0,.026.082.017.017,0,0,0,.013,0,1.8,1.8,0,0,0,.711-.41c.015-.019.03-.045.021-.064S21.064,16.882,21.031,16.882Zm-.394-1.3a3.305,3.305,0,0,0-.4.481l-.119.19-.326.529c.191,0,.191,0,.207.116,0,.035.006.06.008.078,0,.041,0,.044.028.044a.694.694,0,0,0,.186-.138,1.361,1.361,0,0,1,.7-.381.463.463,0,0,1,.053,0,1.013,1.013,0,0,1,.186.023,1.035,1.035,0,0,0,.191.024.441.441,0,0,0,.143-.023.1.1,0,0,0,.051-.047.178.178,0,0,0-.041-.169.724.724,0,0,0-.078-.059.585.585,0,0,1-.088-.069.655.655,0,0,1-.064-.09.864.864,0,0,0-.158-.2l-.047-.037a.511.511,0,0,0-.155-.052.479.479,0,0,1-.155-.054.174.174,0,0,1-.076-.1A.114.114,0,0,0,20.637,15.583Zm10.325-3.875a.377.377,0,0,1,.157.035.481.481,0,0,1,.306.331.45.45,0,0,1-.048.293.917.917,0,0,1-.353.226.822.822,0,0,0-.386.271,1.2,1.2,0,0,0-.119.8c.031.115,1.441,2.554,2.113,2.787a11.268,11.268,0,0,0,1.6.257c.158,0,.19-.039.234-.093a9.158,9.158,0,0,0,.485-1.792,1.022,1.022,0,0,0,0-.285.679.679,0,0,1,.054-.418c.067-.117.07-.121.516-.254,1.328-.407,1.328-.407,1.365-.666s.058-.413.295-.529a4.593,4.593,0,0,1,.912-.323A4.593,4.593,0,0,0,39,12.023a5.6,5.6,0,0,0,.692-.381s.113-.087,0-.264a1.976,1.976,0,0,0-.331-.318,1.669,1.669,0,0,1-.356-.359,3.392,3.392,0,0,1-.2-.576c-.1-.216-.052-.274.067-.4a.149.149,0,0,0,.052-.123c-.011-.085-.113-.181-.342-.322-1.1-.667-1.111-.683-1.2-.83V8.406h.056a.917.917,0,0,0-.491-.2c-.269-.055-.547-.111-.64-.479L36.2,7.67v-.1h.038c-.126,0-.427-.033-.525-.043l-.035,0h-.063a3.467,3.467,0,0,0-.635.059.491.491,0,0,1-.084.007,1,1,0,0,1-.312-.068,1.087,1.087,0,0,0-.286-.067H32.97c-.517.032-.517.032-.59.074a4.49,4.49,0,0,0-.847.084,1.9,1.9,0,0,1,.435.053h-.4c-.065-.005-.131-.008-.2-.008s-.131,0-.2.008a8.315,8.315,0,0,0-2.321.6,1.208,1.208,0,0,0,.259.011,1.541,1.541,0,0,1-.739.349c-.01,0-1.034.318-1.1.376a.25.25,0,0,0-.045.269c.1.2.491.26.5.26.918-.068,1.329-.091,1.569-.091.277,0,.316.034.38.091.009.01.844.969.574,1.481-.11.209-.109.217-.1.243,0,.062.045.092.094.124a.213.213,0,0,1,.093.093.572.572,0,0,1,.021.154.67.67,0,0,0,.062.3.932.932,0,0,0,.23-.1A.666.666,0,0,1,30.962,11.708ZM15.2,15.567h.01a.517.517,0,0,1-.1.149.633.633,0,0,0-.09.121,4.96,4.96,0,0,0,1.4-.761,1.073,1.073,0,0,1,.295-.211.6.6,0,0,0-.047.1,1.961,1.961,0,0,0,.357.105c.294-.1.294-.1.584-.428H17.6c-.026,0-.052.014-.3.147a.687.687,0,0,1,.516-.313h.109c.01,0,.033-.02.055-.047a.293.293,0,0,0,.074-.223.346.346,0,0,1-.171-.222.179.179,0,0,1,.031-.149,8.053,8.053,0,0,0,.7-.957.767.767,0,0,0-.093-.032v-.031a5.937,5.937,0,0,1-.842.815.2.2,0,0,1,.08-.195.331.331,0,0,0,.075-.1h-.026a3.42,3.42,0,0,1-.392.185.506.506,0,0,1,.067-.078.424.424,0,0,0,.078-.1,1.127,1.127,0,0,0-.286.153,1.347,1.347,0,0,1-.231.133.956.956,0,0,1,.241-.22,1.21,1.21,0,0,0,.194-.162,7.063,7.063,0,0,0-1.547,1.1c-.037.045-.054.079-.05.1a.2.2,0,0,1,.056.037c0,.047,0,.047-.206.158-.294.187-.315.226-.315.27a.066.066,0,0,0,.056,0,.959.959,0,0,0,.243-.094,1.035,1.035,0,0,1,.227-.091.465.465,0,0,1,.106-.013.629.629,0,0,1,.1.009h.005a.58.58,0,0,0,.088.009.288.288,0,0,0,.06-.006,1.912,1.912,0,0,1-.615.291c-.569.168-.773.41-.771.531a.07.07,0,0,0,.053.072.359.359,0,0,0,.124-.028A.32.32,0,0,1,15.2,15.567ZM17.484,12.9c-.382.164-.382.164-2.067,1.587a1.184,1.184,0,0,0-.382.481,5.6,5.6,0,0,0,1-.836h.036c.07-.05.135-.1.2-.162a2.815,2.815,0,0,1,.312-.235c.144-.1.294-.2.438-.289.172-.109.349-.222.518-.346.067-.053.067-.053.16-.227a1.1,1.1,0,0,0-.279.153c.078-.069.078-.069.093-.127h-.036Zm24.068,1.749c.059,0,.119,0,.178.008a.933.933,0,0,1,.245.045,1.081,1.081,0,0,0,.215.044h.077a3.206,3.206,0,0,0,.569-.11c.382-.1.993-.526.961-.672a.312.312,0,0,0-.07-.147.194.194,0,0,1-.044-.081.076.076,0,0,1,0-.063c.011-.015.034-.016.058-.016h.016a.618.618,0,0,0-.254-.232h-.067a4.566,4.566,0,0,1-.543-.08.7.7,0,0,1-.13-.076.4.4,0,0,0-.227-.094h-.009a.934.934,0,0,0-.28.08,1.677,1.677,0,0,1-.237.079,4.133,4.133,0,0,0-.516.084c-.055.02-.06.067-.066.113a.122.122,0,0,1-.048.1.106.106,0,0,1-.053.013.3.3,0,0,1-.076-.014.312.312,0,0,0-.078-.014.114.114,0,0,0-.057.014l-.046.031a.459.459,0,0,0,.007.165.269.269,0,0,1-.07.29,2.366,2.366,0,0,1-.485-.46.907.907,0,0,0-.715-.35.292.292,0,0,0-.185.049.213.213,0,0,0,.154.125.263.263,0,0,1,.131.081c-.027.115-.116.154-.2.193a.362.362,0,0,0-.171.12.708.708,0,0,0,.346,0,.26.26,0,0,1,.044,0c.16,0,.433.1.484.24.025.07,0,.141-.089.212a.2.2,0,0,0,.166.08.669.669,0,0,0,.109-.012h.006a.669.669,0,0,1,.11-.012.221.221,0,0,1,.1.02c.16.074.165.1.165.254.02.017.039.03.108.03a2.293,2.293,0,0,0,.291-.03C41.433,14.647,41.493,14.645,41.552,14.645ZM23.99,13.85a.2.2,0,0,0-.035,0s-.389.1-.46.28c-.042.1.12.361.186.4a.076.076,0,0,0,.041.013c.151,0,.319-.442.32-.447.039-.108.045-.182.018-.221A.08.08,0,0,0,23.99,13.85Zm-4.546-1.314a.806.806,0,0,0-.336.216v.027a.283.283,0,0,0,.021.067.607.607,0,0,1,.036.112.362.362,0,0,1,0,.074v.132a.045.045,0,0,0,.035.011,2.567,2.567,0,0,0,.926-.54c.037-.038.129-.222.107-.275a.024.024,0,0,0-.024-.015,1.337,1.337,0,0,0-.248.069c.086-.058.179-.109.269-.158s.167-.091.248-.144a2.308,2.308,0,0,0,.259-.127H20.6l-.315.063a2.043,2.043,0,0,0-.6.313h.1a.026.026,0,0,1,.026.022.048.048,0,0,1-.026.052,2.8,2.8,0,0,1-.372.28h-.051a.155.155,0,0,1,.044-.1A.143.143,0,0,0,19.444,12.536Zm-.2-.164h0a.852.852,0,0,0-.387.222h.076s0,0,0,.007a.166.166,0,0,0-.008.055.173.173,0,0,1-.016.067c0,.01-.007.017,0,.02l0,0,.016,0a1.624,1.624,0,0,0,.315-.243c.073-.063.105-.1.1-.118s-.009-.009-.022-.009h-.072Zm.018-.409v0a7.187,7.187,0,0,1-.815.439c-.077.021-.1.049-.1.068s.012.02.029.022a1.392,1.392,0,0,0,.311-.148,8.413,8.413,0,0,1,.785-.418,4.308,4.308,0,0,0,.517-.2c.093-.045.368-.239.516-.344.063-.044.1-.067.1-.068.089-.066.1-.079.107-.093H20.7a.275.275,0,0,0-.127.033,2.177,2.177,0,0,0-.223.153,2.3,2.3,0,0,1-.2.139c.084-.086.177-.166.267-.244a3.715,3.715,0,0,0,.307-.285c-.028.014-.61.318-.626.4-.025.138-.212.25-.558.334l.036-.043a.371.371,0,0,1,.1-.062c.053-.028.109-.057.116-.1a.064.064,0,0,0-.02-.054c-.011.006-1.246.613-1.256.788l.594-.334a.423.423,0,0,1-.169.147.879.879,0,0,0-.084.054l.165-.079A1.839,1.839,0,0,1,19.267,11.963Zm11.605.056a.26.26,0,0,0-.07.009c-.095.019-.343.149-.366.276a.106.106,0,0,0,.061.11.3.3,0,0,0,.1.018.278.278,0,0,0,.064-.008l.3-.063s.078-.033.093-.09a.078.078,0,0,0,0-.079.179.179,0,0,0-.065-.062.219.219,0,0,1-.048-.039.093.093,0,0,1,0-.064A.267.267,0,0,0,30.872,12.019Zm-11.824-.213a7.169,7.169,0,0,0-.63.392A2.786,2.786,0,0,0,19.048,11.806Zm1.325-.828a.046.046,0,0,0-.018,0A18.739,18.739,0,0,0,18.4,12.129a.411.411,0,0,0,.244-.119.764.764,0,0,1,.134-.092l-.031.043a3.971,3.971,0,0,0,.5-.3c.113-.076.23-.155.351-.225-.3.19-.3.19-.315.211l1.034-.592a.3.3,0,0,0,.077-.069A.047.047,0,0,0,20.373,10.978Zm3.912.262a1.288,1.288,0,0,0-.171.011c-.13.02-.171.073-.182.115a.178.178,0,0,0,.058.166.293.293,0,0,0,.179.047,1.844,1.844,0,0,0,.68-.194l.015-.007A1.285,1.285,0,0,0,24.285,11.24Zm-2.862-.134v0l-.008,0a2.009,2.009,0,0,0-.5.351s.47-.174.516-.211a2.335,2.335,0,0,0,.3-.254v.037c.124-.116.124-.116.444-.392.067-.053.072-.058.083-.079h-.047s-.418.128-.46.153l.016.037c0,.027-.028.06-.053.089l-.014.017a.73.73,0,0,1-.175.158.177.177,0,0,1,.025-.076.3.3,0,0,0,.016-.035q0-.027,0-.053a.319.319,0,0,0-.227.122h.036a2.515,2.515,0,0,1-.445.211H21a.01.01,0,0,1,.009,0c.005.008,0,.025-.006.035a.037.037,0,0,0,0,.008.239.239,0,0,0,.054-.014C21.108,11.2,21.214,11.169,21.423,11.105Zm.818-.2a4.275,4.275,0,0,0-.579.312c-.031.023-.051.039-.051.056s.016.031.051.055a.425.425,0,0,0,.1.011.434.434,0,0,0,.326-.148c.065-.058.229-.219.213-.271a.023.023,0,0,0-.022-.015Zm.67-.392h0a.025.025,0,0,1,.009.019c.005.064-.127.239-.134.245a.792.792,0,0,1-.163.114.713.713,0,0,0-.183.134c-.09.1-.127.159-.115.185s.03.017.056.017h.008c.021,0,2.14-.228,2.692-.788.033-.032.044-.061.034-.086-.032-.078-.259-.093-.261-.093a8.331,8.331,0,0,0-1.338.413.226.226,0,0,1-.088.019.216.216,0,0,1-.189-.111.044.044,0,0,1,0-.046.05.05,0,0,1,.044-.022.113.113,0,0,0,.07-.026c.182-.053.214-.108.209-.145a.093.093,0,0,0-.074-.066,1.262,1.262,0,0,0-.248.058h-.3a1.244,1.244,0,0,0-.191.031.686.686,0,0,0-.216.243.489.489,0,0,0,.129-.031.7.7,0,0,1,.253-.064Zm-1.951.577a.064.064,0,0,0,.024,0,.6.6,0,0,0,.307-.141c.091-.047.1-.076.1-.089a.023.023,0,0,0-.022-.017l-.021,0-.021,0a.968.968,0,0,0-.176.084l-.191.159Zm-.11-.309v0c-.075.046-.15.1-.222.148a3.813,3.813,0,0,0,.579-.27.106.106,0,0,0,.02-.037l.176-.084.176-.079h-.036a3.315,3.315,0,0,0-.672.309,1.041,1.041,0,0,0,.1-.081,1.035,1.035,0,0,0-.155.073c-.01.009-.029.027-.028.035A.147.147,0,0,0,20.852,10.783Zm1.3-.638a7.314,7.314,0,0,0-.848.381l.227-.09a1.142,1.142,0,0,1,.161-.079.49.49,0,0,0,.144-.048l.176-.084Zm2.815-.557h0c-.385,0-.409.16-.419.228a1.376,1.376,0,0,1-.3.139.964.964,0,0,0-.4.22v.032a2.113,2.113,0,0,0,.517-.079,1.725,1.725,0,0,0,.3-.1,1.2,1.2,0,0,1,.444-.116.6.6,0,0,1,.136.015c0,.058,0,.058-.093.111a.227.227,0,0,0,.047,0,1.336,1.336,0,0,0,.773-.378.114.114,0,0,0,.027-.1h-.078a2.469,2.469,0,0,1,.615-.4c.623-.154.837-.391.842-.444h-.031a3.914,3.914,0,0,0,1.034-.344.381.381,0,0,0-.075-.008.377.377,0,0,0-.075.008l1.37-.434a4.77,4.77,0,0,1-.486.063c.172-.048.35-.085.523-.121.149-.031.3-.062.454-.1l-.021,0a7.042,7.042,0,0,0-.8.065l-.02,0c-.008,0-1.261.218-1.551.323a.123.123,0,0,0,.046.042.412.412,0,0,1-.222,0,4.257,4.257,0,0,0-1.277.392c0,.023.014.035.054.035a2.67,2.67,0,0,0,.473-.1l-.264.1c.285-.07,1.181-.321,1.312-.36a13.133,13.133,0,0,1-1.55.47.409.409,0,0,0-.2.09.589.589,0,0,1-.135.291.285.285,0,0,0-.08-.01,2.494,2.494,0,0,0-.906.365.238.238,0,0,0,.078.015.172.172,0,0,1,.113.038h0a1.555,1.555,0,0,0,.412-.128,1.443,1.443,0,0,1-.519.214.1.1,0,0,1-.082-.036Zm-2.206.442a.535.535,0,0,1,.066,0c0,.024-.018.034-.037.045s-.04.023-.045.05a.01.01,0,0,0,0,.009.017.017,0,0,0,.014,0,.861.861,0,0,0,.208-.078l.03-.014a1.3,1.3,0,0,0,.34-.323h-.093c0-.007.011-.015.032-.027a.379.379,0,0,0,.1-.074,4.164,4.164,0,0,0-.584.249h.15c.009,0,.014,0,.015,0a.65.65,0,0,1-.167.066l-.013,0a1.506,1.506,0,0,0-.254.117h.041A.531.531,0,0,1,22.764,10.031Zm1.4-.234-.352.122c-.077.026-.156.046-.232.065s-.126.032-.186.051a.865.865,0,0,0-.18.069,4.17,4.17,0,0,0,.656-.122.882.882,0,0,0,.3-.158l.036-.027Zm-.409-.163h0a.2.2,0,0,0-.067.037.754.754,0,0,0-.094.086.487.487,0,0,1-.164.126l-.041.016c-.089.034-.16.06-.182.112.2-.07.391-.15.579-.238a.056.056,0,0,0,.062-.058c0-.009-.007-.01-.016-.012s-.026-.005-.026-.03V9.633ZM24.959,9.2A.1.1,0,0,1,25,9.2a1.118,1.118,0,0,1-.2.079,3.27,3.27,0,0,0-.445.159.146.146,0,0,0-.069.122A.042.042,0,0,0,24.3,9.6l.227-.063a2.223,2.223,0,0,0,.259-.032,2.2,2.2,0,0,0,.347-.179c.078-.046.159-.094.242-.134a1.607,1.607,0,0,1,.166-.056,1.258,1.258,0,0,0,.222-.081h-.1a.389.389,0,0,1,.067-.031c.17-.084.171-.09.176-.111a.008.008,0,0,0,0-.007.01.01,0,0,0-.008,0,.123.123,0,0,0-.027.005l-.022,0s0,0,.011-.012.078-.059.067-.1.026-.051.063-.065a.136.136,0,0,0,.067-.041H26.02a9.541,9.541,0,0,0-1.033.392H25.1a.891.891,0,0,1-.279.1.616.616,0,0,0-.347.19,1.872,1.872,0,0,0,.321-.137A.7.7,0,0,1,24.959,9.2ZM60.039,47.7a19.566,19.566,0,0,0-2-.7,11.2,11.2,0,0,1,2,.7ZM10.023,22.922v0c.255-.082.529-.164.813-.244l-.368.112C10.312,22.835,10.168,22.879,10.023,22.922Zm50.649-.11a4.112,4.112,0,0,0-1.022-.919,3.774,3.774,0,0,1,1.023.918Z" transform="translate(18395 7104.001)" fill="url(#linear-gradient-7)"/>
      <g id="Group_536" data-name="Group 536" transform="translate(18473.633 7124.078)">
        <path id="Intersection_9" data-name="Intersection 9" d="M137.137,21.416A8.664,8.664,0,0,1,133.4,18.1a9.3,9.3,0,0,1-1.3-4.929,13.169,13.169,0,0,1,1.69-6.649,12.149,12.149,0,0,1,4.758-4.666A14.244,14.244,0,0,1,145.584.15a12.555,12.555,0,0,1,5.145.993,7.334,7.334,0,0,1,3.38,2.851L150.482,6.97a5.917,5.917,0,0,0-5.239-2.542,7.931,7.931,0,0,0-4.217,1.116,7.652,7.652,0,0,0-2.836,3.038,9.066,9.066,0,0,0-1.008,4.279,5.156,5.156,0,0,0,1.6,3.983,6.366,6.366,0,0,0,4.479,1.472,7.541,7.541,0,0,0,5.766-2.511L152,18.843q-3.224,3.752-9.176,3.751A12.909,12.909,0,0,1,137.137,21.416Zm-99.278.5a11.925,11.925,0,0,1-3.782-1.736L36.122,16.3a11.563,11.563,0,0,0,3.348,1.674,12.566,12.566,0,0,0,3.813.589,6.7,6.7,0,0,0,3.286-.681,2.073,2.073,0,0,0,1.209-1.86,1.6,1.6,0,0,0-.96-1.472,16.457,16.457,0,0,0-3.069-1.1,31.212,31.212,0,0,1-3.442-1.193A6.253,6.253,0,0,1,38,10.535,4.527,4.527,0,0,1,37.021,7.5a6.39,6.39,0,0,1,1.225-3.875,7.722,7.722,0,0,1,3.472-2.573,13.994,13.994,0,0,1,5.223-.9A17.338,17.338,0,0,1,51.1.631a10.978,10.978,0,0,1,3.348,1.38L52.553,5.855A8.912,8.912,0,0,0,49.825,4.6a11.849,11.849,0,0,0-3.163-.418,6.555,6.555,0,0,0-3.379.744,2.2,2.2,0,0,0-1.24,1.922,1.547,1.547,0,0,0,.527,1.193,3.987,3.987,0,0,0,1.333.776q.806.294,2.263.7a25.6,25.6,0,0,1,3.41,1.131,6.19,6.19,0,0,1,2.279,1.674,4.292,4.292,0,0,1,.945,2.9,6.318,6.318,0,0,1-1.239,3.891,7.968,7.968,0,0,1-3.5,2.573,14.006,14.006,0,0,1-5.27.914A17.612,17.612,0,0,1,37.859,21.912Zm116.281.311L158.48.523h16.4l-.837,4.029H162.665l-.931,4.712H171.81l-.775,3.906H160.929l-.993,5.022h11.842l-.837,4.03Zm-32.891,0,4.34-21.7h5.053l-4.34,21.7Zm-16.12,0L100.076.523h5.177l3.5,15.468L118.583.523h5.207l-13.733,21.7Zm-15.377,0-3.41-6.076H82.065l-1.209,6.076H75.8l4.34-21.7h8.835A9.859,9.859,0,0,1,95.24,2.29a5.967,5.967,0,0,1,2.232,4.96,8.381,8.381,0,0,1-1.643,5.208,8.767,8.767,0,0,1-4.557,3.069l3.782,6.7ZM82.84,12.147h4.278A5.921,5.921,0,0,0,91.008,11a4.033,4.033,0,0,0,1.38-3.286,2.7,2.7,0,0,0-1.054-2.326,5.014,5.014,0,0,0-3.007-.775H84.359ZM55,22.223l4.34-21.7h16.4L74.9,4.552H63.527L62.6,9.265H72.671L71.9,13.171H61.79L60.8,18.193H72.641l-.837,4.03Zm-55.025,0L4.316.523H14.8a9.545,9.545,0,0,1,5.394,1.286A4.179,4.179,0,0,1,22.08,5.483a5.566,5.566,0,0,1-1.039,3.394A6.523,6.523,0,0,1,18.2,11.031a4.385,4.385,0,0,1,2.914,4.341,5.714,5.714,0,0,1-2.666,5.115,12.846,12.846,0,0,1-7.1,1.736Zm5.766-3.782h5.921a5.766,5.766,0,0,0,3.286-.806,2.645,2.645,0,0,0,1.178-2.325q0-2.233-3.255-2.232H6.8ZM7.51,9.419h5.115a5.222,5.222,0,0,0,3.085-.79,2.634,2.634,0,0,0,1.1-2.279q0-2.045-3.192-2.046H8.533Zm16.585,6.014.775-3.875h8.773l-.775,3.875Z" transform="translate(0 0)" fill="url(#linear-gradient-7)"/>
      </g>
    </g>
    <circle id="Ellipse_308" data-name="Ellipse 308" cx="188" cy="188" r="188" transform="translate(17551 8139)" opacity="0.301" fill="url(#linear-gradient-3)"/>
  </g>
</svg>
