<svg xmlns="http://www.w3.org/2000/svg" xmlns:xlink="http://www.w3.org/1999/xlink" width="240.686" height="215.77" viewBox="0 0 240.686 215.77">
  <defs>
    <linearGradient id="linear-gradient8888" x1="0.041" x2="1.045" y2="0.97" gradientUnits="objectBoundingBox">
      <stop offset="0" stop-color="#a75af4" stop-opacity="0.529"/>
      <stop offset="1" stop-color="#63efff" stop-opacity="0.478"/>
    </linearGradient>
    <linearGradient id="linear-gradient8888-2" x1="-0.095" y1="0.5" x2="1.124" y2="0.5" gradientUnits="objectBoundingBox">
      <stop offset="0" stop-color="#a31fa9"/>
      <stop offset="0.07" stop-color="#8b17a0"/>
      <stop offset="0.15" stop-color="#740f98"/>
      <stop offset="0.24" stop-color="#640a92"/>
      <stop offset="0.34" stop-color="#5b078f"/>
      <stop offset="0.48" stop-color="#58068e"/>
      <stop offset="0.63" stop-color="#4d22a3"/>
      <stop offset="0.94" stop-color="#3168da"/>
      <stop offset="1" stop-color="#2c75e4"/>
    </linearGradient>
    <linearGradient id="linear-gradient8888-3" x1="-0.095" y1="0.501" x2="1.124" y2="0.501" gradientUnits="objectBoundingBox">
      <stop offset="0" stop-color="#d4088c"/>
      <stop offset="0.23" stop-color="#d4088c"/>
      <stop offset="0.51" stop-color="#6ee1f8"/>
      <stop offset="0.78" stop-color="#6ee8fc"/>
      <stop offset="1" stop-color="#6ee8fc"/>
    </linearGradient>
    <linearGradient id="linear-gradient8888-4" x1="3.532" y1="17.063" x2="4.106" y2="16.203" gradientUnits="objectBoundingBox">
      <stop offset="0" stop-color="#8d139b"/>
      <stop offset="0.17" stop-color="#851ba1"/>
      <stop offset="0.43" stop-color="#6e33b2"/>
      <stop offset="0.76" stop-color="#4958cd"/>
      <stop offset="1" stop-color="#2979e4"/>
    </linearGradient>
    <linearGradient id="linear-gradient8888-5" x1="-0.095" y1="0.5" x2="1.124" y2="0.5" xlink:href="#linear-gradient8888-2"/>
    <linearGradient id="linear-gradient8888-6" x1="-0.095" y1="0.499" x2="1.124" y2="0.499" xlink:href="#linear-gradient8888-3"/>
    <linearGradient id="linear-gradient8888-7" x1="2.671" y1="15.855" x2="3.246" y2="14.995" xlink:href="#linear-gradient8888-4"/>
    <linearGradient id="linear-gradient8888-8" x1="-0.095" y1="0.499" x2="1.124" y2="0.499" xlink:href="#linear-gradient8888-2"/>
    <linearGradient id="linear-gradient8888-9" x1="3.368" y1="10.784" x2="3.943" y2="9.921" xlink:href="#linear-gradient8888-4"/>
    <linearGradient id="linear-gradient8888-10" x1="-0.095" y1="0.499" x2="1.124" y2="0.499" xlink:href="#linear-gradient8888-2"/>
    <linearGradient id="linear-gradient8888-11" x1="3.224" y1="10.817" x2="3.799" y2="9.954" xlink:href="#linear-gradient8888-4"/>
    <linearGradient id="linear-gradient8888-12" x1="-0.095" y1="0.5" x2="1.124" y2="0.5" xlink:href="#linear-gradient8888-2"/>
    <linearGradient id="linear-gradient8888-13" x1="3.08" y1="10.85" x2="3.655" y2="9.988" xlink:href="#linear-gradient8888-4"/>
    <linearGradient id="linear-gradient8888-14" x1="-0.095" y1="0.5" x2="1.124" y2="0.5" xlink:href="#linear-gradient8888-2"/>
    <linearGradient id="linear-gradient8888-15" x1="2.936" y1="10.884" x2="3.511" y2="10.021" xlink:href="#linear-gradient8888-4"/>
    <linearGradient id="linear-gradient8888-16" x1="0.455" y1="0.01" x2="0.545" y2="0.99" gradientUnits="objectBoundingBox">
      <stop offset="0" stop-color="#6ee8fc"/>
      <stop offset="0.22" stop-color="#6ee8fc"/>
      <stop offset="0.49" stop-color="#6ee1f8"/>
      <stop offset="0.77" stop-color="#d4088c"/>
      <stop offset="1" stop-color="#d4088c"/>
    </linearGradient>
    <linearGradient id="linear-gradient8888-18" x1="-0.095" y1="0.5" x2="1.124" y2="0.5" xlink:href="#linear-gradient8888-3"/>
    <linearGradient id="linear-gradient8888-19" x1="2.685" y1="10.942" x2="3.26" y2="10.079" xlink:href="#linear-gradient8888-4"/>
    <linearGradient id="linear-gradient8888-20" x1="3.534" y1="14.362" x2="4.109" y2="13.5" gradientUnits="objectBoundingBox">
      <stop offset="0" stop-color="#630692"/>
      <stop offset="0.23" stop-color="#5b0e94"/>
      <stop offset="0.59" stop-color="#432399"/>
      <stop offset="1" stop-color="#2142a1"/>
    </linearGradient>
    <clipPath id="clip-path">
      <path id="Path_2202" data-name="Path 2202" d="M489.926,194.994l-18.959-10.932c-1.34-.789-1.177-2.161.378-3.036l18.2-10.511a5.855,5.855,0,0,1,5.261-.216l18.948,10.943c1.35.778,1.188,2.161-.378,3.036l-18.192,10.5a5.823,5.823,0,0,1-5.261.216Z" transform="translate(-470.061 -169.777)" fill="none"/>
    </clipPath>
    <linearGradient id="linear-gradient8888-21" x1="-0.095" y1="0.5" x2="1.124" y2="0.5" xlink:href="#linear-gradient8888-2"/>
    <linearGradient id="linear-gradient8888-22" x1="-0.096" y1="0.497" x2="1.124" y2="0.497" xlink:href="#linear-gradient8888-3"/>
    <linearGradient id="linear-gradient8888-23" x1="4.814" y1="15.276" x2="5.389" y2="14.416" xlink:href="#linear-gradient8888-4"/>
  </defs>
  <g id="Group_616" data-name="Group 616" transform="translate(-12387.827 1800.149)">
    <path id="Path_2272" data-name="Path 2272" d="M80.2-41.149c53.035,0,113.314,34.526,113.314,87.561s-71.545,128.21-124.58,128.21S-47.173,78.113-47.173,25.078,27.163-41.149,80.2-41.149Z" transform="translate(12435 -1759)" fill="url(#linear-gradient8888)"/>
    <g id="_3_" data-name="3]" transform="translate(12434.447 -1779.128)">
      <path id="Path_2168" data-name="Path 2168" d="M478.719,141.519H461.294l-4.84-2.787c-2.5-1.437-6.86-1.253-9.722.411l-4.786,2.787H424.5v11.7h0a2.8,2.8,0,0,0,1.674,2.6l20.579,11.883c2.5,1.437,6.86,1.264,9.722-.411L476.3,156.243a4.138,4.138,0,0,0,2.377-3.014h0Z" transform="translate(-424.474 -112.942)" fill="url(#linear-gradient8888-2)"/>
      <path id="Path_2169" data-name="Path 2169" d="M476.329,154.335l-19.823,11.473c-2.884,1.664-7.249,1.847-9.723.4L426.2,154.324a2.819,2.819,0,0,1-1.674-2.614h0v.81h0a2.8,2.8,0,0,0,1.674,2.6l20.579,11.883c2.5,1.437,6.86,1.264,9.723-.411l19.823-11.462a4.138,4.138,0,0,0,2.377-3.014h0v-.81h0a4.116,4.116,0,0,1-2.377,3.025Z" transform="translate(-424.472 -111.855)" fill="url(#linear-gradient8888-3)"/>
      <path id="Path_2170" data-name="Path 2170" d="M425.6,154.428h0v-11.7h17.414l4.8-2.787c2.884-1.664,7.249-1.847,9.722-.4l4.84,2.776H478.7v-.8h-17.4l-4.84-2.787c-2.5-1.437-6.86-1.253-9.722.411l-4.786,2.787H424.5v11.7h0a2.8,2.8,0,0,0,1.674,2.6l.194.119a2.5,2.5,0,0,1-.767-1.923Z" transform="translate(-424.474 -112.942)" fill="#d4088c"/>
      <path id="Path_2171" data-name="Path 2171" d="M446.764,157.255l-20.579-11.883c-2.506-1.437-2.161-3.965.691-5.628l19.834-11.462c2.884-1.664,7.249-1.847,9.722-.41l20.579,11.883c2.5,1.437,2.161,3.965-.7,5.628l-19.823,11.462C453.624,158.541,449.26,158.714,446.764,157.255Z" transform="translate(-424.474 -113.814)" fill="url(#linear-gradient8888-4)"/>
      <path id="Path_2172" data-name="Path 2172" d="M475.116,139.776l-20.579-11.883a9.15,9.15,0,0,0-4.915-.951,8.329,8.329,0,0,1,3.543.951l20.579,11.883c2.5,1.437,2.161,3.965-.7,5.628l-19.823,11.462a11.062,11.062,0,0,1-4.829,1.361,11.408,11.408,0,0,0,6.2-1.361l19.823-11.494C477.3,143.741,477.611,141.213,475.116,139.776Z" transform="translate(-422.557 -113.814)" fill="#6ee8fc"/>
      <path id="Path_2173" data-name="Path 2173" d="M448.333,157.256l-20.525-11.883c-2.506-1.437-2.161-3.965.691-5.628l19.834-11.462a11.127,11.127,0,0,1,4.753-1.35,11.451,11.451,0,0,0-6.33,1.35l-19.877,11.494c-2.884,1.664-3.241,4.191-.691,5.628l20.579,11.883a9.1,9.1,0,0,0,4.991.94,8.026,8.026,0,0,1-3.424-.972Z" transform="translate(-424.476 -113.814)" fill="#d4088c"/>
      <g id="Group_609" data-name="Group 609" transform="translate(79.67 0)" opacity="0.5">
        <path id="Path_2174" data-name="Path 2174" d="M552.469,129.389H535.044l-4.84-2.776c-2.5-1.437-6.86-1.264-9.723.41L515.7,129.8H498.25v11.7h0a2.8,2.8,0,0,0,1.674,2.614L520.5,156c2.5,1.437,6.86,1.253,9.722-.411l19.823-11.462a4.137,4.137,0,0,0,2.377-3.014h0Z" transform="translate(-498.224 -113.915)" fill="url(#linear-gradient8888-5)"/>
        <path id="Path_2175" data-name="Path 2175" d="M550.079,142.224,530.256,153.7c-2.884,1.664-7.249,1.847-9.722.4l-20.579-11.883a2.8,2.8,0,0,1-1.674-2.6h0v.8h0a2.8,2.8,0,0,0,1.674,2.614l20.579,11.883c2.5,1.437,6.86,1.253,9.722-.411l19.823-11.462a4.137,4.137,0,0,0,2.377-3.014h0v-.81h0A4.116,4.116,0,0,1,550.079,142.224Z" transform="translate(-498.222 -112.826)" fill="url(#linear-gradient8888-6)"/>
        <path id="Path_2176" data-name="Path 2176" d="M499.352,142.309h0v-11.7h17.414l4.8-2.787c2.884-1.664,7.249-1.847,9.722-.4l4.84,2.776h16.323v-.81h-17.4l-4.84-2.776c-2.5-1.437-6.86-1.264-9.723.41L515.7,129.8H498.25v11.7h0a2.8,2.8,0,0,0,1.674,2.614l.194.119A2.506,2.506,0,0,1,499.352,142.309Z" transform="translate(-498.224 -113.915)" fill="#d4088c"/>
        <path id="Path_2177" data-name="Path 2177" d="M520.514,145.156l-20.579-11.883c-2.506-1.437-2.161-3.965.691-5.628l19.834-11.462c2.884-1.674,7.249-1.847,9.723-.411l20.525,11.883c2.5,1.437,2.161,3.965-.7,5.628l-19.823,11.462C527.374,146.409,523.01,146.592,520.514,145.156Z" transform="translate(-498.224 -114.786)" fill="url(#linear-gradient8888-7)"/>
        <path id="Path_2178" data-name="Path 2178" d="M548.862,127.656l-20.525-11.883a9.053,9.053,0,0,0-4.915-.951,8.178,8.178,0,0,1,3.543.951l20.579,11.883c2.5,1.437,2.161,3.965-.7,5.628l-19.823,11.462a11.062,11.062,0,0,1-4.829,1.361,11.5,11.5,0,0,0,6.2-1.361l19.823-11.462C551.044,131.621,551.357,129.061,548.862,127.656Z" transform="translate(-496.303 -114.787)" fill="#6ee8fc"/>
        <path id="Path_2179" data-name="Path 2179" d="M522.083,145.156l-20.525-11.883c-2.506-1.437-2.161-3.965.691-5.628l19.834-11.462a10.976,10.976,0,0,1,4.753-1.35,11.353,11.353,0,0,0-6.33,1.35l-19.877,11.473c-2.884,1.664-3.241,4.191-.691,5.628l20.579,11.883a9.1,9.1,0,0,0,4.991.94,8.026,8.026,0,0,1-3.425-.951Z" transform="translate(-498.226 -114.786)" fill="#d4088c"/>
      </g>
      <g id="Group_610" data-name="Group 610" transform="translate(30.208 104.902)" opacity="0.5">
        <path id="Path_2180" data-name="Path 2180" d="M535.146,234.9H517.71l-19.445-11.2c-2.506-1.437-6.871-1.253-9.722.411l-18.7,10.8h-17.4v11.7h0a2.83,2.83,0,0,0,1.674,2.614l35.141,20.244c2.506,1.448,6.871,1.264,9.722-.4l33.737-19.445a4.148,4.148,0,0,0,2.377-3.025h0Z" transform="translate(-452.44 -211.024)" fill="url(#linear-gradient8888-8)"/>
        <path id="Path_2181" data-name="Path 2181" d="M489.255,258.633l-35.13-20.288c-2.5-1.437-2.161-3.965.7-5.628l33.737-19.445c2.884-1.664,7.249-1.847,9.722-.411l35.141,20.3c2.5,1.437,2.161,3.954-.7,5.628l-33.737,19.445C496.126,259.9,491.761,260.081,489.255,258.633Z" transform="translate(-452.439 -211.894)" fill="url(#linear-gradient8888-9)"/>
      </g>
      <g id="Group_611" data-name="Group 611" transform="translate(30.208 92.987)" opacity="0.5">
        <path id="Path_2182" data-name="Path 2182" d="M535.146,223.834H517.71l-19.445-11.2c-2.506-1.437-6.871-1.253-9.722.411l-18.7,10.8h-17.4v11.7h0a2.83,2.83,0,0,0,1.674,2.614l35.141,20.32c2.506,1.448,6.871,1.264,9.722-.4l33.737-19.445a4.148,4.148,0,0,0,2.377-3.025h0Z" transform="translate(-452.44 -199.997)" fill="url(#linear-gradient8888-10)"/>
        <path id="Path_2183" data-name="Path 2183" d="M489.255,247.6l-35.13-20.288c-2.5-1.437-2.161-3.965.7-5.628l33.737-19.445c2.884-1.664,7.249-1.847,9.722-.411l35.141,20.3c2.5,1.437,2.161,3.954-.7,5.628L498.988,247.2C496.126,248.867,491.761,249.051,489.255,247.6Z" transform="translate(-452.439 -200.864)" fill="url(#linear-gradient8888-11)"/>
      </g>
      <g id="Group_612" data-name="Group 612" transform="translate(30.208 81.072)" opacity="0.5">
        <path id="Path_2184" data-name="Path 2184" d="M535.146,212.8H517.71l-19.445-11.2c-2.506-1.437-6.871-1.253-9.722.41l-18.7,10.8h-17.4v11.7h0a2.83,2.83,0,0,0,1.674,2.614l35.141,20.288c2.506,1.448,6.871,1.264,9.722-.4l33.737-19.445a4.148,4.148,0,0,0,2.377-3.025h0Z" transform="translate(-452.44 -188.967)" fill="url(#linear-gradient8888-12)"/>
        <path id="Path_2185" data-name="Path 2185" d="M489.255,236.573l-35.13-20.288c-2.5-1.437-2.161-3.965.7-5.628l33.737-19.445c2.884-1.664,7.249-1.847,9.722-.41l35.141,20.3c2.5,1.437,2.161,3.954-.7,5.628l-33.737,19.445C496.126,237.837,491.761,238.021,489.255,236.573Z" transform="translate(-452.439 -189.834)" fill="url(#linear-gradient8888-13)"/>
      </g>
      <g id="Group_613" data-name="Group 613" transform="translate(30.208 69.156)" opacity="0.5">
        <path id="Path_2186" data-name="Path 2186" d="M535.146,201.774H517.71l-19.445-11.2c-2.506-1.437-6.871-1.253-9.722.411l-18.7,10.8h-17.4v11.689h0a2.83,2.83,0,0,0,1.674,2.614l35.141,20.288c2.506,1.448,6.871,1.264,9.722-.4l33.737-19.445a4.148,4.148,0,0,0,2.377-3.025h0Z" transform="translate(-452.44 -177.937)" fill="url(#linear-gradient8888-14)"/>
        <path id="Path_2187" data-name="Path 2187" d="M489.255,225.543l-35.13-20.288c-2.5-1.437-2.161-3.965.7-5.628l33.737-19.445c2.884-1.664,7.249-1.847,9.722-.411l35.141,20.3c2.5,1.437,2.161,3.954-.7,5.628l-33.737,19.445C496.126,226.807,491.761,226.991,489.255,225.543Z" transform="translate(-452.439 -178.804)" fill="url(#linear-gradient8888-15)"/>
      </g>
      <path id="Path_2188" data-name="Path 2188" d="M489.255,225.4l-35.13-20.288c-2.5-1.437-2.161-3.965.7-5.628l33.737-19.445c2.884-1.664,7.249-1.847,9.722-.411l35.141,20.3c2.5,1.437,2.161,3.954-.7,5.628L498.988,225C496.126,226.667,491.761,226.851,489.255,225.4Z" transform="translate(-422.231 -109.659)" fill="#0c0f38" opacity="0.6"/>
      <path id="Path_2189" data-name="Path 2189" d="M494.013,231.38a10.641,10.641,0,0,1-5.2-1.188l-41.4-23.906a3.835,3.835,0,0,1-2.16-3.241c0-1.512,1.08-3,3.025-4.116l39.743-22.945c3.511-2.02,8.847-2.236,11.883-.475l41.4,23.9a3.835,3.835,0,0,1,2.161,3.241c0,1.5-1.08,3-3.025,4.116l-39.722,22.956a13.817,13.817,0,0,1-6.709,1.664Zm.691-56.239a12.812,12.812,0,0,0-6.287,1.577l-39.754,22.945c-1.653.951-2.6,2.161-2.6,3.392a3.057,3.057,0,0,0,1.783,2.517l41.428,23.9c2.82,1.631,7.789,1.415,11.062-.475l39.711-22.945c1.653-.961,2.6-2.161,2.6-3.392a3.046,3.046,0,0,0-1.782-2.517l-41.4-23.906a9.723,9.723,0,0,0-4.8-1.091Z" transform="translate(-422.808 -110.008)" fill="url(#linear-gradient8888-16)"/>
      <path id="Path_2190" data-name="Path 2190" d="M535.146,182.585H517.71l-19.445-11.2c-2.506-1.437-6.871-1.264-9.722.411l-18.7,10.8h-17.4v11.7h0a2.83,2.83,0,0,0,1.674,2.614L489.256,217.2c2.506,1.448,6.871,1.264,9.722-.4l33.737-19.445a4.116,4.116,0,0,0,2.377-3.014h0Z" transform="translate(-422.232 -110.322)" fill="url(#linear-gradient8888-12)"/>
      <path id="Path_2191" data-name="Path 2191" d="M532.747,194.785,499.01,214.23c-2.884,1.664-7.249,1.847-9.722.4l-35.163-20.255a2.83,2.83,0,0,1-1.674-2.614h0v.81h0a2.83,2.83,0,0,0,1.674,2.614l35.141,20.288c2.506,1.448,6.871,1.264,9.722-.4l33.737-19.445a4.116,4.116,0,0,0,2.377-3.014h0v-.81h0a4.137,4.137,0,0,1-2.355,2.982Z" transform="translate(-422.231 -108.608)" fill="url(#linear-gradient8888-18)"/>
      <path id="Path_2192" data-name="Path 2192" d="M453.542,195.094h0v-11.7h17.414l18.7-10.8c2.884-1.664,7.249-1.847,9.722-.4l19.445,11.2h16.323v-.81H517.71l-19.445-11.2c-2.506-1.437-6.871-1.264-9.722.411l-18.7,10.8h-17.4v11.7h0a2.83,2.83,0,0,0,1.674,2.614l.205.108a2.4,2.4,0,0,1-.778-1.923Z" transform="translate(-422.232 -110.322)" fill="#d4088c"/>
      <path id="Path_2193" data-name="Path 2193" d="M528.132,182.611v11.645h0a3.1,3.1,0,0,1-.832,1.782,3.8,3.8,0,0,0,1.826-2.668h0V181.79a5.5,5.5,0,0,0-.994.821Z" transform="translate(-416.222 -109.408)" fill="#6ee8fc"/>
      <path id="Path_2194" data-name="Path 2194" d="M489.255,206.353l-35.13-20.288c-2.5-1.448-2.161-3.965.7-5.628l33.737-19.445c2.884-1.674,7.249-1.847,9.722-.411l35.141,20.288c2.5,1.448,2.161,3.965-.7,5.628l-33.737,19.445C496.126,207.617,491.761,207.8,489.255,206.353Z" transform="translate(-422.231 -111.188)" fill="url(#linear-gradient8888-19)"/>
      <path id="Path_2195" data-name="Path 2195" d="M530.451,180.841l-35.141-20.288a9.171,9.171,0,0,0-4.926-.951,8.286,8.286,0,0,1,3.543.951l35.141,20.288c2.506,1.448,2.161,3.965-.691,5.628l-33.748,19.445a11.116,11.116,0,0,1-4.829,1.35,11.515,11.515,0,0,0,6.212-1.35l33.737-19.445C532.633,184.805,532.946,182.288,530.451,180.841Z" transform="translate(-419.232 -111.192)" fill="#6ee8fc"/>
      <path id="Path_2196" data-name="Path 2196" d="M489.627,200.049l-26.164-15.124c-1.858-1.08-1.62-2.949.529-4.191l25.116-14.5a8.048,8.048,0,0,1,7.259-.3l26.164,15.124c1.858,1.08,1.62,2.949-.529,4.191l-25.116,14.508A8.08,8.08,0,0,1,489.627,200.049Z" transform="translate(-421.447 -110.739)" fill="url(#linear-gradient8888-20)"/>
      <path id="Path_2197" data-name="Path 2197" d="M489.926,194.994l-18.959-10.932c-1.34-.789-1.177-2.161.378-3.036l18.2-10.511a5.855,5.855,0,0,1,5.261-.216l18.948,10.943c1.35.778,1.188,2.161-.378,3.036l-18.192,10.5a5.823,5.823,0,0,1-5.261.216Z" transform="translate(-420.817 -110.372)" fill="#6de0f6"/>
      <path id="Path_2198" data-name="Path 2198" d="M490.857,206.354l-35.163-20.288c-2.5-1.448-2.161-3.965.7-5.628l33.737-19.445a11.019,11.019,0,0,1,4.753-1.35,11.472,11.472,0,0,0-6.33,1.35l-33.737,19.445c-2.884,1.664-3.241,4.181-.7,5.628l35.141,20.288a9.15,9.15,0,0,0,5,.94A8.027,8.027,0,0,1,490.857,206.354Z" transform="translate(-422.234 -111.189)" fill="#d4088c"/>
      <g id="Group_614" data-name="Group 614" transform="translate(49.244 59.405)" clip-path="url(#clip-path)">
        <path id="Path_2199" data-name="Path 2199" d="M471.344,182.5l18.2-10.511a5.823,5.823,0,0,1,5.261-.227l18.959,10.954a2.03,2.03,0,0,1,.67.594,1.4,1.4,0,0,0-.67-2.074L494.84,170.279a5.855,5.855,0,0,0-5.261.216l-18.2,10.511c-1.21.7-1.577,1.674-1.08,2.441a2.938,2.938,0,0,1,1.048-.951Z" transform="translate(-470.06 -169.779)" fill="#267fe5"/>
        <path id="Path_2200" data-name="Path 2200" d="M471.343,184.169l18.2-10.511a5.855,5.855,0,0,1,5.261-.216l18.959,10.943a2.224,2.224,0,0,1,.562.465,1.415,1.415,0,0,0-.562-2.247l-18.926-10.954a5.823,5.823,0,0,0-5.261.227l-18.2,10.511c-1.286.735-1.61,1.782-.94,2.571a3.242,3.242,0,0,1,.908-.789Z" transform="translate(-470.059 -169.669)" fill="#25bfec"/>
        <path id="Path_2201" data-name="Path 2201" d="M470.588,186.8a3.328,3.328,0,0,1,.756-.583l18.2-10.511a5.823,5.823,0,0,1,5.261-.227l18.959,10.954a1.9,1.9,0,0,1,.367.27,1.437,1.437,0,0,0-.367-2.452L494.84,173.309a5.855,5.855,0,0,0-5.261.216l-18.2,10.511C469.994,184.835,469.681,185.98,470.588,186.8Z" transform="translate(-470.06 -169.536)" fill="#18d0f7"/>
      </g>
      <path id="Path_2209" data-name="Path 2209" d="M556.419,238.759H538.994l-4.84-2.776c-2.5-1.448-6.86-1.264-9.722.4l-4.8,2.787H502.2v11.7h0a2.831,2.831,0,0,0,1.674,2.614L524.4,265.366c2.5,1.448,6.86,1.264,9.722-.4L553.945,253.5a4.148,4.148,0,0,0,2.377-3.025h0Z" transform="translate(-418.237 -105.136)" fill="url(#linear-gradient8888-21)"/>
      <path id="Path_2210" data-name="Path 2210" d="M554.025,251.581,534.2,263.075c-2.9,1.674-7.259,1.847-9.722.41L503.955,251.6a2.83,2.83,0,0,1-1.674-2.614h0v.81h0a2.83,2.83,0,0,0,1.674,2.614L524.48,264.3c2.5,1.448,6.86,1.264,9.722-.4l19.823-11.462a4.148,4.148,0,0,0,2.377-3.025h0v-.8h0a4.138,4.138,0,0,1-2.377,2.971Z" transform="translate(-418.231 -104.044)" fill="url(#linear-gradient8888-22)"/>
      <path id="Path_2211" data-name="Path 2211" d="M503.3,251.679h0v-11.7h17.414l4.786-2.787c2.884-1.664,7.249-1.847,9.722-.4l4.84,2.776h16.323v-.81H538.994l-4.84-2.776c-2.5-1.448-6.86-1.264-9.722.4l-4.8,2.787H502.2v11.7h0a2.831,2.831,0,0,0,1.674,2.614l.205.108A2.431,2.431,0,0,1,503.3,251.679Z" transform="translate(-418.237 -105.136)" fill="#d4088c"/>
      <path id="Path_2212" data-name="Path 2212" d="M524.45,254.516l-20.525-11.883c-2.5-1.448-2.161-3.965.7-5.628l19.834-11.473c2.884-1.664,7.249-1.847,9.722-.4l20.579,11.883c2.5,1.437,2.161,3.954-.7,5.628l-19.823,11.462C531.31,255.78,526.945,255.964,524.45,254.516Z" transform="translate(-418.233 -106.007)" fill="url(#linear-gradient8888-23)"/>
      <path id="Path_2213" data-name="Path 2213" d="M552.821,237.026l-20.579-11.883a9.052,9.052,0,0,0-4.915-.951,8.069,8.069,0,0,1,3.543.951l20.525,11.883c2.5,1.437,2.161,3.954-.7,5.628l-19.834,11.462a11.116,11.116,0,0,1-4.829,1.35,11.419,11.419,0,0,0,6.212-1.35l19.823-11.462C555,240.98,555.316,238.463,552.821,237.026Z" transform="translate(-416.324 -106.007)" fill="#6ee8fc"/>
      <path id="Path_2214" data-name="Path 2214" d="M526.033,254.516l-20.579-11.883c-2.5-1.448-2.161-3.965.7-5.628l19.834-11.473a11.084,11.084,0,0,1,4.742-1.35,11.527,11.527,0,0,0-6.32,1.35l-19.834,11.494c-2.884,1.664-3.241,4.181-.7,5.628L524.4,254.538a9.053,9.053,0,0,0,5,.951,8.037,8.037,0,0,1-3.37-.972Z" transform="translate(-418.239 -106.007)" fill="#d4088c"/>
    </g>
  </g>
</svg>
