<svg xmlns="http://www.w3.org/2000/svg" xmlns:xlink="http://www.w3.org/1999/xlink" width="219.461" height="190.262" viewBox="0 0 219.461 190.262">
  <defs>
    <linearGradient id="linear-gradient88" x1="0.041" x2="1.045" y2="0.97" gradientUnits="objectBoundingBox">
      <stop offset="0" stop-color="#a75af4" stop-opacity="0.529"/>
      <stop offset="1" stop-color="#63efff" stop-opacity="0.478"/>
    </linearGradient>
    <linearGradient id="linear-gradient88-2" x1="-0.095" y1="0.5" x2="1.124" y2="0.5" gradientUnits="objectBoundingBox">
      <stop offset="0" stop-color="#a31fa9"/>
      <stop offset="0.07" stop-color="#8b17a0"/>
      <stop offset="0.15" stop-color="#740f98"/>
      <stop offset="0.24" stop-color="#640a92"/>
      <stop offset="0.34" stop-color="#5b078f"/>
      <stop offset="0.48" stop-color="#58068e"/>
      <stop offset="0.63" stop-color="#4d22a3"/>
      <stop offset="0.94" stop-color="#3168da"/>
      <stop offset="1" stop-color="#2c75e4"/>
    </linearGradient>
    <linearGradient id="linear-gradient88-3" x1="-0.095" y1="0.501" x2="1.124" y2="0.501" gradientUnits="objectBoundingBox">
      <stop offset="0" stop-color="#d4088c"/>
      <stop offset="0.23" stop-color="#d4088c"/>
      <stop offset="0.51" stop-color="#6ee1f8"/>
      <stop offset="0.78" stop-color="#6ee8fc"/>
      <stop offset="1" stop-color="#6ee8fc"/>
    </linearGradient>
    <linearGradient id="linear-gradient88-4" x1="7.151" y1="16.241" x2="7.726" y2="15.379" gradientUnits="objectBoundingBox">
      <stop offset="0" stop-color="#8d139b"/>
      <stop offset="0.17" stop-color="#851ba1"/>
      <stop offset="0.43" stop-color="#6e33b2"/>
      <stop offset="0.76" stop-color="#4958cd"/>
      <stop offset="1" stop-color="#2979e4"/>
    </linearGradient>
    <linearGradient id="linear-gradient88-5" x1="9.54" y1="21.515" x2="10.115" y2="20.653" gradientUnits="objectBoundingBox">
      <stop offset="0" stop-color="#630692"/>
      <stop offset="0.23" stop-color="#5b0e94"/>
      <stop offset="0.59" stop-color="#432399"/>
      <stop offset="1" stop-color="#2142a1"/>
    </linearGradient>
    <clipPath id="clip-path">
      <path id="Path_2285" data-name="Path 2285" d="M53.353,328.074l-20.5-11.83c-1.45-.848-1.228-2.31.418-3.292l19.656-11.364a6.351,6.351,0,0,1,5.688-.233l20.5,11.843c1.462.835,1.229,2.31-.405,3.28L59.053,327.841a6.3,6.3,0,0,1-5.7.233Z" transform="translate(-31.885 -300.793)" fill="none"/>
    </clipPath>
    <linearGradient id="linear-gradient88-6" x1="-0.095" y1="0.5" x2="1.124" y2="0.5" xlink:href="#linear-gradient88-2"/>
    <linearGradient id="linear-gradient88-7" x1="-0.095" y1="0.499" x2="1.124" y2="0.499" xlink:href="#linear-gradient88-3"/>
    <linearGradient id="linear-gradient88-8" x1="6.842" y1="16.33" x2="7.417" y2="15.468" xlink:href="#linear-gradient88-4"/>
    <linearGradient id="linear-gradient88-9" x1="9.132" y1="21.615" x2="9.707" y2="20.753" xlink:href="#linear-gradient88-5"/>
    <clipPath id="clip-path-2">
      <path id="Path_2298" data-name="Path 2298" d="M53.353,305.586l-20.5-11.83c-1.45-.848-1.228-2.322.418-3.292l19.644-11.314a6.3,6.3,0,0,1,5.688-.233l20.5,11.843c1.462.835,1.229,2.31-.405,3.28L59.041,305.4a6.3,6.3,0,0,1-5.688.184Z" transform="translate(-31.885 -278.348)" fill="none"/>
    </clipPath>
    <linearGradient id="linear-gradient88-11" x1="-0.095" y1="0.499" x2="1.124" y2="0.499" gradientUnits="objectBoundingBox">
      <stop offset="0" stop-color="#d4088c"/>
      <stop offset="0.23" stop-color="#d4088c"/>
      <stop offset="0.51" stop-color="#231f20"/>
      <stop offset="0.78" stop-color="#6ee8fc"/>
      <stop offset="1" stop-color="#6ee8fc"/>
    </linearGradient>
    <linearGradient id="linear-gradient88-12" x1="6.313" y1="16.435" x2="6.888" y2="15.574" xlink:href="#linear-gradient88-4"/>
    <linearGradient id="linear-gradient88-13" x1="8.414" y1="21.781" x2="8.989" y2="20.918" xlink:href="#linear-gradient88-5"/>
    <clipPath id="clip-path-3">
      <path id="Path_2313" data-name="Path 2313" d="M53.353,267.075l-20.5-11.831c-1.45-.848-1.228-2.322.418-3.292l19.656-11.364a6.3,6.3,0,0,1,5.688-.233l20.5,11.843c1.462.835,1.229,2.31-.405,3.28L59.053,266.842a6.3,6.3,0,0,1-5.7.233Z" transform="translate(-31.885 -239.788)" fill="none"/>
    </clipPath>
  </defs>
  <g id="Group_629" data-name="Group 629" transform="translate(-11418.411 1809.24)">
    <g id="Group_623" data-name="Group 623">
      <g id="Group_618" data-name="Group 618" transform="translate(-1 -26.563)">
        <g id="Group_624" data-name="Group 624">
          <path id="Path_2270" data-name="Path 2270" d="M135.643,1.556c53.78,0,69.229,25.339,69.229,79.119s-29.106,111.143-82.886,111.143S-14.589,120.327-14.589,66.547,81.863,1.556,135.643,1.556Z" transform="translate(11434 -1784.234)" fill="url(#linear-gradient88)"/>
        </g>
      </g>
    </g>
    <g id="Group_628" data-name="Group 628" transform="translate(11497.603 -1914)">
      <path id="Path_2273" data-name="Path 2273" d="M104.557,314.581H85.712L64.729,302.456c-2.7-1.56-7.371-1.364-10.553.442L33.955,314.581H15.11v12.654h0a3.059,3.059,0,0,0,1.818,2.825L54.938,352c2.7,1.56,7.371,1.376,10.541-.43l36.5-21.069a4.472,4.472,0,0,0,2.568-3.268h0Z" transform="translate(-15.098 -83.772)" fill="url(#linear-gradient88-2)"/>
      <path id="Path_2274" data-name="Path 2274" d="M101.977,324.992l-36.5,21.069c-3.12,1.806-7.838,1.99-10.541.43l-38.01-21.966A3.059,3.059,0,0,1,15.11,321.7h0v.872h0a3.059,3.059,0,0,0,1.818,2.826l38.01,21.941c2.7,1.56,7.371,1.376,10.541-.43l36.5-21.069a4.472,4.472,0,0,0,2.568-3.268h0V321.7h0a4.472,4.472,0,0,1-2.568,3.292Z" transform="translate(-15.098 -79.134)" fill="url(#linear-gradient88-3)"/>
      <path id="Path_2275" data-name="Path 2275" d="M16.3,328.107h0V315.453H35.135L55.368,303.77c3.12-1.806,7.838-2,10.541-.442l21,12.125h17.654v-.872H85.712L64.729,302.456c-2.7-1.56-7.371-1.364-10.553.442L33.955,314.581H15.11v12.654h0a3.059,3.059,0,0,0,1.818,2.825l.209.123a2.666,2.666,0,0,1-.835-2.076Z" transform="translate(-15.098 -83.772)" fill="#d4088c"/>
      <path id="Path_2276" data-name="Path 2276" d="M87.217,313.176v12.531h0a3.342,3.342,0,0,1-.9,1.929,4.029,4.029,0,0,0,1.966-2.875h0V312.23a6.141,6.141,0,0,0-1.069.946Z" transform="translate(1.174 -81.298)" fill="#6ee8fc"/>
      <path id="Path_2277" data-name="Path 2277" d="M54.94,341.71,16.93,319.769c-2.7-1.56-2.371-4.287.749-6.142l36.5-21.069c3.12-1.806,7.85-2,10.553-.442l38.01,21.953c2.7,1.56,2.359,4.287-.762,6.081l-36.5,21.13C62.36,343.074,57.642,343.27,54.94,341.71Z" transform="translate(-15.099 -86.135)" fill="url(#linear-gradient88-4)"/>
      <path id="Path_2278" data-name="Path 2278" d="M94.618,314.1l-38.01-21.9a9.718,9.718,0,0,0-5.332-1.02,8.8,8.8,0,0,1,3.833,1.02l38.083,21.953c2.7,1.56,2.359,4.287-.762,6.081l-36.56,21.032a12.186,12.186,0,0,1-5.221,1.462,12.383,12.383,0,0,0,6.708-1.462l36.5-21.081C96.977,318.389,97.321,315.662,94.618,314.1Z" transform="translate(-6.977 -86.118)" fill="#6ee8fc"/>
      <path id="Path_2279" data-name="Path 2279" d="M54.058,334.145,25.8,317.806c-2.015-1.167-1.757-3.194.565-4.533l27.174-15.688a8.759,8.759,0,0,1,7.85-.332L89.648,313.6c2,1.155,1.757,3.182-.565,4.521l-27.174,15.7a8.71,8.71,0,0,1-7.85.319Z" transform="translate(-12.965 -84.896)" fill="url(#linear-gradient88-5)"/>
      <path id="Path_2280" data-name="Path 2280" d="M53.353,328.074l-20.5-11.83c-1.45-.848-1.228-2.31.418-3.292l19.656-11.364a6.351,6.351,0,0,1,5.688-.233l20.5,11.843c1.462.835,1.229,2.31-.405,3.28L59.053,327.841a6.3,6.3,0,0,1-5.7.233Z" transform="translate(-11.265 -83.911)" fill="#6de0f6"/>
      <path id="Path_2281" data-name="Path 2281" d="M56.647,341.7,18.662,319.76c-2.7-1.56-2.359-4.287.762-6.142L55.886,292.6a11.9,11.9,0,0,1,5.135-1.462,12.47,12.47,0,0,0-6.843,1.462l-36.5,21.069c-3.12,1.806-3.452,4.533-.749,6.142l38.01,21.941a9.743,9.743,0,0,0,5.405,1.02,8.6,8.6,0,0,1-3.7-1.069Z" transform="translate(-15.099 -86.126)" fill="#d4088c"/>
      <g id="Group_625" data-name="Group 625" transform="translate(20.62 216.881)" clip-path="url(#clip-path)">
        <path id="Path_2282" data-name="Path 2282" d="M33.257,314.562l19.656-11.376a6.351,6.351,0,0,1,5.688-.234L79.117,314.8a2.051,2.051,0,0,1,.713.651,1.523,1.523,0,0,0-.713-2.248L58.6,301.356a6.3,6.3,0,0,0-5.688.233L33.257,312.953c-1.314.762-1.7,1.818-1.13,2.641a3.121,3.121,0,0,1,1.13-1.032Z" transform="translate(-31.888 -300.794)" fill="#267fe5"/>
        <path id="Path_2283" data-name="Path 2283" d="M33.257,316.2l19.656-11.364a6.315,6.315,0,0,1,5.688-.246L79.117,316.43a2.261,2.261,0,0,1,.6.5,1.536,1.536,0,0,0-.6-2.457L58.6,302.634a6.351,6.351,0,0,0-5.688.233l-19.656,11.4c-1.388.8-1.744,1.929-1.007,2.776a3.562,3.562,0,0,1,1.007-.848Z" transform="translate(-31.887 -300.5)" fill="#25bfec"/>
        <path id="Path_2284" data-name="Path 2284" d="M32.448,318.821a3.391,3.391,0,0,1,.811-.639l19.656-11.376a6.351,6.351,0,0,1,5.688-.233l20.516,11.843a2.723,2.723,0,0,1,.393.295,1.56,1.56,0,0,0-.393-2.654L58.6,304.214a6.315,6.315,0,0,0-5.688.246L33.259,315.824C31.748,316.708,31.453,317.973,32.448,318.821Z" transform="translate(-31.889 -300.139)" fill="#18d0f7"/>
      </g>
      <path id="Path_2286" data-name="Path 2286" d="M104.557,292.1H85.712L64.729,279.976c-2.7-1.56-7.371-1.364-10.553.442L33.955,292.1H15.11v12.715h0a3.059,3.059,0,0,0,1.818,2.825l38.01,21.941c2.7,1.56,7.371,1.364,10.541-.43l36.5-21.142a4.435,4.435,0,0,0,2.568-3.194h0Z" transform="translate(-15.098 -88.909)" fill="url(#linear-gradient88-6)"/>
      <path id="Path_2287" data-name="Path 2287" d="M101.977,302.5l-36.5,21.081c-3.12,1.794-7.838,1.99-10.541.43l-38.01-21.941a3.059,3.059,0,0,1-1.818-2.826h0v.934h0A3.059,3.059,0,0,0,16.928,303l38.01,21.941c2.7,1.56,7.371,1.364,10.541-.43l36.5-21.142a4.435,4.435,0,0,0,2.568-3.194h0V299.3h0a4.435,4.435,0,0,1-2.568,3.194Z" transform="translate(-15.098 -84.266)" fill="url(#linear-gradient88-7)"/>
      <path id="Path_2288" data-name="Path 2288" d="M16.3,305.627h0V292.973H35.135L55.368,281.29c3.12-1.806,7.838-2,10.541-.442l21,12.125h17.654V292.1H85.712L64.729,279.976c-2.7-1.56-7.371-1.364-10.553.442L33.955,292.1H15.11v12.715h0a3.059,3.059,0,0,0,1.818,2.825l.209.123a2.666,2.666,0,0,1-.835-2.138Z" transform="translate(-15.098 -88.909)" fill="#d4088c"/>
      <path id="Path_2289" data-name="Path 2289" d="M87.217,290.635v12.592h0a3.342,3.342,0,0,1-.9,1.929,4.029,4.029,0,0,0,1.966-2.875h0V289.75a6.144,6.144,0,0,0-1.069.885Z" transform="translate(1.174 -86.435)" fill="#6ee8fc"/>
      <path id="Path_2290" data-name="Path 2290" d="M54.94,319.219l-38.01-21.88c-2.7-1.56-2.371-4.287.749-6.142l36.5-21.069c3.12-1.806,7.85-2,10.553-.442l38.01,21.953c2.7,1.56,2.359,4.287-.762,6.081l-36.5,21.069C62.36,320.583,57.642,320.779,54.94,319.219Z" transform="translate(-15.099 -91.26)" fill="url(#linear-gradient88-8)"/>
      <path id="Path_2291" data-name="Path 2291" d="M94.618,291.632l-38.01-21.953a9.828,9.828,0,0,0-5.332-1.032,8.8,8.8,0,0,1,3.833,1.032l38.084,21.953c2.7,1.56,2.359,4.287-.762,6.081l-36.56,21.081a12.187,12.187,0,0,1-5.221,1.462,12.494,12.494,0,0,0,6.708-1.462l36.5-21.081C96.977,295.92,97.321,293.193,94.618,291.632Z" transform="translate(-6.977 -91.266)" fill="#6ee8fc"/>
      <path id="Path_2292" data-name="Path 2292" d="M54.058,311.665,25.8,295.326c-2.015-1.167-1.757-3.194.565-4.533l27.125-15.688a8.759,8.759,0,0,1,7.85-.332L89.6,291.112c2,1.167,1.757,3.194-.565,4.533L61.908,311.334a8.722,8.722,0,0,1-7.85.332Z" transform="translate(-12.965 -90.033)" fill="url(#linear-gradient88-9)"/>
      <path id="Path_2293" data-name="Path 2293" d="M53.353,305.586l-20.5-11.83c-1.45-.848-1.228-2.322.418-3.292l19.644-11.314a6.3,6.3,0,0,1,5.688-.233l20.5,11.843c1.462.835,1.229,2.31-.405,3.28L59.041,305.4a6.3,6.3,0,0,1-5.688.184Z" transform="translate(-11.265 -89.04)" fill="#6de0f6"/>
      <path id="Path_2294" data-name="Path 2294" d="M56.647,319.222l-37.985-21.88c-2.7-1.56-2.359-4.287.762-6.142l36.462-21.081a11.9,11.9,0,0,1,5.135-1.462,12.359,12.359,0,0,0-6.843,1.462L17.679,291.2c-3.12,1.806-3.452,4.533-.749,6.142l38.01,21.941a9.742,9.742,0,0,0,5.405,1.02,8.6,8.6,0,0,1-3.7-1.081Z" transform="translate(-15.099 -91.263)" fill="#d4088c"/>
      <g id="Group_626" data-name="Group 626" transform="translate(20.62 189.308)" clip-path="url(#clip-path-2)">
        <path id="Path_2295" data-name="Path 2295" d="M33.257,292.078,52.913,280.7a6.3,6.3,0,0,1,5.688-.233l20.516,11.843a2.15,2.15,0,0,1,.713.639,1.511,1.511,0,0,0-.713-2.236L58.6,278.871a6.3,6.3,0,0,0-5.688.283L33.257,290.518c-1.314.762-1.7,1.818-1.13,2.641a3.12,3.12,0,0,1,1.13-1.081Z" transform="translate(-31.888 -278.353)" fill="#267fe5"/>
        <path id="Path_2296" data-name="Path 2296" d="M33.257,293.718l19.656-11.376a6.351,6.351,0,0,1,5.688-.233l20.516,11.843a2.26,2.26,0,0,1,.6.5,1.536,1.536,0,0,0-.6-2.457L58.6,280.155a6.3,6.3,0,0,0-5.688.233L33.257,291.765c-1.388.8-1.744,1.929-1.007,2.776a3.378,3.378,0,0,1,1.007-.823Z" transform="translate(-31.887 -278.065)" fill="#25bfec"/>
        <path id="Path_2297" data-name="Path 2297" d="M32.448,296.354a3.39,3.39,0,0,1,.811-.651l19.656-11.376a6.352,6.352,0,0,1,5.688-.233l20.516,11.843a2.05,2.05,0,0,1,.393.295,1.56,1.56,0,0,0-.393-2.654L58.6,281.734a6.352,6.352,0,0,0-5.688.233L33.259,293.344C31.748,294.228,31.453,295.481,32.448,296.354Z" transform="translate(-31.889 -277.703)" fill="#18d0f7"/>
      </g>
      <path id="Path_2299" data-name="Path 2299" d="M80.125,266.75,31.87,269.06v25.8h0a1.659,1.659,0,0,0,.971,1.523l20.5,11.83a6.3,6.3,0,0,0,5.688-.233l19.656-11.364a2.3,2.3,0,0,0,1.376-1.9h0Z" transform="translate(-11.268 -91.69)" fill="#6de0f6" opacity="0.5"/>
      <path id="Path_2300" data-name="Path 2300" d="M104.559,260.69l-89.459.872v35.209h0a3.047,3.047,0,0,0,1.806,2.826l38.01,21.941c2.7,1.56,7.371,1.376,10.541-.43l36.5-21.069c1.757-1.02,2.592-2.322,2.555-3.538h0Z" transform="translate(-15.1 -93.075)" fill="#6de0f6" opacity="0.5"/>
      <path id="Path_2301" data-name="Path 2301" d="M104.557,253.551H85.712L64.729,241.426c-2.7-1.56-7.371-1.364-10.553.442L33.955,253.551H15.11V266.2h0a3.059,3.059,0,0,0,1.818,2.825l38.01,21.941c2.7,1.56,7.371,1.364,10.541-.43l36.5-21.081a4.435,4.435,0,0,0,2.568-3.255h0Z" transform="translate(-15.098 -97.717)" fill="url(#linear-gradient88-2)"/>
      <path id="Path_2302" data-name="Path 2302" d="M101.977,263.943l-36.5,21.081c-3.12,1.794-7.838,1.99-10.541.43l-38.01-21.929A3.059,3.059,0,0,1,15.11,260.7h0v.872h0a3.059,3.059,0,0,0,1.818,2.825l38.01,21.941c2.7,1.56,7.371,1.364,10.541-.43l36.5-21.081a4.435,4.435,0,0,0,2.568-3.255h0V260.7h0a4.435,4.435,0,0,1-2.568,3.243Z" transform="translate(-15.098 -93.073)" fill="url(#linear-gradient88-11)"/>
      <path id="Path_2303" data-name="Path 2303" d="M16.3,267.077h0V254.423H35.135L55.368,242.74c3.12-1.806,7.838-2,10.541-.442l21,12.125h17.654v-.872H85.712L64.729,241.426c-2.7-1.56-7.371-1.364-10.553.442L33.955,253.551H15.11V266.2h0a3.059,3.059,0,0,0,1.818,2.825l.209.123A2.666,2.666,0,0,1,16.3,267.077Z" transform="translate(-15.098 -97.717)" fill="#d4088c"/>
      <path id="Path_2304" data-name="Path 2304" d="M87.217,252.085v12.592h0a3.342,3.342,0,0,1-.9,1.929,4.029,4.029,0,0,0,1.966-2.875h0V251.2A6.144,6.144,0,0,0,87.217,252.085Z" transform="translate(1.174 -95.243)" fill="#6ee8fc"/>
      <path id="Path_2305" data-name="Path 2305" d="M54.94,280.68,16.93,258.739c-2.7-1.56-2.371-4.287.749-6.142l36.5-21.069c3.12-1.806,7.85-2,10.553-.442l38.01,22c2.7,1.56,2.359,4.287-.762,6.081L65.48,280.25C62.36,282.044,57.642,282.24,54.94,280.68Z" transform="translate(-15.099 -100.08)" fill="url(#linear-gradient88-12)"/>
      <path id="Path_2306" data-name="Path 2306" d="M94.618,253.082l-38.01-21.953a9.828,9.828,0,0,0-5.332-1.032,8.968,8.968,0,0,1,3.833,1.032l38.084,21.953c2.7,1.56,2.359,4.287-.762,6.081l-36.56,21.081a12.187,12.187,0,0,1-5.221,1.462,12.493,12.493,0,0,0,6.708-1.462l36.5-21.081C96.977,257.37,97.321,254.643,94.618,253.082Z" transform="translate(-6.977 -100.074)" fill="#6ee8fc"/>
      <path id="Path_2307" data-name="Path 2307" d="M54.058,273.115,25.8,256.776c-2.015-1.167-1.757-3.194.565-4.533l27.174-15.688a8.759,8.759,0,0,1,7.85-.332l28.255,16.339c2,1.229,1.757,3.194-.565,4.533L61.908,272.784a8.723,8.723,0,0,1-7.85.332Z" transform="translate(-12.965 -98.842)" fill="url(#linear-gradient88-13)"/>
      <path id="Path_2308" data-name="Path 2308" d="M53.353,267.075l-20.5-11.831c-1.45-.848-1.228-2.322.418-3.292l19.656-11.364a6.3,6.3,0,0,1,5.688-.233l20.5,11.843c1.462.835,1.229,2.31-.405,3.28L59.053,266.842a6.3,6.3,0,0,1-5.7.233Z" transform="translate(-11.265 -97.851)" fill="#6de0f6"/>
      <path id="Path_2309" data-name="Path 2309" d="M56.647,280.672,18.662,258.731c-2.7-1.56-2.359-4.288.762-6.143l36.462-21.02a11.9,11.9,0,0,1,5.135-1.462,12.359,12.359,0,0,0-6.843,1.462l-36.5,21.069c-3.12,1.806-3.452,4.533-.749,6.143l38.01,21.941a9.742,9.742,0,0,0,5.405,1.02,8.6,8.6,0,0,1-3.7-1.069Z" transform="translate(-15.099 -100.071)" fill="#d4088c"/>
      <g id="Group_627" data-name="Group 627" transform="translate(20.62 141.937)" clip-path="url(#clip-path-3)">
        <path id="Path_2310" data-name="Path 2310" d="M33.257,253.562l19.656-11.376a6.3,6.3,0,0,1,5.688-.233L79.117,253.8a2.15,2.15,0,0,1,.713.639,1.511,1.511,0,0,0-.713-2.236L58.6,240.355a6.3,6.3,0,0,0-5.688.233L33.257,251.953c-1.314.762-1.7,1.818-1.13,2.641a3.121,3.121,0,0,1,1.13-1.032Z" transform="translate(-31.888 -239.788)" fill="#267fe5"/>
        <path id="Path_2311" data-name="Path 2311" d="M33.257,255.168l19.656-11.376a6.351,6.351,0,0,1,5.688-.233L79.117,255.4a2.26,2.26,0,0,1,.6.5,1.536,1.536,0,0,0-.6-2.457L58.6,241.606a6.3,6.3,0,0,0-5.688.233L33.257,253.276c-1.388.8-1.744,1.929-1.007,2.776a3.562,3.562,0,0,1,1.007-.885Z" transform="translate(-31.887 -239.502)" fill="#25bfec"/>
        <path id="Path_2312" data-name="Path 2312" d="M32.448,257.821a3.392,3.392,0,0,1,.811-.639l19.656-11.376a6.351,6.351,0,0,1,5.688-.233l20.516,11.843a2.049,2.049,0,0,1,.393.295,1.56,1.56,0,0,0-.393-2.654L58.6,243.214a6.351,6.351,0,0,0-5.688.233L33.259,254.824C31.748,255.671,31.453,256.937,32.448,257.821Z" transform="translate(-31.889 -239.133)" fill="#18d0f7"/>
      </g>
      <circle id="Ellipse_207" data-name="Ellipse 207" cx="3.391" cy="3.391" r="3.391" transform="translate(9.177 182.996)" fill="#6de0f6"/>
      <path id="Path_2320" data-name="Path 2320" d="M35.8,283.309a4.03,4.03,0,1,1-1.189-2.858A4.029,4.029,0,0,1,35.8,283.309Z" transform="translate(-12.212 -88.827)" fill="#6de0f6" opacity="0.5"/>
      <circle id="Ellipse_208" data-name="Ellipse 208" cx="1.351" cy="1.351" r="1.351" transform="translate(10.455 195.281)" fill="#6de0f6" opacity="0.15"/>
      <circle id="Ellipse_209" data-name="Ellipse 209" cx="1.351" cy="1.351" r="1.351" transform="translate(16.867 189.446)" fill="#6de0f6" opacity="0.15"/>
      <circle id="Ellipse_210" data-name="Ellipse 210" cx="1.744" cy="1.744" r="1.744" transform="translate(29.889 209.802)" fill="#6de0f6"/>
      <circle id="Ellipse_211" data-name="Ellipse 211" cx="2.666" cy="2.666" r="2.666" transform="translate(16.499 202.676)" fill="#6de0f6" opacity="0.5"/>
      <path id="Path_2321" data-name="Path 2321" d="M42.992,288.076a2.666,2.666,0,1,1-2.666-2.666A2.666,2.666,0,0,1,42.992,288.076Z" transform="translate(-9.945 -87.426)" fill="#6de0f6" opacity="0.5"/>
      <circle id="Ellipse_212" data-name="Ellipse 212" cx="2.666" cy="2.666" r="2.666" transform="translate(75.455 182.664)" fill="#6de0f6" opacity="0.5"/>
      <path id="Path_2322" data-name="Path 2322" d="M83.518,283.034a3.784,3.784,0,1,1-1.121-2.689A3.784,3.784,0,0,1,83.518,283.034Z" transform="translate(-1.196 -88.834)" fill="#6de0f6"/>
      <path id="Path_2323" data-name="Path 2323" d="M75.041,280.215A1.683,1.683,0,1,1,74.535,279,1.7,1.7,0,0,1,75.041,280.215Z" transform="translate(-2.178 -89.001)" fill="#6de0f6" opacity="0.15"/>
      <path id="Path_2324" data-name="Path 2324" d="M74.035,277.572a2.789,2.789,0,1,1-2.457-3.059,2.789,2.789,0,0,1,2.457,3.059Z" transform="translate(-2.904 -89.92)" fill="#6de0f6" opacity="0.15"/>
      <path id="Path_2325" data-name="Path 2325" d="M77.992,289.566a2.666,2.666,0,1,1-2.666-2.666A2.666,2.666,0,0,1,77.992,289.566Z" transform="translate(-1.947 -87.086)" fill="#6de0f6" opacity="0.5"/>
      <path id="Path_2326" data-name="Path 2326" d="M64.576,298.926a1.978,1.978,0,1,1-1.966-1.966,1.978,1.978,0,0,1,1.966,1.966Z" transform="translate(-4.699 -84.787)" fill="#6de0f6" opacity="0.15"/>
      <circle id="Ellipse_213" data-name="Ellipse 213" cx="3.354" cy="3.354" r="3.354" transform="translate(60.209 203.758)" fill="#6de0f6"/>
      <circle id="Ellipse_214" data-name="Ellipse 214" cx="2.666" cy="2.666" r="2.666" transform="translate(56.548 194.47)" fill="#6de0f6" opacity="0.5"/>
      <path id="Path_2327" data-name="Path 2327" d="M55.625,303.41a3.993,3.993,0,1,1-3.993-3.98,3.993,3.993,0,0,1,3.993,3.98Z" transform="translate(-7.665 -84.223)" fill="#6de0f6" opacity="0.5"/>
      <path id="Path_2328" data-name="Path 2328" d="M41.582,280.886a2.666,2.666,0,1,1-2.666-2.666,2.666,2.666,0,0,1,2.666,2.666Z" transform="translate(-10.267 -89.069)" fill="#6de0f6"/>
    </g>
  </g>
</svg>
