<svg xmlns="http://www.w3.org/2000/svg" xmlns:xlink="http://www.w3.org/1999/xlink" width="220.876" height="206.263" viewBox="0 0 220.876 206.263">
  <defs>
    <linearGradient id="linear-gradient888" x1="0.041" x2="1.045" y2="0.97" gradientUnits="objectBoundingBox">
      <stop offset="0" stop-color="#a75af4" stop-opacity="0.529"/>
      <stop offset="1" stop-color="#63efff" stop-opacity="0.478"/>
    </linearGradient>
    <linearGradient id="linear-gradient888-2" x1="-0.095" y1="0.5" x2="1.124" y2="0.5" gradientUnits="objectBoundingBox">
      <stop offset="0" stop-color="#a31fa9"/>
      <stop offset="0.07" stop-color="#8b17a0"/>
      <stop offset="0.15" stop-color="#740f98"/>
      <stop offset="0.24" stop-color="#640a92"/>
      <stop offset="0.34" stop-color="#5b078f"/>
      <stop offset="0.48" stop-color="#58068e"/>
      <stop offset="0.63" stop-color="#4d22a3"/>
      <stop offset="0.94" stop-color="#3168da"/>
      <stop offset="1" stop-color="#2c75e4"/>
    </linearGradient>
    <linearGradient id="linear-gradient888-3" x1="-0.095" y1="0.502" x2="1.124" y2="0.502" gradientUnits="objectBoundingBox">
      <stop offset="0" stop-color="#d4088c"/>
      <stop offset="0.23" stop-color="#d4088c"/>
      <stop offset="0.51" stop-color="#6ee1f8"/>
      <stop offset="0.78" stop-color="#6ee8fc"/>
      <stop offset="1" stop-color="#6ee8fc"/>
    </linearGradient>
    <linearGradient id="linear-gradient888-4" x1="6.709" y1="18.3" x2="7.283" y2="17.44" gradientUnits="objectBoundingBox">
      <stop offset="0" stop-color="#8d139b"/>
      <stop offset="0.17" stop-color="#851ba1"/>
      <stop offset="0.43" stop-color="#6e33b2"/>
      <stop offset="0.76" stop-color="#4958cd"/>
      <stop offset="1" stop-color="#2979e4"/>
    </linearGradient>
    <linearGradient id="linear-gradient888-5" x1="-0.094" y1="0.5" x2="1.123" y2="0.5" xlink:href="#linear-gradient888-2"/>
    <linearGradient id="linear-gradient888-6" x1="-0.094" y1="0.5" x2="1.123" y2="0.5" xlink:href="#linear-gradient888-3"/>
    <linearGradient id="linear-gradient888-7" x1="4.765" y1="12.966" x2="5.34" y2="12.104" xlink:href="#linear-gradient888-4"/>
    <linearGradient id="linear-gradient888-8" x1="6.334" y1="17.091" x2="6.909" y2="16.229" gradientUnits="objectBoundingBox">
      <stop offset="0" stop-color="#630692"/>
      <stop offset="0.23" stop-color="#5b0e94"/>
      <stop offset="0.59" stop-color="#432399"/>
      <stop offset="1" stop-color="#2142a1"/>
    </linearGradient>
    <clipPath id="clip-path">
      <path id="Path_2235" data-name="Path 2235" d="M302.487,274.991,280.577,262.4c-1.561-.894-1.36-2.518.441-3.513l21.029-12.139a6.724,6.724,0,0,1,6.082-.252l21.91,12.592c1.561.907,1.36,2.518-.441,3.513l-21.029,12.151a6.8,6.8,0,0,1-6.082.239Z" transform="translate(-279.525 -245.888)" fill="none"/>
    </clipPath>
    <linearGradient id="linear-gradient888-9" x1="-0.095" y1="0.5" x2="1.123" y2="0.5" xlink:href="#linear-gradient888-2"/>
    <linearGradient id="linear-gradient888-10" x1="-0.097" y1="0.5" x2="1.124" y2="0.5" xlink:href="#linear-gradient888-3"/>
    <linearGradient id="linear-gradient888-11" x1="9.064" y1="19.235" x2="9.639" y2="18.375" xlink:href="#linear-gradient888-4"/>
  </defs>
  <g id="Group_617" data-name="Group 617" transform="translate(-11904.412 1790.745)">
    <path id="Path_2271" data-name="Path 2271" d="M154.261-20.745c54.36,0,59.027,102.728,59.027,157.089s-106.06,49.031-160.421,49.031S-7.588,121.2-7.588,66.844,99.9-20.745,154.261-20.745Z" transform="translate(11912 -1770)" fill="url(#linear-gradient888)"/>
    <g id="_2" data-name="2" transform="translate(11943.01 -1759.597)">
      <path id="Path_2215" data-name="Path 2215" d="M384.889,258.061H364.578l-5.641-3.236c-2.909-1.687-8-1.473-11.333.466l-5.578,3.249H321.69v13.637h0a3.3,3.3,0,0,0,1.952,3.047l23.988,13.851c2.909,1.687,8,1.473,11.333-.466l23.106-13.373a4.8,4.8,0,0,0,2.77-3.513h0Z" transform="translate(-225.078 -231.113)" fill="url(#linear-gradient888-2)"/>
      <path id="Path_2216" data-name="Path 2216" d="M382.1,270.723l-23.106,13.36c-3.362,1.939-8.449,2.153-11.333.479l-23.988-13.851a3.287,3.287,0,0,1-1.952-3.047h0v.944h0a3.3,3.3,0,0,0,1.952,3.047l23.988,13.851c2.909,1.687,8,1.473,11.333-.466L382.1,271.668a4.8,4.8,0,0,0,2.77-3.513h0v-.944h0a4.823,4.823,0,0,1-2.77,3.513Z" transform="translate(-225.07 -227.607)" fill="url(#linear-gradient888-3)"/>
      <path id="Path_2217" data-name="Path 2217" d="M322.987,273.121h0V259.483h20.3l5.591-3.249c3.362-1.939,8.449-2.153,11.333-.479L365.85,259h19.026v-.944h-20.3l-5.641-3.236c-2.909-1.687-8-1.473-11.333.466l-5.578,3.249H321.69v13.637h0a3.3,3.3,0,0,0,1.952,3.047l.227.126A2.821,2.821,0,0,1,322.987,273.121Z" transform="translate(-225.078 -231.113)" fill="#d4088c"/>
      <path id="Path_2218" data-name="Path 2218" d="M347.641,278.225l-23.988-13.851c-2.921-1.687-2.518-4.621.806-6.56l23.119-13.373c3.362-1.939,8.449-2.153,11.333-.466L382.9,257.826c2.921,1.687,2.518,4.621-.818,6.56l-23.106,13.373C355.637,279.7,350.55,279.912,347.641,278.225Z" transform="translate(-225.077 -233.925)" fill="url(#linear-gradient888-4)"/>
      <path id="Path_2219" data-name="Path 2219" d="M376.733,257.828l-23.988-13.851a10.526,10.526,0,0,0-5.729-1.108,9.369,9.369,0,0,1,4.13,1.108l23.988,13.851c2.909,1.687,2.518,4.621-.818,6.56l-23.106,13.373a13.057,13.057,0,0,1-5.629,1.574,13.41,13.41,0,0,0,7.228-1.574l23.106-13.31C379.289,262.449,379.654,259.515,376.733,257.828Z" transform="translate(-218.885 -233.927)" fill="#6ee8fc"/>
      <path id="Path_2220" data-name="Path 2220" d="M349.464,278.226l-23.925-13.851c-2.921-1.687-2.518-4.621.806-6.56l23.119-13.373A12.97,12.97,0,0,1,355,242.868a13.46,13.46,0,0,0-7.379,1.574l-23.119,13.373c-3.362,1.939-3.778,4.873-.806,6.56l23.988,13.851a10.6,10.6,0,0,0,5.817,1.108,9.545,9.545,0,0,1-4.042-1.108Z" transform="translate(-225.073 -233.926)" fill="#d4088c"/>
      <path id="Path_2221" data-name="Path 2221" d="M361.928,266.1c-6.485,3.778-16.987,3.778-23.459,0s-6.472-9.809,0-13.549,16.974-3.778,23.459,0S368.4,262.359,361.928,266.1Z" transform="translate(-221.987 -232.138)" fill="#6ee8fc"/>
      <path id="Path_2222" data-name="Path 2222" d="M338.468,256.119c6.472-3.778,16.974-3.778,23.459,0a9.457,9.457,0,0,1,4.558,5.037c.982-3.01-.529-6.233-4.558-8.563-6.485-3.778-16.987-3.778-23.459,0-4.029,2.33-5.54,5.553-4.558,8.563a9.457,9.457,0,0,1,4.558-5.037Z" transform="translate(-221.985 -232.13)" fill="#267fe5"/>
      <path id="Path_2223" data-name="Path 2223" d="M357.7,260.587H337.552L315.075,247.63c-2.884-1.662-7.933-1.448-11.27.479l-21.658,12.479H262V318.9h0a3.249,3.249,0,0,0,1.939,3.022l40.685,23.421c2.884,1.675,7.933,1.461,11.27-.466l39.035-22.514a4.76,4.76,0,0,0,2.77-3.463h0Z" transform="translate(-240.549 -232.972)" fill="url(#linear-gradient888-5)"/>
      <path id="Path_2224" data-name="Path 2224" d="M354.886,306.718l-39.035,22.514c-3.337,1.927-8.386,2.141-11.27.466l-40.622-23.446a3.249,3.249,0,0,1-1.939-3.022h0v.97h0a3.249,3.249,0,0,0,1.939,3.022l40.66,23.421c2.884,1.675,7.933,1.461,11.27-.466l39.035-22.514a4.76,4.76,0,0,0,2.77-3.463h0v-.932h0A4.76,4.76,0,0,1,354.886,306.718Z" transform="translate(-240.544 -218.271)" fill="url(#linear-gradient888-6)"/>
      <path id="Path_2225" data-name="Path 2225" d="M263.335,319.808h0V261.519h20.147l21.608-12.479c3.337-1.927,8.386-2.141,11.333-.466l22.389,12.945H357.7v-.932H337.552L315.075,247.63c-2.884-1.662-7.933-1.448-11.27.479l-21.658,12.479H262V318.9h0a3.249,3.249,0,0,0,1.939,3.022l.227.126a2.783,2.783,0,0,1-.831-2.241Z" transform="translate(-240.549 -232.972)" fill="#d4088c"/>
      <path id="Path_2226" data-name="Path 2226" d="M337.247,258.744V316.97h0a3.6,3.6,0,0,1-.957,2.065,4.369,4.369,0,0,0,2.153-3.06h0V257.8a5.868,5.868,0,0,0-1.2.944Z" transform="translate(-221.293 -230.046)" fill="#6ee8fc"/>
      <path id="Path_2227" data-name="Path 2227" d="M304.613,289.84l-40.622-23.459c-2.9-1.662-2.518-4.571.806-6.5l39.035-22.527c3.337-1.914,8.386-2.128,11.27-.466l40.622,23.459c2.9,1.662,2.518,4.583-.806,6.51l-39.035,22.514C312.546,291.3,307.5,291.464,304.613,289.84Z" transform="translate(-240.538 -235.756)" fill="url(#linear-gradient888-7)"/>
      <path id="Path_2228" data-name="Path 2228" d="M346.086,260.352l-40.622-23.459a10.6,10.6,0,0,0-5.679-1.1,9.406,9.406,0,0,1,4.092,1.1L344.5,260.352c2.884,1.662,2.518,4.583-.806,6.51l-39.035,22.514a12.781,12.781,0,0,1-5.578,1.561,13.221,13.221,0,0,0,7.177-1.561l39.035-22.514C348.617,264.936,348.982,262.015,346.086,260.352Z" transform="translate(-230.938 -235.759)" fill="#6ee8fc"/>
      <path id="Path_2229" data-name="Path 2229" d="M303.429,281.625,273.209,264.16c-2.153-1.259-1.876-3.412.6-4.835l29.037-16.773a9.293,9.293,0,0,1,8.386-.34l30.221,17.452c2.153,1.259,1.876,3.412-.6,4.848l-29.037,16.76a9.293,9.293,0,0,1-8.386.353Z" transform="translate(-238.02 -234.304)" fill="url(#linear-gradient888-8)"/>
      <path id="Path_2230" data-name="Path 2230" d="M302.487,274.991,280.577,262.4c-1.561-.894-1.36-2.518.441-3.513l21.029-12.139a6.724,6.724,0,0,1,6.082-.252l21.91,12.592c1.561.907,1.36,2.518-.441,3.513l-21.029,12.151a6.8,6.8,0,0,1-6.082.239Z" transform="translate(-236.007 -233.134)" fill="#6de0f6"/>
      <path id="Path_2231" data-name="Path 2231" d="M306.435,289.841l-40.66-23.459c-2.884-1.662-2.518-4.571.818-6.5l39.035-22.527a12.781,12.781,0,0,1,5.478-1.549,13.385,13.385,0,0,0-7.3,1.511l-39.035,22.527c-3.337,1.927-3.7,4.835-.806,6.5L304.584,289.8a10.438,10.438,0,0,0,5.767,1.1A9.418,9.418,0,0,1,306.435,289.841Z" transform="translate(-240.547 -235.757)" fill="#d4088c"/>
      <g id="Group_615" data-name="Group 615" transform="translate(43.518 12.754)" clip-path="url(#clip-path)">
        <path id="Path_2232" data-name="Path 2232" d="M281.008,260.566l21.041-12.151a6.8,6.8,0,0,1,6.082-.252l21.923,12.655a2.442,2.442,0,0,1,.768.693,1.637,1.637,0,0,0-.768-2.405l-21.923-12.592a6.8,6.8,0,0,0-6.082.252l-21.041,12.151c-1.4.818-1.813,1.939-1.259,2.821a3.488,3.488,0,0,1,1.259-1.171Z" transform="translate(-279.528 -245.881)" fill="#267fe5"/>
        <path id="Path_2233" data-name="Path 2233" d="M281,262.291l21.041-12.151a6.8,6.8,0,0,1,6.082-.252L330.05,262.48a2.315,2.315,0,0,1,.642.541,1.649,1.649,0,0,0-.642-2.607l-21.923-12.592a6.8,6.8,0,0,0-6.082.252L281,260.226c-1.486.856-1.864,2.078-1.083,2.972a3.777,3.777,0,0,1,1.083-.907Z" transform="translate(-279.525 -245.541)" fill="#25bfec"/>
        <path id="Path_2234" data-name="Path 2234" d="M280.125,265.065a3.866,3.866,0,0,1,.869-.68l21.041-12.151a6.8,6.8,0,0,1,6.082-.252l21.923,12.592a2.9,2.9,0,0,1,.428.315,1.662,1.662,0,0,0-.428-2.833l-21.923-12.592a6.8,6.8,0,0,0-6.082.252l-21.041,12.151C279.395,262.8,279.08,264.145,280.125,265.065Z" transform="translate(-279.526 -245.116)" fill="#18d0f7"/>
      </g>
      <path id="Path_2236" data-name="Path 2236" d="M311.8,319.9l-2.241,1.259c-.592.34-1.058,0-1.058-.793v-31.48a2.518,2.518,0,0,1,1.058-2.015l2.241-1.259c.579-.34,1.058,0,1.058.793v31.48A2.518,2.518,0,0,1,311.8,319.9Z" transform="translate(-228.496 -222.87)" fill="#6de0f6"/>
      <path id="Path_2237" data-name="Path 2237" d="M311.8,285.636l-.541.315v30.888a2.518,2.518,0,0,1-1.045,2l-1.712.995v.567c0,.768.466,1.133,1.058.793l2.241-1.259a2.518,2.518,0,0,0,1.058-2.015v-31.48C312.907,285.661,312.378,285.3,311.8,285.636Z" transform="translate(-228.496 -222.864)" fill="#267fe5"/>
      <path id="Path_2238" data-name="Path 2238" d="M318.4,316.081l-2.254,1.259c-.579.34-1.058,0-1.058-.793v-31.48a2.518,2.518,0,0,1,1.058-2l2.254-1.259c.579-.327,1.045,0,1.045.793v31.48a2.519,2.519,0,0,1-1.045,2Z" transform="translate(-226.788 -223.856)" fill="#6de0f6"/>
      <path id="Path_2239" data-name="Path 2239" d="M324.989,312.292l-2.254,1.259c-.579.327-1.045,0-1.045-.793v-31.48a2.518,2.518,0,0,1,1.045-2l2.254-1.259c.579-.34,1.045,0,1.045.793v31.48A2.519,2.519,0,0,1,324.989,312.292Z" transform="translate(-225.077 -224.84)" fill="#6de0f6"/>
      <path id="Path_2240" data-name="Path 2240" d="M331.579,308.481l-2.254,1.259c-.579.34-1.045,0-1.045-.793v-31.48a2.518,2.518,0,0,1,1.045-2l2.254-1.259c.579-.327,1.045,0,1.045.793v31.48A2.518,2.518,0,0,1,331.579,308.481Z" transform="translate(-223.369 -225.826)" fill="#6de0f6"/>
      <path id="Path_2241" data-name="Path 2241" d="M318.4,281.825l-.541.315v30.888a2.518,2.518,0,0,1-1.058,2.015l-1.713.982v.567c0,.781.479,1.133,1.058.793l2.254-1.259a2.518,2.518,0,0,0,1.045-2v-31.48C319.447,281.85,318.981,281.5,318.4,281.825Z" transform="translate(-226.788 -223.85)" fill="#267fe5"/>
      <path id="Path_2242" data-name="Path 2242" d="M324.989,278.027l-.541.315V309.23a2.519,2.519,0,0,1-1.058,2l-1.7.995v.567c0,.768.466,1.121,1.045.793l2.254-1.259a2.518,2.518,0,0,0,1.045-2.015v-31.48C326.034,278.027,325.568,277.687,324.989,278.027Z" transform="translate(-225.077 -224.837)" fill="#267fe5"/>
      <path id="Path_2243" data-name="Path 2243" d="M331.579,274.215l-.542.315v30.926a2.518,2.518,0,0,1-1.045,2.015l-1.712.982v.567c0,.781.466,1.133,1.045.793l2.254-1.259a2.518,2.518,0,0,0,1.045-2v-31.48C332.624,274.24,332.158,273.888,331.579,274.215Z" transform="translate(-223.369 -225.823)" fill="#267fe5"/>
      <path id="Path_2244" data-name="Path 2244" d="M299.775,327.342a1.65,1.65,0,0,1-.831-.239l-29.339-16.936a4.256,4.256,0,0,1-1.813-3.438V273.436a1.776,1.776,0,0,1,.743-1.624,1.4,1.4,0,0,1,1.423.088l29.327,16.936a4.269,4.269,0,0,1,1.826,3.438v33.293a1.813,1.813,0,0,1-.743,1.624A1.26,1.26,0,0,1,299.775,327.342Zm-.491-.844a.73.73,0,0,0,.73.088,1.133,1.133,0,0,0,.4-1.02V292.236a3.6,3.6,0,0,0-1.473-2.833l-29.339-16.949a.793.793,0,0,0-.73-.088,1.259,1.259,0,0,0-.39,1.033v33.293a3.563,3.563,0,0,0,1.473,2.833Z" transform="translate(-239.05 -226.454)" fill="#480689"/>
      <path id="Path_2245" data-name="Path 2245" d="M272.938,278.8c0,.919-.642,1.259-1.436.831a3.173,3.173,0,0,1-1.423-2.518c0-.907.642-1.259,1.423-.819a3.148,3.148,0,0,1,1.436,2.506Z" transform="translate(-238.455 -225.3)" fill="#6de0f6"/>
      <path id="Path_2246" data-name="Path 2246" d="M272.938,282.485c0,.907-.642,1.259-1.436.831a3.211,3.211,0,0,1-1.423-2.518c0-.907.642-1.259,1.423-.818a3.148,3.148,0,0,1,1.436,2.506Z" transform="translate(-238.455 -224.346)" fill="#6de0f6"/>
      <path id="Path_2247" data-name="Path 2247" d="M272.938,286.167c0,.907-.642,1.259-1.436.818a3.16,3.16,0,0,1-1.423-2.518c0-.907.642-1.259,1.423-.819A3.148,3.148,0,0,1,272.938,286.167Z" transform="translate(-238.455 -223.395)" fill="#6de0f6"/>
      <path id="Path_2248" data-name="Path 2248" d="M272.221,286.429a3.161,3.161,0,0,1-1.423-2.518,1.55,1.55,0,0,1,.063-.441c-.466,0-.781.365-.781,1.007A3.161,3.161,0,0,0,271.5,287c.642.378,1.184.189,1.36-.365a1.409,1.409,0,0,1-.642-.2Z" transform="translate(-238.455 -223.393)" fill="#267fe5"/>
      <path id="Path_2249" data-name="Path 2249" d="M272.221,282.749a3.173,3.173,0,0,1-1.423-2.518,1.55,1.55,0,0,1,.063-.441c-.466,0-.781.365-.781,1.007a3.161,3.161,0,0,0,1.423,2.518c.642.378,1.184.189,1.36-.378a1.259,1.259,0,0,1-.642-.189Z" transform="translate(-238.455 -224.346)" fill="#267fe5"/>
      <path id="Path_2250" data-name="Path 2250" d="M272.221,279.059a3.135,3.135,0,0,1-1.423-2.518,1.486,1.486,0,0,1,.063-.441c-.466,0-.781.365-.781,1.007a3.161,3.161,0,0,0,1.423,2.518c.642.378,1.184.189,1.36-.378a1.259,1.259,0,0,1-.642-.189Z" transform="translate(-238.455 -225.303)" fill="#267fe5"/>
      <path id="Path_2251" data-name="Path 2251" d="M291.4,304.043l-.944-.554a1.259,1.259,0,0,1-.541-1.007v-4.546c0-.39.239-.567.541-.4l.944.541a1.259,1.259,0,0,1,.529,1.02v4.546C291.925,304.03,291.685,304.206,291.4,304.043Z" transform="translate(-233.315 -219.763)" fill="#480689"/>
      <path id="Path_2261" data-name="Path 2261" d="M308.187,343.791H287.876l-5.641-3.236c-2.921-1.687-8.008-1.473-11.333.466l-5.578,3.249H245v13.637h0a3.3,3.3,0,0,0,1.952,3.035l23.925,13.851c2.909,1.687,8,1.473,11.333-.466l23.232-13.385a4.8,4.8,0,0,0,2.77-3.513h0Z" transform="translate(-244.955 -208.891)" fill="url(#linear-gradient888-9)"/>
      <path id="Path_2262" data-name="Path 2262" d="M305.418,356.475,282.3,369.848c-3.362,1.939-8.449,2.153-11.333.466l-23.925-13.851a3.311,3.311,0,0,1-1.952-3.047h0v.944h0a3.3,3.3,0,0,0,1.952,3.035l23.925,13.851c2.909,1.687,8,1.473,11.333-.466l23.119-13.36a4.8,4.8,0,0,0,2.77-3.513h0V353h0a4.8,4.8,0,0,1-2.77,3.475Z" transform="translate(-244.932 -205.37)" fill="url(#linear-gradient888-10)"/>
      <path id="Path_2263" data-name="Path 2263" d="M246.259,358.841h0v-13.65H266.57l5.578-3.236c3.362-1.952,8.449-2.153,11.333-.479l5.629,3.249h19.039v-.944H287.876l-5.641-3.236c-2.921-1.687-8.008-1.473-11.333.466l-5.578,3.249H245v13.65h0a3.3,3.3,0,0,0,1.952,3.035l.227.138a2.846,2.846,0,0,1-.919-2.241Z" transform="translate(-244.955 -208.894)" fill="#d4088c"/>
      <path id="Path_2264" data-name="Path 2264" d="M270.917,363.952,246.992,350.1c-2.909-1.675-2.518-4.609.818-6.56l23.106-13.36c3.362-1.939,8.449-2.153,11.333-.466l23.988,13.851c2.909,1.687,2.518,4.621-.818,6.56l-23.144,13.36C278.913,365.425,273.826,365.627,270.917,363.952Z" transform="translate(-244.946 -211.701)" fill="url(#linear-gradient888-11)"/>
      <path id="Path_2265" data-name="Path 2265" d="M300.035,343.559l-23.988-13.851a10.464,10.464,0,0,0-5.742-1.108,9.318,9.318,0,0,1,4.13,1.108l23.925,13.851c2.921,1.687,2.518,4.621-.806,6.56L274.5,363.492a13.006,13.006,0,0,1-5.629,1.574,13.385,13.385,0,0,0,7.228-1.574l23.157-13.373C302.579,348.18,302.944,345.246,300.035,343.559Z" transform="translate(-238.768 -211.707)" fill="#6ee8fc"/>
      <path id="Path_2266" data-name="Path 2266" d="M272.774,363.951,248.787,350.1c-2.909-1.675-2.518-4.609.818-6.56l23.106-13.348a13.02,13.02,0,0,1,5.54-1.574,13.486,13.486,0,0,0-7.379,1.574l-23.106,13.36c-3.362,1.952-3.778,4.886-.818,6.56l23.925,13.851a10.78,10.78,0,0,0,5.83,1.108A9.548,9.548,0,0,1,272.774,363.951Z" transform="translate(-244.965 -211.7)" fill="#d4088c"/>
      <path id="Path_2267" data-name="Path 2267" d="M285.216,351.829c-6.472,3.778-16.974,3.778-23.446,0s-6.485-9.809,0-13.549,16.974-3.778,23.446,0S291.7,348.089,285.216,351.829Z" transform="translate(-241.868 -209.916)" fill="#6ee8fc"/>
      <path id="Path_2268" data-name="Path 2268" d="M261.77,341.836c6.472-3.778,16.974-3.778,23.446,0a9.532,9.532,0,0,1,4.571,5.037c.982-3-.541-6.22-4.571-8.55-6.472-3.778-16.974-3.778-23.446,0-4.029,2.33-5.553,5.553-4.571,8.55A9.482,9.482,0,0,1,261.77,341.836Z" transform="translate(-241.868 -209.909)" fill="#267fe5"/>
    </g>
  </g>
</svg>
