<svg xmlns="http://www.w3.org/2000/svg" width="639.727" height="267.547" viewBox="0 0 639.727 267.547">
  <defs>
    <linearGradient id="linear-gradient1" x1="1.058" y1="0.5" x2="0.021" y2="0.931" gradientUnits="objectBoundingBox">
      <stop offset="0" stop-color="#0050d8" stop-opacity="0.902"/>
      <stop offset="1" stop-color="#2868d7" stop-opacity="0.831"/>
    </linearGradient>
    <filter id="Exclusion_3" x="0" y="0" width="639.727" height="267.547" filterUnits="userSpaceOnUse">
      <feOffset dy="3" input="SourceAlpha"/>
      <feGaussianBlur stdDeviation="3.5" result="blur"/>
      <feFlood flood-opacity="0.141"/>
      <feComposite operator="in" in2="blur"/>
      <feComposite in="SourceGraphic"/>
    </filter>
  </defs>
  <g id="Group_463" data-name="Group 463" transform="translate(-3472.413 1062.5)">
    <g transform="matrix(1, 0, 0, 1, 3472.41, -1062.5)" filter="url(#Exclusion_3)">
      <path id="Exclusion_3-2" data-name="Exclusion 3" d="M34.925,246.547h0c-7.221,0-13.41-1.192-18.4-3.542a25.978,25.978,0,0,1-11.207-9.918c-6.542-10.546-7.051-27.3-1.515-49.79a259.22,259.22,0,0,1,10.769-32.844c4.3-10.86,9.542-22.557,15.593-34.767a6.673,6.673,0,0,1,.781-.492,1.251,1.251,0,0,1,.438-.105.825.825,0,0,0,.7-.343c.2-.317.118-.563-.015-.971-.055-.17-.117-.364-.172-.6a3.973,3.973,0,0,0-.23-.5c.466-.926.956-1.894,1.5-2.962a2.452,2.452,0,0,0,.523.121,5.769,5.769,0,0,1,1.718.56v.617a4.271,4.271,0,0,0,.609.807,3.837,3.837,0,0,1,.661.911c.061.134.073.232.034.292a.207.207,0,0,1-.186.071,3.421,3.421,0,0,1-1.1-.363,1.466,1.466,0,0,0-.762-.168h.613a1.85,1.85,0,0,0-.747-.186c-.033,0-.047,0-.049,0s0,.008.005.015a.279.279,0,0,1,.044.156H34.52l-.1-.007a2.91,2.91,0,0,0,.7,1,2.517,2.517,0,0,1,.752,1.184c.112.5-.355.766-1.027,1.084a.443.443,0,0,0-.33.211.189.189,0,0,0-.006.2c.087.145.25.415,1.587.415.1,0,.194,0,.281,0,.673,0,2.074,0,2.111.391a.342.342,0,0,1-.068.275c-.115.127-.362.137-.7.137a.9.9,0,0,0-.139-.011.859.859,0,0,0-.645.291,1.692,1.692,0,0,0-.389.614l0,.007a1.964,1.964,0,0,1-.3.518,4.524,4.524,0,0,1-.624.529,6.3,6.3,0,0,0-.646.535v.131c.12,0,.229,0,.341,0a13.3,13.3,0,0,0,2.909-.322,17.343,17.343,0,0,1,2.069-.111h.009a14.5,14.5,0,0,0,2.553-.188l2.632-.877a.856.856,0,0,0-.654-.254,3.127,3.127,0,0,0-.34.025l-.033,0a3.333,3.333,0,0,1-.391.031,1.077,1.077,0,0,1-.45-.086,1.747,1.747,0,0,1,.073-1.147,1.8,1.8,0,0,0,.076-1.168c-.464-1.2-.943-1.368-1.39-1.368-.042,0-.083,0-.121,0H42.23c-1.047,0-1.719-1.368-1.721-1.382l.86.168a2.851,2.851,0,0,0,.715.2.127.127,0,0,0,.1-.029.063.063,0,0,0,.01-.054,1.9,1.9,0,0,0-.411-.411,39.658,39.658,0,0,1-3.94-2.559,11.118,11.118,0,0,0-1.588-1.643,5.565,5.565,0,0,0-2.224-.843c2.336-4.544,4.776-9.152,7.253-13.7a2.064,2.064,0,0,1,.2.965c-.3,2.3-.3,2.3-1.569,3.212-.461.314-.452.478-.205,1.1.029.067,2.894,6.714,5.751,6.714a1.84,1.84,0,0,0,.785-.177c1-.463.506-2.1.268-2.894l0-.006,0-.014a70.368,70.368,0,0,1,6.891,7.47c.46.8.937,1.625,1.867,1.625a6.132,6.132,0,0,0-.28-3.511c-1.235-2.32-.948-2.582-.318-3.156,0-.541,0-.765-1.662-1.867-1.139-.747-1.139-.747-2.651-3.193a2.107,2.107,0,0,1-.153-1.4,1.814,1.814,0,0,0-.333-1.624c-2.241-2.316-2.241-2.316-2.3-2.465l-.13-.281a1.354,1.354,0,0,1,.112-.167,11.594,11.594,0,0,1,3.735,2.689h-.224c2.166,4.818,2.166,4.818,4.2,6.723a7.644,7.644,0,0,0,3.363,1.666l.006,0a6.867,6.867,0,0,1,2.924,1.395,5.487,5.487,0,0,1-.859-.337l-.168.113a4.715,4.715,0,0,0,.392.6,20.491,20.491,0,0,0-3.118-.878,38.152,38.152,0,0,1,3.735,4.669c-.569,0-.884-.412-1.19-.811l0-.005c-.307-.4-.624-.814-1.195-.814-.037,0-.075,0-.114.005l-.13.186.017.03c.236.43,1.419,2.586,1.552,2.753.047.058,1.142,1.436,1.084,2.017H60.7c-.079,0-.111.175-.144.36l0,.013a1.647,1.647,0,0,1-.078.318l.112.149-.1-.007c-1.588-.108-2.383-.162-2.782-.162-.414,0-.418.056-.427.168l-.467.28a8.357,8.357,0,0,0-2.363-.807l1.5.266a3.349,3.349,0,0,0-2.041-.7c-.08,0-.16,0-.238.008-.433,0-.523,0-1.755-1.363a6.5,6.5,0,0,1-1.868-3.735c0-.555-.792-2.765-1.382-2.839-.011,0-1.146,0-1.439.425a.411.411,0,0,0-.036.4,38,38,0,0,0,3.866,5.976c.613.7.65.813.67.872l0,.006a.032.032,0,0,1,0,.03c-.03.051-.207.1-.556.157l-1.1.187-.317.448H49.6c-1.6,0-1.616.016-2.065.428a18.529,18.529,0,0,0,.841,2.969l-.28.5a4.242,4.242,0,0,0-2.279.261,8.158,8.158,0,0,0,.635,1.625,5.749,5.749,0,0,1-1.233.6,3.242,3.242,0,0,1-.261,1.177c-.109.009-.215.013-.316.013a3.748,3.748,0,0,1-2.354-.835,11.866,11.866,0,0,0,.672,1.027l-.187.56c-.326.127-.8.3-1.139.392a2.808,2.808,0,0,0-2.129-.56l-.243.523,1.1.952-.448.336a8.928,8.928,0,0,1,6.574,10.141,47.685,47.685,0,0,1-5.879-.9c-1.61-.317-3.274-.645-4.953-.817a6.14,6.14,0,0,0,.71.971c0,.1.4,9.862,1.643,10.234-.336,3.007-.336,3.007-.392,3.287a12.071,12.071,0,0,1,4.164,0c.429,1.718.429,1.718.448,1.755l5.958-1.979a1.754,1.754,0,0,0,1.4-1.019,2.919,2.919,0,0,0-.223-2.716c.953-3.926,1-3.944,3.455-4.893,0-3.174,0-3.174.3-3.38a1.2,1.2,0,0,1,.779-.315,2.4,2.4,0,0,1,1.135.433,2.441,2.441,0,0,0,1.166.442c.713-1.261,1.347-2.1,2.12-2.1a1.772,1.772,0,0,1,1.166.571c.344.4,8.427,9.71,9.226,12.307.257.842.351,1.328.145,1.65-.3.472-1.244.6-3.308.889h-.012a18.177,18.177,0,0,0,2.821,3.025,2.964,2.964,0,0,0-.024-1.53,3.548,3.548,0,0,1-.089-1.289h.523a6,6,0,0,0,.56-1.127,6.968,6.968,0,0,1,.467-.984,6.254,6.254,0,0,1-.5-2.483l.523-.131.728.953c-.186-.86-.186-.86-3.006-4.24a4.682,4.682,0,0,0,.13-.541c-1.322-.578-2.366-1.035-5.9-8.274a2.075,2.075,0,0,1,.822-.672l7.993,9.337,2.409,6.891,2.54,5.808v-1.12a21.056,21.056,0,0,0-.8-4c-.859-4.314-.859-4.314-.448-4.631a4.182,4.182,0,0,1,2.746,2.39,10.29,10.29,0,0,0,.448-1.027h.579a13.038,13.038,0,0,0-.923-5.715,13.425,13.425,0,0,1-.944-5.49,1.567,1.567,0,0,1,1.008,0l-.224.486a3.759,3.759,0,0,0,1.27,1.065,2.977,2.977,0,0,1,0,1.868,20.71,20.71,0,0,1,1.2,1.867c1.066-.618.611-1.516.129-2.468a2.887,2.887,0,0,1-.5-2.145,2.018,2.018,0,0,1,.436-.057c.475,0,.606.29.8.8l-.28.5c.3.467.3.467.728,2.166l-.3.448a21.563,21.563,0,0,0,1.841,3.331c1.258,1.988,2.558,4.043,2.473,6.66l-.467.262a4.7,4.7,0,0,1-1.353-1.946c-.532-1.109-1.035-2.156-2.223-2.156a2.494,2.494,0,0,0-.626.086,1.866,1.866,0,0,1-.392.971,7.76,7.76,0,0,0-1.065-.3,1.985,1.985,0,0,0,.5.878,1.809,1.809,0,0,1-1.152.35,2.326,2.326,0,0,0-.921.191,6.493,6.493,0,0,0,0,1.214l.5.149,0,.013c.262,2,.749,5.725,3.229,7.812l.373-.391v-.542a4.4,4.4,0,0,1,.87,1.1l0,.006a3.336,3.336,0,0,0,1.143,1.269,5.33,5.33,0,0,0,.243-1.083,2.884,2.884,0,0,0,.9.6c.41,7.6.472,8.762-.355,10.831-1.11,0-1.274-.332-1.625-1.382a1.542,1.542,0,0,0-.933.373c-1.781-.128-2.623-1.491-3.437-2.809-.848-1.373-1.724-2.793-3.66-2.793a4.36,4.36,0,0,0-.4,2.191,5.245,5.245,0,0,1-.231,1.824l-.523.206c-.8-.591-9.154-8.2-9.729-9.151a1.184,1.184,0,0,1,.261-1.176c.448-.71.448-.71.112-5.21a18.6,18.6,0,0,0-1.644-.99,1.342,1.342,0,0,1-.933.4,16.086,16.086,0,0,1-2.766-.544l-.035-.008a6.991,6.991,0,0,0-.747.915,4.843,4.843,0,0,0-1.78-.333,10.5,10.5,0,0,0-3.848,1.019l-.009,0a10.536,10.536,0,0,1-3.849,1.017,4.844,4.844,0,0,1-1.607-.269h-.6l-.021,0a4.5,4.5,0,0,1-.845.121c-.585,0-1.028-.307-1.823-1.264l-.243-.168a3.724,3.724,0,0,0-.485.448,2.664,2.664,0,0,0-.465,1.564,2.638,2.638,0,0,1-.45,1.536,4.216,4.216,0,0,1-1.463.948,4.571,4.571,0,0,0-1.954,1.405,1.813,1.813,0,0,0-.157,1.071c.007.144.012.272.007.386-.262,4.781-.262,4.781-1.551,5.416a13.644,13.644,0,0,0-3.379,2.5c-.636.993-4.726,8.075-5.964,10.222l-.05.086a9.144,9.144,0,0,0,.72,3.739,10.592,10.592,0,0,1,.737,3.171,3.676,3.676,0,0,1-1.041,2.2c-.679.867-1.381,1.764-.826,3.086a69.692,69.692,0,0,0,3.137,6.694c.537,1.045,1.143,2.226,1.7,3.391.659,1.39,5.65,6.183,6.7,6.183h.023a49.947,49.947,0,0,0,5.224-.866,36.6,36.6,0,0,1,7.235-.965,17.5,17.5,0,0,1,1.827.094,1.067,1.067,0,0,1,.466.261,1.948,1.948,0,0,1,.56,1.414,1.991,1.991,0,0,0,.543,1.407,2.707,2.707,0,0,0,1.793.526h.007a4.227,4.227,0,0,1,1.094.146,3.526,3.526,0,0,1-.149,3.735c-2.166,5.08-2.166,5.08-1.868,6.536.523,2.3,1.239,5.439-1.7,12.363a23.027,23.027,0,0,1-3.383,5.175,35.952,35.952,0,0,0-2.351,3.209,18.143,18.143,0,0,0-1.887,4.7l0,.01a20.932,20.932,0,0,1-1.27,3.533A81.09,81.09,0,0,1,34.925,246.547ZM82.36,160a.147.147,0,0,0-.094.033,1.87,1.87,0,0,0,.356,1.494.677.677,0,0,0,.205.224c.1.01.2.015.289.015s.188-.005.29-.015a8.819,8.819,0,0,0,.187-1.27v-.149l0,0a.555.555,0,0,0-.088.027,1.284,1.284,0,0,1-.356.086.6.6,0,0,1-.318-.112c-.073,0-.134-.07-.2-.143l-.006-.007a.616.616,0,0,0-.168-.149A.148.148,0,0,0,82.36,160Zm-6.013-2.861a.234.234,0,0,0-.217.1.376.376,0,0,0,.049.363,4.979,4.979,0,0,0,3.007,1.364s-.074-.091-.162-.2L79,158.742l-.035-.045c-.361-.457-.735-.929-.737-.944a.97.97,0,0,0-.391-.242,7.931,7.931,0,0,1-.915-.187Zm-15.3-15.632h0a2.227,2.227,0,0,0-1.55.933,2.609,2.609,0,0,0-.056,1.886.646.646,0,0,0,.289.15c.166.053.337.108.384.336a2.363,2.363,0,0,1,.016.68c-.007.094-.016.212-.016.328a.41.41,0,0,0,.355.337c.158,0,1.343-.256,1.382-1.214a1.907,1.907,0,0,0,0-.337,2.337,2.337,0,0,0-.13-.665l0-.012a3.19,3.19,0,0,1-.11-.444,4.313,4.313,0,0,1-.013-.812c.006-.131.013-.279.013-.42a.763.763,0,0,0-.561-.747Zm-8,1.683c-.24,0-.809.024-.916.246-.038.076-.015.169.068.275a2.352,2.352,0,0,0,1.345.58.391.391,0,0,0,.242-.131c0-.005.467-.523.467-.56a1.146,1.146,0,0,0-.841-.392C53.3,143.195,53.177,143.189,53.048,143.189Zm6.734-6.2h0l0,.13a6.06,6.06,0,0,0,0,1.157.783.783,0,0,1-.355.784.4.4,0,0,0-.149.374,1.292,1.292,0,0,0,.168.3c.009.01.9,1.046.952,1.083l0,0a12.47,12.47,0,0,0-.173-2.482A5.37,5.37,0,0,0,59.782,136.988ZM62.6,242.337h0c.178-.146.348-.3.507-.45A46.9,46.9,0,0,0,71.024,229.8c1.441-3.556,6.226-8.851,8.217-10.962a44.782,44.782,0,0,0,6.443-12.456l-.017-.005a2.119,2.119,0,0,0-.656-.135,6.732,6.732,0,0,0-1.008.14c-.244-.336-.244-.336.261-4.725a35.4,35.4,0,0,0-.224-4.855c0-1.688.122-3.39.239-5.036l0-.026a47.405,47.405,0,0,0,.132-7.525l-1.12-13.278c.261.429.261.429.541,2.335a2.093,2.093,0,0,0,.6-1.065c1.737,6.377,1.192,12.873.664,19.156a95.207,95.207,0,0,0-.5,10.912l.008-.005a3.418,3.418,0,0,1,1.214-.465,1.65,1.65,0,0,1,.365.059l.022-.048.022-.046c2.4-5.188,2.768-5.985,2.921-6.589a2.158,2.158,0,0,0-.014.222c.014-.134.031-.257.052-.377l-.007.03c-.007.03-.014.06-.021.089.019-.138.051-.28.081-.417s.067-.3.083-.428v-.373l.318-2.316.013-.1c.129-1.055.29-2.369.521-5.77a11.915,11.915,0,0,1-.384,2.138c-.224-.466-.224-.466,0-4.22-.112,1.2-.112,1.2-.187,1.718-.276-8.043-.151-8.9-.006-9.891l.006-.044a48.314,48.314,0,0,1,.58,10.205.325.325,0,0,0,0,.041c0,.01,0,.019,0,.027v0c0-.007,0-.014,0-.021s0-.028,0-.042v.523c.025-.84.06-1.732.1-2.676v-.02l.006-.143,0-.046v-.006c.093-2.423.189-4.928.176-7.025-.042-.751-.081-1.543-.122-2.356v-.013c-.128-2.563-.273-5.464-.513-7.754l-.065-.455c-.105-.746-.2-1.416-.309-2.065l.112.355c-.169-1.6-.473-3.168-.766-4.686l.052.334.015.095v.009c.174,1.115.371,2.38.585,3.894a75.946,75.946,0,0,1-2.2-11.3v.112c-3.493-11.578-3.493-11.578-3.549-12.139a66.279,66.279,0,0,0-3.455-8.46l-3.735-7.3-.006-.009-.007-.009c-.4-.667-.829-1.378-1.3-2.172l-.017-.029c-1.125-1.887-2.4-4.023-3.486-5.588l-.125-.171c-6.444-8.818-6.567-8.987-10.613-13.331l-4.333-4.388a5.666,5.666,0,0,0-.486-.448,26.972,26.972,0,0,0,2.055,2.222,10.155,10.155,0,0,1-.9-.672,10.145,10.145,0,0,0,2.128,2.166l-.168.113c-1.461-1.191-2.832-2.512-4.157-3.79l-.029-.028c-1.357-1.307-2.758-2.656-4.247-3.859A42.683,42.683,0,0,0,55,97.471a43.9,43.9,0,0,0-8.049-6.536,15.011,15.011,0,0,1-2.67-1.867l.41.167c-.135-.107-.278-.214-.427-.316a684.264,684.264,0,0,1,36.7-58.877C91.952,14.429,100.72,3.947,104.423,2a16.125,16.125,0,0,1,7.9-2c11.592,0,26.7,11.12,43.677,32.158A314.449,314.449,0,0,1,178.965,65.12c7.354,12,14.291,24.71,20.619,37.786.74,1.529,1.475,3.071,2.186,4.585a15.456,15.456,0,0,0-2.307,2.51,14.493,14.493,0,0,0-2.765,8.75,10.263,10.263,0,0,0,2.205,6.86,14.162,14.162,0,0,0,5.215,3.885,71.015,71.015,0,0,0,7.77,2.695l.553.157c-3.11-8.038-6.7-16.4-10.67-24.856a19.2,19.2,0,0,1,5.533-3.3,31.771,31.771,0,0,1,11.795-2.029,39.39,39.39,0,0,1,9.382,1.084,24.956,24.956,0,0,1,7.559,3.115l-4.27,8.68a20.2,20.2,0,0,0-6.159-2.835,26.9,26.9,0,0,0-7.141-.945,14.861,14.861,0,0,0-7.629,1.68,4.988,4.988,0,0,0-2.8,4.34,3.51,3.51,0,0,0,1.19,2.695,9.019,9.019,0,0,0,3.01,1.751c1.213.443,2.933.973,5.11,1.575a58.207,58.207,0,0,1,7.7,2.555,14.038,14.038,0,0,1,5.144,3.78,9.732,9.732,0,0,1,2.135,6.545,14.327,14.327,0,0,1-2.8,8.785,18.078,18.078,0,0,1-7.909,5.81,25.348,25.348,0,0,1-2.451.844c-.851-2.773-1.8-5.668-2.813-8.6a10.048,10.048,0,0,0,1.9-.814,4.7,4.7,0,0,0,2.73-4.2,3.627,3.627,0,0,0-2.17-3.325,35.257,35.257,0,0,0-6.377-2.329l.209.542.278.726c1.219,3.188,2.372,6.351,3.426,9.4a18.507,18.507,0,0,1-5.516.726,28.491,28.491,0,0,1-8.61-1.33,26.2,26.2,0,0,1-7.559-3.78l-4.621,8.75a27.076,27.076,0,0,0,8.541,3.92,39.988,39.988,0,0,0,11.129,1.54,34.17,34.17,0,0,0,9.449-1.221c1.079,3.513,2.038,6.935,2.852,10.171A108.334,108.334,0,0,1,225.64,184.9c.165,6.786-.867,12.006-3.067,15.515-2.244,3.58-5.724,5.4-10.341,5.4-.368,0-.731-.011-1.11-.033-3.442-.072-6.776-.108-9.91-.108-41.26,0-57.4,6.345-92.761,20.247l-.005,0c-6.785,2.668-14.474,5.692-23.225,9.014-6.123,2.325-12,4.327-17.469,5.95.445-.676.869-1.388,1.256-2.119l-.859.86c-.542.694-.891,1.137-1.183,1.49-1.5.439-2.967.849-4.364,1.22Zm25.48-87.288h0c.2,1.371.46,2.73.758,4.237A69.941,69.941,0,0,0,86.468,148.4l-.042-.129-.019-.06c-.2-.611-.385-1.188-.555-1.679,1.226,4.22,1.3,4.538,1.808,6.609l.06.245-.041-.139c-.029-.1-.064-.224-.094-.342l.49,2.2a.355.355,0,0,0,.005-.053Zm-.66-2.821h0a.706.706,0,0,0,.1.431c.02.079.041.161.064.245l-.051-.229-.013-.015C87.479,152.494,87.448,152.357,87.421,152.228ZM155.467,103l-9.8,49h37.94l1.89-9.1h-26.74L161,131.56h22.82l1.75-8.82H162.818l2.1-10.64h25.689l1.89-9.1Zm-53.548,0h0l-9.8,49h25.69c6.642,0,12.036-1.319,16.03-3.92s6.02-6.487,6.02-11.55a9.9,9.9,0,0,0-6.579-9.8,14.8,14.8,0,0,0,6.4-4.865,12.624,12.624,0,0,0,2.345-7.664,9.475,9.475,0,0,0-4.27-8.3c-2.833-1.928-6.931-2.905-12.181-2.905H101.919Zm-18.14,37.274h0c.414,1.192.9,2.673,1.453,4.387.176.544.364,1.12.565,1.736l-.038-.116c-.068-.22-.141-.46-.216-.72.011.024.023.05.04.084l.017.036c.01.022.02.042.029.063-.057-.2-.127-.4-.2-.61a7.569,7.569,0,0,1-.286-.959c.011.023.02.046.029.069l.009.023.011.027-1.17-3.443a2.447,2.447,0,0,0-.243-.579Zm-9.761,74.854a70.4,70.4,0,0,0-7.281-2.581,40.479,40.479,0,0,1,7.282,2.579Zm385.349-5.568a16.483,16.483,0,0,1-7.38-1.56,11.549,11.549,0,0,1-4.84-4.361,12.142,12.142,0,0,1-1.7-6.4,17.029,17.029,0,0,1,2.219-8.64,15.689,15.689,0,0,1,6.2-6,18.771,18.771,0,0,1,9.06-2.16,16.472,16.472,0,0,1,7.38,1.56,11.542,11.542,0,0,1,4.84,4.36,12.141,12.141,0,0,1,1.7,6.4,17.025,17.025,0,0,1-2.219,8.64,15.687,15.687,0,0,1-6.2,6A18.772,18.772,0,0,1,459.367,209.561Zm2.88-22.56a8.263,8.263,0,0,0-4.64,1.32,8.769,8.769,0,0,0-3.081,3.54,11.105,11.105,0,0,0-1.08,4.9,6.082,6.082,0,0,0,1.741,4.54,6.687,6.687,0,0,0,4.86,1.7,8.269,8.269,0,0,0,4.64-1.319,8.774,8.774,0,0,0,3.081-3.541,11.109,11.109,0,0,0,1.079-4.9,6.086,6.086,0,0,0-1.74-4.541A6.69,6.69,0,0,0,462.247,187Zm-25.12,22.36a4.3,4.3,0,0,1-3.1-1.18,3.987,3.987,0,0,1-1.22-2.98,4.609,4.609,0,0,1,1.42-3.5,4.874,4.874,0,0,1,3.46-1.34,4.291,4.291,0,0,1,3.1,1.14,4.023,4.023,0,0,1,1.18,3.02,4.629,4.629,0,0,1-1.42,3.48A4.789,4.789,0,0,1,437.127,209.361ZM574.888,209h-6.52l-9.239-15.36L556.047,209h-7.76l5.6-28h6.521l9.28,15.32L572.729,181h7.759l-5.6,28Zm-70.2,0h-6.52l-9.239-15.36L485.847,209h-7.76l5.6-28h6.521l9.28,15.32,3.04-15.32h7.761l-5.6,28Zm98.28,0H580.527l5.6-28h21.92l-1.24,6.12H592.689l-.922,4.72h12.441l-1.16,5.92h-12.48l-1,5.12h14.68L602.968,209Zm-60.32,0h-7.921l5.6-28h7.92Zm-11.04,0h-21.28l5.6-28h7.921l-4.321,21.72h13.36L531.608,209Zm14.741-56.16a29.294,29.294,0,0,1-12.846-2.66,19.66,19.66,0,0,1-8.435-7.49,21.072,21.072,0,0,1-2.94-11.13,29.894,29.894,0,0,1,3.814-15.015,27.575,27.575,0,0,1,10.745-10.535,32.318,32.318,0,0,1,15.89-3.85,28.475,28.475,0,0,1,11.62,2.24,16.641,16.641,0,0,1,7.63,6.439l-8.19,6.72c-2.6-3.809-6.581-5.74-11.831-5.74a17.992,17.992,0,0,0-9.52,2.52,17.359,17.359,0,0,0-6.4,6.86,20.584,20.584,0,0,0-2.275,9.661,11.685,11.685,0,0,0,3.606,8.995c2.391,2.207,5.794,3.325,10.113,3.325a17.1,17.1,0,0,0,13.02-5.67l6.72,6.86a23,23,0,0,1-8.82,6.352A31.389,31.389,0,0,1,546.349,152.841Zm-225.891,0a40.007,40.007,0,0,1-11.13-1.54,27.076,27.076,0,0,1-8.54-3.92l4.621-8.75a26.2,26.2,0,0,0,7.559,3.78,28.5,28.5,0,0,0,8.611,1.33A15.21,15.21,0,0,0,329,142.2a4.7,4.7,0,0,0,2.731-4.2,3.628,3.628,0,0,0-2.17-3.325,37.4,37.4,0,0,0-6.929-2.486,71,71,0,0,1-7.772-2.695,14.162,14.162,0,0,1-5.215-3.885,10.267,10.267,0,0,1-2.2-6.86A14.493,14.493,0,0,1,310.2,110a17.517,17.517,0,0,1,7.84-5.81,31.78,31.78,0,0,1,11.8-2.029,39.37,39.37,0,0,1,9.38,1.084,24.933,24.933,0,0,1,7.56,3.115l-4.27,8.68a20.187,20.187,0,0,0-6.16-2.835,26.865,26.865,0,0,0-7.14-.945,14.857,14.857,0,0,0-7.629,1.68,4.986,4.986,0,0,0-2.8,4.34,3.511,3.511,0,0,0,1.191,2.695,9.016,9.016,0,0,0,3.011,1.751c1.213.443,2.932.973,5.108,1.575a58.161,58.161,0,0,1,7.7,2.555,14.044,14.044,0,0,1,5.145,3.78,9.735,9.735,0,0,1,2.135,6.545,14.322,14.322,0,0,1-2.8,8.785,18.081,18.081,0,0,1-7.91,5.81A31.753,31.753,0,0,1,320.458,152.841Zm85.96-.839h-11.41l9.8-49h19.949a29.976,29.976,0,0,1,8.085,1,17.208,17.208,0,0,1,6.056,2.992,12.774,12.774,0,0,1,3.78,4.8,15.528,15.528,0,0,1,1.26,6.405,19,19,0,0,1-3.71,11.76,19.894,19.894,0,0,1-10.291,6.93L438.476,152H426.507l-7.7-13.72h-9.66L406.418,152Zm7.91-39.761-3.43,17.01h9.66c3.762,0,6.718-.871,8.785-2.59a9.138,9.138,0,0,0,3.115-7.42,6.123,6.123,0,0,0-2.38-5.251,11.371,11.371,0,0,0-6.79-1.75ZM609.837,152H571.9l9.8-49h37.031l-1.89,9.1h-25.69l-2.1,10.64H611.8l-1.751,8.82H587.228l-2.24,11.34h26.74l-1.89,9.1Zm-100.8,0h-11.41l9.8-49h11.41Zm-36.68,0H461.228l-11.41-49h11.69l7.91,34.93L491.608,103h11.759Zm-86.378,0H348.037l9.8-49h37.031l-1.89,9.1H367.287l-2.1,10.64h22.751l-1.751,8.82H363.368l-2.24,11.34h26.74l-1.889,9.1Zm-127.891,0h-11.34l7.91-39.76h-15.68l1.89-9.24h42.7l-1.89,9.24H266.067Zm-139.58-8.54h-13.37l2.381-12.11h13.72a9.845,9.845,0,0,1,5.513,1.26,4.3,4.3,0,0,1,1.838,3.78,5.993,5.993,0,0,1-2.66,5.25A13.067,13.067,0,0,1,118.508,143.461Zm179.55-6.791h-19.81l1.75-8.75h19.81l-1.749,8.749ZM76.429,124.416a14.885,14.885,0,0,0-3.892-3.62,13.709,13.709,0,0,1,3.893,3.619Zm44.248-1.326h-11.55l2.309-11.55h11.48a10.2,10.2,0,0,1,5.407,1.155,3.857,3.857,0,0,1,1.8,3.465,5.97,5.97,0,0,1-2.485,5.145A11.837,11.837,0,0,1,120.677,123.09Z" transform="translate(10.5 7.5)" fill="url(#linear-gradient1)"/>
    </g>
  </g>
</svg>
