<svg xmlns="http://www.w3.org/2000/svg" xmlns:xlink="http://www.w3.org/1999/xlink" width="350" height="1080" viewBox="0 0 350 1080">
  <defs>
    <clipPath id="clip-path">
      <rect id="Rectangle_275" data-name="Rectangle 275" width="350" height="1080" fill="#fff"/>
    </clipPath>
    <linearGradient id="linear-gradient4" x2="1" y2="1" gradientUnits="objectBoundingBox">
      <stop offset="0" stop-color="#1f5ad1"/>
      <stop offset="1" stop-color="#17387a" stop-opacity="0.839"/>
    </linearGradient>
    <linearGradient id="linear-gradient-2" x1="0.224" y1="0.119" x2="0.887" y2="0.811" gradientUnits="objectBoundingBox">
      <stop offset="0" stop-color="#6ee8fd"/>
      <stop offset="1" stop-color="#2ca6bb" stop-opacity="0.549"/>
    </linearGradient>
    <filter id="Ellipse_170" x="254.085" y="567.5" width="85.164" height="87" filterUnits="userSpaceOnUse">
      <feOffset dx="5" dy="5" input="SourceAlpha"/>
      <feGaussianBlur stdDeviation="7.5" result="blur"/>
      <feFlood flood-opacity="0.161"/>
      <feComposite operator="in" in2="blur"/>
      <feComposite in="SourceGraphic"/>
    </filter>
    <filter id="Ellipse_171" x="-99.74" y="656.5" width="210.437" height="218" filterUnits="userSpaceOnUse">
      <feOffset dx="5" dy="5" input="SourceAlpha"/>
      <feGaussianBlur stdDeviation="7.5" result="blur-2"/>
      <feFlood flood-opacity="0.161"/>
      <feComposite operator="in" in2="blur-2"/>
      <feComposite in="SourceGraphic"/>
    </filter>
    <filter id="Ellipse_172" x="176.626" y="805.5" width="90.902" height="93" filterUnits="userSpaceOnUse">
      <feOffset dx="5" dy="5" input="SourceAlpha"/>
      <feGaussianBlur stdDeviation="7.5" result="blur-3"/>
      <feFlood flood-opacity="0.161"/>
      <feComposite operator="in" in2="blur-3"/>
      <feComposite in="SourceGraphic"/>
    </filter>
    <filter id="Ellipse_173" x="134.549" y="707.5" width="67.951" height="69" filterUnits="userSpaceOnUse">
      <feOffset dx="5" dy="5" input="SourceAlpha"/>
      <feGaussianBlur stdDeviation="7.5" result="blur-4"/>
      <feFlood flood-opacity="0.161"/>
      <feComposite operator="in" in2="blur-4"/>
      <feComposite in="SourceGraphic"/>
    </filter>
    <filter id="Ellipse_174" x="297.118" y="743.5" width="54.563" height="55" filterUnits="userSpaceOnUse">
      <feOffset dx="5" dy="5" input="SourceAlpha"/>
      <feGaussianBlur stdDeviation="7.5" result="blur-5"/>
      <feFlood flood-opacity="0.161"/>
      <feComposite operator="in" in2="blur-5"/>
      <feComposite in="SourceGraphic"/>
    </filter>
    <linearGradient id="linear-gradient-7" x1="0.982" y1="0.196" x2="0.021" y2="0.931" gradientUnits="objectBoundingBox">
      <stop offset="0" stop-color="#7cdbf2"/>
      <stop offset="1" stop-color="#f7f7f7"/>
    </linearGradient>
    <filter id="Exclusion_8" x="4.5" y="6.5" width="341.874" height="153.132" filterUnits="userSpaceOnUse">
      <feOffset dy="7" input="SourceAlpha"/>
      <feGaussianBlur stdDeviation="7.5" result="blur-6"/>
      <feFlood flood-opacity="0.204"/>
      <feComposite operator="in" in2="blur-6"/>
      <feComposite in="SourceGraphic"/>
    </filter>
  </defs>
  <g id="Group_485" data-name="Group 485" transform="translate(-7825 -6218)">
    <g id="Mask_Group_130" data-name="Mask Group 130" transform="translate(7825 6218)" clip-path="url(#clip-path)">
      <g id="Group_484" data-name="Group 484" transform="translate(-82.24)">
        <rect id="Rectangle_274" data-name="Rectangle 274" width="350" height="1080" transform="translate(82.24)" fill="url(#linear-gradient4)"/>
        <g transform="matrix(1, 0, 0, 1, 82.24, 0)" filter="url(#Ellipse_170)">
          <ellipse id="Ellipse_170-2" data-name="Ellipse 170" cx="20.082" cy="21" rx="20.082" ry="21" transform="translate(271.58 585)" fill="url(#linear-gradient-2)"/>
        </g>
        <g transform="matrix(1, 0, 0, 1, 82.24, 0)" filter="url(#Ellipse_171)">
          <ellipse id="Ellipse_171-2" data-name="Ellipse 171" cx="82.719" cy="86.5" rx="82.719" ry="86.5" transform="translate(-82.24 674)" fill="url(#linear-gradient-2)"/>
        </g>
        <g transform="matrix(1, 0, 0, 1, 82.24, 0)" filter="url(#Ellipse_172)">
          <ellipse id="Ellipse_172-2" data-name="Ellipse 172" cx="22.951" cy="24" rx="22.951" ry="24" transform="translate(194.13 823)" fill="url(#linear-gradient-2)"/>
        </g>
        <g transform="matrix(1, 0, 0, 1, 82.24, 0)" filter="url(#Ellipse_173)">
          <ellipse id="Ellipse_173-2" data-name="Ellipse 173" cx="11.475" cy="12" rx="11.475" ry="12" transform="translate(152.05 725)" fill="url(#linear-gradient-2)"/>
        </g>
      </g>
      <g transform="matrix(1, 0, 0, 1, 0, 0)" filter="url(#Ellipse_174)">
        <ellipse id="Ellipse_174-2" data-name="Ellipse 174" cx="4.781" cy="5" rx="4.781" ry="5" transform="translate(314.62 761)" fill="url(#linear-gradient-2)"/>
      </g>
    </g>
    <g transform="matrix(1, 0, 0, 1, 7825, 6218)" filter="url(#Exclusion_8)">
      <path id="Exclusion_8-2" data-name="Exclusion 8" d="M-2454.429,104.132h0a18.7,18.7,0,0,1-7.785-1.975,11.741,11.741,0,0,1-4.689-4.532c-6.008-10.424,2.052-31.124,9.871-46.653a6.313,6.313,0,0,0,1-.125,8.059,8.059,0,0,1,.9-.046,6.679,6.679,0,0,0,1.113-.076l1.147-.358a.39.39,0,0,0-.286-.1c-.046,0-.095,0-.142.01l-.02,0a1.53,1.53,0,0,1-.17.013.491.491,0,0,1-.2-.035.672.672,0,0,1,.032-.467.685.685,0,0,0,.033-.477c-.2-.49-.41-.557-.606-.557l-.069,0c-.45,0-.746-.558-.748-.563l.375.068a1.185,1.185,0,0,0,.311.079.055.055,0,0,0,.043-.013.022.022,0,0,0,0-.022.765.765,0,0,0-.179-.167c-.282-.15-.567-.311-.846-.48.5-.945.989-1.871,1.466-2.754a1.518,1.518,0,0,0,.982.482.841.841,0,0,0,.342-.073c.437-.189.22-.859.115-1.181l0-.007a29.638,29.638,0,0,1,3,3.046c.2.326.406.662.813.662a2.345,2.345,0,0,0-.123-1.431c-.537-.946-.412-1.052-.138-1.286,0-.221,0-.313-.723-.762-.5-.3-.5-.3-1.155-1.3a.806.806,0,0,1-.067-.571.705.705,0,0,0-.145-.662l-.022-.021-.384-.372-.031-.031-.345-.335.144-.255a5.039,5.039,0,0,1,1.256.922h-.1c.943,1.965.943,1.965,1.83,2.741a3.41,3.41,0,0,0,1.466.679h.006a3.076,3.076,0,0,1,1.269.568,2.38,2.38,0,0,1-.374-.138l-.074.046a1.924,1.924,0,0,0,.171.244,9.367,9.367,0,0,0-1.358-.358,15.726,15.726,0,0,1,1.626,1.9.674.674,0,0,1-.519-.332.672.672,0,0,0-.522-.333l-.048,0-.057.076c0,.007.617,1.058.683,1.135.083.1.5.6.472.822h-.374c-.035,0-.048.07-.063.144a.645.645,0,0,1-.035.138l.049.061c-.739-.048-1.076-.068-1.253-.068s-.183.023-.186.068l-.2.114a3.818,3.818,0,0,0-1.033-.33l.66.109a1.518,1.518,0,0,0-.888-.285c-.035,0-.07,0-.1,0-.189,0-.228,0-.764-.555a2.587,2.587,0,0,1-.814-1.523c0-.226-.344-1.126-.6-1.156-.005,0-.51,0-.631.179a.157.157,0,0,0-.012.156,15.4,15.4,0,0,0,1.683,2.435c.269.289.284.333.292.356a.014.014,0,0,1,0,.014c-.012.021-.087.041-.242.065l-.481.076-.138.183h-.094c-.67,0-.678.007-.874.174a7.167,7.167,0,0,0,.366,1.211l-.122.205a1.98,1.98,0,0,0-.3-.023,1.954,1.954,0,0,0-.7.129,3.224,3.224,0,0,0,.276.662,2.576,2.576,0,0,1-.536.244,1.263,1.263,0,0,1-.113.48c-.052,0-.1.005-.138.005a1.7,1.7,0,0,1-1.025-.341,4.716,4.716,0,0,0,.292.419l-.08.229c-.26.092-.414.137-.5.159a1.274,1.274,0,0,0-.748-.24,1.325,1.325,0,0,0-.179.012l-.106.213.481.389-.2.137A3.878,3.878,0,0,1-2453,54.574a3.45,3.45,0,0,1,.571,2.589,22.144,22.144,0,0,1-2.557-.366H-2455c-.664-.123-1.417-.262-2.154-.333a2.475,2.475,0,0,0,.309.4c0,.041.189,4.024.716,4.171-.146,1.225-.146,1.225-.171,1.34a5.615,5.615,0,0,1,.907-.074,5.567,5.567,0,0,1,.907.074c.186.7.186.7.195.715l2.594-.807a.76.76,0,0,0,.623-.444,1.136,1.136,0,0,0-.111-1.078c.415-1.6.435-1.608,1.5-1.994,0-1.295,0-1.295.13-1.378a.541.541,0,0,1,.339-.129,1.085,1.085,0,0,1,.491.174l.009.005a1.1,1.1,0,0,0,.5.177c.311-.514.587-.857.923-.857a.8.8,0,0,1,.508.233c.036.038,3.666,3.947,4.018,5.016.11.339.151.535.068.665-.125.2-.536.252-1.438.369h-.011a7.563,7.563,0,0,0,1.227,1.233,1.119,1.119,0,0,0-.008-.616l0-.008a1.351,1.351,0,0,1-.039-.525h.228a2.332,2.332,0,0,0,.244-.459,2.749,2.749,0,0,1,.2-.4,2.4,2.4,0,0,1-.22-1.012l.228-.054.318.388c-.082-.35-.082-.35-1.31-1.728a1.747,1.747,0,0,0,.057-.221c-.576-.235-1.031-.421-2.57-3.371a.878.878,0,0,1,.359-.275l3.48,3.806,1.049,2.808,1.106,2.369v-.458a8.1,8.1,0,0,0-.35-1.629c-.374-1.758-.374-1.758-.2-1.887a1.787,1.787,0,0,1,1.2.975,4.155,4.155,0,0,0,.2-.418h.252a5.007,5.007,0,0,0-.4-2.325l0-.009a5.151,5.151,0,0,1-.409-2.233.721.721,0,0,1,.219-.034.725.725,0,0,1,.219.034l-.1.2a1.606,1.606,0,0,0,.552.434,1.125,1.125,0,0,1,0,.761,8.7,8.7,0,0,1,.521.76.505.505,0,0,0,.267-.287,1.045,1.045,0,0,0-.21-.715l0-.009a1.11,1.11,0,0,1-.216-.869.965.965,0,0,1,.189-.022c.208,0,.265.118.348.328l-.121.205c.129.191.129.191.317.883l-.131.183a8.647,8.647,0,0,0,.8,1.357,4.572,4.572,0,0,1,1.078,2.716l-.2.107a1.922,1.922,0,0,1-.588-.794c-.232-.452-.452-.878-.969-.878a1.157,1.157,0,0,0-.273.035.732.732,0,0,1-.17.4,3.559,3.559,0,0,0-.463-.122.791.791,0,0,0,.219.358.828.828,0,0,1-.5.143,1.093,1.093,0,0,0-.4.077,2.522,2.522,0,0,0,0,.5l.219.061V62.8a4.778,4.778,0,0,0,1.406,3.182l.163-.16V65.6a1.819,1.819,0,0,1,.381.449,1.4,1.4,0,0,0,.5.518,2.171,2.171,0,0,0,.105-.442,1.275,1.275,0,0,0,.39.244c.179,3.1.207,3.572-.154,4.414-.484,0-.555-.135-.707-.563a.7.7,0,0,0-.407.153c-.773-.052-1.14-.606-1.495-1.141l0,0c-.368-.56-.748-1.138-1.593-1.138a1.678,1.678,0,0,0-.176.889,2,2,0,0,1-.1.747l-.228.084c-.349-.241-3.987-3.342-4.236-3.73-.08-.118-.006-.343.114-.479.2-.29.2-.29.049-2.124-.224-.142-.465-.278-.716-.4a.6.6,0,0,1-.407.165,7.612,7.612,0,0,1-1.218-.225,2.862,2.862,0,0,0-.328.373,2.219,2.219,0,0,0-.776-.136,4.837,4.837,0,0,0-1.674.414,4.824,4.824,0,0,1-1.681.417,2.245,2.245,0,0,1-.7-.109h-.259a2.147,2.147,0,0,1-.377.05c-.255,0-.448-.125-.795-.515l-.105-.068a1.507,1.507,0,0,0-.212.183,1.039,1.039,0,0,0-.2.637,1.031,1.031,0,0,1-.2.626,1.862,1.862,0,0,1-.636.386,1.981,1.981,0,0,0-.853.572.7.7,0,0,0-.067.438,1.484,1.484,0,0,1,0,.156c-.115,1.948-.115,1.948-.675,2.208a5.939,5.939,0,0,0-1.471,1.02c-.26.379-1.9,3.035-2.592,4.159l-.027.044a3.521,3.521,0,0,0,.314,1.523,4.1,4.1,0,0,1,.321,1.294,1.459,1.459,0,0,1-.455.9c-.295.353-.6.718-.359,1.256a27.726,27.726,0,0,0,1.365,2.723l0,0,.008.014.012.023c.24.439.488.894.719,1.346a9.267,9.267,0,0,0,2.918,2.52h.01c.771-.068,1.535-.213,2.273-.353a16.936,16.936,0,0,1,3.152-.394c.267,0,.534.013.8.039a.471.471,0,0,1,.2.106.763.763,0,0,1,.243.569v.007a.779.779,0,0,0,.236.573,1.231,1.231,0,0,0,.779.214,2.048,2.048,0,0,1,.481.059,1.361,1.361,0,0,1-.066,1.523c-.943,2.071-.943,2.071-.813,2.664.228.936.539,2.217-.74,5.04a9.348,9.348,0,0,1-1.463,2.1l-.01.012a14.615,14.615,0,0,0-1.024,1.31,7.137,7.137,0,0,0-.821,1.912l-.005.017a7.3,7.3,0,0,1-.646,1.6l-.353.587-.65,1.081Zm17.617-36.872a.067.067,0,0,0-.042.013.732.732,0,0,0,.155.608.3.3,0,0,0,.09.092c.048,0,.087.006.126.006s.087,0,.126-.006a3.372,3.372,0,0,0,.081-.518v-.06a.163.163,0,0,0-.039.01.582.582,0,0,1-.155.036.275.275,0,0,1-.139-.046c-.031,0-.057-.028-.085-.057l-.006-.006a.249.249,0,0,0-.072-.058A.067.067,0,0,0-2436.811,67.26Zm-2.618-1.166a.1.1,0,0,0-.1.045.146.146,0,0,0,.023.145,2.243,2.243,0,0,0,1.309.556l-.114-.132-.02-.024c-.153-.181-.279-.331-.281-.339a.418.418,0,0,0-.171-.1,3.657,3.657,0,0,1-.4-.076l-.252-.076Zm-6.661-6.372a.985.985,0,0,0-.675.381,1,1,0,0,0-.024.769.273.273,0,0,0,.126.061c.073.021.148.044.167.137a.942.942,0,0,1,.006.278v.016c0,.038-.005.077-.005.117a.173.173,0,0,0,.154.137c.069,0,.585-.1.6-.5a.673.673,0,0,0,0-.137.9.9,0,0,0-.057-.272,1.263,1.263,0,0,1-.05-.185,1.607,1.607,0,0,1-.006-.3v-.036c0-.05,0-.108,0-.163a.318.318,0,0,0-.244-.3Zm-3.485.686c-.106,0-.357.01-.4.1-.014.031,0,.068.031.111a1.075,1.075,0,0,0,.586.236.175.175,0,0,0,.105-.054,2.541,2.541,0,0,0,.2-.228.5.5,0,0,0-.365-.16C-2449.468,60.41-2449.523,60.407-2449.575,60.407Zm2.933-2.528h0l0,.051a2.281,2.281,0,0,0,0,.472.313.313,0,0,1-.155.319.157.157,0,0,0-.065.153.514.514,0,0,0,.073.121s.39.426.415.442a4.665,4.665,0,0,0-.074-1.013,2.122,2.122,0,0,0-.193-.547Zm-2.458,46.134,0,0a7.458,7.458,0,0,0,.652-.811,5.767,5.767,0,0,1,.851-1,6.874,6.874,0,0,1,1.088-.7l.015-.009a7.245,7.245,0,0,0,1.3-.858,19.024,19.024,0,0,0,3.448-4.926,19.9,19.9,0,0,1,3.578-4.468,17.851,17.851,0,0,0,2.805-5.077l-.01,0a.983.983,0,0,0-.282-.054,3.118,3.118,0,0,0-.437.056c-.107-.137-.107-.137.113-1.926a13.452,13.452,0,0,0-.1-1.979c0-.681.053-1.374.1-2.043v-.03a17.963,17.963,0,0,0,.057-3.058l-.489-5.412c.115.175.115.175.236.951a.838.838,0,0,0,.261-.434,20.872,20.872,0,0,1,.289,7.8l0,.022a36.287,36.287,0,0,0-.214,4.43l.008,0a1.561,1.561,0,0,1,.524-.187.741.741,0,0,1,.155.023,27.348,27.348,0,0,0,1.294-2.717c0,.031,0,.057,0,.085.006-.055.013-.105.024-.168l0,.008,0,.009c0,.011,0,.023-.008.034.007-.05.019-.1.031-.151l0-.012a1.564,1.564,0,0,0,.035-.169v-.153l.138-.943,0-.027v-.007c.057-.432.127-.969.229-2.367a4.586,4.586,0,0,1-.168.877c-.1-.19-.1-.19,0-1.72-.049.487-.049.487-.081.7a21.321,21.321,0,0,1,0-4.032l0-.018a18.48,18.48,0,0,1,.252,4.163.042.042,0,0,0,0,.006.028.028,0,0,1,0,.006s0,.008,0,.012v0a.011.011,0,0,1,0,0h0v-.007a.079.079,0,0,0,0-.014v.213c.012-.364.028-.75.045-1.158v-.064c.039-.973.08-1.979.074-2.82q-.027-.453-.053-.965v-.017c-.056-1.042-.119-2.218-.222-3.144l-.029-.191-.005-.033V69.53c-.043-.28-.083-.545-.128-.8l.05.145c-.072-.638-.2-1.273-.329-1.887l0-.024,0,.02.012.071,0,.014c.079.474.169,1.01.267,1.662a29.332,29.332,0,0,1-.959-4.605v.046c-1.52-4.72-1.52-4.72-1.545-4.947a25.808,25.808,0,0,0-1.5-3.449l-1.625-2.976-.012-.014c-.171-.265-.349-.545-.565-.885-.489-.768-1.043-1.639-1.521-2.283l-.06-.076,0-.005a41.64,41.64,0,0,0-4.612-5.421l-1.886-1.789a2.513,2.513,0,0,0-.211-.184,11.151,11.151,0,0,0,.895.906,4.664,4.664,0,0,1-.39-.274,4.289,4.289,0,0,0,.927.883l-.073.045c-.641-.489-1.238-1.027-1.815-1.548s-1.2-1.082-1.847-1.572a18.474,18.474,0,0,0,1.808,1.187,18.886,18.886,0,0,0-2.339-1.916,303.415,303.415,0,0,1,18.753-28.969c5.682-7.716,10.38-13.083,12.262-14.008a7.97,7.97,0,0,1,3.7-.879c5.434,0,12.514,4.88,20.475,14.111a138.1,138.1,0,0,1,10.764,14.463,187.691,187.691,0,0,1,9.666,16.581c.752,1.453,1.489,2.927,2.191,4.379a7.948,7.948,0,0,0-2.517,2.2,7.039,7.039,0,0,0-1.343,4.25,4.981,4.981,0,0,0,1.071,3.332,6.877,6.877,0,0,0,2.532,1.887,34.546,34.546,0,0,0,3.774,1.31c.929.259,1.717.512,2.341.751-.558-1.532-1.182-3.143-1.855-4.787-.151-.369-.3-.739-.457-1.1l.142.054c.585.214,1.421.471,2.482.765a28.3,28.3,0,0,1,3.74,1.241,6.821,6.821,0,0,1,2.5,1.836,4.73,4.73,0,0,1,1.037,3.179,6.955,6.955,0,0,1-1.36,4.267,8.678,8.678,0,0,1-3.636,2.737c-.058-.221-.121-.458-.194-.726-.324-1.19-.7-2.442-1.11-3.721a2.118,2.118,0,0,0,.792-1.673,1.761,1.761,0,0,0-1.054-1.615,9.255,9.255,0,0,0-1.025-.456c.468,1.284.9,2.543,1.287,3.743a3.414,3.414,0,0,1-.533.367,7.386,7.386,0,0,1-3.6.748,13.823,13.823,0,0,1-4.182-.646,12.713,12.713,0,0,1-3.672-1.836l-2.244,4.25a13.126,13.126,0,0,0,4.148,1.9,19.435,19.435,0,0,0,5.405.748,15.424,15.424,0,0,0,5.78-1l.205-.085a44.661,44.661,0,0,1,1.565,9.378c.112,2.98-.32,5.3-1.286,6.884a5.433,5.433,0,0,1-4.99,2.59c-.176,0-.351,0-.52-.014-1.631-.032-3.193-.048-4.644-.048-9.37,0-16.168.639-22.73,2.137-6.366,1.453-12.4,3.674-20.755,6.748l-.006,0c-3.187,1.173-6.8,2.5-10.885,3.955a93.4,93.4,0,0,1-17.435,4.616c.446-.438.887-.894,1.314-1.336l.01-.01,0,0c.4-.411.808-.836,1.23-1.253l-.106.19h.011c.039,0,.046-.012.143-.164a10.583,10.583,0,0,0,1.254-1.761l-.375.35c-.894,1.073-.917,1.081-1.5,1.279-.5.168-.606.317-1.06.948l-.095.13-.009.012-.188.257a2.935,2.935,0,0,1-.814.845c-.26.211-.511.428-.745.644-.591.075-1.142.135-1.684.183Zm51.965-59.677h0l-4.759,23.8h18.427l.918-4.42h-12.988l1.088-5.508h11.083l.851-4.284h-11.05l1.02-5.169h12.479l.918-4.42Zm-26.01,0h0l-4.759,23.8h12.478a14.156,14.156,0,0,0,7.786-1.9,6.292,6.292,0,0,0,2.924-5.61,5.074,5.074,0,0,0-.833-2.941,5.086,5.086,0,0,0-2.363-1.819A7.2,7.2,0,0,0-2404.8,53.5a6.134,6.134,0,0,0,1.139-3.722,4.6,4.6,0,0,0-2.074-4.029,10.521,10.521,0,0,0-5.917-1.411Zm-11.176,20.91h0c.088.571.206,1.14.329,1.722a26.813,26.813,0,0,0-1.033-4.437c-.09-.262-.185-.537-.268-.762.532,1.714.566,1.843.786,2.685l.028.108c-.01-.028-.018-.055-.025-.081l-.01-.033-.027-.093.216.907v-.005s0-.007,0-.01Zm-1.872-6.027h0c.177.476.375,1.043.635,1.792l0,.008.192.553.028.079-.008-.023-.009-.027-.013-.041c-.019-.059-.039-.122-.06-.188l.017.032.021.042c-.022-.075-.05-.15-.077-.222l-.01-.026,0-.006a2.962,2.962,0,0,1-.123-.385.2.2,0,0,1,.013.028l0,.01.008.02-.513-1.413a.972.972,0,0,0-.1-.235Zm190.2,36.912a7.826,7.826,0,0,1-3.505-.741,5.481,5.481,0,0,1-2.3-2.071,5.769,5.769,0,0,1-.807-3.04,8.085,8.085,0,0,1,1.055-4.1,7.448,7.448,0,0,1,2.945-2.85,8.916,8.916,0,0,1,4.3-1.026,7.836,7.836,0,0,1,3.505.741,5.477,5.477,0,0,1,2.3,2.072,5.762,5.762,0,0,1,.808,3.039,8.087,8.087,0,0,1-1.054,4.1,7.449,7.449,0,0,1-2.946,2.85A8.914,8.914,0,0,1-2245.989,96.132Zm1.368-10.716a3.932,3.932,0,0,0-2.2.627,4.162,4.162,0,0,0-1.463,1.681,5.273,5.273,0,0,0-.513,2.327,2.891,2.891,0,0,0,.827,2.157,3.177,3.177,0,0,0,2.308.807,3.924,3.924,0,0,0,2.2-.627A4.164,4.164,0,0,0-2242,90.707a5.272,5.272,0,0,0,.513-2.327,2.89,2.89,0,0,0-.826-2.156A3.174,3.174,0,0,0-2244.621,85.415Zm-11.932,10.621a2.04,2.04,0,0,1-1.472-.56,1.9,1.9,0,0,1-.58-1.416,2.191,2.191,0,0,1,.674-1.662,2.316,2.316,0,0,1,1.644-.637,2.041,2.041,0,0,1,1.472.542,1.911,1.911,0,0,1,.56,1.435,2.2,2.2,0,0,1-.674,1.653A2.277,2.277,0,0,1-2256.553,96.036Zm56.487-.17h-3.685l2.659-13.3h3.1l4.408,7.276,1.445-7.276h3.685l-2.659,13.3h-3.1l-4.389-7.3-1.463,7.3Zm-33.345,0h-3.685l2.659-13.3h3.1l4.408,7.276,1.445-7.276h3.685l-2.659,13.3h-3.1l-4.389-7.3-1.464,7.3Zm55.633,0h-10.66l2.66-13.3h10.412l-.59,2.907h-6.707l-.437,2.242h5.909l-.551,2.812h-5.928l-.475,2.432h6.973l-.607,2.906Zm-28.653,0h-3.762l2.66-13.3h3.762l-2.66,13.3Zm-5.244,0h-10.108l2.66-13.3h3.762l-2.052,10.317h6.346l-.608,2.982Zm-228.783-6.141h0a32.162,32.162,0,0,0-3.154-1.046,18.48,18.48,0,0,1,3.155,1.044Zm233.181-21.18a14.235,14.235,0,0,1-6.24-1.292,9.552,9.552,0,0,1-4.1-3.638,10.235,10.235,0,0,1-1.428-5.405,14.522,14.522,0,0,1,1.853-7.294,13.4,13.4,0,0,1,5.219-5.117,15.691,15.691,0,0,1,7.718-1.87,13.838,13.838,0,0,1,5.644,1.088,8.086,8.086,0,0,1,3.706,3.127l-3.978,3.264a6.518,6.518,0,0,0-5.746-2.788,8.744,8.744,0,0,0-4.624,1.224,8.435,8.435,0,0,0-3.11,3.332,9.995,9.995,0,0,0-1.105,4.693,5.676,5.676,0,0,0,1.751,4.369,7,7,0,0,0,4.912,1.616,8.305,8.305,0,0,0,6.324-2.754l3.264,3.332a11.17,11.17,0,0,1-4.284,3.085A15.248,15.248,0,0,1-2207.278,68.545Zm-109.718,0a19.437,19.437,0,0,1-5.406-.748,13.145,13.145,0,0,1-4.148-1.9l2.244-4.25a12.712,12.712,0,0,0,3.672,1.836,13.833,13.833,0,0,0,4.182.646,7.393,7.393,0,0,0,3.6-.748,2.282,2.282,0,0,0,1.326-2.04,1.761,1.761,0,0,0-1.054-1.615,18.105,18.105,0,0,0-3.366-1.207,34.485,34.485,0,0,1-3.775-1.309,6.881,6.881,0,0,1-2.532-1.887,4.985,4.985,0,0,1-1.071-3.332,7.037,7.037,0,0,1,1.343-4.25,8.515,8.515,0,0,1,3.808-2.822,15.436,15.436,0,0,1,5.729-.986,19.125,19.125,0,0,1,4.556.527,12.1,12.1,0,0,1,3.672,1.514l-2.074,4.216a9.822,9.822,0,0,0-2.992-1.377,13.054,13.054,0,0,0-3.468-.459,7.219,7.219,0,0,0-3.706.816,2.422,2.422,0,0,0-1.36,2.108,1.705,1.705,0,0,0,.578,1.309,4.37,4.37,0,0,0,1.463.851c.58.212,1.414.469,2.481.765a28.253,28.253,0,0,1,3.74,1.241,6.824,6.824,0,0,1,2.5,1.836,4.73,4.73,0,0,1,1.037,3.179,6.958,6.958,0,0,1-1.36,4.267,8.79,8.79,0,0,1-3.842,2.822A15.43,15.43,0,0,1-2317,68.545Zm41.752-.407h-5.542l4.76-23.8h9.69a10.864,10.864,0,0,1,6.868,1.939,6.57,6.57,0,0,1,2.448,5.44,9.23,9.23,0,0,1-1.8,5.712,9.659,9.659,0,0,1-5,3.366l4.147,7.343h-5.813l-3.74-6.664h-4.692l-1.326,6.664Zm3.842-19.313h0l-1.666,8.262h4.692a6.524,6.524,0,0,0,4.267-1.258,4.44,4.44,0,0,0,1.513-3.6,2.975,2.975,0,0,0-1.156-2.551,5.53,5.53,0,0,0-3.3-.85Zm94.962,19.312h-18.428l4.76-23.8h17.987l-.918,4.42h-12.479l-1.02,5.169h11.05l-.851,4.284h-11.083l-1.088,5.508h12.988l-.918,4.419Zm-48.96,0h-5.542l4.76-23.8h5.542l-4.76,23.8Zm-23.222,0-5.542-23.8h5.678l3.842,16.966,10.777-16.966h5.712l-15.062,23.8h-5.406Zm-36.55,0H-2303.6l4.76-23.8h17.986l-.918,4.42h-12.478l-1.02,5.169h11.049l-.85,4.284h-11.084l-1.087,5.508h12.988l-.918,4.419Zm-62.118,0h-5.508l3.842-19.312h-7.617l.918-4.488h20.74l-.918,4.488h-7.582l-3.875,19.311Zm-67.8-4.148h-6.494l1.156-5.882h6.664c2.369,0,3.57.824,3.57,2.448a2.914,2.914,0,0,1-1.292,2.551A6.355,6.355,0,0,1-2415.086,63.989Zm87.21-3.3h-9.622l.85-4.25h9.622l-.849,4.249Zm-86.156-6.6h-5.61l1.121-5.61h5.576c2.324,0,3.5.755,3.5,2.244a2.9,2.9,0,0,1-1.207,2.5A5.749,5.749,0,0,1-2414.032,54.095Zm44.33-.716h0a4.267,4.267,0,0,1-1.317-.8,1.706,1.706,0,0,1-.578-1.309,2.129,2.129,0,0,1,.423-1.293c.518,1.154,1.013,2.3,1.474,3.4Zm-69.765-.713a6.345,6.345,0,0,0-1.622-1.386,5.862,5.862,0,0,1,1.623,1.384Zm79.392-2.479h0a9.778,9.778,0,0,0-2.99-1.377,13.058,13.058,0,0,0-3.469-.459,7.213,7.213,0,0,0-3.705.816,3.176,3.176,0,0,0-.936.813c-.656-1.461-1.353-2.957-2.073-4.446a10.534,10.534,0,0,1,1.291-.618,15.433,15.433,0,0,1,5.729-.986,19.127,19.127,0,0,1,4.557.527A12.119,12.119,0,0,1-2358,45.969l-2.074,4.216Zm-96.45-.216,0,0,.027-.053.162-.317c.272.022.413.071.42.146a.131.131,0,0,1-.027.109c-.049.054-.158.058-.307.058a.339.339,0,0,0-.06,0,.388.388,0,0,0-.214.063Z" transform="translate(2496 26)" fill="url(#linear-gradient-7)"/>
    </g>
  </g>
</svg>
