<svg xmlns="http://www.w3.org/2000/svg" width="223" height="223" viewBox="0 0 223 223"><path d="M223,111.5A111.5,111.5,0,1,1,111.5,0,111.5,111.5,0,0,1,223,111.5Zm0,0" fill="#29485a"/><path d="M207.621,111.5A96.121,96.121,0,1,1,111.5,15.379,96.121,96.121,0,0,1,207.621,111.5Zm0,0" fill="#e6e6e6"/><path d="M107.655,15.379h7.69V57.672h-7.69Zm0,0" fill="#f2f2f2"/><path d="M15.379,107.655H57.672v7.69H15.379Zm0,0" fill="#f2f2f2"/><path d="M107.655,165.328h7.69v42.293h-7.69Zm0,0" fill="#f2f2f2"/><path d="M165.328,107.655h42.293v7.69H165.328Zm0,0" fill="#f2f2f2"/><path d="M161.336,69.207a65.362,65.362,0,0,1-91.957,92.276" fill="#5bc9e1"/><path d="M61.517,153.621a65.362,65.362,0,0,1,92.276-91.957" fill="#92d7e7"/><path d="M153.793,61.517l19.224-11.534-46.138,76.9-76.9,46.138,46.138-76.9Z" fill="#06aae9"/><path d="M115.345,115.345l11.534,11.534,46.138-76.9-76.9,46.138,11.534,11.534" fill="#ed1c24"/><path d="M119.19,111.5a7.69,7.69,0,1,1-7.69-7.69A7.69,7.69,0,0,1,119.19,111.5Zm0,0" fill="#f2f2f2"/></svg>