<svg xmlns="http://www.w3.org/2000/svg" width="220.488" height="230.388" viewBox="0 0 220.488 230.388">
  <g id="project" transform="translate(-11)">
    <circle id="Ellipse_273" data-name="Ellipse 273" cx="110.244" cy="110.244" r="110.244" transform="translate(11 9.899)" fill="#1a2b63"/>
    <path id="Path_1674" data-name="Path 1674" d="M211.07,354.314a16.63,16.63,0,0,1,14.028,7.659.449.449,0,0,0,.344.2h.034a.448.448,0,0,0,.337-.152,24.36,24.36,0,0,1,25.135-7.263l-8.03-20.584H214.5l-8.118,20.809A16.608,16.608,0,0,1,211.07,354.314Z" transform="translate(-107.467 -183.807)" fill="#d9eafc"/>
    <g id="Group_562" data-name="Group 562" transform="translate(89.582 150.373)">
      <path id="Path_1675" data-name="Path 1675" d="M218.208,334.179h-3.7l-8.118,20.809a16.67,16.67,0,0,1,3.957-.648Z" transform="translate(-197.049 -334.179)" fill="#aec1ed"/>
      <path id="Path_1676" data-name="Path 1676" d="M191.013,398.987a.451.451,0,0,0,.445.384.463.463,0,0,0,.071-.005,30.622,30.622,0,0,1,4.794-.385,30.224,30.224,0,0,1,20.668,8.141.451.451,0,0,0,.614,0,30.223,30.223,0,0,1,20.668-8.141,30.627,30.627,0,0,1,4.795.385.467.467,0,0,0,.071.005.451.451,0,0,0,.445-.384,37.234,37.234,0,0,1,6.1-15.524,24.829,24.829,0,0,0-35.617,1.669,17.125,17.125,0,0,0-28.428-.57A37.217,37.217,0,0,1,191.013,398.987Z" transform="translate(-185.635 -357.584)" fill="#aec1ed"/>
    </g>
    <path id="Path_1677" data-name="Path 1677" d="M114.3,386.668a37.817,37.817,0,0,0-68.947-15.251,110.738,110.738,0,0,0,43.352,41.2A30.8,30.8,0,0,1,114.3,386.668Z" transform="translate(-18.894 -194.958)" fill="#445ea0"/>
    <path id="Path_1678" data-name="Path 1678" d="M80.674,359.1a39.807,39.807,0,0,1,25.39,9.106,37.807,37.807,0,0,0-60.712,3.207q1.341,2.252,2.788,4.433A39.927,39.927,0,0,1,80.674,359.1Z" transform="translate(-18.894 -194.958)" fill="#293d7c"/>
    <path id="Path_1679" data-name="Path 1679" d="M350.826,354.454a37.824,37.824,0,0,0-37.4,32.214,30.8,30.8,0,0,1,25.595,25.953,110.744,110.744,0,0,0,43.352-41.2A37.775,37.775,0,0,0,350.826,354.454Z" transform="translate(-166.34 -194.958)" fill="#445ea0"/>
    <g id="Group_563" data-name="Group 563" transform="translate(69.809 159.496)">
      <path id="Path_1680" data-name="Path 1680" d="M353.113,354.524c-.757-.045-1.519-.07-2.288-.07a37.824,37.824,0,0,0-37.4,32.214,30.539,30.539,0,0,1,4.128.959A42.721,42.721,0,0,1,353.113,354.524Z" transform="translate(-236.149 -354.454)" fill="#293d7c"/>
      <path id="Path_1681" data-name="Path 1681" d="M214.1,425.177a30.667,30.667,0,0,0-20.974,8.261,30.774,30.774,0,0,0-51.435,18.089,110.365,110.365,0,0,0,102.871,0A30.786,30.786,0,0,0,214.1,425.177Z" transform="translate(-141.693 -393.353)" fill="#293d7c"/>
    </g>
    <path id="Path_1682" data-name="Path 1682" d="M178.587,429a32,32,0,0,1,12.005,2.323,30.765,30.765,0,0,0-48.9,20.2q2.715,1.435,5.519,2.72A32.131,32.131,0,0,1,178.587,429Z" transform="translate(-71.884 -233.857)" fill="#1a2b63"/>
    <g id="Group_564" data-name="Group 564" transform="translate(109.296 150.372)">
      <path id="Path_1683" data-name="Path 1683" d="M270.212,334.179h-6.8l.868,6.867a3.375,3.375,0,0,0,6.7-.846Z" transform="translate(-248.127 -334.179)" fill="#aec1ed"/>
      <path id="Path_1684" data-name="Path 1684" d="M231.258,334.178l-1.785,14.12a3.375,3.375,0,0,0,2.925,3.771,3.434,3.434,0,0,0,.427.027,3.376,3.376,0,0,0,3.344-2.952l1.892-14.967h-6.8Z" transform="translate(-229.446 -334.178)" fill="#aec1ed"/>
    </g>
    <path id="Path_1685" data-name="Path 1685" d="M157.24,182.317q0-5.5.4-10.962c-10.826,6.1-18.285,19.679-18.285,35.4a45.34,45.34,0,0,0,5.971,22.9,1.991,1.991,0,0,0,2.472.838,43.8,43.8,0,0,1,16.309-3.222A146.849,146.849,0,0,1,157.24,182.317Z" transform="translate(-70.596 -94.249)" fill="#6ee8fc"/>
    <path id="Path_1686" data-name="Path 1686" d="M144.453,206.758c0-12.988,5.091-24.509,12.963-31.563.06-1.283.13-2.564.22-3.841-10.826,6.1-18.285,19.679-18.285,35.4a45.34,45.34,0,0,0,5.971,22.9,1.991,1.991,0,0,0,2.472.838c.846-.346,1.705-.654,2.57-.944A45.363,45.363,0,0,1,144.453,206.758Z" transform="translate(-70.596 -94.249)" fill="#0c94a8"/>
    <g id="Group_565" data-name="Group 565" transform="translate(104.014 77.106)">
      <path id="Path_1687" data-name="Path 1687" d="M324.107,171.355q.386,5.45.4,10.962a146.84,146.84,0,0,1-6.863,44.961,43.8,43.8,0,0,1,16.309,3.222,1.991,1.991,0,0,0,2.472-.838,45.335,45.335,0,0,0,5.971-22.9C342.393,191.034,334.934,177.452,324.107,171.355Z" transform="translate(-272.673 -171.355)" fill="#6ee8fc"/>
      <path id="Path_1688" data-name="Path 1688" d="M217.708,307.125V317.5a2.257,2.257,0,0,0,2.25,2.25h29.961a2.257,2.257,0,0,0,2.25-2.25V307.125Z" transform="translate(-217.708 -246.032)" fill="#6ee8fc"/>
    </g>
    <path id="Path_1689" data-name="Path 1689" d="M225.361,317.5V307.125h-7.653V317.5a2.257,2.257,0,0,0,2.25,2.25h7.653A2.257,2.257,0,0,1,225.361,317.5Z" transform="translate(-113.694 -168.926)" fill="#0c94a8"/>
    <path id="Path_1690" data-name="Path 1690" d="M240.54,90.318H185.774a145.907,145.907,0,0,0-7.666,47.427,145.316,145.316,0,0,0,8.313,49.272,1.992,1.992,0,0,0,1.871,1.309h49.731a1.991,1.991,0,0,0,1.871-1.309,145.315,145.315,0,0,0,8.313-49.272A145.885,145.885,0,0,0,240.54,90.318Z" transform="translate(-91.913 -49.677)" fill="#eef6ff"/>
    <path id="Path_1691" data-name="Path 1691" d="M192.8,187.017a145.3,145.3,0,0,1-8.313-49.272,145.907,145.907,0,0,1,7.666-47.427h-6.377a145.907,145.907,0,0,0-7.666,47.427,145.315,145.315,0,0,0,8.313,49.272,1.992,1.992,0,0,0,1.871,1.309h6.377A1.992,1.992,0,0,1,192.8,187.017Z" transform="translate(-91.914 -49.677)" fill="#d9eafc"/>
    <path id="Path_1692" data-name="Path 1692" d="M227.179,90.318v7.467a2.256,2.256,0,0,0,2.25,2.25h21.438a2.257,2.257,0,0,0,2.25-2.25V90.318Z" transform="translate(-118.904 -49.677)" fill="#19b2ce"/>
    <path id="Path_1693" data-name="Path 1693" d="M232.281,97.785V90.318h-5.1v7.467a2.256,2.256,0,0,0,2.25,2.25h5.1A2.257,2.257,0,0,1,232.281,97.785Z" transform="translate(-118.904 -49.677)" fill="#0c94a8"/>
    <path id="Path_1694" data-name="Path 1694" d="M222.337,0a1.988,1.988,0,0,0-1.253.444c-10.052,8.14-18.518,20.487-24.484,35.707-.634,1.619-1.231,3.271-1.8,4.94h55.078c-.572-1.669-1.168-3.32-1.8-4.94C242.108,20.931,233.642,8.583,223.59.444A1.986,1.986,0,0,0,222.337,0Z" transform="translate(-101.093 0)" fill="#6ee8fc"/>
    <path id="Path_1695" data-name="Path 1695" d="M225.526,2.082q-.958-.844-1.935-1.639a1.992,1.992,0,0,0-2.506,0c-10.052,8.14-18.518,20.487-24.484,35.707-.634,1.619-1.231,3.271-1.8,4.94h6.377c.572-1.669,1.168-3.32,1.8-4.94C208.556,21.918,216.322,10.2,225.526,2.082Z" transform="translate(-101.093 0)" fill="#0c94a8"/>
    <circle id="Ellipse_274" data-name="Ellipse 274" cx="22.958" cy="22.958" r="22.958" transform="translate(98.286 58.456)" fill="#445ea0"/>
    <circle id="Ellipse_275" data-name="Ellipse 275" cx="14.728" cy="14.728" r="14.728" transform="translate(106.516 66.686)" fill="#69cdff"/>
    <path id="Path_1696" data-name="Path 1696" d="M228.668,162.929A14.73,14.73,0,0,0,240.7,177.407a14.728,14.728,0,1,1,0-28.955A14.729,14.729,0,0,0,228.668,162.929Z" transform="translate(-116.753 -81.514)" fill="#52bbef"/>
    <path id="Path_1697" data-name="Path 1697" d="M94.984,148.432a1.276,1.276,0,0,1-1.179-.788c-2.512-6.065-4.364-7.917-10.43-10.429a1.276,1.276,0,0,1,0-2.358c6.066-2.513,7.917-4.365,10.43-10.43a1.276,1.276,0,0,1,2.358,0c2.513,6.065,4.365,7.917,10.43,10.43a1.276,1.276,0,0,1,0,2.358c-6.065,2.512-7.917,4.364-10.43,10.429a1.276,1.276,0,0,1-1.179.788Z" transform="translate(-39.375 -68.004)" fill="#ffd00d"/>
    <path id="Path_1698" data-name="Path 1698" d="M96.356,157.792c-2.512-6.065-4.364-7.917-10.43-10.429a1.274,1.274,0,0,1-.666-.636c-.582.273-1.2.546-1.885.829a1.276,1.276,0,0,0,0,2.358c6.065,2.512,7.917,4.364,10.43,10.429a1.276,1.276,0,0,0,2.358,0c.282-.682.556-1.3.828-1.885A1.278,1.278,0,0,1,96.356,157.792Z" transform="translate(-39.375 -80.703)" fill="#ffaf10"/>
    <path id="Path_1699" data-name="Path 1699" d="M398.15,174.766a1.122,1.122,0,0,1-1.036-.693c-2.208-5.331-3.836-6.959-9.167-9.167a1.122,1.122,0,0,1,0-2.073c5.332-2.209,6.959-3.837,9.167-9.168a1.122,1.122,0,0,1,2.073,0c2.208,5.331,3.837,6.959,9.168,9.168a1.122,1.122,0,0,1,0,2.073c-5.331,2.208-6.959,3.836-9.168,9.167a1.121,1.121,0,0,1-1.036.693Z" transform="translate(-206.949 -84.139)" fill="#fff"/>
    <path id="Path_1700" data-name="Path 1700" d="M399.356,182.993c-2.208-5.331-3.836-6.959-9.168-9.167a1.119,1.119,0,0,1-.585-.559c-.512.239-1.058.48-1.657.729a1.122,1.122,0,0,0,0,2.073c5.332,2.208,6.959,3.836,9.167,9.167a1.122,1.122,0,0,0,2.073,0c.248-.6.489-1.145.728-1.657A1.121,1.121,0,0,1,399.356,182.993Z" transform="translate(-206.948 -95.301)" fill="#d9eafc"/>
    <path id="Path_1701" data-name="Path 1701" d="M369.95,65.033a1.308,1.308,0,0,1-1.208-.807c-2.573-6.212-4.47-8.109-10.682-10.682a1.307,1.307,0,0,1,0-2.415c6.213-2.574,8.109-4.471,10.682-10.682a1.307,1.307,0,0,1,2.415,0c2.573,6.212,4.47,8.109,10.682,10.682a1.307,1.307,0,0,1,0,2.415c-6.212,2.573-8.109,4.47-10.682,10.682a1.307,1.307,0,0,1-1.207.807Z" transform="translate(-190.448 -21.803)" fill="#ff9518"/>
    <path id="Path_1702" data-name="Path 1702" d="M371.355,74.62c-2.573-6.212-4.47-8.109-10.682-10.682a1.307,1.307,0,0,1-.682-.651c-.6.279-1.232.56-1.931.849a1.307,1.307,0,0,0,0,2.415c6.212,2.573,8.109,4.47,10.682,10.682a1.307,1.307,0,0,0,2.415,0c.289-.7.57-1.335.849-1.93A1.305,1.305,0,0,1,371.355,74.62Z" transform="translate(-190.447 -34.809)" fill="#ef8318"/>
  </g>
</svg>
