<svg xmlns="http://www.w3.org/2000/svg" width="219.021" height="245.388" viewBox="0 0 219.021 245.388">
  <g id="phone" transform="translate(-27.508)">
    <g id="Group_572" data-name="Group 572" transform="translate(27.507 0)">
      <path id="Path_1721" data-name="Path 1721" d="M275.416,152.365a95.493,95.493,0,0,1-95.385,95.385c-.278,0-.551,0-.829,0a94.431,94.431,0,0,1-40.786-9.528l.11-.23a92.649,92.649,0,0,1,.585-170.041l-.695-1.433A94.43,94.43,0,0,1,179.2,56.985c.278,0,.551,0,.829,0A95.493,95.493,0,0,1,275.416,152.365Z" transform="translate(-56.395 -29.671)" fill="#445ea0"/>
      <path id="Path_1722" data-name="Path 1722" d="M379.957,152.365a95.493,95.493,0,0,1-95.385,95.385c-.278,0-.551,0-.829,0V56.985c.278,0,.551,0,.829,0A95.493,95.493,0,0,1,379.957,152.365Z" transform="translate(-160.936 -29.671)" fill="#1a2b63"/>
      <path id="Path_1723" data-name="Path 1723" d="M90.642,122.694v.359a212.461,212.461,0,0,0,3.791,40.724h32.883v81.611H86.357c-16.8,0-32.106-13.525-43.091-38.083C33.1,184.582,27.507,154.537,27.507,122.694c0-31.464,5.483-61.261,15.437-83.892C53.661,14.436,68.648.657,85.149,0l.283,0h41.884V81.611H94.572A212.178,212.178,0,0,0,90.642,122.694Z" transform="translate(-27.507 0)" fill="#80ecff"/>
      <path id="Path_1724" data-name="Path 1724" d="M94.433,297.083h32.883v81.611H86.357c-16.8,0-32.106-13.525-43.091-38.083C33.1,317.888,27.507,287.843,27.507,256H90.642v.359A212.462,212.462,0,0,0,94.433,297.083Z" transform="translate(-27.507 -133.306)" fill="#00bcd4"/>
      <g id="Group_571" data-name="Group 571" transform="translate(75.612 91.972)">
        <path id="Path_1725" data-name="Path 1725" d="M185.271,244.647a41.231,41.231,0,0,1,.636-7.626,20.181,20.181,0,0,1,2.179-6.128,19.941,19.941,0,0,1,4.176-5.13,38.22,38.22,0,0,1,6.627-4.63q4.266-2.359,7.126-3.9a46.621,46.621,0,0,0,4.539-2.724,11.063,11.063,0,0,0,2.406-2.133,3.572,3.572,0,0,0,.726-2.225,5.1,5.1,0,0,0-1.815-4.085,7.773,7.773,0,0,0-5.175-1.544,11.74,11.74,0,0,0-6.627,1.862,27.562,27.562,0,0,0-5.447,4.857l-9.261-10.713a18.1,18.1,0,0,1,3.9-3.178,33.7,33.7,0,0,1,5.538-2.769,38.579,38.579,0,0,1,6.763-1.952,39.548,39.548,0,0,1,7.671-.727q9.805,0,15.025,4.267a15.392,15.392,0,0,1,4.267,16.886,15.829,15.829,0,0,1-2.5,4.222,19.535,19.535,0,0,1-3.449,3.268,45.528,45.528,0,0,1-3.9,2.587q-1.362.817-3.269,1.907t-3.768,2.225q-1.862,1.136-3.449,2.269a15.161,15.161,0,0,0-2.406,2.043h24.694v13.073Z" transform="translate(-185.271 -191.9)" fill="#edf5ff"/>
        <path id="Path_1726" data-name="Path 1726" d="M316.121,257.164V244.726H291.155V231.744l29.6-37.949h9.9v37.858h7.989v13.073h-7.989v12.438H316.121ZM305.5,231.653h12.347V215.584Z" transform="translate(-240.408 -192.887)" fill="#f9f9f9"/>
      </g>
    </g>
  </g>
</svg>
