<svg xmlns="http://www.w3.org/2000/svg" width="244.1" height="235.87" viewBox="0 0 244.1 235.87">
  <g id="uptime" transform="translate(-24 -15.632)">
    <g id="Group_569" data-name="Group 569" transform="translate(24 15.632)">
      <g id="Group_567" data-name="Group 567" transform="translate(4.07 6.705)">
        <path id="Path_1703" data-name="Path 1703" d="M245.932,160.781a93.563,93.563,0,0,1-93.562,93.562c-2.075,0-4.109-.082-6.1-.2a93.562,93.562,0,0,1,0-186.718c1.993-.122,4.027-.2,6.1-.2A93.563,93.563,0,0,1,245.932,160.781Z" transform="translate(-34.4 -45.518)" fill="#303b7a"/>
        <ellipse id="Ellipse_276" data-name="Ellipse 276" cx="87.46" cy="93.359" rx="87.46" ry="93.359" transform="translate(24.408 21.904)" fill="#1a2b63"/>
        <path id="Path_1704" data-name="Path 1704" d="M243.477,376.5H219.069v-20.34s-31.2-24.408-93.562-24.408-93.562,24.408-93.562,24.408V376.5H7.537l8.136,16.272L7.537,409.043H56.353V380.568l-.122-.326a191.866,191.866,0,0,1,69.277-11.878,191.868,191.868,0,0,1,69.277,11.878l-.122.326v28.475h48.815l-8.136-16.272Z" transform="translate(-7.537 -183.946)" fill="#00bcd4"/>
        <path id="Path_1705" data-name="Path 1705" d="M7.538,458.163l8.136-16.272L7.538,425.62H31.946v16.272l24.408,16.272Z" transform="translate(-7.538 -233.066)" fill="#00838f"/>
        <g id="Group_566" data-name="Group 566" transform="translate(24.408 196.296)">
          <path id="Path_1706" data-name="Path 1706" d="M83.146,433.8v28.475L58.738,446A100.843,100.843,0,0,1,83.024,433.47Z" transform="translate(-58.738 -433.47)" fill="#00838f"/>
          <path id="Path_1707" data-name="Path 1707" d="M424.479,446l-24.408,16.272V433.8l.122-.326A100.848,100.848,0,0,1,424.479,446Z" transform="translate(-237.354 -433.47)" fill="#00838f"/>
        </g>
        <path id="Path_1708" data-name="Path 1708" d="M440.75,441.892l8.136,16.272H400.071l24.408-16.272V425.62h24.408Z" transform="translate(-212.946 -233.066)" fill="#00838f"/>
        <path id="Path_1709" data-name="Path 1709" d="M247.754,67.806h-12.2V96.281a4.068,4.068,0,0,1-4.068,4.068H207.075a4.068,4.068,0,0,1-4.068-4.068V67.806H190.641a4.068,4.068,0,0,1-3.092-6.509l25.628-34.171,2.847-3.783a4.04,4.04,0,0,1,6.509,0L251.008,61.3a4.068,4.068,0,0,1-3.254,6.509Z" transform="translate(-101.308 -21.697)" fill="#00838f"/>
        <path id="Path_1710" data-name="Path 1710" d="M235.55,73.766h-12.2v28.475a4.068,4.068,0,0,1-4.068,4.068h-12.2a4.068,4.068,0,0,1-4.068-4.068V73.766H190.641a4.068,4.068,0,0,1-3.092-6.509l25.628-34.171L238.8,67.258a4.068,4.068,0,0,1-3.254,6.509Z" transform="translate(-101.308 -27.657)" fill="#00bcd4"/>
        <path id="Path_1711" data-name="Path 1711" d="M410.591,364.466v36.611a79.294,79.294,0,0,0-12.2-7.241V360.4a103.736,103.736,0,0,0-24.855-12.773A117.613,117.613,0,0,1,410.591,364.466Z" transform="translate(-199.059 -192.252)" fill="#00838f"/>
      </g>
      <g id="Group_568" data-name="Group 568">
        <path id="Path_1712" data-name="Path 1712" d="M.608,242.574A4.069,4.069,0,0,0,4.07,244.5H52.885a4.175,4.175,0,0,0,1.412-.285c.09-.037.179-.061.268-.1a4.1,4.1,0,0,0,1.123-.757c.065-.061.11-.134.171-.2a4.46,4.46,0,0,0,.407-.468,3.534,3.534,0,0,0,.138-.342,3.744,3.744,0,0,0,.309-.757,3.908,3.908,0,0,0,.163-.814q.047-.171.077-.346V214.449c3.1-1.123,6.391-2.233,10.044-3.287a97.288,97.288,0,0,0,110.054.024c3.661,1.058,6.969,2.172,10.076,3.3v25.949a3.439,3.439,0,0,0,.073.362,3.918,3.918,0,0,0,.163.814,3.743,3.743,0,0,0,.309.757,3.534,3.534,0,0,0,.138.342,4.511,4.511,0,0,0,.407.468c.061.065.106.138.171.2a4.106,4.106,0,0,0,1.123.757c.09.041.179.065.268.1a4.178,4.178,0,0,0,1.416.268h48.815a4.068,4.068,0,0,0,3.661-5.886l-7.249-14.453,7.249-14.453a4.068,4.068,0,0,0-3.661-5.886h-20.34V187.552a4.067,4.067,0,0,0-1.562-3.205,77.532,77.532,0,0,0-10.674-6.558A97.427,97.427,0,0,0,144.381,35.635L125.294,10.19a3.458,3.458,0,0,0-.431-.382,4.379,4.379,0,0,0-.382-.431,2.025,2.025,0,0,0-.212-.1,3.672,3.672,0,0,0-.765-.366,3.633,3.633,0,0,0-.692-.24,7.35,7.35,0,0,0-1.546,0,3.985,3.985,0,0,0-.692.24,4.233,4.233,0,0,0-.765.362c-.065.045-.146.053-.212.1a3.813,3.813,0,0,0-.387.431,4.709,4.709,0,0,0-.427.382L99.71,35.618a97.427,97.427,0,0,0-63.064,142.17,77.459,77.459,0,0,0-10.674,6.574,4.069,4.069,0,0,0-1.562,3.189v16.272H4.07A4.068,4.068,0,0,0,.43,209.709l7.229,14.453L.429,238.616A4.068,4.068,0,0,0,.608,242.574Zm48.209-9.739-12.96-8.644a111.72,111.72,0,0,1,12.96-6.537v15.181Zm73.223-12.741a88.746,88.746,0,0,1-44.068-11.663,204.928,204.928,0,0,1,44.068-4.609,204.056,204.056,0,0,1,44.035,4.629A88.789,88.789,0,0,1,122.04,220.094Zm86.167,4.108-12.944,8.632V217.654A112.451,112.451,0,0,1,208.206,224.2Zm25.221-12.244-5.195,10.386a4.068,4.068,0,0,0,0,3.637l5.195,10.386H204.619l13.229-8.819c.061-.04.09-.106.146-.151a3.947,3.947,0,0,0,.883-.883c.037-.053.09-.1.126-.151a4.1,4.1,0,0,0,.525-1.277q.036-.186.053-.374a4.03,4.03,0,0,0,.09-.549v-12.2h13.757ZM32.545,130.6A89.954,89.954,0,0,1,91.5,46.569L82.174,59a4.068,4.068,0,0,0,3.254,6.509H101.7V93.989a4.068,4.068,0,1,0,8.136,0V61.445a4.068,4.068,0,0,0-4.068-4.068h-12.2l28.475-37.966,28.475,37.966h-12.2a4.068,4.068,0,0,0-4.068,4.068V93.989a4.068,4.068,0,1,0,8.136,0V65.514H158.65a4.068,4.068,0,0,0,3.254-6.509L152.576,46.57A89.955,89.955,0,0,1,211.533,130.6,89.016,89.016,0,0,1,200.1,174.217a189.827,189.827,0,0,0-78.064-15.141,189.829,189.829,0,0,0-78.064,15.141A89.035,89.035,0,0,1,32.545,130.6Zm0,59.054c6.916-4.658,36.843-22.443,89.494-22.443,52.476,0,82.546,17.805,89.494,22.451v26.987c-12.354-7.233-42.046-20.962-89.494-20.962S44.9,209.416,32.545,216.649V189.654ZM15.867,222.344l-5.215-10.386H24.409v12.2a4.1,4.1,0,0,0,.077.549q.017.188.053.374a4.085,4.085,0,0,0,.525,1.277c.037.053.09.1.126.151a3.937,3.937,0,0,0,.883.883c.057.045.085.11.146.151l13.241,8.819H10.652l5.215-10.386A4.067,4.067,0,0,0,15.867,222.344Z" transform="translate(0 -8.632)" fill="#f9f9f9"/>
        <path id="Path_1713" data-name="Path 1713" d="M148.341,254.361h-4.068V225.886a4.068,4.068,0,0,0-5.886-3.641l-8.136,4.068a4.07,4.07,0,1,0,3.637,7.282l2.25-1.127v21.893h-4.068a4.068,4.068,0,1,0,0,8.136h16.272a4.068,4.068,0,0,0,0-8.136Z" transform="translate(-66.98 -120.189)" fill="#f9f9f9"/>
        <path id="Path_1714" data-name="Path 1714" d="M208.077,221.82h-12.2a8.136,8.136,0,0,0-8.136,8.136v24.408a8.136,8.136,0,0,0,8.136,8.136h12.2a8.136,8.136,0,0,0,8.136-8.136V229.956A8.136,8.136,0,0,0,208.077,221.82Zm-12.2,32.543V229.956h12.2v24.408Z" transform="translate(-98.241 -120.191)" fill="#f9f9f9"/>
        <path id="Path_1715" data-name="Path 1715" d="M264.14,262.5h12.2a8.136,8.136,0,0,0,8.136-8.136V229.955a8.136,8.136,0,0,0-8.136-8.136h-12.2A8.136,8.136,0,0,0,256,229.955v24.408A8.136,8.136,0,0,0,264.14,262.5Zm0-32.544h12.2v24.408h-12.2Z" transform="translate(-133.964 -120.191)" fill="#f9f9f9"/>
        <path id="Path_1716" data-name="Path 1716" d="M335.326,238.186a3.831,3.831,0,0,0,3.091,0,4.7,4.7,0,0,0,1.342-.854,4.279,4.279,0,0,0,1.18-2.888,5.555,5.555,0,0,0-.082-.814,2.6,2.6,0,0,0-.244-.732,2.27,2.27,0,0,0-.366-.692c-.163-.244-.326-.448-.488-.651a4.7,4.7,0,0,0-1.342-.854,4.069,4.069,0,0,0-3.091,0,4.7,4.7,0,0,0-1.342.854c-.163.2-.326.407-.488.651a2.263,2.263,0,0,0-.366.692,2.581,2.581,0,0,0-.244.732,5.545,5.545,0,0,0-.082.814,4.28,4.28,0,0,0,1.18,2.888A4.7,4.7,0,0,0,335.326,238.186Z" transform="translate(-174.153 -124.678)" fill="#f9f9f9"/>
        <path id="Path_1717" data-name="Path 1717" d="M391.814,284.055a2.27,2.27,0,0,0-.366-.692c-.163-.244-.326-.448-.488-.651a4.7,4.7,0,0,0-1.342-.854,4.065,4.065,0,0,0-3.091,0,4.7,4.7,0,0,0-1.342.854c-.163.2-.326.407-.488.651a2.266,2.266,0,0,0-.366.692,2.579,2.579,0,0,0-.244.732,5.548,5.548,0,0,0-.082.814,4.28,4.28,0,0,0,1.18,2.888,4.7,4.7,0,0,0,1.342.854,3.831,3.831,0,0,0,3.091,0,4.7,4.7,0,0,0,1.342-.854,4.279,4.279,0,0,0,1.18-2.888,5.551,5.551,0,0,0-.082-.814A2.578,2.578,0,0,0,391.814,284.055Z" transform="translate(-200.946 -151.448)" fill="#f9f9f9"/>
        <path id="Path_1718" data-name="Path 1718" d="M336.874,262.952a4.067,4.067,0,0,0,2.876-1.192l24.408-24.408a4.068,4.068,0,0,0-5.752-5.752L334,256.008a4.068,4.068,0,0,0,2.876,6.944Z" transform="translate(-174.154 -124.711)" fill="#f9f9f9"/>
      </g>
    </g>
  </g>
</svg>
