<svg xmlns="http://www.w3.org/2000/svg" xmlns:xlink="http://www.w3.org/1999/xlink" width="223" height="223" viewBox="0 0 223 223"><defs><clipPath id="a"><circle cx="111.5" cy="111.5" r="111.5" transform="translate(2041 2768)" fill="#fff"/></clipPath></defs><g transform="translate(-2041 -2768)" clip-path="url(#a)"><g transform="translate(2041 2768)"><path d="M153.793,107.655a7.692,7.692,0,0,1-7.69-7.69V52.293c0-18.236-16.387-33.069-36.526-33.069S73.052,34.057,73.052,52.293v12.38a7.69,7.69,0,0,1-15.379,0V52.293c0-26.718,23.284-48.449,51.905-48.449s51.905,21.731,51.905,48.449V99.966A7.692,7.692,0,0,1,153.793,107.655Z" fill="#c7cac7" stroke="#c7cac7" stroke-miterlimit="10" stroke-width="7.69"/><rect width="161.483" height="123.034" transform="translate(30.759 99.966)" fill="#7383bf"/><rect width="80.741" height="123.034" transform="translate(111.5 99.966)" fill="#6879af"/><path d="M163.736,219.155,188.4,194.494V180.707H166.919l-38.448,38.448Z" fill="#ebba16"/><path d="M34.6,180.707v29.167L63.77,180.707Z" fill="#4f5970"/><path d="M117.6,219.155l38.448-38.448H120.781L82.333,219.155Z" fill="#424a60"/><path d="M109.908,180.707H74.643L37.322,218.029a3.834,3.834,0,0,1-2.718,1.127H71.46Z" fill="#eacc18"/><path d="M188.4,219.155V205.368l-13.788,13.788Z" fill="#424a60"/><path d="M111.5,189.988,82.333,219.155H111.5Z" fill="#4f5970"/></g></g></svg>