<?xml version="1.0"?>
<svg xmlns="http://www.w3.org/2000/svg" xmlns:xlink="http://www.w3.org/1999/xlink" version="1.1" id="Capa_1" x="0px" y="0px" viewBox="0 0 512 512" style="enable-background:new 0 0 512 512;" xml:space="preserve" width="512px" height="512px" class=""><g><g>
	<g>
		<g>
			<circle cx="291" cy="293.5" r="25" data-original="#000000" class="active-path" data-old_color="#000000" fill="#C3BCBC"/>
			<circle cx="361" cy="293.5" r="25" data-original="#000000" class="active-path" data-old_color="#000000" fill="#C3BCBC"/>
			<circle cx="221" cy="293.5" r="25" data-original="#000000" class="active-path" data-old_color="#000000" fill="#C3BCBC"/>
			<circle cx="151" cy="293.5" r="25" data-original="#000000" class="active-path" data-old_color="#000000" fill="#C3BCBC"/>
			<path d="M492,76H20C8.954,76,0,84.954,0,96v320c0,11.046,8.954,20,20,20h472c11.046,0,20-8.954,20-20V96     C512,84.954,503.046,76,492,76z M472,396H40V116h432V396z" data-original="#000000" class="active-path" data-old_color="#000000" fill="#C3BCBC"/>
			<path d="M151,213.5h210c11.046,0,20-8.954,20-20s-8.954-20-20-20H151c-11.046,0-20,8.954-20,20S139.954,213.5,151,213.5z" data-original="#000000" class="active-path" data-old_color="#000000" fill="#C3BCBC"/>
		</g>
	</g>
</g></g> </svg>
